G04*
G04 #@! TF.GenerationSoftware,Altium Limited,Altium Designer,19.1.5 (86)*
G04*
G04 Layer_Physical_Order=2*
G04 Layer_Color=16711680*
%FSLAX25Y25*%
%MOIN*%
G70*
G01*
G75*
%ADD10C,0.01000*%
%ADD20R,0.04134X0.03937*%
%ADD22R,0.03937X0.03740*%
%ADD55C,0.05906*%
%ADD56R,0.05906X0.05906*%
%ADD57R,0.05906X0.05906*%
%ADD58R,0.03937X0.03937*%
%ADD59C,0.03937*%
%ADD60C,0.07000*%
%ADD61R,0.07000X0.07000*%
%ADD62C,0.06500*%
%ADD63C,0.06008*%
%ADD64C,0.06102*%
%ADD65C,0.07284*%
%ADD66R,0.07284X0.07284*%
%ADD67R,0.04874X0.04874*%
%ADD68C,0.04874*%
%ADD69O,0.10400X0.05200*%
G04:AMPARAMS|DCode=70|XSize=61.02mil|YSize=61.02mil|CornerRadius=1.83mil|HoleSize=0mil|Usage=FLASHONLY|Rotation=90.000|XOffset=0mil|YOffset=0mil|HoleType=Round|Shape=RoundedRectangle|*
%AMROUNDEDRECTD70*
21,1,0.06102,0.05736,0,0,90.0*
21,1,0.05736,0.06102,0,0,90.0*
1,1,0.00366,0.02868,0.02868*
1,1,0.00366,0.02868,-0.02868*
1,1,0.00366,-0.02868,-0.02868*
1,1,0.00366,-0.02868,0.02868*
%
%ADD70ROUNDEDRECTD70*%
%ADD71C,0.02500*%
%ADD72C,0.26600*%
%ADD73R,0.01181X0.05807*%
G36*
X686767Y426452D02*
X686653Y426371D01*
X686267Y426264D01*
X655665Y456865D01*
X655556Y456938D01*
X655316Y457265D01*
X655428Y457579D01*
X655530Y457732D01*
X655623Y458200D01*
Y470872D01*
X655806Y470994D01*
X656237Y471639D01*
X656388Y472400D01*
X656237Y473161D01*
X655806Y473806D01*
X655161Y474237D01*
X654400Y474388D01*
X653639Y474237D01*
X652994Y473806D01*
X652563Y473161D01*
X652412Y472400D01*
X652563Y471639D01*
X652994Y470994D01*
X653176Y470872D01*
Y466190D01*
X648853D01*
X648588Y466690D01*
X648633Y466758D01*
X649161Y466863D01*
X649806Y467294D01*
X650237Y467939D01*
X650388Y468700D01*
X650237Y469461D01*
X649806Y470106D01*
X649161Y470537D01*
X648400Y470688D01*
X647639Y470537D01*
X646994Y470106D01*
X646563Y469461D01*
X646423Y468759D01*
X645924Y468808D01*
Y473396D01*
X649404Y476876D01*
X655793D01*
X670055Y462615D01*
X670012Y462400D01*
X670163Y461639D01*
X670594Y460994D01*
X671239Y460563D01*
X672000Y460412D01*
X672761Y460563D01*
X673406Y460994D01*
X673837Y461639D01*
X673988Y462400D01*
X673837Y463161D01*
X673406Y463806D01*
X672761Y464237D01*
X672000Y464388D01*
X671785Y464345D01*
X657165Y478965D01*
X656768Y479230D01*
X656300Y479323D01*
X648897D01*
X648429Y479230D01*
X648032Y478965D01*
X643835Y474768D01*
X643570Y474371D01*
X643476Y473903D01*
Y466190D01*
X628575D01*
Y466490D01*
X627484D01*
Y462587D01*
Y458683D01*
X628575D01*
Y458983D01*
X641509D01*
Y458000D01*
X641602Y457532D01*
X641867Y457135D01*
X643867Y455135D01*
X644264Y454870D01*
X644732Y454776D01*
X654293D01*
X684276Y424793D01*
Y369507D01*
X680491Y365721D01*
X679596Y366092D01*
X678500Y366236D01*
X677404Y366092D01*
X676382Y365669D01*
X675504Y364996D01*
X674831Y364118D01*
X674408Y363096D01*
X674264Y362000D01*
X674408Y360904D01*
X674831Y359882D01*
X675504Y359004D01*
X676382Y358331D01*
X677404Y357908D01*
X678500Y357764D01*
X679596Y357908D01*
X680618Y358331D01*
X681496Y359004D01*
X682169Y359882D01*
X682592Y360904D01*
X682736Y362000D01*
X682592Y363096D01*
X682221Y363991D01*
X686267Y368036D01*
X686653Y367929D01*
X686767Y367848D01*
Y211000D01*
X258000D01*
X257733Y211267D01*
Y555767D01*
X686767D01*
Y426452D01*
D02*
G37*
%LPC*%
G36*
X418453Y523453D02*
X415000D01*
Y520000D01*
X418453D01*
Y523453D01*
D02*
G37*
G36*
X414000D02*
X410547D01*
Y520000D01*
X414000D01*
Y523453D01*
D02*
G37*
G36*
X663000Y544043D02*
X660803Y543870D01*
X658660Y543356D01*
X656625Y542513D01*
X654746Y541361D01*
X653070Y539930D01*
X651639Y538254D01*
X650487Y536376D01*
X649644Y534340D01*
X649130Y532197D01*
X648957Y530000D01*
X649130Y527803D01*
X649644Y525660D01*
X650487Y523625D01*
X651639Y521746D01*
X653070Y520070D01*
X654746Y518639D01*
X656625Y517487D01*
X658660Y516644D01*
X660803Y516130D01*
X663000Y515957D01*
X665197Y516130D01*
X667340Y516644D01*
X669376Y517487D01*
X671254Y518639D01*
X672930Y520070D01*
X674361Y521746D01*
X675513Y523625D01*
X676356Y525660D01*
X676870Y527803D01*
X677043Y530000D01*
X676870Y532197D01*
X676356Y534340D01*
X675513Y536376D01*
X674361Y538254D01*
X672930Y539930D01*
X671254Y541361D01*
X669376Y542513D01*
X667340Y543356D01*
X665197Y543870D01*
X663000Y544043D01*
D02*
G37*
G36*
X278500D02*
X276303Y543870D01*
X274160Y543356D01*
X272125Y542513D01*
X270246Y541361D01*
X268570Y539930D01*
X267139Y538254D01*
X265987Y536376D01*
X265144Y534340D01*
X264630Y532197D01*
X264457Y530000D01*
X264630Y527803D01*
X265144Y525660D01*
X265987Y523625D01*
X267139Y521746D01*
X268570Y520070D01*
X270246Y518639D01*
X272125Y517487D01*
X274160Y516644D01*
X276303Y516130D01*
X278500Y515957D01*
X280697Y516130D01*
X282840Y516644D01*
X284875Y517487D01*
X286754Y518639D01*
X288430Y520070D01*
X289861Y521746D01*
X291013Y523625D01*
X291856Y525660D01*
X292370Y527803D01*
X292543Y530000D01*
X292370Y532197D01*
X291856Y534340D01*
X291013Y536376D01*
X289861Y538254D01*
X288430Y539930D01*
X286754Y541361D01*
X284875Y542513D01*
X282840Y543356D01*
X280697Y543870D01*
X278500Y544043D01*
D02*
G37*
G36*
X418453Y519000D02*
X415000D01*
Y515547D01*
X418453D01*
Y519000D01*
D02*
G37*
G36*
X414000D02*
X410547D01*
Y515547D01*
X414000D01*
Y519000D01*
D02*
G37*
G36*
X627900Y539524D02*
X555100D01*
X554632Y539430D01*
X554235Y539165D01*
X530393Y515323D01*
X514409D01*
X514370Y515360D01*
X514389Y515593D01*
X514536Y515886D01*
X514954Y515941D01*
X515842Y516309D01*
X516605Y516895D01*
X517191Y517658D01*
X517559Y518546D01*
X517684Y519500D01*
X517559Y520454D01*
X517191Y521342D01*
X516605Y522105D01*
X515842Y522691D01*
X514954Y523059D01*
X514000Y523184D01*
X513046Y523059D01*
X512428Y522802D01*
X510665Y524565D01*
X510268Y524830D01*
X509800Y524924D01*
X448700D01*
X448232Y524830D01*
X447835Y524565D01*
X446072Y522802D01*
X445454Y523059D01*
X444500Y523184D01*
X443546Y523059D01*
X442658Y522691D01*
X441895Y522105D01*
X441309Y521342D01*
X440941Y520454D01*
X440816Y519500D01*
X440941Y518546D01*
X441309Y517658D01*
X441895Y516895D01*
X442658Y516309D01*
X443107Y516123D01*
X443007Y515624D01*
X440107D01*
X437803Y517928D01*
X438059Y518546D01*
X438184Y519500D01*
X438059Y520454D01*
X437691Y521342D01*
X437105Y522105D01*
X436342Y522691D01*
X435454Y523059D01*
X434500Y523184D01*
X433546Y523059D01*
X432658Y522691D01*
X431895Y522105D01*
X431309Y521342D01*
X430941Y520454D01*
X430816Y519500D01*
X430941Y518546D01*
X431309Y517658D01*
X431895Y516895D01*
X432658Y516309D01*
X433546Y515941D01*
X434500Y515816D01*
X435454Y515941D01*
X436072Y516197D01*
X438735Y513535D01*
X439132Y513270D01*
X439600Y513176D01*
X489393D01*
X499835Y502735D01*
X500232Y502470D01*
X500700Y502377D01*
X638493D01*
X639956Y500914D01*
X639739Y500423D01*
X445307D01*
X427803Y517928D01*
X428059Y518546D01*
X428184Y519500D01*
X428059Y520454D01*
X427691Y521342D01*
X427105Y522105D01*
X426342Y522691D01*
X425454Y523059D01*
X424500Y523184D01*
X423546Y523059D01*
X422658Y522691D01*
X421895Y522105D01*
X421309Y521342D01*
X420941Y520454D01*
X420816Y519500D01*
X420941Y518546D01*
X421309Y517658D01*
X421895Y516895D01*
X422658Y516309D01*
X423546Y515941D01*
X424500Y515816D01*
X425454Y515941D01*
X426072Y516197D01*
X443935Y498335D01*
X444332Y498070D01*
X444800Y497976D01*
X574677D01*
X574913Y497536D01*
X574863Y497461D01*
X574712Y496700D01*
X574863Y495939D01*
X575294Y495294D01*
X575939Y494863D01*
X576700Y494712D01*
X577461Y494863D01*
X578106Y495294D01*
X578228Y495476D01*
X598135D01*
Y488810D01*
X597645Y488786D01*
X597145D01*
X593212Y492718D01*
X592815Y492983D01*
X592347Y493076D01*
X476853D01*
X476385Y492983D01*
X475988Y492718D01*
X472923Y489653D01*
X467347D01*
Y482347D01*
X474653D01*
Y487922D01*
X477360Y490629D01*
X591840D01*
X595773Y486697D01*
X596170Y486432D01*
X596638Y486339D01*
X602000D01*
X602468Y486432D01*
X602865Y486697D01*
X602960Y486792D01*
X603448Y486700D01*
X603502Y486627D01*
X603925Y485994D01*
X604570Y485563D01*
X605331Y485412D01*
X606091Y485563D01*
X606737Y485994D01*
X607167Y486639D01*
X607319Y487400D01*
X607167Y488161D01*
X607068Y488310D01*
X607335Y488810D01*
X647452D01*
X647507Y488532D01*
X647773Y488135D01*
X648773Y487135D01*
X649170Y486870D01*
X649638Y486776D01*
X653400D01*
X653868Y486870D01*
X654265Y487135D01*
X655265Y488135D01*
X655530Y488532D01*
X655623Y489000D01*
Y511800D01*
X655530Y512268D01*
X655265Y512665D01*
X628765Y539165D01*
X628368Y539430D01*
X627900Y539524D01*
D02*
G37*
G36*
X427100Y511495D02*
Y509800D01*
X428795D01*
X428719Y510178D01*
X428222Y510922D01*
X427478Y511419D01*
X427100Y511495D01*
D02*
G37*
G36*
X426100D02*
X425722Y511419D01*
X424978Y510922D01*
X424481Y510178D01*
X424405Y509800D01*
X426100D01*
Y511495D01*
D02*
G37*
G36*
Y508800D02*
X424405D01*
X424481Y508422D01*
X424978Y507678D01*
X425722Y507181D01*
X426100Y507105D01*
Y508800D01*
D02*
G37*
G36*
X501500Y489921D02*
Y486500D01*
X504921D01*
X504851Y487032D01*
X504453Y487993D01*
X503819Y488819D01*
X502993Y489453D01*
X502032Y489851D01*
X501500Y489921D01*
D02*
G37*
G36*
X500500D02*
X499968Y489851D01*
X499007Y489453D01*
X498181Y488819D01*
X497547Y487993D01*
X497149Y487032D01*
X497079Y486500D01*
X500500D01*
Y489921D01*
D02*
G37*
G36*
X541000Y489684D02*
X540046Y489559D01*
X539158Y489191D01*
X538395Y488605D01*
X537809Y487842D01*
X537441Y486954D01*
X537316Y486000D01*
X537441Y485046D01*
X537809Y484158D01*
X538395Y483395D01*
X539158Y482809D01*
X540046Y482441D01*
X541000Y482316D01*
X541954Y482441D01*
X542842Y482809D01*
X543605Y483395D01*
X544191Y484158D01*
X544559Y485046D01*
X544684Y486000D01*
X544559Y486954D01*
X544191Y487842D01*
X543605Y488605D01*
X542842Y489191D01*
X541954Y489559D01*
X541000Y489684D01*
D02*
G37*
G36*
X531000D02*
X530046Y489559D01*
X529158Y489191D01*
X528395Y488605D01*
X527809Y487842D01*
X527441Y486954D01*
X527316Y486000D01*
X527441Y485046D01*
X527809Y484158D01*
X528395Y483395D01*
X529158Y482809D01*
X530046Y482441D01*
X531000Y482316D01*
X531954Y482441D01*
X532842Y482809D01*
X533605Y483395D01*
X534191Y484158D01*
X534559Y485046D01*
X534684Y486000D01*
X534559Y486954D01*
X534191Y487842D01*
X533605Y488605D01*
X532842Y489191D01*
X531954Y489559D01*
X531000Y489684D01*
D02*
G37*
G36*
X521000D02*
X520046Y489559D01*
X519158Y489191D01*
X518395Y488605D01*
X517809Y487842D01*
X517441Y486954D01*
X517316Y486000D01*
X517441Y485046D01*
X517809Y484158D01*
X518395Y483395D01*
X519158Y482809D01*
X520046Y482441D01*
X521000Y482316D01*
X521954Y482441D01*
X522842Y482809D01*
X523605Y483395D01*
X524191Y484158D01*
X524559Y485046D01*
X524684Y486000D01*
X524559Y486954D01*
X524191Y487842D01*
X523605Y488605D01*
X522842Y489191D01*
X521954Y489559D01*
X521000Y489684D01*
D02*
G37*
G36*
X511000D02*
X510046Y489559D01*
X509158Y489191D01*
X508395Y488605D01*
X507809Y487842D01*
X507441Y486954D01*
X507316Y486000D01*
X507441Y485046D01*
X507809Y484158D01*
X508395Y483395D01*
X509158Y482809D01*
X510046Y482441D01*
X511000Y482316D01*
X511954Y482441D01*
X512842Y482809D01*
X513605Y483395D01*
X514191Y484158D01*
X514559Y485046D01*
X514684Y486000D01*
X514559Y486954D01*
X514191Y487842D01*
X513605Y488605D01*
X512842Y489191D01*
X511954Y489559D01*
X511000Y489684D01*
D02*
G37*
G36*
X491000D02*
X490046Y489559D01*
X489158Y489191D01*
X488395Y488605D01*
X487809Y487842D01*
X487441Y486954D01*
X487316Y486000D01*
X487441Y485046D01*
X487809Y484158D01*
X488395Y483395D01*
X489158Y482809D01*
X490046Y482441D01*
X491000Y482316D01*
X491954Y482441D01*
X492842Y482809D01*
X493605Y483395D01*
X494191Y484158D01*
X494559Y485046D01*
X494684Y486000D01*
X494559Y486954D01*
X494191Y487842D01*
X493605Y488605D01*
X492842Y489191D01*
X491954Y489559D01*
X491000Y489684D01*
D02*
G37*
G36*
X481000D02*
X480046Y489559D01*
X479158Y489191D01*
X478395Y488605D01*
X477809Y487842D01*
X477441Y486954D01*
X477316Y486000D01*
X477441Y485046D01*
X477809Y484158D01*
X478395Y483395D01*
X479158Y482809D01*
X480046Y482441D01*
X481000Y482316D01*
X481954Y482441D01*
X482842Y482809D01*
X483605Y483395D01*
X484191Y484158D01*
X484559Y485046D01*
X484684Y486000D01*
X484559Y486954D01*
X484191Y487842D01*
X483605Y488605D01*
X482842Y489191D01*
X481954Y489559D01*
X481000Y489684D01*
D02*
G37*
G36*
X504921Y485500D02*
X501500D01*
Y482079D01*
X502032Y482149D01*
X502993Y482547D01*
X503819Y483181D01*
X504453Y484007D01*
X504851Y484968D01*
X504921Y485500D01*
D02*
G37*
G36*
X428830Y508800D02*
X427100D01*
Y507070D01*
X454635Y479535D01*
X455032Y479270D01*
X455500Y479177D01*
X495400D01*
X495868Y479270D01*
X496265Y479535D01*
X499198Y482468D01*
X499968Y482149D01*
X500500Y482079D01*
Y485500D01*
X497079D01*
X497149Y484968D01*
X497468Y484198D01*
X494893Y481624D01*
X456007D01*
X428830Y508800D01*
D02*
G37*
G36*
X571653Y488653D02*
X564347D01*
Y481347D01*
X569922D01*
X570335Y480935D01*
X570732Y480670D01*
X571162Y480584D01*
X571255Y480442D01*
X571346Y480077D01*
X569572Y478302D01*
X568954Y478559D01*
X568000Y478684D01*
X567046Y478559D01*
X566158Y478191D01*
X565395Y477605D01*
X564809Y476842D01*
X564441Y475954D01*
X564316Y475000D01*
X564441Y474046D01*
X564809Y473158D01*
X565395Y472395D01*
X566158Y471809D01*
X567046Y471441D01*
X568000Y471316D01*
X568954Y471441D01*
X569842Y471809D01*
X570605Y472395D01*
X571191Y473158D01*
X571559Y474046D01*
X571684Y475000D01*
X571559Y475954D01*
X571303Y476572D01*
X572807Y478077D01*
X578639D01*
X578846Y477576D01*
X569572Y468302D01*
X568954Y468559D01*
X568000Y468684D01*
X567046Y468559D01*
X566158Y468191D01*
X565395Y467605D01*
X564809Y466842D01*
X564441Y465954D01*
X564316Y465000D01*
X564441Y464046D01*
X564809Y463158D01*
X565395Y462395D01*
X566158Y461809D01*
X567046Y461441D01*
X568000Y461316D01*
X568954Y461441D01*
X569842Y461809D01*
X570605Y462395D01*
X571191Y463158D01*
X571559Y464046D01*
X571684Y465000D01*
X571559Y465954D01*
X571303Y466572D01*
X580507Y475776D01*
X615572D01*
X619855Y471493D01*
Y466190D01*
X602617D01*
Y466700D01*
X602524Y467168D01*
X602259Y467565D01*
X601862Y467830D01*
X601394Y467923D01*
X597600D01*
X597132Y467830D01*
X596735Y467565D01*
X596470Y467168D01*
X596377Y466700D01*
Y424000D01*
X596470Y423532D01*
X596735Y423135D01*
X601935Y417935D01*
X602332Y417670D01*
X602800Y417577D01*
X611595D01*
X611749Y417076D01*
X611223Y416392D01*
X610947Y415724D01*
X541600D01*
X541132Y415630D01*
X540735Y415365D01*
X488465Y363095D01*
X488250Y363138D01*
X487524Y362994D01*
X487413Y362998D01*
X487023Y363206D01*
Y381293D01*
X523607Y417876D01*
X579972D01*
X580094Y417694D01*
X580739Y417263D01*
X581500Y417112D01*
X582261Y417263D01*
X582906Y417694D01*
X583337Y418339D01*
X583488Y419100D01*
X583337Y419861D01*
X582906Y420506D01*
X582261Y420937D01*
X581500Y421088D01*
X580739Y420937D01*
X580094Y420506D01*
X579972Y420324D01*
X523100D01*
X522632Y420230D01*
X522235Y419965D01*
X484935Y382665D01*
X484670Y382268D01*
X484577Y381800D01*
Y358800D01*
X484670Y358332D01*
X484935Y357935D01*
X487135Y355735D01*
X487532Y355470D01*
X488000Y355377D01*
X494900D01*
X495368Y355470D01*
X495765Y355735D01*
X504468Y364438D01*
X505100Y364312D01*
X505861Y364463D01*
X506506Y364894D01*
X506628Y365076D01*
X524335D01*
X524803Y365170D01*
X525102Y365046D01*
X525163Y364739D01*
X525594Y364094D01*
X525776Y363972D01*
Y338800D01*
X525870Y338332D01*
X526135Y337935D01*
X541835Y322235D01*
X542232Y321970D01*
X542700Y321877D01*
X562700D01*
X563168Y321970D01*
X563565Y322235D01*
X568465Y327135D01*
X568730Y327532D01*
X568823Y328000D01*
Y347093D01*
X612852Y391122D01*
X613521Y390845D01*
X614500Y390716D01*
X615479Y390845D01*
X616392Y391223D01*
X617175Y391825D01*
X617777Y392608D01*
X618155Y393521D01*
X618284Y394500D01*
X618155Y395479D01*
X617777Y396392D01*
X617175Y397175D01*
X616392Y397777D01*
X616151Y397877D01*
X616250Y398376D01*
X618893D01*
X621122Y396147D01*
X620845Y395479D01*
X620716Y394500D01*
X620845Y393521D01*
X621223Y392608D01*
X621825Y391825D01*
X622608Y391223D01*
X623521Y390845D01*
X624500Y390716D01*
X625479Y390845D01*
X626392Y391223D01*
X627175Y391825D01*
X627777Y392608D01*
X628155Y393521D01*
X628284Y394500D01*
X628155Y395479D01*
X627777Y396392D01*
X627175Y397175D01*
X626392Y397777D01*
X625479Y398155D01*
X624500Y398284D01*
X623521Y398155D01*
X622853Y397878D01*
X620265Y400465D01*
X619868Y400730D01*
X619400Y400823D01*
X616684D01*
X616522Y401324D01*
X617175Y401825D01*
X617777Y402608D01*
X618155Y403521D01*
X618284Y404500D01*
X618155Y405479D01*
X617777Y406392D01*
X617175Y407175D01*
X616392Y407777D01*
X616492Y408277D01*
X619500D01*
X619968Y408370D01*
X620365Y408635D01*
X622853Y411122D01*
X623521Y410845D01*
X624500Y410716D01*
X625479Y410845D01*
X626392Y411223D01*
X627175Y411825D01*
X627777Y412608D01*
X628155Y413521D01*
X628284Y414500D01*
X628155Y415479D01*
X627777Y416392D01*
X627251Y417076D01*
X627404Y417577D01*
X679672D01*
X679794Y417394D01*
X680439Y416963D01*
X681200Y416812D01*
X681961Y416963D01*
X682606Y417394D01*
X683037Y418039D01*
X683188Y418800D01*
X683037Y419561D01*
X682606Y420206D01*
X681961Y420637D01*
X681200Y420788D01*
X680439Y420637D01*
X679794Y420206D01*
X679672Y420023D01*
X603307D01*
X598823Y424507D01*
Y449292D01*
X599324Y449341D01*
X599463Y448639D01*
X599894Y447994D01*
X600539Y447563D01*
X601300Y447412D01*
X602061Y447563D01*
X602706Y447994D01*
X603137Y448639D01*
X603288Y449400D01*
X603137Y450161D01*
X602706Y450806D01*
X602061Y451237D01*
X601300Y451388D01*
X601085Y451345D01*
X600649Y451782D01*
Y458983D01*
X602139D01*
Y456602D01*
X601994Y456506D01*
X601563Y455861D01*
X601412Y455100D01*
X601563Y454339D01*
X601994Y453694D01*
X602639Y453263D01*
X603400Y453112D01*
X604161Y453263D01*
X604806Y453694D01*
X605237Y454339D01*
X605388Y455100D01*
X605237Y455861D01*
X604806Y456506D01*
X604586Y456653D01*
Y458983D01*
X606076D01*
Y431701D01*
X606169Y431233D01*
X606434Y430836D01*
X611122Y426148D01*
X610845Y425479D01*
X610716Y424500D01*
X610845Y423521D01*
X611223Y422608D01*
X611825Y421825D01*
X612608Y421223D01*
X613521Y420845D01*
X614500Y420716D01*
X615479Y420845D01*
X616392Y421223D01*
X617175Y421825D01*
X617777Y422608D01*
X618155Y423521D01*
X618284Y424500D01*
X618155Y425479D01*
X617777Y426392D01*
X617175Y427175D01*
X616392Y427777D01*
X615479Y428155D01*
X614500Y428284D01*
X613521Y428155D01*
X612852Y427878D01*
X608523Y432208D01*
Y458983D01*
X620345D01*
X620484Y458806D01*
X620653Y458483D01*
X620576Y458100D01*
Y448000D01*
X620670Y447532D01*
X620935Y447135D01*
X621332Y446870D01*
X621800Y446776D01*
X622084D01*
Y445331D01*
X627617D01*
Y449430D01*
X628083Y449633D01*
X628383Y449390D01*
Y445331D01*
X633917D01*
Y446776D01*
X654323D01*
X654445Y446594D01*
X655090Y446163D01*
X655850Y446012D01*
X656611Y446163D01*
X657256Y446594D01*
X657687Y447239D01*
X657839Y448000D01*
X657687Y448761D01*
X657256Y449406D01*
X656611Y449837D01*
X655850Y449988D01*
X655090Y449837D01*
X654445Y449406D01*
X654323Y449224D01*
X633917D01*
Y450668D01*
X630611D01*
X629612Y451668D01*
X629803Y452130D01*
X630799D01*
Y454500D01*
X628331D01*
Y453994D01*
X627831Y453743D01*
X627669Y453864D01*
Y457570D01*
X626224D01*
Y458636D01*
X626233Y458683D01*
X626484D01*
Y462587D01*
Y466490D01*
X626239D01*
Y477284D01*
X626146Y477752D01*
X625881Y478149D01*
X621365Y482665D01*
X620968Y482930D01*
X620500Y483024D01*
X571707D01*
X571653Y483077D01*
Y488653D01*
D02*
G37*
G36*
X531000Y474388D02*
X530239Y474237D01*
X529594Y473806D01*
X529472Y473624D01*
X502500D01*
X502032Y473530D01*
X501635Y473265D01*
X485535Y457165D01*
X485270Y456768D01*
X485177Y456300D01*
Y438307D01*
X458293Y411423D01*
X457405D01*
X457251Y411924D01*
X457777Y412608D01*
X458155Y413521D01*
X458284Y414500D01*
X458155Y415479D01*
X457777Y416392D01*
X457175Y417175D01*
X456392Y417777D01*
X455479Y418155D01*
X454500Y418284D01*
X453521Y418155D01*
X452608Y417777D01*
X451825Y417175D01*
X451223Y416392D01*
X450845Y415479D01*
X450716Y414500D01*
X450845Y413521D01*
X451223Y412608D01*
X451749Y411924D01*
X451595Y411423D01*
X447404D01*
X447251Y411924D01*
X447777Y412608D01*
X448155Y413521D01*
X448284Y414500D01*
X448155Y415479D01*
X447777Y416392D01*
X447175Y417175D01*
X446392Y417777D01*
X445479Y418155D01*
X444500Y418284D01*
X443521Y418155D01*
X442608Y417777D01*
X441825Y417175D01*
X441223Y416392D01*
X440845Y415479D01*
X440716Y414500D01*
X440845Y413521D01*
X441223Y412608D01*
X441825Y411825D01*
X441871Y411789D01*
X441780Y411229D01*
X441535Y411065D01*
X439335Y408865D01*
X439070Y408468D01*
X438976Y408000D01*
Y388800D01*
X439070Y388332D01*
X439335Y387935D01*
X441122Y386147D01*
X440845Y385479D01*
X440716Y384500D01*
X440845Y383521D01*
X441223Y382608D01*
X441825Y381825D01*
X442608Y381223D01*
X443521Y380845D01*
X444500Y380716D01*
X445479Y380845D01*
X446392Y381223D01*
X447175Y381825D01*
X447777Y382608D01*
X448155Y383521D01*
X448284Y384500D01*
X448155Y385479D01*
X447777Y386392D01*
X447175Y387175D01*
X446392Y387777D01*
X445479Y388155D01*
X444500Y388284D01*
X443521Y388155D01*
X442852Y387878D01*
X441424Y389307D01*
Y391596D01*
X441924Y391749D01*
X442608Y391223D01*
X443521Y390845D01*
X444500Y390716D01*
X445479Y390845D01*
X446392Y391223D01*
X447175Y391825D01*
X447777Y392608D01*
X448155Y393521D01*
X448284Y394500D01*
X448155Y395479D01*
X447777Y396392D01*
X447175Y397175D01*
X446392Y397777D01*
X445479Y398155D01*
X444500Y398284D01*
X443521Y398155D01*
X442608Y397777D01*
X441924Y397251D01*
X441424Y397405D01*
Y401595D01*
X441924Y401749D01*
X442608Y401223D01*
X443521Y400845D01*
X444500Y400716D01*
X445479Y400845D01*
X446392Y401223D01*
X447175Y401825D01*
X447777Y402608D01*
X448155Y403521D01*
X448284Y404500D01*
X448155Y405479D01*
X447777Y406392D01*
X447175Y407175D01*
X446392Y407777D01*
X445479Y408155D01*
X444500Y408284D01*
X443521Y408155D01*
X442608Y407777D01*
X442336Y407567D01*
X441771Y407764D01*
X441756Y407826D01*
X442907Y408977D01*
X458800D01*
X459268Y409070D01*
X459665Y409335D01*
X487265Y436935D01*
X487530Y437332D01*
X487624Y437800D01*
Y455793D01*
X503007Y471176D01*
X529472D01*
X529594Y470994D01*
X530239Y470563D01*
X531000Y470412D01*
X531761Y470563D01*
X532406Y470994D01*
X532837Y471639D01*
X532988Y472400D01*
X532837Y473161D01*
X532406Y473806D01*
X531761Y474237D01*
X531000Y474388D01*
D02*
G37*
G36*
X634268Y457870D02*
X631799D01*
Y455500D01*
X634268D01*
Y457870D01*
D02*
G37*
G36*
X568500Y458921D02*
Y455500D01*
X571921D01*
X571851Y456032D01*
X571453Y456993D01*
X570819Y457819D01*
X569993Y458453D01*
X569032Y458851D01*
X568500Y458921D01*
D02*
G37*
G36*
X630799Y457870D02*
X628331D01*
Y455500D01*
X630799D01*
Y457870D01*
D02*
G37*
G36*
X567500Y458921D02*
X566968Y458851D01*
X566007Y458453D01*
X565181Y457819D01*
X564547Y456993D01*
X564149Y456032D01*
X564079Y455500D01*
X567500D01*
Y458921D01*
D02*
G37*
G36*
X634268Y454500D02*
X631799D01*
Y452130D01*
X634268D01*
Y454500D01*
D02*
G37*
G36*
X571921D02*
X568500D01*
Y451079D01*
X569032Y451149D01*
X569993Y451547D01*
X570819Y452181D01*
X571453Y453007D01*
X571851Y453968D01*
X571921Y454500D01*
D02*
G37*
G36*
X567500D02*
X564079D01*
X564149Y453968D01*
X564547Y453007D01*
X565181Y452181D01*
X566007Y451547D01*
X566968Y451149D01*
X567500Y451079D01*
Y454500D01*
D02*
G37*
G36*
X613100Y437888D02*
X612339Y437737D01*
X611694Y437306D01*
X611263Y436661D01*
X611112Y435900D01*
X611263Y435139D01*
X611694Y434494D01*
X612339Y434063D01*
X613100Y433912D01*
X613315Y433955D01*
X621122Y426148D01*
X620845Y425479D01*
X620716Y424500D01*
X620845Y423521D01*
X621223Y422608D01*
X621825Y421825D01*
X622608Y421223D01*
X623521Y420845D01*
X624500Y420716D01*
X625479Y420845D01*
X626392Y421223D01*
X627175Y421825D01*
X627777Y422608D01*
X628155Y423521D01*
X628284Y424500D01*
X628155Y425479D01*
X627777Y426392D01*
X627175Y427175D01*
X626392Y427777D01*
X625479Y428155D01*
X624500Y428284D01*
X623521Y428155D01*
X622853Y427878D01*
X615045Y435685D01*
X615088Y435900D01*
X614937Y436661D01*
X614506Y437306D01*
X613861Y437737D01*
X613100Y437888D01*
D02*
G37*
G36*
X454500Y428284D02*
X453521Y428155D01*
X452608Y427777D01*
X451825Y427175D01*
X451223Y426392D01*
X450845Y425479D01*
X450716Y424500D01*
X450845Y423521D01*
X451223Y422608D01*
X451825Y421825D01*
X452608Y421223D01*
X453521Y420845D01*
X454500Y420716D01*
X455479Y420845D01*
X456392Y421223D01*
X457175Y421825D01*
X457777Y422608D01*
X458155Y423521D01*
X458284Y424500D01*
X458155Y425479D01*
X457777Y426392D01*
X457175Y427175D01*
X456392Y427777D01*
X455479Y428155D01*
X454500Y428284D01*
D02*
G37*
G36*
X444500D02*
X443521Y428155D01*
X442608Y427777D01*
X441825Y427175D01*
X441223Y426392D01*
X440845Y425479D01*
X440716Y424500D01*
X440845Y423521D01*
X441223Y422608D01*
X441825Y421825D01*
X442608Y421223D01*
X443521Y420845D01*
X444500Y420716D01*
X445479Y420845D01*
X446392Y421223D01*
X447175Y421825D01*
X447777Y422608D01*
X448155Y423521D01*
X448284Y424500D01*
X448155Y425479D01*
X447777Y426392D01*
X447175Y427175D01*
X446392Y427777D01*
X445479Y428155D01*
X444500Y428284D01*
D02*
G37*
G36*
X679000Y416473D02*
Y412500D01*
X682973D01*
X682884Y413175D01*
X682431Y414269D01*
X681709Y415209D01*
X680769Y415931D01*
X679675Y416384D01*
X679000Y416473D01*
D02*
G37*
G36*
X678000D02*
X677325Y416384D01*
X676231Y415931D01*
X675291Y415209D01*
X674569Y414269D01*
X674116Y413175D01*
X674027Y412500D01*
X678000D01*
Y416473D01*
D02*
G37*
G36*
X662300Y412788D02*
X661539Y412637D01*
X660894Y412206D01*
X660572Y411724D01*
X630500D01*
X630032Y411630D01*
X629635Y411365D01*
X626148Y407878D01*
X625479Y408155D01*
X624500Y408284D01*
X623521Y408155D01*
X622608Y407777D01*
X621825Y407175D01*
X621223Y406392D01*
X620845Y405479D01*
X620716Y404500D01*
X620845Y403521D01*
X621223Y402608D01*
X621825Y401825D01*
X622608Y401223D01*
X623521Y400845D01*
X624500Y400716D01*
X625479Y400845D01*
X626392Y401223D01*
X627175Y401825D01*
X627777Y402608D01*
X628155Y403521D01*
X628284Y404500D01*
X628155Y405479D01*
X627878Y406147D01*
X631007Y409276D01*
X661070D01*
X661539Y408963D01*
X662300Y408812D01*
X663061Y408963D01*
X663706Y409394D01*
X664137Y410039D01*
X664288Y410800D01*
X664137Y411561D01*
X663706Y412206D01*
X663061Y412637D01*
X662300Y412788D01*
D02*
G37*
G36*
X682973Y411500D02*
X679000D01*
Y407527D01*
X679675Y407616D01*
X680769Y408069D01*
X681709Y408791D01*
X682431Y409731D01*
X682884Y410825D01*
X682973Y411500D01*
D02*
G37*
G36*
X678000D02*
X674027D01*
X674116Y410825D01*
X674569Y409731D01*
X675291Y408791D01*
X676231Y408069D01*
X677325Y407616D01*
X678000Y407527D01*
Y411500D01*
D02*
G37*
G36*
X454500Y408284D02*
X453521Y408155D01*
X452608Y407777D01*
X451825Y407175D01*
X451223Y406392D01*
X450845Y405479D01*
X450716Y404500D01*
X450845Y403521D01*
X451223Y402608D01*
X451825Y401825D01*
X452608Y401223D01*
X453521Y400845D01*
X454500Y400716D01*
X455479Y400845D01*
X456392Y401223D01*
X457175Y401825D01*
X457777Y402608D01*
X458155Y403521D01*
X458284Y404500D01*
X458155Y405479D01*
X457777Y406392D01*
X457175Y407175D01*
X456392Y407777D01*
X455479Y408155D01*
X454500Y408284D01*
D02*
G37*
G36*
X678500Y406236D02*
X677404Y406092D01*
X676382Y405669D01*
X675504Y404995D01*
X674831Y404118D01*
X674408Y403096D01*
X674264Y402000D01*
X674408Y400904D01*
X674831Y399882D01*
X675504Y399005D01*
X676382Y398331D01*
X677404Y397908D01*
X678500Y397764D01*
X679596Y397908D01*
X680618Y398331D01*
X681496Y399005D01*
X682169Y399882D01*
X682592Y400904D01*
X682736Y402000D01*
X682592Y403096D01*
X682169Y404118D01*
X681496Y404995D01*
X680618Y405669D01*
X679596Y406092D01*
X678500Y406236D01*
D02*
G37*
G36*
Y396236D02*
X677404Y396092D01*
X676382Y395669D01*
X675504Y394995D01*
X674831Y394118D01*
X674461Y393224D01*
X650128D01*
X650006Y393406D01*
X649361Y393837D01*
X648600Y393988D01*
X647839Y393837D01*
X647194Y393406D01*
X646763Y392761D01*
X646612Y392000D01*
X646763Y391239D01*
X647194Y390594D01*
X647839Y390163D01*
X648600Y390012D01*
X649361Y390163D01*
X650006Y390594D01*
X650128Y390776D01*
X674461D01*
X674831Y389882D01*
X675504Y389004D01*
X676382Y388331D01*
X677404Y387908D01*
X678500Y387764D01*
X679596Y387908D01*
X680618Y388331D01*
X681496Y389004D01*
X682169Y389882D01*
X682592Y390904D01*
X682736Y392000D01*
X682592Y393096D01*
X682169Y394118D01*
X681496Y394995D01*
X680618Y395669D01*
X679596Y396092D01*
X678500Y396236D01*
D02*
G37*
G36*
X454500Y398284D02*
X453521Y398155D01*
X452608Y397777D01*
X451825Y397175D01*
X451223Y396392D01*
X450845Y395479D01*
X450716Y394500D01*
X450845Y393521D01*
X451223Y392608D01*
X451825Y391825D01*
X452608Y391223D01*
X453521Y390845D01*
X454500Y390716D01*
X455479Y390845D01*
X456392Y391223D01*
X457175Y391825D01*
X457777Y392608D01*
X458155Y393521D01*
X458284Y394500D01*
X458155Y395479D01*
X457777Y396392D01*
X457175Y397175D01*
X456392Y397777D01*
X455479Y398155D01*
X454500Y398284D01*
D02*
G37*
G36*
X327980Y393159D02*
X326847Y393010D01*
X325791Y392572D01*
X324884Y391876D01*
X324188Y390969D01*
X323788Y390003D01*
X317400D01*
X316932Y389910D01*
X316535Y389645D01*
X316393Y389503D01*
X310133D01*
Y391932D01*
X302828D01*
Y384627D01*
X310133D01*
Y387056D01*
X316900D01*
X317368Y387149D01*
X317765Y387414D01*
X317907Y387556D01*
X323788D01*
X324188Y386590D01*
X324884Y385683D01*
X325791Y384987D01*
X326847Y384550D01*
X327980Y384400D01*
X329114Y384550D01*
X330170Y384987D01*
X331077Y385683D01*
X331773Y386590D01*
X332210Y387646D01*
X332360Y388780D01*
X332210Y389913D01*
X331773Y390969D01*
X331077Y391876D01*
X330170Y392572D01*
X329114Y393010D01*
X327980Y393159D01*
D02*
G37*
G36*
X296980Y392201D02*
Y388780D01*
X300401D01*
X300331Y389312D01*
X299933Y390273D01*
X299300Y391099D01*
X298474Y391732D01*
X297512Y392131D01*
X296980Y392201D01*
D02*
G37*
G36*
X295980D02*
X295448Y392131D01*
X294487Y391732D01*
X293661Y391099D01*
X293028Y390273D01*
X292629Y389312D01*
X292559Y388780D01*
X295980D01*
Y392201D01*
D02*
G37*
G36*
X337980Y393159D02*
X336847Y393010D01*
X335791Y392572D01*
X334884Y391876D01*
X334188Y390969D01*
X333750Y389913D01*
X333601Y388780D01*
X333750Y387646D01*
X334188Y386590D01*
X334884Y385683D01*
X335791Y384987D01*
X336847Y384550D01*
X337980Y384400D01*
X339114Y384550D01*
X340170Y384987D01*
X341077Y385683D01*
X341773Y386590D01*
X342210Y387646D01*
X342360Y388780D01*
X342210Y389913D01*
X341773Y390969D01*
X341077Y391876D01*
X340170Y392572D01*
X339114Y393010D01*
X337980Y393159D01*
D02*
G37*
G36*
X300401Y387780D02*
X296980D01*
Y384359D01*
X297512Y384429D01*
X298474Y384827D01*
X299300Y385460D01*
X299933Y386286D01*
X300331Y387248D01*
X300401Y387780D01*
D02*
G37*
G36*
X295980D02*
X292559D01*
X292629Y387248D01*
X293028Y386286D01*
X293661Y385460D01*
X294487Y384827D01*
X295448Y384429D01*
X295980Y384359D01*
Y387780D01*
D02*
G37*
G36*
X678500Y386236D02*
X677404Y386092D01*
X676382Y385669D01*
X675504Y384996D01*
X674831Y384118D01*
X674461Y383224D01*
X654028D01*
X653906Y383406D01*
X653261Y383837D01*
X652500Y383988D01*
X651739Y383837D01*
X651094Y383406D01*
X650663Y382761D01*
X650512Y382000D01*
X650663Y381239D01*
X651094Y380594D01*
X651739Y380163D01*
X652500Y380012D01*
X653261Y380163D01*
X653906Y380594D01*
X654028Y380777D01*
X674461D01*
X674831Y379882D01*
X675504Y379005D01*
X676382Y378331D01*
X677404Y377908D01*
X678500Y377764D01*
X679596Y377908D01*
X680618Y378331D01*
X681496Y379005D01*
X682169Y379882D01*
X682592Y380904D01*
X682736Y382000D01*
X682592Y383096D01*
X682169Y384118D01*
X681496Y384996D01*
X680618Y385669D01*
X679596Y386092D01*
X678500Y386236D01*
D02*
G37*
G36*
X624500Y388284D02*
X623521Y388155D01*
X622608Y387777D01*
X621825Y387175D01*
X621223Y386392D01*
X620845Y385479D01*
X620716Y384500D01*
X620845Y383521D01*
X621223Y382608D01*
X621825Y381825D01*
X622608Y381223D01*
X623521Y380845D01*
X624500Y380716D01*
X625479Y380845D01*
X626392Y381223D01*
X627175Y381825D01*
X627777Y382608D01*
X628155Y383521D01*
X628284Y384500D01*
X628155Y385479D01*
X627777Y386392D01*
X627175Y387175D01*
X626392Y387777D01*
X625479Y388155D01*
X624500Y388284D01*
D02*
G37*
G36*
X614500D02*
X613521Y388155D01*
X612608Y387777D01*
X611825Y387175D01*
X611223Y386392D01*
X610845Y385479D01*
X610716Y384500D01*
X610845Y383521D01*
X611223Y382608D01*
X611825Y381825D01*
X612608Y381223D01*
X613521Y380845D01*
X614500Y380716D01*
X615479Y380845D01*
X616392Y381223D01*
X617175Y381825D01*
X617777Y382608D01*
X618155Y383521D01*
X618284Y384500D01*
X618155Y385479D01*
X617777Y386392D01*
X617175Y387175D01*
X616392Y387777D01*
X615479Y388155D01*
X614500Y388284D01*
D02*
G37*
G36*
X454500D02*
X453521Y388155D01*
X452608Y387777D01*
X451825Y387175D01*
X451223Y386392D01*
X450845Y385479D01*
X450716Y384500D01*
X450845Y383521D01*
X451223Y382608D01*
X451825Y381825D01*
X452608Y381223D01*
X453521Y380845D01*
X454500Y380716D01*
X455479Y380845D01*
X456392Y381223D01*
X457175Y381825D01*
X457777Y382608D01*
X458155Y383521D01*
X458284Y384500D01*
X458155Y385479D01*
X457777Y386392D01*
X457175Y387175D01*
X456392Y387777D01*
X455479Y388155D01*
X454500Y388284D01*
D02*
G37*
G36*
X624500Y378284D02*
X623521Y378155D01*
X622608Y377777D01*
X621825Y377175D01*
X621223Y376392D01*
X620845Y375479D01*
X620716Y374500D01*
X620845Y373521D01*
X621223Y372608D01*
X621825Y371825D01*
X622608Y371223D01*
X623521Y370845D01*
X624500Y370716D01*
X625479Y370845D01*
X626392Y371223D01*
X627175Y371825D01*
X627777Y372608D01*
X628155Y373521D01*
X628284Y374500D01*
X628155Y375479D01*
X627777Y376392D01*
X627175Y377175D01*
X626392Y377777D01*
X625479Y378155D01*
X624500Y378284D01*
D02*
G37*
G36*
X614500D02*
X613521Y378155D01*
X612608Y377777D01*
X611825Y377175D01*
X611223Y376392D01*
X610845Y375479D01*
X610716Y374500D01*
X610845Y373521D01*
X611223Y372608D01*
X611825Y371825D01*
X612608Y371223D01*
X613521Y370845D01*
X614500Y370716D01*
X615479Y370845D01*
X616392Y371223D01*
X617175Y371825D01*
X617777Y372608D01*
X618155Y373521D01*
X618284Y374500D01*
X618155Y375479D01*
X617777Y376392D01*
X617175Y377175D01*
X616392Y377777D01*
X615479Y378155D01*
X614500Y378284D01*
D02*
G37*
G36*
X454500D02*
X453521Y378155D01*
X452608Y377777D01*
X451825Y377175D01*
X451223Y376392D01*
X450845Y375479D01*
X450716Y374500D01*
X450845Y373521D01*
X451223Y372608D01*
X451825Y371825D01*
X452608Y371223D01*
X453521Y370845D01*
X454500Y370716D01*
X455479Y370845D01*
X456392Y371223D01*
X457175Y371825D01*
X457777Y372608D01*
X458155Y373521D01*
X458284Y374500D01*
X458155Y375479D01*
X457777Y376392D01*
X457175Y377175D01*
X456392Y377777D01*
X455479Y378155D01*
X454500Y378284D01*
D02*
G37*
G36*
X444500D02*
X443521Y378155D01*
X442608Y377777D01*
X441825Y377175D01*
X441223Y376392D01*
X440845Y375479D01*
X440716Y374500D01*
X440845Y373521D01*
X441223Y372608D01*
X441825Y371825D01*
X442608Y371223D01*
X443521Y370845D01*
X444500Y370716D01*
X445479Y370845D01*
X446392Y371223D01*
X447175Y371825D01*
X447777Y372608D01*
X448155Y373521D01*
X448284Y374500D01*
X448155Y375479D01*
X447777Y376392D01*
X447175Y377175D01*
X446392Y377777D01*
X445479Y378155D01*
X444500Y378284D01*
D02*
G37*
G36*
X678500Y376236D02*
X677404Y376092D01*
X676382Y375669D01*
X675504Y374995D01*
X674831Y374118D01*
X674408Y373096D01*
X674264Y372000D01*
X674408Y370904D01*
X674831Y369882D01*
X675504Y369005D01*
X676382Y368331D01*
X677404Y367908D01*
X678500Y367764D01*
X679596Y367908D01*
X680618Y368331D01*
X681496Y369005D01*
X682169Y369882D01*
X682592Y370904D01*
X682736Y372000D01*
X682592Y373096D01*
X682169Y374118D01*
X681496Y374995D01*
X680618Y375669D01*
X679596Y376092D01*
X678500Y376236D01*
D02*
G37*
G36*
X624500Y368284D02*
X623521Y368155D01*
X622608Y367777D01*
X621825Y367175D01*
X621223Y366392D01*
X620845Y365479D01*
X620716Y364500D01*
X620845Y363521D01*
X621122Y362853D01*
X618993Y360723D01*
X616492D01*
X616392Y361223D01*
X617175Y361825D01*
X617777Y362608D01*
X618155Y363521D01*
X618284Y364500D01*
X618155Y365479D01*
X617777Y366392D01*
X617175Y367175D01*
X616392Y367777D01*
X615479Y368155D01*
X614500Y368284D01*
X613521Y368155D01*
X612608Y367777D01*
X611825Y367175D01*
X611223Y366392D01*
X610845Y365479D01*
X610716Y364500D01*
X610845Y363521D01*
X611223Y362608D01*
X611825Y361825D01*
X612608Y361223D01*
X612508Y360723D01*
X610000D01*
X609532Y360630D01*
X609135Y360365D01*
X499715Y250945D01*
X499500Y250988D01*
X498739Y250837D01*
X498094Y250406D01*
X497663Y249761D01*
X497512Y249000D01*
X497663Y248239D01*
X498094Y247594D01*
X498739Y247163D01*
X499500Y247012D01*
X500261Y247163D01*
X500906Y247594D01*
X501337Y248239D01*
X501488Y249000D01*
X501445Y249215D01*
X610507Y358277D01*
X612508D01*
X612608Y357777D01*
X611825Y357175D01*
X611223Y356392D01*
X610845Y355479D01*
X610716Y354500D01*
X610845Y353521D01*
X611223Y352608D01*
X611825Y351825D01*
X612608Y351223D01*
X613521Y350845D01*
X614500Y350716D01*
X615479Y350845D01*
X616392Y351223D01*
X617175Y351825D01*
X617777Y352608D01*
X618155Y353521D01*
X618284Y354500D01*
X618155Y355479D01*
X617777Y356392D01*
X617175Y357175D01*
X616392Y357777D01*
X616492Y358277D01*
X619500D01*
X619968Y358370D01*
X620365Y358635D01*
X622853Y361122D01*
X623521Y360845D01*
X624500Y360716D01*
X625479Y360845D01*
X626392Y361223D01*
X627175Y361825D01*
X627777Y362608D01*
X628155Y363521D01*
X628284Y364500D01*
X628155Y365479D01*
X627777Y366392D01*
X627175Y367175D01*
X626392Y367777D01*
X625479Y368155D01*
X624500Y368284D01*
D02*
G37*
G36*
X454500D02*
X453521Y368155D01*
X452608Y367777D01*
X451825Y367175D01*
X451223Y366392D01*
X450845Y365479D01*
X450716Y364500D01*
X450845Y363521D01*
X451223Y362608D01*
X451825Y361825D01*
X452608Y361223D01*
X453521Y360845D01*
X454500Y360716D01*
X455479Y360845D01*
X456392Y361223D01*
X457175Y361825D01*
X457777Y362608D01*
X458155Y363521D01*
X458284Y364500D01*
X458155Y365479D01*
X457777Y366392D01*
X457175Y367175D01*
X456392Y367777D01*
X455479Y368155D01*
X454500Y368284D01*
D02*
G37*
G36*
X444500D02*
X443521Y368155D01*
X442608Y367777D01*
X441825Y367175D01*
X441223Y366392D01*
X440845Y365479D01*
X440716Y364500D01*
X440845Y363521D01*
X441223Y362608D01*
X441825Y361825D01*
X442608Y361223D01*
X443521Y360845D01*
X444500Y360716D01*
X445479Y360845D01*
X446392Y361223D01*
X447175Y361825D01*
X447777Y362608D01*
X448155Y363521D01*
X448284Y364500D01*
X448155Y365479D01*
X447777Y366392D01*
X447175Y367175D01*
X446392Y367777D01*
X445479Y368155D01*
X444500Y368284D01*
D02*
G37*
G36*
X404580Y365108D02*
X399380D01*
X398519Y364995D01*
X397716Y364662D01*
X397027Y364133D01*
X396498Y363444D01*
X396165Y362641D01*
X396052Y361780D01*
X396165Y360918D01*
X396498Y360115D01*
X397027Y359426D01*
X397716Y358897D01*
X398519Y358564D01*
X399380Y358451D01*
X404580D01*
X405442Y358564D01*
X406245Y358897D01*
X406934Y359426D01*
X407463Y360115D01*
X407795Y360918D01*
X407909Y361780D01*
X407795Y362641D01*
X407463Y363444D01*
X406934Y364133D01*
X406245Y364662D01*
X405442Y364995D01*
X404580Y365108D01*
D02*
G37*
G36*
X376480Y359516D02*
X375514Y359388D01*
X374612Y359015D01*
X373839Y358421D01*
X373245Y357647D01*
X372872Y356747D01*
X372744Y355780D01*
X372872Y354813D01*
X372922Y354692D01*
X372568Y354338D01*
X372447Y354388D01*
X371480Y354516D01*
X370514Y354388D01*
X369613Y354015D01*
X368839Y353421D01*
X368245Y352647D01*
X367872Y351747D01*
X367744Y350780D01*
X367872Y349813D01*
X368245Y348912D01*
X368839Y348138D01*
X369613Y347544D01*
X370514Y347171D01*
X371480Y347044D01*
X372447Y347171D01*
X373348Y347544D01*
X374122Y348138D01*
X374716Y348912D01*
X375089Y349813D01*
X375216Y350780D01*
X375089Y351747D01*
X375039Y351868D01*
X375392Y352221D01*
X375514Y352171D01*
X376480Y352044D01*
X377447Y352171D01*
X377568Y352221D01*
X377922Y351868D01*
X377872Y351747D01*
X377745Y350780D01*
X377872Y349813D01*
X378245Y348912D01*
X378839Y348138D01*
X379612Y347544D01*
X380514Y347171D01*
X381480Y347044D01*
X382447Y347171D01*
X383348Y347544D01*
X384122Y348138D01*
X384716Y348912D01*
X385089Y349813D01*
X385216Y350780D01*
X385089Y351747D01*
X384716Y352647D01*
X384122Y353421D01*
X383348Y354015D01*
X382447Y354388D01*
X381480Y354516D01*
X380514Y354388D01*
X380392Y354338D01*
X380039Y354692D01*
X380089Y354813D01*
X380216Y355780D01*
X380089Y356747D01*
X379716Y357647D01*
X379122Y358421D01*
X378348Y359015D01*
X377447Y359388D01*
X376480Y359516D01*
D02*
G37*
G36*
X679000Y356473D02*
Y352500D01*
X682973D01*
X682884Y353175D01*
X682431Y354269D01*
X681709Y355209D01*
X680769Y355931D01*
X679675Y356384D01*
X679000Y356473D01*
D02*
G37*
G36*
X678000D02*
X677325Y356384D01*
X676231Y355931D01*
X675291Y355209D01*
X674569Y354269D01*
X674116Y353175D01*
X674027Y352500D01*
X678000D01*
Y356473D01*
D02*
G37*
G36*
X624500Y358284D02*
X623521Y358155D01*
X622608Y357777D01*
X621825Y357175D01*
X621223Y356392D01*
X620845Y355479D01*
X620716Y354500D01*
X620845Y353521D01*
X621122Y352853D01*
X618635Y350365D01*
X618370Y349968D01*
X618277Y349500D01*
Y347055D01*
X617776Y346885D01*
X617389Y347389D01*
X616543Y348039D01*
X615558Y348447D01*
X615000Y348520D01*
Y344500D01*
Y340480D01*
X615558Y340553D01*
X616543Y340961D01*
X617389Y341611D01*
X617776Y342115D01*
X618277Y341946D01*
Y336492D01*
X617777Y336392D01*
X617175Y337175D01*
X616392Y337777D01*
X615479Y338155D01*
X614500Y338284D01*
X613521Y338155D01*
X612608Y337777D01*
X611825Y337175D01*
X611223Y336392D01*
X610845Y335479D01*
X610716Y334500D01*
X610845Y333521D01*
X611223Y332608D01*
X611825Y331825D01*
X612608Y331223D01*
X613521Y330845D01*
X614500Y330716D01*
X615479Y330845D01*
X616211Y331149D01*
X616494Y330725D01*
X614993Y329223D01*
X609528D01*
X609406Y329406D01*
X608761Y329837D01*
X608000Y329988D01*
X607239Y329837D01*
X606594Y329406D01*
X606163Y328761D01*
X606012Y328000D01*
X606163Y327239D01*
X606594Y326594D01*
X607239Y326163D01*
X608000Y326012D01*
X608761Y326163D01*
X609406Y326594D01*
X609528Y326777D01*
X615500D01*
X615968Y326870D01*
X616365Y327135D01*
X620354Y331124D01*
X620381Y331134D01*
X620934Y331086D01*
X620995Y330995D01*
X621287Y330800D01*
X621632Y330732D01*
X627368D01*
X627713Y330800D01*
X628005Y330995D01*
X628200Y331287D01*
X628268Y331632D01*
Y337368D01*
X628200Y337713D01*
X628005Y338005D01*
X627713Y338200D01*
X627368Y338268D01*
X621632D01*
X621287Y338200D01*
X621223Y338157D01*
X620723Y338425D01*
Y342508D01*
X621223Y342608D01*
X621825Y341825D01*
X622608Y341223D01*
X623521Y340845D01*
X624500Y340716D01*
X625479Y340845D01*
X626392Y341223D01*
X627175Y341825D01*
X627777Y342608D01*
X628155Y343521D01*
X628284Y344500D01*
X628155Y345479D01*
X627777Y346392D01*
X627175Y347175D01*
X626392Y347777D01*
X625479Y348155D01*
X624500Y348284D01*
X623521Y348155D01*
X622608Y347777D01*
X621825Y347175D01*
X621223Y346392D01*
X620723Y346492D01*
Y348993D01*
X622853Y351122D01*
X623521Y350845D01*
X624500Y350716D01*
X625479Y350845D01*
X626392Y351223D01*
X627175Y351825D01*
X627777Y352608D01*
X628155Y353521D01*
X628284Y354500D01*
X628155Y355479D01*
X627777Y356392D01*
X627175Y357175D01*
X626392Y357777D01*
X625479Y358155D01*
X624500Y358284D01*
D02*
G37*
G36*
X454500D02*
X453521Y358155D01*
X452608Y357777D01*
X451825Y357175D01*
X451223Y356392D01*
X450845Y355479D01*
X450716Y354500D01*
X450845Y353521D01*
X451223Y352608D01*
X451825Y351825D01*
X452608Y351223D01*
X453521Y350845D01*
X454500Y350716D01*
X455479Y350845D01*
X456392Y351223D01*
X457175Y351825D01*
X457777Y352608D01*
X458155Y353521D01*
X458284Y354500D01*
X458155Y355479D01*
X457777Y356392D01*
X457175Y357175D01*
X456392Y357777D01*
X455479Y358155D01*
X454500Y358284D01*
D02*
G37*
G36*
X444500D02*
X443521Y358155D01*
X442608Y357777D01*
X441825Y357175D01*
X441223Y356392D01*
X440845Y355479D01*
X440716Y354500D01*
X440845Y353521D01*
X441223Y352608D01*
X441825Y351825D01*
X442608Y351223D01*
X443521Y350845D01*
X444500Y350716D01*
X445479Y350845D01*
X446392Y351223D01*
X447175Y351825D01*
X447777Y352608D01*
X448155Y353521D01*
X448284Y354500D01*
X448155Y355479D01*
X447777Y356392D01*
X447175Y357175D01*
X446392Y357777D01*
X445479Y358155D01*
X444500Y358284D01*
D02*
G37*
G36*
X404580Y355108D02*
X399380D01*
X398519Y354995D01*
X397716Y354662D01*
X397027Y354133D01*
X396498Y353444D01*
X396165Y352641D01*
X396052Y351780D01*
X396165Y350918D01*
X396498Y350115D01*
X397027Y349426D01*
X397716Y348897D01*
X398519Y348565D01*
X399380Y348451D01*
X404580D01*
X405442Y348565D01*
X406245Y348897D01*
X406934Y349426D01*
X407463Y350115D01*
X407795Y350918D01*
X407909Y351780D01*
X407795Y352641D01*
X407463Y353444D01*
X406934Y354133D01*
X406245Y354662D01*
X405442Y354995D01*
X404580Y355108D01*
D02*
G37*
G36*
X682973Y351500D02*
X679000D01*
Y347527D01*
X679675Y347616D01*
X680769Y348069D01*
X681709Y348791D01*
X682431Y349731D01*
X682884Y350825D01*
X682973Y351500D01*
D02*
G37*
G36*
X678000D02*
X674027D01*
X674116Y350825D01*
X674569Y349731D01*
X675291Y348791D01*
X676231Y348069D01*
X677325Y347616D01*
X678000Y347527D01*
Y351500D01*
D02*
G37*
G36*
X614000Y348520D02*
X613442Y348447D01*
X612457Y348039D01*
X611611Y347389D01*
X610961Y346543D01*
X610553Y345558D01*
X610480Y345000D01*
X614000D01*
Y348520D01*
D02*
G37*
G36*
X679000Y346473D02*
Y342500D01*
X682973D01*
X682884Y343175D01*
X682431Y344269D01*
X681709Y345209D01*
X680769Y345931D01*
X679675Y346384D01*
X679000Y346473D01*
D02*
G37*
G36*
X678000D02*
X677325Y346384D01*
X676231Y345931D01*
X675291Y345209D01*
X674569Y344269D01*
X674116Y343175D01*
X674027Y342500D01*
X678000D01*
Y346473D01*
D02*
G37*
G36*
X404580Y345411D02*
X402480D01*
Y342280D01*
X408146D01*
X408088Y342719D01*
X407725Y343595D01*
X407148Y344347D01*
X406396Y344924D01*
X405520Y345287D01*
X404580Y345411D01*
D02*
G37*
G36*
X401480D02*
X399380D01*
X398441Y345287D01*
X397565Y344924D01*
X396813Y344347D01*
X396236Y343595D01*
X395873Y342719D01*
X395815Y342280D01*
X401480D01*
Y345411D01*
D02*
G37*
G36*
X454500Y348284D02*
X453521Y348155D01*
X452608Y347777D01*
X451825Y347175D01*
X451223Y346392D01*
X450845Y345479D01*
X450716Y344500D01*
X450845Y343521D01*
X451223Y342608D01*
X451825Y341825D01*
X452608Y341223D01*
X453521Y340845D01*
X454500Y340716D01*
X455479Y340845D01*
X456392Y341223D01*
X457175Y341825D01*
X457777Y342608D01*
X458155Y343521D01*
X458284Y344500D01*
X458155Y345479D01*
X457777Y346392D01*
X457175Y347175D01*
X456392Y347777D01*
X455479Y348155D01*
X454500Y348284D01*
D02*
G37*
G36*
X352322Y393121D02*
X343639D01*
Y384438D01*
X352322D01*
Y387556D01*
X399714D01*
X441122Y346147D01*
X440845Y345479D01*
X440716Y344500D01*
X440845Y343521D01*
X441223Y342608D01*
X441825Y341825D01*
X442608Y341223D01*
X443521Y340845D01*
X444500Y340716D01*
X445479Y340845D01*
X446392Y341223D01*
X447175Y341825D01*
X447777Y342608D01*
X448155Y343521D01*
X448284Y344500D01*
X448155Y345479D01*
X447777Y346392D01*
X447175Y347175D01*
X446392Y347777D01*
X445479Y348155D01*
X444500Y348284D01*
X443521Y348155D01*
X442852Y347878D01*
X401086Y389645D01*
X400689Y389910D01*
X400220Y390003D01*
X352322D01*
Y393121D01*
D02*
G37*
G36*
X614000Y344000D02*
X610480D01*
X610553Y343442D01*
X610961Y342457D01*
X611611Y341611D01*
X612457Y340961D01*
X613442Y340553D01*
X614000Y340480D01*
Y344000D01*
D02*
G37*
G36*
X408146Y341280D02*
X402480D01*
Y338148D01*
X404580D01*
X405520Y338272D01*
X406396Y338635D01*
X407148Y339212D01*
X407725Y339964D01*
X408088Y340840D01*
X408146Y341280D01*
D02*
G37*
G36*
X401480D02*
X395815D01*
X395873Y340840D01*
X396236Y339964D01*
X396813Y339212D01*
X397565Y338635D01*
X398441Y338272D01*
X399380Y338148D01*
X401480D01*
Y341280D01*
D02*
G37*
G36*
X682973Y341500D02*
X679000D01*
Y337527D01*
X679675Y337616D01*
X680769Y338069D01*
X681709Y338791D01*
X682431Y339731D01*
X682884Y340825D01*
X682973Y341500D01*
D02*
G37*
G36*
X678000D02*
X674027D01*
X674116Y340825D01*
X674569Y339731D01*
X675291Y338791D01*
X676231Y338069D01*
X677325Y337616D01*
X678000Y337527D01*
Y341500D01*
D02*
G37*
G36*
X445000Y338520D02*
Y335000D01*
X448520D01*
X448447Y335558D01*
X448039Y336543D01*
X447389Y337389D01*
X446543Y338039D01*
X445558Y338447D01*
X445000Y338520D01*
D02*
G37*
G36*
X444000D02*
X443442Y338447D01*
X442457Y338039D01*
X441611Y337389D01*
X440961Y336543D01*
X440553Y335558D01*
X440480Y335000D01*
X444000D01*
Y338520D01*
D02*
G37*
G36*
X679000Y336473D02*
Y332500D01*
X682973D01*
X682884Y333175D01*
X682431Y334269D01*
X681709Y335209D01*
X680769Y335931D01*
X679675Y336384D01*
X679000Y336473D01*
D02*
G37*
G36*
X678000D02*
X677325Y336384D01*
X676231Y335931D01*
X675291Y335209D01*
X674569Y334269D01*
X674116Y333175D01*
X674027Y332500D01*
X678000D01*
Y336473D01*
D02*
G37*
G36*
X454500Y338284D02*
X453521Y338155D01*
X452608Y337777D01*
X451825Y337175D01*
X451223Y336392D01*
X450845Y335479D01*
X450716Y334500D01*
X450845Y333521D01*
X451223Y332608D01*
X451825Y331825D01*
X452608Y331223D01*
X453521Y330845D01*
X454500Y330716D01*
X455479Y330845D01*
X456392Y331223D01*
X457175Y331825D01*
X457777Y332608D01*
X458155Y333521D01*
X458284Y334500D01*
X458155Y335479D01*
X457777Y336392D01*
X457175Y337175D01*
X456392Y337777D01*
X455479Y338155D01*
X454500Y338284D01*
D02*
G37*
G36*
X448520Y334000D02*
X445000D01*
Y330480D01*
X445558Y330553D01*
X446543Y330961D01*
X447389Y331611D01*
X448039Y332457D01*
X448447Y333442D01*
X448520Y334000D01*
D02*
G37*
G36*
X444000D02*
X440480D01*
X440553Y333442D01*
X440961Y332457D01*
X441611Y331611D01*
X442457Y330961D01*
X443442Y330553D01*
X444000Y330480D01*
Y334000D01*
D02*
G37*
G36*
X682973Y331500D02*
X679000D01*
Y327527D01*
X679675Y327616D01*
X680769Y328069D01*
X681709Y328791D01*
X682431Y329731D01*
X682884Y330825D01*
X682973Y331500D01*
D02*
G37*
G36*
X678000D02*
X674027D01*
X674116Y330825D01*
X674569Y329731D01*
X675291Y328791D01*
X676231Y328069D01*
X677325Y327616D01*
X678000Y327527D01*
Y331500D01*
D02*
G37*
G36*
X679000Y326473D02*
Y322500D01*
X682973D01*
X682884Y323175D01*
X682431Y324269D01*
X681709Y325209D01*
X680769Y325931D01*
X679675Y326384D01*
X679000Y326473D01*
D02*
G37*
G36*
X678000D02*
X677325Y326384D01*
X676231Y325931D01*
X675291Y325209D01*
X674569Y324269D01*
X674116Y323175D01*
X674027Y322500D01*
X678000D01*
Y326473D01*
D02*
G37*
G36*
X397940Y328417D02*
X391666D01*
Y326503D01*
X374657D01*
X374189Y326410D01*
X373792Y326145D01*
X363335Y315687D01*
X362976Y315836D01*
X362157Y315944D01*
X361338Y315836D01*
X360575Y315520D01*
X359920Y315017D01*
X359417Y314362D01*
X359101Y313598D01*
X358993Y312780D01*
X359101Y311961D01*
X359417Y311198D01*
X359920Y310542D01*
X360575Y310039D01*
X361338Y309723D01*
X362157Y309615D01*
X362976Y309723D01*
X363739Y310039D01*
X364395Y310542D01*
X364898Y311198D01*
X365214Y311961D01*
X365321Y312780D01*
X365214Y313598D01*
X365065Y313957D01*
X375164Y324056D01*
X391666D01*
Y322143D01*
X397940D01*
Y328417D01*
D02*
G37*
G36*
X362157Y328444D02*
X361338Y328336D01*
X360575Y328020D01*
X359920Y327517D01*
X359417Y326862D01*
X359101Y326098D01*
X358993Y325280D01*
X359101Y324461D01*
X359417Y323698D01*
X359920Y323042D01*
X360575Y322539D01*
X361338Y322223D01*
X362157Y322115D01*
X362976Y322223D01*
X363739Y322539D01*
X364395Y323042D01*
X364898Y323698D01*
X365214Y324461D01*
X365321Y325280D01*
X365214Y326098D01*
X364898Y326862D01*
X364395Y327517D01*
X363739Y328020D01*
X362976Y328336D01*
X362157Y328444D01*
D02*
G37*
G36*
X682973Y321500D02*
X679000D01*
Y317527D01*
X679675Y317616D01*
X680769Y318069D01*
X681709Y318791D01*
X682431Y319731D01*
X682884Y320825D01*
X682973Y321500D01*
D02*
G37*
G36*
X678000D02*
X674027D01*
X674116Y320825D01*
X674569Y319731D01*
X675291Y318791D01*
X676231Y318069D01*
X677325Y317616D01*
X678000Y317527D01*
Y321500D01*
D02*
G37*
G36*
X628500Y318695D02*
Y317000D01*
X630195D01*
X630119Y317378D01*
X629622Y318122D01*
X628878Y318619D01*
X628500Y318695D01*
D02*
G37*
G36*
X627500D02*
X627122Y318619D01*
X626378Y318122D01*
X625881Y317378D01*
X625805Y317000D01*
X627500D01*
Y318695D01*
D02*
G37*
G36*
X630195Y316000D02*
X628500D01*
Y314305D01*
X628878Y314381D01*
X629622Y314878D01*
X630119Y315622D01*
X630195Y316000D01*
D02*
G37*
G36*
X627500D02*
X625805D01*
X625881Y315622D01*
X626378Y314878D01*
X627122Y314381D01*
X627500Y314305D01*
Y316000D01*
D02*
G37*
G36*
X397940Y315917D02*
X391666D01*
Y309643D01*
X397940D01*
Y315917D01*
D02*
G37*
G36*
X644600Y347888D02*
X643839Y347737D01*
X643194Y347306D01*
X642763Y346661D01*
X642612Y345900D01*
X642763Y345139D01*
X643194Y344494D01*
X643839Y344063D01*
X644600Y343912D01*
X644815Y343955D01*
X674779Y313991D01*
X674408Y313096D01*
X674264Y312000D01*
X674408Y310904D01*
X674831Y309882D01*
X675504Y309004D01*
X676382Y308331D01*
X677404Y307908D01*
X678500Y307764D01*
X679596Y307908D01*
X680618Y308331D01*
X681496Y309004D01*
X682169Y309882D01*
X682592Y310904D01*
X682736Y312000D01*
X682592Y313096D01*
X682169Y314118D01*
X681496Y314996D01*
X680618Y315669D01*
X679596Y316092D01*
X678500Y316236D01*
X677404Y316092D01*
X676509Y315721D01*
X646545Y345685D01*
X646588Y345900D01*
X646437Y346661D01*
X646006Y347306D01*
X645361Y347737D01*
X644600Y347888D01*
D02*
G37*
G36*
X678500Y306236D02*
X677404Y306092D01*
X676382Y305669D01*
X675504Y304995D01*
X674831Y304118D01*
X674408Y303096D01*
X674264Y302000D01*
X674408Y300904D01*
X674831Y299882D01*
X675504Y299005D01*
X676382Y298331D01*
X677404Y297908D01*
X678500Y297764D01*
X679596Y297908D01*
X680618Y298331D01*
X681496Y299005D01*
X682169Y299882D01*
X682592Y300904D01*
X682736Y302000D01*
X682592Y303096D01*
X682169Y304118D01*
X681496Y304995D01*
X680618Y305669D01*
X679596Y306092D01*
X678500Y306236D01*
D02*
G37*
G36*
X632200Y340288D02*
X631439Y340137D01*
X630794Y339706D01*
X630363Y339061D01*
X630212Y338300D01*
X630363Y337539D01*
X630794Y336894D01*
X631439Y336463D01*
X632200Y336312D01*
X632415Y336355D01*
X674779Y293991D01*
X674408Y293096D01*
X674264Y292000D01*
X674408Y290904D01*
X674831Y289882D01*
X675504Y289004D01*
X676382Y288331D01*
X677404Y287908D01*
X678500Y287764D01*
X679596Y287908D01*
X680618Y288331D01*
X681496Y289004D01*
X682169Y289882D01*
X682592Y290904D01*
X682736Y292000D01*
X682592Y293096D01*
X682169Y294118D01*
X681496Y294995D01*
X680618Y295669D01*
X679596Y296092D01*
X678500Y296236D01*
X677404Y296092D01*
X676509Y295721D01*
X634145Y338085D01*
X634188Y338300D01*
X634037Y339061D01*
X633606Y339706D01*
X632961Y340137D01*
X632200Y340288D01*
D02*
G37*
G36*
X377480Y289515D02*
X376514Y289388D01*
X375612Y289015D01*
X374839Y288421D01*
X374245Y287648D01*
X373872Y286747D01*
X373745Y285780D01*
X373872Y284813D01*
X373922Y284692D01*
X373568Y284338D01*
X373447Y284388D01*
X372480Y284516D01*
X371514Y284388D01*
X370613Y284015D01*
X369839Y283421D01*
X369245Y282647D01*
X368872Y281747D01*
X368744Y280780D01*
X368872Y279813D01*
X369245Y278912D01*
X369839Y278138D01*
X370613Y277544D01*
X371514Y277171D01*
X372480Y277044D01*
X373447Y277171D01*
X374348Y277544D01*
X375122Y278138D01*
X375716Y278912D01*
X376089Y279813D01*
X376216Y280780D01*
X376089Y281747D01*
X376039Y281868D01*
X376392Y282221D01*
X376514Y282171D01*
X377480Y282044D01*
X378166Y282134D01*
X378328Y282013D01*
X378564Y281705D01*
X378508Y281280D01*
X381980D01*
Y284752D01*
X381555Y284696D01*
X381247Y284932D01*
X381126Y285094D01*
X381216Y285780D01*
X381089Y286747D01*
X380716Y287648D01*
X380122Y288421D01*
X379348Y289015D01*
X378447Y289388D01*
X377480Y289515D01*
D02*
G37*
G36*
X382980Y284752D02*
Y281280D01*
X386453D01*
X386381Y281825D01*
X385978Y282799D01*
X385336Y283635D01*
X384500Y284277D01*
X383526Y284681D01*
X382980Y284752D01*
D02*
G37*
G36*
X678500Y286236D02*
X677404Y286092D01*
X676382Y285669D01*
X675504Y284996D01*
X674831Y284118D01*
X674408Y283096D01*
X674264Y282000D01*
X674408Y280904D01*
X674779Y280009D01*
X639993Y245223D01*
X440269D01*
X439950Y245992D01*
X439317Y246817D01*
X438492Y247450D01*
X437531Y247848D01*
X436500Y247984D01*
X435469Y247848D01*
X434508Y247450D01*
X433683Y246817D01*
X433050Y245992D01*
X432652Y245031D01*
X432516Y244000D01*
X432652Y242969D01*
X433050Y242008D01*
X433683Y241183D01*
X434508Y240550D01*
X435469Y240152D01*
X436500Y240016D01*
X437531Y240152D01*
X438492Y240550D01*
X439317Y241183D01*
X439950Y242008D01*
X440269Y242776D01*
X640500D01*
X640968Y242870D01*
X641365Y243135D01*
X676509Y278279D01*
X677404Y277908D01*
X678500Y277764D01*
X679596Y277908D01*
X680618Y278331D01*
X681496Y279005D01*
X682169Y279882D01*
X682592Y280904D01*
X682736Y282000D01*
X682592Y283096D01*
X682169Y284118D01*
X681496Y284996D01*
X680618Y285669D01*
X679596Y286092D01*
X678500Y286236D01*
D02*
G37*
G36*
X386453Y280280D02*
X382980D01*
Y276807D01*
X383526Y276879D01*
X384500Y277282D01*
X385336Y277924D01*
X385978Y278760D01*
X386381Y279734D01*
X386453Y280280D01*
D02*
G37*
G36*
X381980D02*
X378508D01*
X378579Y279734D01*
X378983Y278760D01*
X379625Y277924D01*
X380461Y277282D01*
X381435Y276879D01*
X381980Y276807D01*
Y280280D01*
D02*
G37*
G36*
X309980Y272208D02*
X309705Y272172D01*
X308983Y271873D01*
X308363Y271397D01*
X307887Y270777D01*
X307588Y270055D01*
X307552Y269780D01*
X309980D01*
Y272208D01*
D02*
G37*
G36*
X678500Y276236D02*
X677404Y276092D01*
X676382Y275669D01*
X675504Y274995D01*
X674831Y274118D01*
X674408Y273096D01*
X674264Y272000D01*
X674408Y270904D01*
X674831Y269882D01*
X675504Y269005D01*
X676382Y268331D01*
X677404Y267908D01*
X678500Y267764D01*
X679596Y267908D01*
X680618Y268331D01*
X681496Y269005D01*
X682169Y269882D01*
X682592Y270904D01*
X682736Y272000D01*
X682592Y273096D01*
X682169Y274118D01*
X681496Y274995D01*
X680618Y275669D01*
X679596Y276092D01*
X678500Y276236D01*
D02*
G37*
G36*
X310980Y272208D02*
Y269280D01*
Y266351D01*
X311255Y266388D01*
X311978Y266687D01*
X312312Y266943D01*
X312812Y266697D01*
Y266611D01*
X318149D01*
Y271948D01*
X312812D01*
Y271863D01*
X312312Y271616D01*
X311978Y271873D01*
X311255Y272172D01*
X310980Y272208D01*
D02*
G37*
G36*
X309980Y268780D02*
X307552D01*
X307588Y268505D01*
X307887Y267782D01*
X308363Y267162D01*
X308983Y266687D01*
X309705Y266388D01*
X309980Y266351D01*
Y268780D01*
D02*
G37*
G36*
X482700Y345038D02*
X481939Y344886D01*
X481294Y344456D01*
X480863Y343810D01*
X480712Y343050D01*
X480863Y342289D01*
X481294Y341644D01*
X481476Y341522D01*
Y305707D01*
X438300Y262530D01*
X437531Y262848D01*
X436500Y262984D01*
X435469Y262848D01*
X434508Y262450D01*
X433683Y261817D01*
X433050Y260992D01*
X432652Y260031D01*
X432516Y259000D01*
X432652Y257969D01*
X433050Y257008D01*
X433683Y256183D01*
X434508Y255550D01*
X435469Y255152D01*
X436500Y255016D01*
X437531Y255152D01*
X438492Y255550D01*
X439317Y256183D01*
X439950Y257008D01*
X440348Y257969D01*
X440484Y259000D01*
X440348Y260031D01*
X440030Y260800D01*
X483565Y304335D01*
X483830Y304732D01*
X483923Y305200D01*
Y341522D01*
X484106Y341644D01*
X484537Y342289D01*
X484688Y343050D01*
X484537Y343810D01*
X484106Y344456D01*
X483461Y344886D01*
X482700Y345038D01*
D02*
G37*
G36*
X683000Y266500D02*
X679000D01*
Y262500D01*
X683000D01*
Y266500D01*
D02*
G37*
G36*
X678000D02*
X674000D01*
Y262500D01*
X678000D01*
Y266500D01*
D02*
G37*
G36*
X683000Y261500D02*
X679000D01*
Y257500D01*
X683000D01*
Y261500D01*
D02*
G37*
G36*
X678000D02*
X674000D01*
Y257500D01*
X678000D01*
Y261500D01*
D02*
G37*
G36*
X493453Y233453D02*
X490000D01*
Y230000D01*
X493453D01*
Y233453D01*
D02*
G37*
G36*
X489000D02*
X485547D01*
Y230000D01*
X489000D01*
Y233453D01*
D02*
G37*
G36*
X437000Y233221D02*
Y229500D01*
X440721D01*
X440641Y230110D01*
X440212Y231143D01*
X439531Y232031D01*
X438643Y232712D01*
X437609Y233141D01*
X437000Y233221D01*
D02*
G37*
G36*
X436000D02*
X435391Y233141D01*
X434357Y232712D01*
X433469Y232031D01*
X432788Y231143D01*
X432359Y230110D01*
X432279Y229500D01*
X436000D01*
Y233221D01*
D02*
G37*
G36*
X519500Y233184D02*
X518546Y233059D01*
X517658Y232691D01*
X516895Y232105D01*
X516309Y231342D01*
X515941Y230454D01*
X515816Y229500D01*
X515941Y228546D01*
X516309Y227658D01*
X516895Y226895D01*
X517658Y226309D01*
X518546Y225941D01*
X519500Y225816D01*
X520454Y225941D01*
X521342Y226309D01*
X522105Y226895D01*
X522691Y227658D01*
X523059Y228546D01*
X523184Y229500D01*
X523059Y230454D01*
X522691Y231342D01*
X522105Y232105D01*
X521342Y232691D01*
X520454Y233059D01*
X519500Y233184D01*
D02*
G37*
G36*
X509500D02*
X508546Y233059D01*
X507658Y232691D01*
X506895Y232105D01*
X506309Y231342D01*
X505941Y230454D01*
X505816Y229500D01*
X505941Y228546D01*
X506309Y227658D01*
X506895Y226895D01*
X507658Y226309D01*
X508546Y225941D01*
X509500Y225816D01*
X510454Y225941D01*
X511342Y226309D01*
X512105Y226895D01*
X512691Y227658D01*
X513059Y228546D01*
X513184Y229500D01*
X513059Y230454D01*
X512691Y231342D01*
X512105Y232105D01*
X511342Y232691D01*
X510454Y233059D01*
X509500Y233184D01*
D02*
G37*
G36*
X499500D02*
X498546Y233059D01*
X497658Y232691D01*
X496895Y232105D01*
X496309Y231342D01*
X495941Y230454D01*
X495816Y229500D01*
X495941Y228546D01*
X496309Y227658D01*
X496895Y226895D01*
X497658Y226309D01*
X498546Y225941D01*
X499500Y225816D01*
X500454Y225941D01*
X501342Y226309D01*
X502105Y226895D01*
X502691Y227658D01*
X503059Y228546D01*
X503184Y229500D01*
X503059Y230454D01*
X502691Y231342D01*
X502105Y232105D01*
X501342Y232691D01*
X500454Y233059D01*
X499500Y233184D01*
D02*
G37*
G36*
X493453Y229000D02*
X490000D01*
Y225547D01*
X493453D01*
Y229000D01*
D02*
G37*
G36*
X489000D02*
X485547D01*
Y225547D01*
X489000D01*
Y229000D01*
D02*
G37*
G36*
X440721Y228500D02*
X437000D01*
Y224779D01*
X437609Y224859D01*
X438643Y225288D01*
X439531Y225969D01*
X440212Y226857D01*
X440641Y227890D01*
X440721Y228500D01*
D02*
G37*
G36*
X436000D02*
X432279D01*
X432359Y227890D01*
X432788Y226857D01*
X433469Y225969D01*
X434357Y225288D01*
X435391Y224859D01*
X436000Y224779D01*
Y228500D01*
D02*
G37*
G36*
X663000Y244043D02*
X660803Y243870D01*
X658660Y243356D01*
X656625Y242513D01*
X654746Y241361D01*
X653070Y239930D01*
X651639Y238254D01*
X650487Y236375D01*
X649644Y234340D01*
X649130Y232197D01*
X648957Y230000D01*
X649130Y227803D01*
X649644Y225660D01*
X650487Y223624D01*
X651639Y221746D01*
X653070Y220070D01*
X654746Y218639D01*
X656625Y217487D01*
X658660Y216644D01*
X660803Y216130D01*
X663000Y215957D01*
X665197Y216130D01*
X667340Y216644D01*
X669376Y217487D01*
X671254Y218639D01*
X672930Y220070D01*
X674361Y221746D01*
X675513Y223624D01*
X676356Y225660D01*
X676870Y227803D01*
X677043Y230000D01*
X676870Y232197D01*
X676356Y234340D01*
X675513Y236375D01*
X674361Y238254D01*
X672930Y239930D01*
X671254Y241361D01*
X669376Y242513D01*
X667340Y243356D01*
X665197Y243870D01*
X663000Y244043D01*
D02*
G37*
G36*
X278500D02*
X276303Y243870D01*
X274160Y243356D01*
X272125Y242513D01*
X270246Y241361D01*
X268570Y239930D01*
X267139Y238254D01*
X265987Y236375D01*
X265144Y234340D01*
X264630Y232197D01*
X264457Y230000D01*
X264630Y227803D01*
X265144Y225660D01*
X265987Y223624D01*
X267139Y221746D01*
X268570Y220070D01*
X270246Y218639D01*
X272125Y217487D01*
X274160Y216644D01*
X276303Y216130D01*
X278500Y215957D01*
X280697Y216130D01*
X282840Y216644D01*
X284875Y217487D01*
X286754Y218639D01*
X288430Y220070D01*
X289861Y221746D01*
X291013Y223624D01*
X291856Y225660D01*
X292370Y227803D01*
X292543Y230000D01*
X292370Y232197D01*
X291856Y234340D01*
X291013Y236375D01*
X289861Y238254D01*
X288430Y239930D01*
X286754Y241361D01*
X284875Y242513D01*
X282840Y243356D01*
X280697Y243870D01*
X278500Y244043D01*
D02*
G37*
%LPD*%
G36*
X491296Y521977D02*
X490809Y521342D01*
X490441Y520454D01*
X490316Y519500D01*
X490441Y518546D01*
X490809Y517658D01*
X491395Y516895D01*
X492158Y516309D01*
X493046Y515941D01*
X494000Y515816D01*
X494954Y515941D01*
X495572Y516197D01*
X505988Y505782D01*
X506385Y505517D01*
X506853Y505424D01*
X642115D01*
X645446Y502093D01*
Y499538D01*
X644984Y499347D01*
X639865Y504465D01*
X639468Y504730D01*
X639000Y504823D01*
X501207D01*
X490765Y515265D01*
X490368Y515530D01*
X489900Y515624D01*
X487953D01*
Y519000D01*
X480047D01*
Y515624D01*
X445993D01*
X445893Y516123D01*
X446342Y516309D01*
X447105Y516895D01*
X447691Y517658D01*
X448059Y518546D01*
X448184Y519500D01*
X448059Y520454D01*
X447802Y521072D01*
X449207Y522476D01*
X480047D01*
Y520000D01*
X487953D01*
Y522476D01*
X491114D01*
X491296Y521977D01*
D02*
G37*
G36*
X637933Y526537D02*
X637610Y526153D01*
X630347D01*
Y520577D01*
X628935Y519165D01*
X628670Y518768D01*
X628577Y518300D01*
Y510547D01*
X628670Y510079D01*
X628935Y509682D01*
X630284Y508333D01*
X630093Y507871D01*
X507360D01*
X497302Y517928D01*
X497559Y518546D01*
X497684Y519500D01*
X497559Y520454D01*
X497191Y521342D01*
X496704Y521977D01*
X496886Y522476D01*
X501114D01*
X501296Y521977D01*
X500809Y521342D01*
X500441Y520454D01*
X500316Y519500D01*
X500441Y518546D01*
X500809Y517658D01*
X501395Y516895D01*
X502158Y516309D01*
X503046Y515941D01*
X504000Y515816D01*
X504954Y515941D01*
X505572Y516197D01*
X508535Y513235D01*
X508932Y512970D01*
X509400Y512877D01*
X530900D01*
X531368Y512970D01*
X531765Y513235D01*
X555607Y537077D01*
X627393D01*
X637933Y526537D01*
D02*
G37*
G36*
X653176Y511293D02*
Y509782D01*
X652714Y509590D01*
X648940Y513365D01*
X648543Y513630D01*
X648075Y513724D01*
X637447D01*
X637191Y514342D01*
X636605Y515105D01*
X635842Y515691D01*
X634954Y516059D01*
X634000Y516184D01*
X633046Y516059D01*
X632158Y515691D01*
X631524Y515204D01*
X631024Y515386D01*
Y517793D01*
X632078Y518847D01*
X637653D01*
Y526110D01*
X638037Y526433D01*
X653176Y511293D01*
D02*
G37*
G36*
X651351Y507493D02*
Y505332D01*
X650889Y505141D01*
X646818Y509212D01*
X646421Y509478D01*
X645953Y509571D01*
X636968D01*
X636740Y510071D01*
X637191Y510658D01*
X637447Y511276D01*
X647568D01*
X651351Y507493D01*
D02*
G37*
G36*
X640923Y496479D02*
X640732Y496017D01*
X604586D01*
Y496700D01*
X604493Y497168D01*
X604287Y497476D01*
X604388Y497801D01*
X604508Y497976D01*
X639425D01*
X640923Y496479D01*
D02*
G37*
%LPC*%
G36*
X556953Y522953D02*
X553500D01*
Y519500D01*
X556953D01*
Y522953D01*
D02*
G37*
G36*
X552500D02*
X549047D01*
Y519500D01*
X552500D01*
Y522953D01*
D02*
G37*
G36*
X614500Y533223D02*
X576000D01*
X575532Y533130D01*
X575135Y532865D01*
X564572Y522302D01*
X563954Y522559D01*
X563000Y522684D01*
X562046Y522559D01*
X561158Y522191D01*
X560395Y521605D01*
X559809Y520842D01*
X559441Y519954D01*
X559316Y519000D01*
X559441Y518046D01*
X559809Y517158D01*
X560395Y516395D01*
X561158Y515809D01*
X562046Y515441D01*
X563000Y515316D01*
X563954Y515441D01*
X564842Y515809D01*
X565605Y516395D01*
X566191Y517158D01*
X566559Y518046D01*
X566684Y519000D01*
X566559Y519954D01*
X566302Y520572D01*
X576507Y530777D01*
X613993D01*
X620697Y524072D01*
X620441Y523454D01*
X620316Y522500D01*
X620441Y521546D01*
X620809Y520658D01*
X621395Y519895D01*
X622158Y519309D01*
X623046Y518941D01*
X624000Y518816D01*
X624954Y518941D01*
X625842Y519309D01*
X626605Y519895D01*
X627191Y520658D01*
X627559Y521546D01*
X627684Y522500D01*
X627559Y523454D01*
X627191Y524342D01*
X626605Y525105D01*
X625842Y525691D01*
X624954Y526059D01*
X624000Y526184D01*
X623046Y526059D01*
X622428Y525803D01*
X615365Y532865D01*
X614968Y533130D01*
X614500Y533223D01*
D02*
G37*
G36*
X583000Y522684D02*
X582046Y522559D01*
X581158Y522191D01*
X580395Y521605D01*
X579809Y520842D01*
X579441Y519954D01*
X579316Y519000D01*
X579441Y518046D01*
X579809Y517158D01*
X580395Y516395D01*
X581158Y515809D01*
X582046Y515441D01*
X583000Y515316D01*
X583954Y515441D01*
X584842Y515809D01*
X585605Y516395D01*
X586191Y517158D01*
X586559Y518046D01*
X586684Y519000D01*
X586559Y519954D01*
X586191Y520842D01*
X585605Y521605D01*
X584842Y522191D01*
X583954Y522559D01*
X583000Y522684D01*
D02*
G37*
G36*
X556953Y518500D02*
X553500D01*
Y515047D01*
X556953D01*
Y518500D01*
D02*
G37*
G36*
X552500D02*
X549047D01*
Y515047D01*
X552500D01*
Y518500D01*
D02*
G37*
G36*
X614000Y526184D02*
X613046Y526059D01*
X612158Y525691D01*
X611395Y525105D01*
X610809Y524342D01*
X610441Y523454D01*
X610316Y522500D01*
X610441Y521546D01*
X610809Y520658D01*
X611395Y519895D01*
X612158Y519309D01*
X612365Y519223D01*
X612266Y518723D01*
X608600D01*
X608132Y518630D01*
X607735Y518365D01*
X602293Y512923D01*
X580807D01*
X576302Y517428D01*
X576559Y518046D01*
X576684Y519000D01*
X576559Y519954D01*
X576191Y520842D01*
X575605Y521605D01*
X574842Y522191D01*
X573954Y522559D01*
X573000Y522684D01*
X572046Y522559D01*
X571158Y522191D01*
X570395Y521605D01*
X569809Y520842D01*
X569441Y519954D01*
X569316Y519000D01*
X569441Y518046D01*
X569809Y517158D01*
X570395Y516395D01*
X571158Y515809D01*
X572046Y515441D01*
X573000Y515316D01*
X573954Y515441D01*
X574572Y515697D01*
X579435Y510835D01*
X579832Y510570D01*
X580300Y510476D01*
X602800D01*
X603268Y510570D01*
X603665Y510835D01*
X609107Y516277D01*
X612266D01*
X612365Y515776D01*
X612158Y515691D01*
X611395Y515105D01*
X610809Y514342D01*
X610441Y513454D01*
X610316Y512500D01*
X610441Y511546D01*
X610809Y510658D01*
X611395Y509895D01*
X612158Y509309D01*
X613046Y508941D01*
X614000Y508816D01*
X614954Y508941D01*
X615842Y509309D01*
X616605Y509895D01*
X617191Y510658D01*
X617559Y511546D01*
X617684Y512500D01*
X617559Y513454D01*
X617191Y514342D01*
X616605Y515105D01*
X615842Y515691D01*
X615635Y515776D01*
X615734Y516277D01*
X618493D01*
X620697Y514072D01*
X620441Y513454D01*
X620316Y512500D01*
X620441Y511546D01*
X620809Y510658D01*
X621395Y509895D01*
X622158Y509309D01*
X623046Y508941D01*
X624000Y508816D01*
X624954Y508941D01*
X625842Y509309D01*
X626605Y509895D01*
X627191Y510658D01*
X627559Y511546D01*
X627684Y512500D01*
X627559Y513454D01*
X627191Y514342D01*
X626605Y515105D01*
X625842Y515691D01*
X624954Y516059D01*
X624000Y516184D01*
X623046Y516059D01*
X622428Y515802D01*
X619865Y518365D01*
X619468Y518630D01*
X619000Y518723D01*
X615734D01*
X615635Y519223D01*
X615842Y519309D01*
X616605Y519895D01*
X617191Y520658D01*
X617559Y521546D01*
X617684Y522500D01*
X617559Y523454D01*
X617191Y524342D01*
X616605Y525105D01*
X615842Y525691D01*
X614954Y526059D01*
X614000Y526184D01*
D02*
G37*
%LPD*%
G36*
X612608Y407777D02*
X611825Y407175D01*
X611223Y406392D01*
X610845Y405479D01*
X610716Y404500D01*
X610845Y403521D01*
X611223Y402608D01*
X611825Y401825D01*
X612478Y401324D01*
X612316Y400823D01*
X580807D01*
X574845Y406785D01*
X574888Y407000D01*
X574737Y407761D01*
X574687Y407835D01*
X574923Y408277D01*
X612508D01*
X612608Y407777D01*
D02*
G37*
G36*
X611223Y412608D02*
X611825Y411825D01*
X612608Y411223D01*
X612508Y410723D01*
X559900D01*
X559432Y410630D01*
X559035Y410365D01*
X554535Y405865D01*
X554270Y405468D01*
X554177Y405000D01*
Y387652D01*
X553677Y387501D01*
X553406Y387906D01*
X552761Y388337D01*
X552000Y388488D01*
X551785Y388445D01*
X542665Y397565D01*
X542268Y397830D01*
X541800Y397923D01*
X527407D01*
X527216Y398385D01*
X542107Y413276D01*
X610947D01*
X611223Y412608D01*
D02*
G37*
G36*
X550055Y386715D02*
X550012Y386500D01*
X550163Y385739D01*
X550594Y385094D01*
X551239Y384663D01*
X552000Y384512D01*
X552761Y384663D01*
X553406Y385094D01*
X553677Y385499D01*
X554177Y385348D01*
Y376507D01*
X552360Y374690D01*
X551882Y374836D01*
X551837Y375061D01*
X551406Y375706D01*
X550761Y376137D01*
X550000Y376288D01*
X549785Y376245D01*
X537445Y388585D01*
X537488Y388800D01*
X537337Y389561D01*
X536906Y390206D01*
X536261Y390637D01*
X535500Y390788D01*
X534739Y390637D01*
X534094Y390206D01*
X533663Y389561D01*
X533512Y388800D01*
X533663Y388039D01*
X534094Y387394D01*
X534739Y386963D01*
X535500Y386812D01*
X535715Y386855D01*
X548055Y374515D01*
X548012Y374300D01*
X548163Y373539D01*
X548594Y372894D01*
X549239Y372463D01*
X549464Y372418D01*
X549610Y371940D01*
X548798Y371128D01*
X548306Y371155D01*
X548206Y371306D01*
X547561Y371737D01*
X546800Y371888D01*
X546039Y371737D01*
X545394Y371306D01*
X544963Y370661D01*
X544812Y369900D01*
X544963Y369139D01*
X545394Y368494D01*
X546039Y368063D01*
X546238Y368023D01*
X546189Y367524D01*
X537184D01*
X537037Y368261D01*
X536606Y368906D01*
X535961Y369337D01*
X535200Y369488D01*
X534439Y369337D01*
X534270Y369223D01*
X524300D01*
X523832Y369130D01*
X523435Y368865D01*
X522093Y367524D01*
X509552D01*
X509401Y368023D01*
X509806Y368294D01*
X510237Y368939D01*
X510388Y369700D01*
X510237Y370461D01*
X509806Y371106D01*
X509623Y371228D01*
Y378389D01*
X526711Y395477D01*
X541293D01*
X550055Y386715D01*
D02*
G37*
G36*
X507176Y377693D02*
Y371228D01*
X506994Y371106D01*
X506563Y370461D01*
X506412Y369700D01*
X506563Y368939D01*
X506994Y368294D01*
X507399Y368023D01*
X507247Y367524D01*
X506628D01*
X506506Y367706D01*
X505861Y368137D01*
X505100Y368288D01*
X504339Y368137D01*
X503694Y367706D01*
X503263Y367061D01*
X503172Y366602D01*
X494393Y357823D01*
X488507D01*
X487536Y358794D01*
X487783Y359255D01*
X488250Y359162D01*
X489011Y359313D01*
X489656Y359744D01*
X490087Y360389D01*
X490238Y361150D01*
X490195Y361365D01*
X506714Y377884D01*
X507176Y377693D01*
D02*
G37*
G36*
X554177Y372393D02*
Y362507D01*
X553715Y362316D01*
X548865Y367165D01*
X548468Y367430D01*
X548000Y367524D01*
X547411D01*
X547362Y368023D01*
X547561Y368063D01*
X548206Y368494D01*
X548328Y368676D01*
X549300D01*
X549768Y368770D01*
X550165Y369035D01*
X553715Y372584D01*
X554177Y372393D01*
D02*
G37*
G36*
X529665Y365076D02*
X547493D01*
X552477Y360093D01*
Y336169D01*
X547831D01*
Y335666D01*
X547606Y335528D01*
X547331Y335458D01*
X546846Y335831D01*
X546197Y336100D01*
X545500Y336192D01*
X544803Y336100D01*
X544154Y335831D01*
X543597Y335403D01*
X543169Y334846D01*
X542900Y334197D01*
X542808Y333500D01*
X542900Y332803D01*
X543169Y332154D01*
X543597Y331597D01*
X543982Y331301D01*
X544019Y331201D01*
Y330799D01*
X543982Y330699D01*
X543597Y330403D01*
X543169Y329846D01*
X542900Y329197D01*
X542808Y328500D01*
X542900Y327803D01*
X543169Y327154D01*
X543597Y326597D01*
X544154Y326169D01*
X544803Y325900D01*
X545500Y325809D01*
X546197Y325900D01*
X546319Y325951D01*
X547446Y324823D01*
X547239Y324324D01*
X543207D01*
X528224Y339307D01*
Y363972D01*
X528406Y364094D01*
X528837Y364739D01*
X528898Y365046D01*
X529197Y365170D01*
X529665Y365076D01*
D02*
G37*
G36*
X571113Y407835D02*
X571063Y407761D01*
X570912Y407000D01*
X571063Y406239D01*
X571494Y405594D01*
X572139Y405163D01*
X572900Y405012D01*
X573115Y405055D01*
X579435Y398735D01*
X579832Y398470D01*
X580300Y398376D01*
X612750D01*
X612849Y397877D01*
X612608Y397777D01*
X611825Y397175D01*
X611223Y396392D01*
X610845Y395479D01*
X610716Y394500D01*
X610845Y393521D01*
X611122Y392852D01*
X566735Y348465D01*
X566470Y348068D01*
X566376Y347600D01*
Y328507D01*
X562193Y324324D01*
X555461D01*
X555254Y324823D01*
X556265Y325835D01*
X556530Y326232D01*
X556624Y326700D01*
Y376000D01*
Y404493D01*
X560407Y408277D01*
X570877D01*
X571113Y407835D01*
D02*
G37*
D10*
X494900Y356600D02*
X504500Y366200D01*
X529665Y366300D02*
X548000D01*
X505100D02*
X524335D01*
X505100D02*
X522600D01*
X504800D02*
X505100D01*
X522600D02*
X524300Y368000D01*
X534700D01*
X535200Y367500D01*
X528015Y367950D02*
X529665Y366300D01*
X524335D02*
X525985Y367950D01*
X528015D01*
X527000Y338800D02*
X542700Y323100D01*
X527000Y338800D02*
Y365500D01*
X548000Y366300D02*
X553700Y360600D01*
X625016Y462587D02*
Y477284D01*
X620500Y481800D02*
X625016Y477284D01*
X571200Y481800D02*
X620500D01*
X568000Y485000D02*
X571200Y481800D01*
X605331Y487400D02*
Y492413D01*
X621079Y462587D02*
Y472000D01*
X616079Y477000D02*
X621079Y472000D01*
X580000Y477000D02*
X616079D01*
X568000Y465000D02*
X580000Y477000D01*
X623047Y462587D02*
Y474200D01*
X617947Y479300D02*
X623047Y474200D01*
X572300Y479300D02*
X617947D01*
X568000Y475000D02*
X572300Y479300D01*
X508400Y369700D02*
Y378896D01*
X526204Y396700D01*
X541800D01*
X552000Y386500D01*
X482700Y305200D02*
Y343050D01*
X436500Y259000D02*
X482700Y305200D01*
X631150Y448000D02*
X655850D01*
X623047Y459347D02*
Y462587D01*
X621800Y458100D02*
X623047Y459347D01*
X621800Y448000D02*
Y458100D01*
Y448000D02*
X624850D01*
X625000Y454550D02*
Y455000D01*
Y454550D02*
X631150Y448400D01*
Y448000D02*
Y448400D01*
X625016Y458716D02*
Y462587D01*
X625000Y458700D02*
X625016Y458716D01*
X625000Y455000D02*
Y458700D01*
X488000Y356600D02*
X494900D01*
X485800Y358800D02*
X488000Y356600D01*
X485800Y358800D02*
Y381800D01*
X523100Y419100D01*
X581500D01*
X613100Y435900D02*
X624500Y424500D01*
X495400Y480400D02*
X501000Y486000D01*
X455500Y480400D02*
X495400D01*
X426600Y509300D02*
X455500Y480400D01*
X553700Y330300D02*
Y360600D01*
X552300Y330300D02*
X553700D01*
X550500Y328500D02*
X552300Y330300D01*
X555400Y376000D02*
Y405000D01*
Y326700D02*
Y376000D01*
X603362Y492413D02*
Y496700D01*
X576700D02*
X603362D01*
X619500Y409500D02*
X624500Y414500D01*
X559900Y409500D02*
X619500D01*
X549300Y369900D02*
X555400Y376000D01*
X546800Y369900D02*
X549300D01*
X545500Y328500D02*
X548700Y325300D01*
X554000D01*
X555400Y326700D01*
Y405000D02*
X559900Y409500D01*
X471000Y486000D02*
X476853Y491853D01*
X592347D01*
X596638Y487562D01*
X602000D01*
X603362Y488924D01*
Y492413D01*
X499500Y249000D02*
X610000Y359500D01*
X619500D01*
X624500Y364500D01*
X608000Y328000D02*
X615500D01*
X619500Y332000D01*
Y349500D01*
X624500Y354500D01*
X436500Y244000D02*
X640500D01*
X678500Y282000D01*
X624500Y404500D02*
X630500Y410500D01*
X662000D01*
X662300Y410800D01*
X634000Y512500D02*
X648075D01*
X652575Y508000D01*
Y492413D02*
Y508000D01*
X629800Y510547D02*
Y518300D01*
Y510547D02*
X632000Y508347D01*
X629800Y518300D02*
X634000Y522500D01*
X650606Y492413D02*
Y503694D01*
X632000Y508347D02*
X645953D01*
X650606Y503694D01*
X607299Y431701D02*
Y462587D01*
Y431701D02*
X614500Y424500D01*
X597600Y424000D02*
Y466700D01*
Y424000D02*
X602800Y418800D01*
X597600Y466700D02*
X601394D01*
Y462587D02*
Y466700D01*
X602800Y418800D02*
X681200D01*
X603362Y455138D02*
X603400Y455100D01*
X603362Y455138D02*
Y462587D01*
X632200Y338300D02*
X678500Y292000D01*
X599425Y451275D02*
X601300Y449400D01*
X599425Y451275D02*
Y462587D01*
X644600Y345900D02*
X678500Y312000D01*
X648600Y392000D02*
X678500D01*
X648638Y458200D02*
X654400D01*
X648638D02*
Y462587D01*
X654400Y458200D02*
Y472400D01*
X646669Y462587D02*
Y466969D01*
X648400Y468700D01*
X652500Y382000D02*
X678500D01*
X644701Y462587D02*
Y465999D01*
X656300Y478100D02*
X672000Y462400D01*
X644700Y466000D02*
X644701Y465999D01*
X644700Y466000D02*
Y473903D01*
X648897Y478100D02*
X656300D01*
X644700Y473903D02*
X648897Y478100D01*
X642732Y458000D02*
X644732Y456000D01*
X654800D01*
X642732Y458000D02*
Y462587D01*
X678500Y362000D02*
X685500Y369000D01*
X654800Y456000D02*
X685500Y425300D01*
Y369000D02*
Y425300D01*
X362157Y312780D02*
X374657Y325280D01*
X394803D01*
X535500Y388800D02*
X550000Y374300D01*
X488250Y361150D02*
X541600Y414500D01*
X614500D01*
X439600Y514400D02*
X489900D01*
X500700Y503600D01*
X434500Y519500D02*
X439600Y514400D01*
X644701Y492413D02*
Y497899D01*
X500700Y503600D02*
X639000D01*
X644701Y497899D01*
X504000Y519500D02*
X509400Y514100D01*
X530900D01*
X627900Y538300D02*
X654400Y511800D01*
X555100Y538300D02*
X627900D01*
X530900Y514100D02*
X555100Y538300D01*
X648638Y489000D02*
X649638Y488000D01*
X653400D01*
X654400Y489000D01*
X648638D02*
Y492413D01*
X654400Y489000D02*
Y511800D01*
X580300Y511700D02*
X602800D01*
X573000Y519000D02*
X580300Y511700D01*
X602800D02*
X608600Y517500D01*
X619000D01*
X624000Y512500D01*
X444800Y499200D02*
X639932D01*
X424500Y519500D02*
X444800Y499200D01*
X639932D02*
X642732Y496400D01*
Y492413D02*
Y496400D01*
X506853Y506647D02*
X642622D01*
X494000Y519500D02*
X506853Y506647D01*
X642622D02*
X646669Y502600D01*
Y492413D02*
Y502600D01*
X563000Y519000D02*
X576000Y532000D01*
X614500D01*
X624000Y522500D01*
X347980Y388780D02*
X400220D01*
X444500Y344500D01*
X542700Y323100D02*
X562700D01*
X567600Y328000D01*
Y347600D01*
X614500Y394500D01*
X444500Y519500D02*
X448700Y523700D01*
X509800D02*
X514000Y519500D01*
X448700Y523700D02*
X509800D01*
X306480Y388280D02*
X316900D01*
X317400Y388780D01*
X327980D01*
X440200Y388800D02*
Y408000D01*
Y388800D02*
X444500Y384500D01*
X440200Y408000D02*
X442400Y410200D01*
X458800D01*
X486400Y437800D01*
Y456300D01*
X502500Y472400D01*
X531000D01*
X619400Y399600D02*
X624500Y394500D01*
X572900Y407000D02*
X580300Y399600D01*
X619400D01*
D20*
X631150Y448000D02*
D03*
X624850D02*
D03*
D22*
X631299Y455000D02*
D03*
X625000D02*
D03*
D55*
X568000D02*
D03*
Y465000D02*
D03*
Y475000D02*
D03*
X634000Y512500D02*
D03*
X624000Y522500D02*
D03*
Y512500D02*
D03*
X614000Y522500D02*
D03*
Y512500D02*
D03*
X519500Y229500D02*
D03*
X509500D02*
D03*
X499500D02*
D03*
X444500Y519500D02*
D03*
X434500D02*
D03*
X424500D02*
D03*
X583000Y519000D02*
D03*
X573000D02*
D03*
X563000D02*
D03*
X481000Y486000D02*
D03*
X491000D02*
D03*
X501000D02*
D03*
X511000D02*
D03*
X521000D02*
D03*
X531000D02*
D03*
X541000D02*
D03*
X514000Y519500D02*
D03*
X504000D02*
D03*
X494000D02*
D03*
X296480Y388280D02*
D03*
D56*
X568000Y485000D02*
D03*
D57*
X634000Y522500D02*
D03*
X489500Y229500D02*
D03*
X414500Y519500D02*
D03*
X553000Y519000D02*
D03*
X471000Y486000D02*
D03*
X484000Y519500D02*
D03*
X306480Y388280D02*
D03*
D58*
X550500Y333500D02*
D03*
X315480Y269280D02*
D03*
D59*
X550500Y328500D02*
D03*
X545500Y333500D02*
D03*
Y328500D02*
D03*
X310480Y269280D02*
D03*
D60*
X678500Y412000D02*
D03*
Y402000D02*
D03*
Y392000D02*
D03*
Y382000D02*
D03*
Y372000D02*
D03*
Y362000D02*
D03*
Y352000D02*
D03*
Y342000D02*
D03*
Y332000D02*
D03*
Y322000D02*
D03*
Y312000D02*
D03*
Y302000D02*
D03*
Y292000D02*
D03*
Y282000D02*
D03*
Y272000D02*
D03*
D61*
Y262000D02*
D03*
D62*
X436500Y229000D02*
D03*
Y259000D02*
D03*
Y244000D02*
D03*
D63*
X382480Y280780D02*
D03*
X377480Y285780D02*
D03*
X372480Y280780D02*
D03*
X381480Y350780D02*
D03*
X376480Y355780D02*
D03*
X371480Y350780D02*
D03*
D64*
X454500Y334500D02*
D03*
Y344500D02*
D03*
Y354500D02*
D03*
Y364500D02*
D03*
Y374500D02*
D03*
Y384500D02*
D03*
Y394500D02*
D03*
Y404500D02*
D03*
Y414500D02*
D03*
Y424500D02*
D03*
X444500Y334500D02*
D03*
Y344500D02*
D03*
Y354500D02*
D03*
Y364500D02*
D03*
Y374500D02*
D03*
Y384500D02*
D03*
Y394500D02*
D03*
Y404500D02*
D03*
Y414500D02*
D03*
Y424500D02*
D03*
X614500D02*
D03*
Y414500D02*
D03*
Y404500D02*
D03*
Y394500D02*
D03*
Y384500D02*
D03*
Y374500D02*
D03*
Y364500D02*
D03*
Y354500D02*
D03*
Y344500D02*
D03*
Y334500D02*
D03*
X624500Y424500D02*
D03*
Y414500D02*
D03*
Y404500D02*
D03*
Y394500D02*
D03*
Y384500D02*
D03*
Y374500D02*
D03*
Y364500D02*
D03*
Y354500D02*
D03*
Y344500D02*
D03*
D65*
X327980Y388780D02*
D03*
X337980D02*
D03*
D66*
X347980D02*
D03*
D67*
X394803Y325280D02*
D03*
Y312780D02*
D03*
D68*
X362157Y325280D02*
D03*
Y312780D02*
D03*
D69*
X401980Y361780D02*
D03*
Y341780D02*
D03*
Y351780D02*
D03*
D70*
X624500Y334500D02*
D03*
D71*
X535200Y367500D02*
D03*
X527000Y365500D02*
D03*
X605331Y487400D02*
D03*
X508400Y369700D02*
D03*
X552000Y386500D02*
D03*
X482700Y343050D02*
D03*
X655850Y448000D02*
D03*
X581500Y419100D02*
D03*
X613100Y435900D02*
D03*
X628000Y316500D02*
D03*
X426600Y509300D02*
D03*
X505100Y366300D02*
D03*
X576700Y496700D02*
D03*
X546800Y369900D02*
D03*
X499500Y249000D02*
D03*
X608000Y328000D02*
D03*
X662300Y410800D02*
D03*
X681200Y418800D02*
D03*
X603400Y455100D02*
D03*
X632200Y338300D02*
D03*
X644600Y345900D02*
D03*
X601300Y449400D02*
D03*
X648600Y392000D02*
D03*
X654400Y472400D02*
D03*
X648400Y468700D02*
D03*
X652500Y382000D02*
D03*
X672000Y462400D02*
D03*
X535500Y388800D02*
D03*
X550000Y374300D02*
D03*
X488250Y361150D02*
D03*
X531000Y472400D02*
D03*
X572900Y407000D02*
D03*
D72*
X278500Y530000D02*
D03*
Y230000D02*
D03*
X663000D02*
D03*
Y530000D02*
D03*
D73*
X652575Y462587D02*
D03*
X650606D02*
D03*
X648638D02*
D03*
X646669D02*
D03*
X644701D02*
D03*
X642732D02*
D03*
X640764D02*
D03*
X638795D02*
D03*
X636827D02*
D03*
X634858D02*
D03*
X632890D02*
D03*
X630921D02*
D03*
X628953D02*
D03*
X626984D02*
D03*
X625016D02*
D03*
X623047D02*
D03*
X621079D02*
D03*
X619110D02*
D03*
X617142D02*
D03*
X615173D02*
D03*
X613205D02*
D03*
X611236D02*
D03*
X609268D02*
D03*
X607299D02*
D03*
X605331D02*
D03*
X603362D02*
D03*
X601394D02*
D03*
X599425D02*
D03*
Y492413D02*
D03*
X601394D02*
D03*
X603362D02*
D03*
X605331D02*
D03*
X607299D02*
D03*
X609268D02*
D03*
X611236D02*
D03*
X613205D02*
D03*
X615173D02*
D03*
X617142D02*
D03*
X619110D02*
D03*
X621079D02*
D03*
X623047D02*
D03*
X625016D02*
D03*
X626984D02*
D03*
X628953D02*
D03*
X630921D02*
D03*
X632890D02*
D03*
X634858D02*
D03*
X636827D02*
D03*
X638795D02*
D03*
X640764D02*
D03*
X642732D02*
D03*
X644701D02*
D03*
X646669D02*
D03*
X648638D02*
D03*
X650606D02*
D03*
X652575D02*
D03*
M02*
