G04*
G04 #@! TF.GenerationSoftware,Altium Limited,Altium Designer,19.1.5 (86)*
G04*
G04 Layer_Color=65535*
%FSLAX25Y25*%
%MOIN*%
G70*
G01*
G75*
%ADD10C,0.01000*%
%ADD11C,0.00984*%
%ADD12C,0.00787*%
%ADD13C,0.00500*%
%ADD14C,0.00394*%
%ADD15C,0.00050*%
%ADD16C,0.00600*%
%ADD17C,0.00800*%
%ADD18C,0.00700*%
D10*
X427000Y244200D02*
G03*
X427000Y244200I-6500J0D01*
G01*
X722280Y489894D02*
X763067D01*
Y290386D02*
Y489894D01*
X722280Y290386D02*
Y489894D01*
Y290386D02*
X763067D01*
X693067Y537394D02*
X792280D01*
X693067Y249992D02*
X792280D01*
Y537394D01*
X693067Y249992D02*
Y537394D01*
X670626Y230504D02*
X812358D01*
X670626D02*
Y545465D01*
X812358Y230504D02*
Y545465D01*
X670626D02*
X812358D01*
X403000Y225000D02*
Y263000D01*
Y225000D02*
X440500D01*
Y263000D01*
X403000D02*
X440500D01*
X632500Y529500D02*
Y535498D01*
X635499D01*
X636499Y534498D01*
Y532499D01*
X635499Y531499D01*
X632500D01*
X609500Y536500D02*
Y542498D01*
X612499D01*
X613499Y541498D01*
Y539499D01*
X612499Y538499D01*
X609500D01*
X615498Y536500D02*
X617497D01*
X616498D01*
Y542498D01*
X615498Y541498D01*
X620496Y536500D02*
X622496D01*
X621496D01*
Y542498D01*
X620496Y541498D01*
X396000Y517000D02*
Y522998D01*
X398999D01*
X399999Y521998D01*
Y519999D01*
X398999Y518999D01*
X396000D01*
X405997Y522998D02*
X401998D01*
Y519999D01*
X403997Y520999D01*
X404997D01*
X405997Y519999D01*
Y518000D01*
X404997Y517000D01*
X402998D01*
X401998Y518000D01*
X535500Y515500D02*
Y521498D01*
X538499D01*
X539499Y520498D01*
Y518499D01*
X538499Y517499D01*
X535500D01*
X541498Y520498D02*
X542498Y521498D01*
X544497D01*
X545497Y520498D01*
Y519499D01*
X544497Y518499D01*
X543497D01*
X544497D01*
X545497Y517499D01*
Y516500D01*
X544497Y515500D01*
X542498D01*
X541498Y516500D01*
X481000Y290500D02*
Y296498D01*
X483999D01*
X484999Y295498D01*
Y293499D01*
X483999Y292499D01*
X481000D01*
X486998Y296498D02*
Y290500D01*
X490997D01*
X492996D02*
Y294499D01*
X494995Y296498D01*
X496995Y294499D01*
Y290500D01*
Y293499D01*
X492996D01*
X502993Y295498D02*
X501993Y296498D01*
X499994D01*
X498994Y295498D01*
Y291500D01*
X499994Y290500D01*
X501993D01*
X502993Y291500D01*
X508991Y296498D02*
X504992D01*
Y290500D01*
X508991D01*
X504992Y293499D02*
X506992D01*
X519987Y296498D02*
X517988D01*
X516988Y295498D01*
Y291500D01*
X517988Y290500D01*
X519987D01*
X520987Y291500D01*
Y295498D01*
X519987Y296498D01*
X522986Y290500D02*
Y296498D01*
X526985Y290500D01*
Y296498D01*
X534982D02*
X538981D01*
X536982D01*
Y290500D01*
X543980Y296498D02*
X541980D01*
X540981Y295498D01*
Y291500D01*
X541980Y290500D01*
X543980D01*
X544979Y291500D01*
Y295498D01*
X543980Y296498D01*
X546979Y290500D02*
Y296498D01*
X549978D01*
X550977Y295498D01*
Y293499D01*
X549978Y292499D01*
X546979D01*
X561974Y296498D02*
X559974D01*
X558975Y295498D01*
Y291500D01*
X559974Y290500D01*
X561974D01*
X562973Y291500D01*
Y295498D01*
X561974Y296498D01*
X568972D02*
X564973D01*
Y293499D01*
X566972D01*
X564973D01*
Y290500D01*
X576969Y296498D02*
Y290500D01*
X580968D01*
X582967D02*
Y294499D01*
X584966Y296498D01*
X586966Y294499D01*
Y290500D01*
Y293499D01*
X582967D01*
X588965Y296498D02*
Y291500D01*
X589965Y290500D01*
X591964D01*
X592964Y291500D01*
Y296498D01*
X594963Y290500D02*
Y296498D01*
X598962Y290500D01*
Y296498D01*
X604960Y295498D02*
X603960Y296498D01*
X601961D01*
X600961Y295498D01*
Y291500D01*
X601961Y290500D01*
X603960D01*
X604960Y291500D01*
X606959Y296498D02*
Y290500D01*
Y293499D01*
X610958D01*
Y296498D01*
Y290500D01*
X612957D02*
Y296498D01*
X615956D01*
X616956Y295498D01*
Y293499D01*
X615956Y292499D01*
X612957D01*
X618955Y290500D02*
Y294499D01*
X620955Y296498D01*
X622954Y294499D01*
Y290500D01*
Y293499D01*
X618955D01*
X624953Y296498D02*
Y290500D01*
X627952D01*
X628952Y291500D01*
Y295498D01*
X627952Y296498D01*
X624953D01*
X309979Y259281D02*
X310978Y260280D01*
Y262280D01*
X309979Y263280D01*
X305980D01*
X304980Y262280D01*
Y260280D01*
X305980Y259281D01*
X307979D01*
Y261280D01*
X304980Y257281D02*
X310978D01*
X304980Y253283D01*
X310978D01*
Y251283D02*
X304980D01*
Y248284D01*
X305980Y247285D01*
X309979D01*
X310978Y248284D01*
Y251283D01*
X319978Y260280D02*
Y262280D01*
X318979Y263280D01*
X314980D01*
X313980Y262280D01*
Y260280D01*
X314980Y259281D01*
X318979D01*
X319978Y260280D01*
Y257281D02*
X314980D01*
X313980Y256282D01*
Y254282D01*
X314980Y253283D01*
X319978D01*
Y251283D02*
Y247285D01*
Y249284D01*
X313980D01*
X303982Y399779D02*
Y397779D01*
X304982Y396779D01*
X308981D01*
X309980Y397779D01*
Y399779D01*
X308981Y400778D01*
X304982D01*
X303982Y399779D01*
Y402778D02*
X308981D01*
X309980Y403777D01*
Y405777D01*
X308981Y406776D01*
X303982D01*
Y408776D02*
Y412774D01*
Y410775D01*
X309980D01*
X293482Y400778D02*
X292482Y399779D01*
Y397779D01*
X293482Y396779D01*
X297481D01*
X298480Y397779D01*
Y399779D01*
X297481Y400778D01*
X295481D01*
Y398779D01*
X298480Y402778D02*
X292482D01*
X298480Y406776D01*
X292482D01*
Y408776D02*
X298480D01*
Y411775D01*
X297481Y412774D01*
X293482D01*
X292482Y411775D01*
Y408776D01*
X295500Y458500D02*
Y464498D01*
X298499D01*
X299499Y463498D01*
Y461499D01*
X298499Y460499D01*
X295500D01*
X301498Y464498D02*
Y459500D01*
X302498Y458500D01*
X304497D01*
X305497Y459500D01*
Y464498D01*
X307496D02*
X311495D01*
X309495D01*
Y458500D01*
X323491Y463498D02*
X322491Y464498D01*
X320492D01*
X319492Y463498D01*
Y462499D01*
X320492Y461499D01*
X322491D01*
X323491Y460499D01*
Y459500D01*
X322491Y458500D01*
X320492D01*
X319492Y459500D01*
X325490Y458500D02*
Y464498D01*
X328489D01*
X329489Y463498D01*
Y461499D01*
X328489Y460499D01*
X325490D01*
X335487Y464498D02*
X331488D01*
Y458500D01*
X335487D01*
X331488Y461499D02*
X333488D01*
X337486Y458500D02*
Y462499D01*
X339486Y464498D01*
X341485Y462499D01*
Y458500D01*
Y461499D01*
X337486D01*
X343484Y464498D02*
Y458500D01*
Y460499D01*
X347483Y464498D01*
X344484Y461499D01*
X347483Y458500D01*
X353481Y464498D02*
X349482D01*
Y458500D01*
X353481D01*
X349482Y461499D02*
X351482D01*
X355481Y458500D02*
Y464498D01*
X358480D01*
X359479Y463498D01*
Y461499D01*
X358480Y460499D01*
X355481D01*
X357480D02*
X359479Y458500D01*
X367477Y464498D02*
Y458500D01*
Y461499D01*
X371475D01*
Y464498D01*
Y458500D01*
X377473Y464498D02*
X373475D01*
Y458500D01*
X377473D01*
X373475Y461499D02*
X375474D01*
X379473Y458500D02*
Y464498D01*
X382472D01*
X383471Y463498D01*
Y461499D01*
X382472Y460499D01*
X379473D01*
X381472D02*
X383471Y458500D01*
X389470Y464498D02*
X385471D01*
Y458500D01*
X389470D01*
X385471Y461499D02*
X387470D01*
X466500Y542499D02*
X468499Y544498D01*
X470499Y542499D01*
X482495Y545498D02*
X478496D01*
Y542499D01*
X480496D01*
X478496D01*
Y539500D01*
X484494D02*
Y545498D01*
X487493D01*
X488493Y544498D01*
Y542499D01*
X487493Y541499D01*
X484494D01*
X486493D02*
X488493Y539500D01*
X493491Y545498D02*
X491492D01*
X490492Y544498D01*
Y540500D01*
X491492Y539500D01*
X493491D01*
X494491Y540500D01*
Y544498D01*
X493491Y545498D01*
X496490Y539500D02*
Y545498D01*
X500489Y539500D01*
Y545498D01*
X502488D02*
X506487D01*
X504488D01*
Y539500D01*
X508486D02*
X512485Y543499D01*
X514485Y545498D02*
X516484D01*
X515484D01*
Y539500D01*
X514485D01*
X516484D01*
X519483D02*
Y545498D01*
X521482Y543499D01*
X523482Y545498D01*
Y539500D01*
X525481Y545498D02*
Y540500D01*
X526481Y539500D01*
X528480D01*
X529480Y540500D01*
Y545498D01*
X537477D02*
X541476Y539500D01*
Y545498D02*
X537477Y539500D01*
X549473Y542499D02*
X551473Y544498D01*
X553472Y542499D01*
X482499Y530500D02*
X479500Y533499D01*
X482499Y536498D01*
X485498Y533499D02*
X489497D01*
X497494Y536498D02*
X499494D01*
X498494D01*
Y530500D01*
X497494D01*
X499494D01*
X502493D02*
Y536498D01*
X504492Y534499D01*
X506491Y536498D01*
Y530500D01*
X508491Y536498D02*
Y531500D01*
X509490Y530500D01*
X511490D01*
X512489Y531500D01*
Y536498D01*
X520487D02*
Y535498D01*
X522486Y533499D01*
X524485Y535498D01*
Y536498D01*
X522486Y533499D02*
Y530500D01*
X566500Y357835D02*
X563168Y361167D01*
X566500D02*
X563168Y357835D01*
X566500Y359501D02*
X563168D01*
X564834Y361167D02*
Y357835D01*
X539500Y314000D02*
X533502D01*
Y316999D01*
X534502Y317999D01*
X536501D01*
X537501Y316999D01*
Y314000D01*
X539500Y319998D02*
Y321997D01*
Y320998D01*
X533502D01*
X534502Y319998D01*
Y324996D02*
X533502Y325996D01*
Y327995D01*
X534502Y328995D01*
X538500D01*
X539500Y327995D01*
Y325996D01*
X538500Y324996D01*
X534502D01*
X653800Y409100D02*
Y415098D01*
X656799D01*
X657799Y414098D01*
Y412099D01*
X656799Y411099D01*
X653800D01*
X655799D02*
X657799Y409100D01*
X663797D02*
X659798D01*
X663797Y413099D01*
Y414098D01*
X662797Y415098D01*
X660798D01*
X659798Y414098D01*
X665796D02*
X666796Y415098D01*
X668795D01*
X669795Y414098D01*
Y410100D01*
X668795Y409100D01*
X666796D01*
X665796Y410100D01*
Y414098D01*
X403500Y266500D02*
Y272498D01*
X406499D01*
X407499Y271498D01*
Y269499D01*
X406499Y268499D01*
X403500D01*
X405499D02*
X407499Y266500D01*
X409498D02*
X411497D01*
X410498D01*
Y272498D01*
X409498Y271498D01*
X414496D02*
X415496Y272498D01*
X417495D01*
X418495Y271498D01*
Y270499D01*
X417495Y269499D01*
X418495Y268499D01*
Y267500D01*
X417495Y266500D01*
X415496D01*
X414496Y267500D01*
Y268499D01*
X415496Y269499D01*
X414496Y270499D01*
Y271498D01*
X415496Y269499D02*
X417495D01*
X538500Y463000D02*
X544498D01*
Y460001D01*
X543498Y459001D01*
X541499D01*
X540499Y460001D01*
Y463000D01*
X539500Y457002D02*
X538500Y456002D01*
Y454003D01*
X539500Y453003D01*
X543498D01*
X544498Y454003D01*
Y456002D01*
X543498Y457002D01*
X542499D01*
X541499Y456002D01*
Y453003D01*
X671100Y554998D02*
Y549000D01*
X674099D01*
X675099Y550000D01*
Y553998D01*
X674099Y554998D01*
X671100D01*
X681097Y553998D02*
X680097Y554998D01*
X678098D01*
X677098Y553998D01*
Y552999D01*
X678098Y551999D01*
X680097D01*
X681097Y550999D01*
Y550000D01*
X680097Y549000D01*
X678098D01*
X677098Y550000D01*
X683096Y549000D02*
X685096D01*
X684096D01*
Y554998D01*
X683096Y553998D01*
X288980Y290280D02*
X294978D01*
Y287281D01*
X293979Y286281D01*
X291979D01*
X290980Y287281D01*
Y290280D01*
Y288280D02*
X288980Y286281D01*
Y284281D02*
Y282282D01*
Y283282D01*
X294978D01*
X293979Y284281D01*
Y279283D02*
X294978Y278283D01*
Y276284D01*
X293979Y275284D01*
X292979D01*
X291979Y276284D01*
Y277284D01*
Y276284D01*
X290980Y275284D01*
X289980D01*
X288980Y276284D01*
Y278283D01*
X289980Y279283D01*
X302479Y286281D02*
X303478Y287281D01*
Y289280D01*
X302479Y290280D01*
X298480D01*
X297480Y289280D01*
Y287281D01*
X298480Y286281D01*
X303478Y284281D02*
Y280283D01*
X302479D01*
X298480Y284281D01*
X297480D01*
X589000Y432500D02*
X583002D01*
Y435499D01*
X584002Y436499D01*
X586001D01*
X587001Y435499D01*
Y432500D01*
Y434499D02*
X589000Y436499D01*
Y438498D02*
Y440497D01*
Y439498D01*
X583002D01*
X584002Y438498D01*
X583002Y447495D02*
X584002Y445496D01*
X586001Y443496D01*
X588000D01*
X589000Y444496D01*
Y446495D01*
X588000Y447495D01*
X587001D01*
X586001Y446495D01*
Y443496D01*
X589500Y415000D02*
X583502D01*
Y417999D01*
X584502Y418999D01*
X586501D01*
X587501Y417999D01*
Y415000D01*
Y416999D02*
X589500Y418999D01*
Y420998D02*
Y422997D01*
Y421998D01*
X583502D01*
X584502Y420998D01*
X583502Y425996D02*
Y429995D01*
X584502D01*
X588500Y425996D01*
X589500D01*
X581498Y373001D02*
X582498Y374001D01*
Y376000D01*
X581498Y377000D01*
X577500D01*
X576500Y376000D01*
Y374001D01*
X577500Y373001D01*
X576500Y371002D02*
Y369003D01*
Y370002D01*
X582498D01*
X581498Y371002D01*
X582498Y362005D02*
Y366004D01*
X579499D01*
X580499Y364004D01*
Y363004D01*
X579499Y362005D01*
X577500D01*
X576500Y363004D01*
Y365004D01*
X577500Y366004D01*
X597199Y311498D02*
X596200Y312498D01*
X594201D01*
X593201Y311498D01*
Y307500D01*
X594201Y306500D01*
X596200D01*
X597199Y307500D01*
X599199Y306500D02*
X601198D01*
X600199D01*
Y312498D01*
X599199Y311498D01*
X608196Y306500D02*
X604197D01*
X608196Y310499D01*
Y311498D01*
X607196Y312498D01*
X605197D01*
X604197Y311498D01*
X596999Y318998D02*
X595999Y319998D01*
X594000D01*
X593000Y318998D01*
Y315000D01*
X594000Y314000D01*
X595999D01*
X596999Y315000D01*
X598998Y314000D02*
X600997D01*
X599998D01*
Y319998D01*
X598998Y318998D01*
X603996D02*
X604996Y319998D01*
X606995D01*
X607995Y318998D01*
Y317999D01*
X606995Y316999D01*
X605996D01*
X606995D01*
X607995Y315999D01*
Y315000D01*
X606995Y314000D01*
X604996D01*
X603996Y315000D01*
X597499Y326998D02*
X596499Y327998D01*
X594500D01*
X593500Y326998D01*
Y323000D01*
X594500Y322000D01*
X596499D01*
X597499Y323000D01*
X599498Y322000D02*
X601497D01*
X600498D01*
Y327998D01*
X599498Y326998D01*
X607495Y322000D02*
Y327998D01*
X604496Y324999D01*
X608495D01*
X529000Y392998D02*
Y388000D01*
X530000Y387000D01*
X531999D01*
X532999Y388000D01*
Y392998D01*
X534998Y387000D02*
X536997D01*
X535998D01*
Y392998D01*
X534998Y391998D01*
X468000Y517000D02*
Y522998D01*
X470999D01*
X471999Y521998D01*
Y519999D01*
X470999Y518999D01*
X468000D01*
X476997Y517000D02*
Y522998D01*
X473998Y519999D01*
X477997D01*
X342479Y299281D02*
X343478Y300280D01*
Y302280D01*
X342479Y303279D01*
X338480D01*
X337480Y302280D01*
Y300280D01*
X338480Y299281D01*
X337480Y297282D02*
Y295282D01*
Y296282D01*
X343478D01*
X342479Y297282D01*
X518002Y370999D02*
X517002Y369999D01*
Y368000D01*
X518002Y367000D01*
X522000D01*
X523000Y368000D01*
Y369999D01*
X522000Y370999D01*
X523000Y372998D02*
Y374997D01*
Y373998D01*
X517002D01*
X518002Y372998D01*
X523000Y377996D02*
Y379996D01*
Y378996D01*
X517002D01*
X518002Y377996D01*
X557499Y396498D02*
X556499Y397498D01*
X554500D01*
X553500Y396498D01*
Y392500D01*
X554500Y391500D01*
X556499D01*
X557499Y392500D01*
X559498Y391500D02*
X561497D01*
X560498D01*
Y397498D01*
X559498Y396498D01*
X564496D02*
X565496Y397498D01*
X567495D01*
X568495Y396498D01*
Y392500D01*
X567495Y391500D01*
X565496D01*
X564496Y392500D01*
Y396498D01*
X505999Y387998D02*
X504999Y388998D01*
X503000D01*
X502000Y387998D01*
Y384000D01*
X503000Y383000D01*
X504999D01*
X505999Y384000D01*
X507998D02*
X508998Y383000D01*
X510997D01*
X511997Y384000D01*
Y387998D01*
X510997Y388998D01*
X508998D01*
X507998Y387998D01*
Y386999D01*
X508998Y385999D01*
X511997D01*
X510349Y362498D02*
X509349Y363498D01*
X507350D01*
X506350Y362498D01*
Y358500D01*
X507350Y357500D01*
X509349D01*
X510349Y358500D01*
X512348Y362498D02*
X513348Y363498D01*
X515347D01*
X516347Y362498D01*
Y361499D01*
X515347Y360499D01*
X516347Y359499D01*
Y358500D01*
X515347Y357500D01*
X513348D01*
X512348Y358500D01*
Y359499D01*
X513348Y360499D01*
X512348Y361499D01*
Y362498D01*
X513348Y360499D02*
X515347D01*
X380480Y296779D02*
Y302778D01*
X383479D01*
X384479Y301778D01*
Y299779D01*
X383479Y298779D01*
X380480D01*
X382480D02*
X384479Y296779D01*
X386478D02*
X388478D01*
X387478D01*
Y302778D01*
X386478Y301778D01*
X394476Y296779D02*
Y302778D01*
X391477Y299779D01*
X395476D01*
X349480Y267779D02*
X343482D01*
Y270779D01*
X344482Y271778D01*
X346481D01*
X347481Y270779D01*
Y267779D01*
Y269779D02*
X349480Y271778D01*
Y273778D02*
Y275777D01*
Y274777D01*
X343482D01*
X344482Y273778D01*
X349480Y282775D02*
Y278776D01*
X345482Y282775D01*
X344482D01*
X343482Y281775D01*
Y279776D01*
X344482Y278776D01*
X387480Y381780D02*
X381482D01*
Y384779D01*
X382482Y385778D01*
X384481D01*
X385481Y384779D01*
Y381780D01*
Y383779D02*
X387480Y385778D01*
Y387778D02*
Y389777D01*
Y388777D01*
X381482D01*
X382482Y387778D01*
X387480Y392776D02*
Y394775D01*
Y393776D01*
X381482D01*
X382482Y392776D01*
X379480Y381929D02*
X373482D01*
Y384928D01*
X374482Y385928D01*
X376481D01*
X377481Y384928D01*
Y381929D01*
Y383928D02*
X379480Y385928D01*
X374482Y387927D02*
X373482Y388927D01*
Y390926D01*
X374482Y391926D01*
X375482D01*
X376481Y390926D01*
X377481Y391926D01*
X378481D01*
X379480Y390926D01*
Y388927D01*
X378481Y387927D01*
X377481D01*
X376481Y388927D01*
X375482Y387927D01*
X374482D01*
X376481Y388927D02*
Y390926D01*
X366980Y332780D02*
Y338778D01*
X369979D01*
X370979Y337778D01*
Y335779D01*
X369979Y334779D01*
X366980D01*
X368980D02*
X370979Y332780D01*
X375977D02*
Y338778D01*
X372978Y335779D01*
X376977D01*
X367980Y394779D02*
X361982D01*
Y397779D01*
X362982Y398778D01*
X364981D01*
X365981Y397779D01*
Y394779D01*
Y396779D02*
X367980Y398778D01*
Y400778D02*
Y402777D01*
Y401777D01*
X361982D01*
X362982Y400778D01*
X361982Y409775D02*
Y405776D01*
X364981D01*
X363982Y407775D01*
Y408775D01*
X364981Y409775D01*
X366981D01*
X367980Y408775D01*
Y406776D01*
X366981Y405776D01*
X303980Y354279D02*
X309978D01*
Y351280D01*
X308979Y350281D01*
X306979D01*
X305980Y351280D01*
Y354279D01*
Y352280D02*
X303980Y350281D01*
X304980Y348282D02*
X303980Y347282D01*
Y345282D01*
X304980Y344283D01*
X308979D01*
X309978Y345282D01*
Y347282D01*
X308979Y348282D01*
X307979D01*
X306979Y347282D01*
Y344283D01*
X303980Y339779D02*
X309978D01*
Y336781D01*
X308979Y335781D01*
X306979D01*
X305980Y336781D01*
Y339779D01*
Y337780D02*
X303980Y335781D01*
Y333782D02*
Y331782D01*
Y332782D01*
X309978D01*
X308979Y333782D01*
Y328783D02*
X309978Y327783D01*
Y325784D01*
X308979Y324784D01*
X304980D01*
X303980Y325784D01*
Y327783D01*
X304980Y328783D01*
X308979D01*
X273980Y302079D02*
X279978D01*
Y299080D01*
X278979Y298080D01*
X276979D01*
X275980Y299080D01*
Y302079D01*
Y300079D02*
X273980Y298080D01*
X279978Y296081D02*
Y292082D01*
X278979D01*
X274980Y296081D01*
X273980D01*
Y316280D02*
X279978D01*
Y313281D01*
X278979Y312281D01*
X276979D01*
X275980Y313281D01*
Y316280D01*
Y314280D02*
X273980Y312281D01*
X279978Y306283D02*
Y310281D01*
X276979D01*
X277979Y308282D01*
Y307282D01*
X276979Y306283D01*
X274980D01*
X273980Y307282D01*
Y309282D01*
X274980Y310281D01*
X327480Y349279D02*
X333478D01*
Y346281D01*
X332479Y345281D01*
X330479D01*
X329480Y346281D01*
Y349279D01*
Y347280D02*
X327480Y345281D01*
X332479Y343282D02*
X333478Y342282D01*
Y340282D01*
X332479Y339283D01*
X331479D01*
X330479Y340282D01*
Y341282D01*
Y340282D01*
X329480Y339283D01*
X328480D01*
X327480Y340282D01*
Y342282D01*
X328480Y343282D01*
X295980Y322779D02*
X301978D01*
Y319780D01*
X300979Y318781D01*
X298979D01*
X297980Y319780D01*
Y322779D01*
Y320780D02*
X295980Y318781D01*
X301978Y312783D02*
X300979Y314782D01*
X298979Y316781D01*
X296980D01*
X295980Y315782D01*
Y313782D01*
X296980Y312783D01*
X297980D01*
X298979Y313782D01*
Y316781D01*
X291980Y357279D02*
Y363278D01*
X294979D01*
X295979Y362278D01*
Y360279D01*
X294979Y359279D01*
X291980D01*
X293980D02*
X295979Y357279D01*
X301977D02*
X297978D01*
X301977Y361278D01*
Y362278D01*
X300977Y363278D01*
X298978D01*
X297978Y362278D01*
X331480Y357780D02*
Y363778D01*
X334479D01*
X335479Y362778D01*
Y360779D01*
X334479Y359779D01*
X331480D01*
X333480D02*
X335479Y357780D01*
X337478D02*
X339478D01*
X338478D01*
Y363778D01*
X337478Y362778D01*
X392279Y358779D02*
Y362778D01*
X391279Y363778D01*
X389280D01*
X388280Y362778D01*
Y358779D01*
X389280Y357780D01*
X391279D01*
X390280Y359779D02*
X392279Y357780D01*
X391279D02*
X392279Y358779D01*
X323482Y372280D02*
Y368281D01*
X324481Y367282D01*
X326481D01*
X327480Y368281D01*
Y372280D01*
X326481Y373280D01*
X324481D01*
X325481Y371280D02*
X323482Y373280D01*
X324481D02*
X323482Y372280D01*
X321482Y368281D02*
X320483Y367282D01*
X318483D01*
X317484Y368281D01*
Y369281D01*
X318483Y370281D01*
X319483D01*
X318483D01*
X317484Y371280D01*
Y372280D01*
X318483Y373280D01*
X320483D01*
X321482Y372280D01*
X396479Y286779D02*
Y290778D01*
X395479Y291778D01*
X393480D01*
X392480Y290778D01*
Y286779D01*
X393480Y285780D01*
X395479D01*
X394480Y287779D02*
X396479Y285780D01*
X395479D02*
X396479Y286779D01*
X402477Y285780D02*
X398478D01*
X402477Y289778D01*
Y290778D01*
X401477Y291778D01*
X399478D01*
X398478Y290778D01*
X366481Y368778D02*
X362482D01*
X361482Y367779D01*
Y365779D01*
X362482Y364779D01*
X366481D01*
X367480Y365779D01*
Y367779D01*
X365481Y366779D02*
X367480Y368778D01*
Y367779D02*
X366481Y368778D01*
X367480Y370778D02*
Y372777D01*
Y371777D01*
X361482D01*
X362482Y370778D01*
X295980Y267779D02*
Y273778D01*
X298979D01*
X299979Y272778D01*
Y270779D01*
X298979Y269779D01*
X295980D01*
X301978Y267779D02*
X303978D01*
X302978D01*
Y273778D01*
X301978Y272778D01*
X275480Y391278D02*
Y385279D01*
X279479D01*
X285477Y390278D02*
X284477Y391278D01*
X282478D01*
X281478Y390278D01*
Y389278D01*
X282478Y388279D01*
X284477D01*
X285477Y387279D01*
Y386279D01*
X284477Y385279D01*
X282478D01*
X281478Y386279D01*
X287476Y385279D02*
X289476D01*
X288476D01*
Y391278D01*
X287476Y390278D01*
X327980Y317278D02*
X329980D01*
X328980D01*
Y311280D01*
X327980D01*
X329980D01*
X336977Y316278D02*
X335978Y317278D01*
X333978D01*
X332979Y316278D01*
Y312279D01*
X333978Y311280D01*
X335978D01*
X336977Y312279D01*
X338977Y311280D02*
X340976D01*
X339976D01*
Y317278D01*
X338977Y316278D01*
X350482Y311280D02*
X356480D01*
Y314279D01*
X355481Y315278D01*
X351482D01*
X350482Y314279D01*
Y311280D01*
Y323780D02*
X356480D01*
Y326779D01*
X355481Y327778D01*
X351482D01*
X350482Y326779D01*
Y323780D01*
X334979Y251278D02*
X333979Y252278D01*
X331980D01*
X330980Y251278D01*
Y247279D01*
X331980Y246280D01*
X333979D01*
X334979Y247279D01*
X340977Y252278D02*
X338978Y251278D01*
X336978Y249279D01*
Y247279D01*
X337978Y246280D01*
X339977D01*
X340977Y247279D01*
Y248279D01*
X339977Y249279D01*
X336978D01*
X336482Y269781D02*
X337481Y268781D01*
X339481D01*
X340480Y269781D01*
Y273780D01*
X339481Y274780D01*
X337481D01*
X336482Y273780D01*
X330484Y268781D02*
X334482D01*
Y271780D01*
X332483Y270781D01*
X331483D01*
X330484Y271780D01*
Y273780D01*
X331483Y274780D01*
X333483D01*
X334482Y273780D01*
X345482Y355778D02*
X344482Y354779D01*
Y352779D01*
X345482Y351780D01*
X349481D01*
X350480Y352779D01*
Y354779D01*
X349481Y355778D01*
X345482Y357778D02*
X344482Y358777D01*
Y360777D01*
X345482Y361776D01*
X346482D01*
X347481Y360777D01*
Y359777D01*
Y360777D01*
X348481Y361776D01*
X349481D01*
X350480Y360777D01*
Y358777D01*
X349481Y357778D01*
X331979Y331281D02*
X332978Y332280D01*
Y334280D01*
X331979Y335279D01*
X327980D01*
X326980Y334280D01*
Y332280D01*
X327980Y331281D01*
X326980Y325283D02*
Y329281D01*
X330979Y325283D01*
X331979D01*
X332978Y326282D01*
Y328282D01*
X331979Y329281D01*
X286979Y332781D02*
X287978Y333781D01*
Y335780D01*
X286979Y336779D01*
X282980D01*
X281980Y335780D01*
Y333781D01*
X282980Y332781D01*
X281980Y327782D02*
X287978D01*
X284979Y330782D01*
Y326783D01*
X474000Y226500D02*
Y232498D01*
X476999D01*
X477999Y231498D01*
Y229499D01*
X476999Y228499D01*
X474000D01*
X479998Y231498D02*
X480998Y232498D01*
X482997D01*
X483997Y231498D01*
Y230499D01*
X482997Y229499D01*
X483997Y228499D01*
Y227500D01*
X482997Y226500D01*
X480998D01*
X479998Y227500D01*
Y228499D01*
X480998Y229499D01*
X479998Y230499D01*
Y231498D01*
X480998Y229499D02*
X482997D01*
X455500Y483500D02*
Y489498D01*
X458499D01*
X459499Y488498D01*
Y486499D01*
X458499Y485499D01*
X455500D01*
X465497Y483500D02*
X461498D01*
X465497Y487499D01*
Y488498D01*
X464497Y489498D01*
X462498D01*
X461498Y488498D01*
X472500Y388998D02*
X474499D01*
X473500D01*
Y383000D01*
X472500D01*
X474499D01*
X481497Y387998D02*
X480497Y388998D01*
X478498D01*
X477498Y387998D01*
Y384000D01*
X478498Y383000D01*
X480497D01*
X481497Y384000D01*
D11*
X306972Y380209D02*
G03*
X306972Y380209I-492J0D01*
G01*
D12*
X364882Y280386D02*
G03*
X364882Y280780I0J197D01*
G01*
D02*
G03*
X364882Y280386I0J-197D01*
G01*
D02*
G03*
X364882Y280780I0J197D01*
G01*
X348374Y396654D02*
G03*
X348374Y396654I-394J0D01*
G01*
X399740Y325279D02*
G03*
X399740Y325279I-394J0D01*
G01*
Y312779D02*
G03*
X399740Y312779I-394J0D01*
G01*
X363882Y350386D02*
G03*
X363882Y350780I0J197D01*
G01*
D02*
G03*
X363882Y350386I0J-197D01*
G01*
D02*
G03*
X363882Y350780I0J197D01*
G01*
X563000Y490000D02*
X573000D01*
Y450000D02*
Y490000D01*
X563000Y450000D02*
Y490000D01*
Y450000D02*
X573000D01*
X609000Y507500D02*
Y527500D01*
X639000Y507500D02*
Y527500D01*
X609000Y507500D02*
X639000D01*
X609000Y527500D02*
X639000D01*
X609000D02*
X628167D01*
X484500Y224500D02*
Y234500D01*
X524500D01*
X484500Y224500D02*
X524500D01*
Y234500D01*
X409500Y514500D02*
Y524500D01*
X449500D01*
X409500Y514500D02*
X449500D01*
Y524500D01*
X548000Y514000D02*
Y524000D01*
X588000D01*
X548000Y514000D02*
X588000D01*
Y524000D01*
X546000Y481000D02*
Y491000D01*
X466000Y481000D02*
X546000D01*
X466000D02*
Y491000D01*
X546000D01*
X479000Y514500D02*
Y524500D01*
X519000D01*
X479000Y514500D02*
X519000D01*
Y524500D01*
X554043Y324957D02*
Y337043D01*
X541957Y324957D02*
X554043D01*
X541957D02*
Y337043D01*
X554043D01*
X311992Y382768D02*
Y393791D01*
X290969Y382768D02*
Y393791D01*
Y382768D02*
X311992D01*
X290969Y393791D02*
X311992D01*
X306937Y265736D02*
Y272823D01*
Y265736D02*
X319024D01*
Y272823D01*
X306937D02*
X319024D01*
X323626Y300803D02*
Y313402D01*
X304335Y300803D02*
X323626D01*
X304335D02*
Y313402D01*
X323626D01*
X324138Y314780D02*
Y320783D01*
X556799Y335500D02*
X555487D01*
X556143D01*
Y331564D01*
X556799Y332220D01*
X540658Y332495D02*
X540001Y331839D01*
X538690D01*
X538034Y332495D01*
Y333151D01*
X538690Y333806D01*
X539346D01*
X538690D01*
X538034Y334462D01*
Y335118D01*
X538690Y335774D01*
X540001D01*
X540658Y335118D01*
D13*
X406418Y342263D02*
G03*
X406418Y361296I-4437J9516D01*
G01*
X397543Y361298D02*
G03*
X395516Y360056I4438J-9516D01*
G01*
Y343503D02*
G03*
X397543Y342261I6464J8274D01*
G01*
X317478Y376839D02*
X358482D01*
Y394339D01*
X317478D02*
X358482D01*
X317478Y376839D02*
Y394339D01*
X384465Y321500D02*
X387457D01*
X384465Y329059D02*
X387457D01*
X369504D02*
X372496D01*
X369504Y321500D02*
X372496D01*
X369504Y321539D02*
Y325280D01*
Y329059D01*
X387457Y321500D02*
Y325280D01*
Y329020D01*
Y325280D02*
X391079D01*
X365882D02*
X369504D01*
X384465Y309000D02*
X387457D01*
X384465Y316559D02*
X387457D01*
X369504D02*
X372496D01*
X369504Y309000D02*
X372496D01*
X369504Y309039D02*
Y312780D01*
Y316559D01*
X387457Y309000D02*
Y312780D01*
Y316520D01*
Y312780D02*
X391079D01*
X365882D02*
X369504D01*
X395480Y343532D02*
Y360028D01*
X401480Y356252D02*
Y357307D01*
Y346252D02*
Y347307D01*
X444999Y511167D02*
Y512500D01*
X444000D01*
X444333Y511834D01*
Y511500D01*
X444000Y511167D01*
X443333D01*
X443000Y511500D01*
Y512167D01*
X443333Y512500D01*
X444999Y510501D02*
X443666D01*
X443000Y509834D01*
X443666Y509168D01*
X444999D01*
X435499Y512500D02*
Y511167D01*
Y511834D01*
X433500D01*
Y510501D02*
X435499D01*
Y509501D01*
X435166Y509168D01*
X434500D01*
X434166Y509501D01*
Y510501D01*
Y509834D02*
X433500Y509168D01*
X435499Y508501D02*
Y507835D01*
Y508168D01*
X433500D01*
Y508501D01*
Y507835D01*
X435166Y505502D02*
X435499Y505835D01*
Y506502D01*
X435166Y506835D01*
X433833D01*
X433500Y506502D01*
Y505835D01*
X433833Y505502D01*
X434500D01*
Y506169D01*
X425499Y511167D02*
Y512500D01*
X423500D01*
Y511167D01*
X424500Y512500D02*
Y511834D01*
X425166Y509168D02*
X425499Y509501D01*
Y510167D01*
X425166Y510501D01*
X423833D01*
X423500Y510167D01*
Y509501D01*
X423833Y509168D01*
X425499Y508501D02*
X423500D01*
X424500D01*
Y507168D01*
X425499D01*
X423500D01*
X425499Y505502D02*
Y506169D01*
X425166Y506502D01*
X423833D01*
X423500Y506169D01*
Y505502D01*
X423833Y505169D01*
X425166D01*
X425499Y505502D01*
X415166Y510667D02*
X415499Y511000D01*
Y511667D01*
X415166Y512000D01*
X413833D01*
X413500Y511667D01*
Y511000D01*
X413833Y510667D01*
X414500D01*
Y511334D01*
X413500Y510001D02*
X415499D01*
X413500Y508668D01*
X415499D01*
Y508001D02*
X413500D01*
Y507002D01*
X413833Y506668D01*
X415166D01*
X415499Y507002D01*
Y508001D01*
X583499Y511667D02*
Y513000D01*
X582500D01*
X582833Y512334D01*
Y512000D01*
X582500Y511667D01*
X581833D01*
X581500Y512000D01*
Y512667D01*
X581833Y513000D01*
X583499Y511001D02*
X582166D01*
X581500Y510334D01*
X582166Y509668D01*
X583499D01*
X573999Y513000D02*
Y511667D01*
Y512334D01*
X572000D01*
Y511001D02*
X573999D01*
Y510001D01*
X573666Y509668D01*
X573000D01*
X572666Y510001D01*
Y511001D01*
Y510334D02*
X572000Y509668D01*
X573999Y509001D02*
Y508335D01*
Y508668D01*
X572000D01*
Y509001D01*
Y508335D01*
X573666Y506002D02*
X573999Y506335D01*
Y507002D01*
X573666Y507335D01*
X572333D01*
X572000Y507002D01*
Y506335D01*
X572333Y506002D01*
X573000D01*
Y506669D01*
X563999Y511667D02*
Y513000D01*
X562000D01*
Y511667D01*
X563000Y513000D02*
Y512334D01*
X563666Y509668D02*
X563999Y510001D01*
Y510667D01*
X563666Y511001D01*
X562333D01*
X562000Y510667D01*
Y510001D01*
X562333Y509668D01*
X563999Y509001D02*
X562000D01*
X563000D01*
Y507668D01*
X563999D01*
X562000D01*
X563999Y506002D02*
Y506669D01*
X563666Y507002D01*
X562333D01*
X562000Y506669D01*
Y506002D01*
X562333Y505669D01*
X563666D01*
X563999Y506002D01*
X553666Y511167D02*
X553999Y511500D01*
Y512167D01*
X553666Y512500D01*
X552333D01*
X552000Y512167D01*
Y511500D01*
X552333Y511167D01*
X553000D01*
Y511834D01*
X552000Y510501D02*
X553999D01*
X552000Y509168D01*
X553999D01*
Y508501D02*
X552000D01*
Y507502D01*
X552333Y507168D01*
X553666D01*
X553999Y507502D01*
Y508501D01*
X560000Y223499D02*
Y220500D01*
X561500D01*
X561999Y221000D01*
Y222999D01*
X561500Y223499D01*
X560000D01*
X564499Y220500D02*
X563499D01*
X562999Y221000D01*
Y222000D01*
X563499Y222499D01*
X564499D01*
X564998Y222000D01*
Y221500D01*
X562999D01*
X565998Y220500D02*
X567498D01*
X567997Y221000D01*
X567498Y221500D01*
X566498D01*
X565998Y222000D01*
X566498Y222499D01*
X567997D01*
X568997Y220500D02*
Y221000D01*
X569497D01*
Y220500D01*
X568997D01*
X574495Y223499D02*
Y220500D01*
X575995D01*
X576495Y221000D01*
Y221500D01*
X575995Y222000D01*
X574495D01*
X575995D01*
X576495Y222499D01*
Y222999D01*
X575995Y223499D01*
X574495D01*
X577494Y222499D02*
Y221000D01*
X577994Y220500D01*
X579494D01*
Y220000D01*
X578994Y219500D01*
X578494D01*
X579494Y220500D02*
Y222499D01*
X580493Y220500D02*
Y221000D01*
X580993D01*
Y220500D01*
X580493D01*
X585992D02*
Y223499D01*
X586991Y222499D01*
X587991Y223499D01*
Y220500D01*
X589491Y222499D02*
X590490D01*
X590990Y222000D01*
Y220500D01*
X589491D01*
X588991Y221000D01*
X589491Y221500D01*
X590990D01*
X591990Y222499D02*
Y220500D01*
Y221500D01*
X592489Y222000D01*
X592989Y222499D01*
X593489D01*
X596988Y219500D02*
Y222499D01*
X595489D01*
X594989Y222000D01*
Y221000D01*
X595489Y220500D01*
X596988D01*
X597988Y222499D02*
Y221000D01*
X598488Y220500D01*
X599987D01*
Y222499D01*
X602486Y220500D02*
X601487D01*
X600987Y221000D01*
Y222000D01*
X601487Y222499D01*
X602486D01*
X602986Y222000D01*
Y221500D01*
X600987D01*
X603986Y222499D02*
X605985D01*
X603986Y220500D01*
X605985D01*
X611983Y223499D02*
X610984D01*
X611483D01*
Y221000D01*
X610984Y220500D01*
X610484D01*
X609984Y221000D01*
X613483Y220500D02*
X614482D01*
X614982Y221000D01*
Y222000D01*
X614482Y222499D01*
X613483D01*
X612983Y222000D01*
Y221000D01*
X613483Y220500D01*
X615982D02*
Y222499D01*
X617481D01*
X617981Y222000D01*
Y220500D01*
X620480D02*
X619481D01*
X618981Y221000D01*
Y222000D01*
X619481Y222499D01*
X620480D01*
X620980Y222000D01*
Y221500D01*
X618981D01*
X621980Y220500D02*
X623480D01*
X623979Y221000D01*
X623480Y221500D01*
X622480D01*
X621980Y222000D01*
X622480Y222499D01*
X623979D01*
X629977Y220500D02*
X627978D01*
X629977Y222499D01*
Y222999D01*
X629478Y223499D01*
X628478D01*
X627978Y222999D01*
X630977D02*
X631477Y223499D01*
X632477D01*
X632976Y222999D01*
Y221000D01*
X632477Y220500D01*
X631477D01*
X630977Y221000D01*
Y222999D01*
X635975Y220500D02*
X633976D01*
X635975Y222499D01*
Y222999D01*
X635476Y223499D01*
X634476D01*
X633976Y222999D01*
X636975Y220500D02*
X637975D01*
X637475D01*
Y223499D01*
X636975Y222999D01*
X561999Y227499D02*
X561500Y227999D01*
X560500D01*
X560000Y227499D01*
Y225500D01*
X560500Y225000D01*
X561500D01*
X561999Y225500D01*
X563499Y225000D02*
X564499D01*
X564998Y225500D01*
Y226500D01*
X564499Y226999D01*
X563499D01*
X562999Y226500D01*
Y225500D01*
X563499Y225000D01*
X565998D02*
Y226999D01*
X567498D01*
X567997Y226500D01*
Y225000D01*
X569497Y227499D02*
Y226999D01*
X568997D01*
X569997D01*
X569497D01*
Y225500D01*
X569997Y225000D01*
X571496Y226999D02*
Y225000D01*
Y226000D01*
X571996Y226500D01*
X572496Y226999D01*
X572996D01*
X574995Y225000D02*
X575995D01*
X576495Y225500D01*
Y226500D01*
X575995Y226999D01*
X574995D01*
X574495Y226500D01*
Y225500D01*
X574995Y225000D01*
X577494D02*
X578494D01*
X577994D01*
Y227999D01*
X577494D01*
X584992Y227499D02*
X584492Y227999D01*
X583492D01*
X582993Y227499D01*
Y226999D01*
X583492Y226500D01*
X584492D01*
X584992Y226000D01*
Y225500D01*
X584492Y225000D01*
X583492D01*
X582993Y225500D01*
X587491Y225000D02*
X586491D01*
X585992Y225500D01*
Y226500D01*
X586491Y226999D01*
X587491D01*
X587991Y226500D01*
Y226000D01*
X585992D01*
X588991Y225000D02*
Y226999D01*
X590490D01*
X590990Y226500D01*
Y225000D01*
X591990D02*
X593489D01*
X593989Y225500D01*
X593489Y226000D01*
X592489D01*
X591990Y226500D01*
X592489Y226999D01*
X593989D01*
X595489Y225000D02*
X596488D01*
X596988Y225500D01*
Y226500D01*
X596488Y226999D01*
X595489D01*
X594989Y226500D01*
Y225500D01*
X595489Y225000D01*
X597988Y226999D02*
Y225000D01*
Y226000D01*
X598488Y226500D01*
X598987Y226999D01*
X599487D01*
X603986Y227999D02*
Y225000D01*
X605485D01*
X605985Y225500D01*
Y226000D01*
X605485Y226500D01*
X603986D01*
X605485D01*
X605985Y226999D01*
Y227499D01*
X605485Y227999D01*
X603986D01*
X607485Y225000D02*
X608484D01*
X608984Y225500D01*
Y226500D01*
X608484Y226999D01*
X607485D01*
X606985Y226500D01*
Y225500D01*
X607485Y225000D01*
X610484Y226999D02*
X611483D01*
X611983Y226500D01*
Y225000D01*
X610484D01*
X609984Y225500D01*
X610484Y226000D01*
X611983D01*
X612983Y226999D02*
Y225000D01*
Y226000D01*
X613483Y226500D01*
X613982Y226999D01*
X614482D01*
X617981Y227999D02*
Y225000D01*
X616482D01*
X615982Y225500D01*
Y226500D01*
X616482Y226999D01*
X617981D01*
X560000Y232499D02*
Y229500D01*
X561000Y230500D01*
X561999Y229500D01*
Y232499D01*
X562999D02*
Y229500D01*
Y230999D01*
X563499Y231499D01*
X564499D01*
X564998Y230999D01*
Y229500D01*
X567498D02*
X566498D01*
X565998Y230000D01*
Y230999D01*
X566498Y231499D01*
X567498D01*
X567997Y230999D01*
Y230500D01*
X565998D01*
X570497Y229500D02*
X569497D01*
X568997Y230000D01*
Y230999D01*
X569497Y231499D01*
X570497D01*
X570996Y230999D01*
Y230500D01*
X568997D01*
X571996Y229500D02*
X572996D01*
X572496D01*
Y232499D01*
X571996D01*
X574495Y229500D02*
X575995D01*
X576495Y230000D01*
X575995Y230500D01*
X574995D01*
X574495Y230999D01*
X574995Y231499D01*
X576495D01*
X577994Y229500D02*
X578994D01*
X579494Y230000D01*
Y230999D01*
X578994Y231499D01*
X577994D01*
X577494Y230999D01*
Y230000D01*
X577994Y229500D01*
X580493D02*
Y231499D01*
X581993D01*
X582493Y230999D01*
Y229500D01*
X586491D02*
Y232499D01*
X587491Y231499D01*
X588491Y232499D01*
Y229500D01*
X589491D02*
Y232499D01*
Y230500D02*
X590990Y231499D01*
X589491Y230500D02*
X590990Y229500D01*
X592489Y231999D02*
X592989Y232499D01*
X593989D01*
X594489Y231999D01*
Y231499D01*
X593989Y230999D01*
X593489D01*
X593989D01*
X594489Y230500D01*
Y230000D01*
X593989Y229500D01*
X592989D01*
X592489Y230000D01*
X598488Y230999D02*
X600487D01*
X604486Y232499D02*
X605485D01*
X604986D01*
Y229500D01*
X604486D01*
X605485D01*
X606985D02*
Y231499D01*
X608484D01*
X608984Y230999D01*
Y229500D01*
X609984Y231499D02*
X610984Y229500D01*
X611983Y231499D01*
X614482Y229500D02*
X613483D01*
X612983Y230000D01*
Y230999D01*
X613483Y231499D01*
X614482D01*
X614982Y230999D01*
Y230500D01*
X612983D01*
X615982Y229500D02*
X617481D01*
X617981Y230000D01*
X617481Y230500D01*
X616482D01*
X615982Y230999D01*
X616482Y231499D01*
X617981D01*
X619481Y231999D02*
Y231499D01*
X618981D01*
X619981D01*
X619481D01*
Y230000D01*
X619981Y229500D01*
X621480D02*
X622480D01*
X621980D01*
Y231499D01*
X621480D01*
X625979Y231999D02*
X625479Y232499D01*
X624479D01*
X623979Y231999D01*
Y230000D01*
X624479Y229500D01*
X625479D01*
X625979Y230000D01*
Y230999D01*
X624979D01*
X627478Y231499D02*
X628478D01*
X628978Y230999D01*
Y229500D01*
X627478D01*
X626978Y230000D01*
X627478Y230500D01*
X628978D01*
X630477Y231999D02*
Y231499D01*
X629977D01*
X630977D01*
X630477D01*
Y230000D01*
X630977Y229500D01*
X632976D02*
X633976D01*
X634476Y230000D01*
Y230999D01*
X633976Y231499D01*
X632976D01*
X632477Y230999D01*
Y230000D01*
X632976Y229500D01*
X635476Y231499D02*
Y229500D01*
Y230500D01*
X635975Y230999D01*
X636475Y231499D01*
X636975D01*
X554500Y485666D02*
X554833Y485999D01*
X555500D01*
X555833Y485666D01*
Y485333D01*
X555500Y485000D01*
X555166D01*
X555500D01*
X555833Y484666D01*
Y484333D01*
X555500Y484000D01*
X554833D01*
X554500Y484333D01*
X556499Y485999D02*
Y484666D01*
X557166Y484000D01*
X557832Y484666D01*
Y485999D01*
X558499Y485666D02*
X558832Y485999D01*
X559498D01*
X559832Y485666D01*
Y485333D01*
X559498Y485000D01*
X559165D01*
X559498D01*
X559832Y484666D01*
Y484333D01*
X559498Y484000D01*
X558832D01*
X558499Y484333D01*
X549333Y475666D02*
X549000Y475999D01*
X548333D01*
X548000Y475666D01*
Y475333D01*
X548333Y475000D01*
X549000D01*
X549333Y474666D01*
Y474333D01*
X549000Y474000D01*
X548333D01*
X548000Y474333D01*
X549999Y475999D02*
Y474000D01*
X550999D01*
X551332Y474333D01*
Y474666D01*
X550999Y475000D01*
X549999D01*
X550999D01*
X551332Y475333D01*
Y475666D01*
X550999Y475999D01*
X549999D01*
X551999D02*
Y474000D01*
X552665Y474666D01*
X553332Y474000D01*
Y475999D01*
X553998D02*
X555331D01*
X554665D01*
Y474000D01*
X555997Y475999D02*
Y474000D01*
X556997D01*
X557330Y474333D01*
Y475666D01*
X556997Y475999D01*
X555997D01*
X557997D02*
X558663D01*
X558330D01*
Y474000D01*
X557997D01*
X558663D01*
X560663Y475999D02*
X559996D01*
X559663Y475666D01*
Y474333D01*
X559996Y474000D01*
X560663D01*
X560996Y474333D01*
Y475666D01*
X560663Y475999D01*
X551333Y465666D02*
X551000Y465999D01*
X550333D01*
X550000Y465666D01*
Y465333D01*
X550333Y465000D01*
X551000D01*
X551333Y464666D01*
Y464333D01*
X551000Y464000D01*
X550333D01*
X550000Y464333D01*
X551999Y465999D02*
Y464000D01*
X552999D01*
X553332Y464333D01*
Y464666D01*
X552999Y465000D01*
X551999D01*
X552999D01*
X553332Y465333D01*
Y465666D01*
X552999Y465999D01*
X551999D01*
X553999D02*
Y464000D01*
X554665Y464666D01*
X555332Y464000D01*
Y465999D01*
X555998D02*
X557331D01*
X556665D01*
Y464000D01*
X559330Y465666D02*
X558997Y465999D01*
X558331D01*
X557997Y465666D01*
Y464333D01*
X558331Y464000D01*
X558997D01*
X559330Y464333D01*
X559997Y465999D02*
Y464000D01*
Y464666D01*
X561330Y465999D01*
X560330Y465000D01*
X561330Y464000D01*
X556333Y456166D02*
X556000Y456499D01*
X555333D01*
X555000Y456166D01*
Y454833D01*
X555333Y454500D01*
X556000D01*
X556333Y454833D01*
Y455500D01*
X555666D01*
X556999Y454500D02*
Y456499D01*
X558332Y454500D01*
Y456499D01*
X558999D02*
Y454500D01*
X559998D01*
X560332Y454833D01*
Y456166D01*
X559998Y456499D01*
X558999D01*
X485166Y511167D02*
X485499Y511500D01*
Y512167D01*
X485166Y512500D01*
X483833D01*
X483500Y512167D01*
Y511500D01*
X483833Y511167D01*
X484500D01*
Y511834D01*
X483500Y510501D02*
X485499D01*
X483500Y509168D01*
X485499D01*
Y508501D02*
X483500D01*
Y507502D01*
X483833Y507168D01*
X485166D01*
X485499Y507502D01*
Y508501D01*
X495499Y511667D02*
Y513000D01*
X493500D01*
Y511667D01*
X494500Y513000D02*
Y512334D01*
X495166Y509668D02*
X495499Y510001D01*
Y510667D01*
X495166Y511001D01*
X493833D01*
X493500Y510667D01*
Y510001D01*
X493833Y509668D01*
X495499Y509001D02*
X493500D01*
X494500D01*
Y507668D01*
X495499D01*
X493500D01*
X495499Y506002D02*
Y506669D01*
X495166Y507002D01*
X493833D01*
X493500Y506669D01*
Y506002D01*
X493833Y505669D01*
X495166D01*
X495499Y506002D01*
X505499Y513000D02*
Y511667D01*
Y512334D01*
X503500D01*
Y511001D02*
X505499D01*
Y510001D01*
X505166Y509668D01*
X504500D01*
X504166Y510001D01*
Y511001D01*
Y510334D02*
X503500Y509668D01*
X505499Y509001D02*
Y508335D01*
Y508668D01*
X503500D01*
Y509001D01*
Y508335D01*
X505166Y506002D02*
X505499Y506335D01*
Y507002D01*
X505166Y507335D01*
X503833D01*
X503500Y507002D01*
Y506335D01*
X503833Y506002D01*
X504500D01*
Y506669D01*
X514999Y511667D02*
Y513000D01*
X514000D01*
X514333Y512334D01*
Y512000D01*
X514000Y511667D01*
X513333D01*
X513000Y512000D01*
Y512667D01*
X513333Y513000D01*
X514999Y511001D02*
X513666D01*
X513000Y510334D01*
X513666Y509668D01*
X514999D01*
X549501Y316999D02*
X549001Y316499D01*
Y315500D01*
X549501Y315000D01*
X550001D01*
X550500Y315500D01*
Y316499D01*
X551000Y316999D01*
X551500D01*
X552000Y316499D01*
Y315500D01*
X551500Y315000D01*
X549001Y317999D02*
X552000D01*
Y319498D01*
X551500Y319998D01*
X549501D01*
X549001Y319498D01*
Y317999D01*
X552000Y320998D02*
X550001D01*
X549001Y321998D01*
X550001Y322997D01*
X552000D01*
X550500D01*
Y320998D01*
X544501Y316999D02*
X544001Y316499D01*
Y315500D01*
X544501Y315000D01*
X545001D01*
X545501Y315500D01*
Y316499D01*
X546000Y316999D01*
X546500D01*
X547000Y316499D01*
Y315500D01*
X546500Y315000D01*
X544501Y319998D02*
X544001Y319498D01*
Y318499D01*
X544501Y317999D01*
X546500D01*
X547000Y318499D01*
Y319498D01*
X546500Y319998D01*
X544001Y320998D02*
X547000D01*
Y322997D01*
X488501Y237999D02*
X488001Y237499D01*
Y236500D01*
X488501Y236000D01*
X490500D01*
X491000Y236500D01*
Y237499D01*
X490500Y237999D01*
X489501D01*
Y237000D01*
X491000Y238999D02*
X488001D01*
X491000Y240998D01*
X488001D01*
Y241998D02*
X491000D01*
Y243498D01*
X490500Y243997D01*
X488501D01*
X488001Y243498D01*
Y241998D01*
Y244997D02*
X491000D01*
Y246497D01*
X490500Y246996D01*
X490000D01*
X489501Y246497D01*
Y244997D01*
Y246497D01*
X489001Y246996D01*
X488501D01*
X488001Y246497D01*
Y244997D01*
X491000Y247996D02*
X489001D01*
X488001Y248996D01*
X489001Y249995D01*
X491000D01*
X489501D01*
Y247996D01*
X488001Y250995D02*
Y252994D01*
Y251995D01*
X491000D01*
X498001Y236000D02*
X500500D01*
X501000Y236500D01*
Y237499D01*
X500500Y237999D01*
X498001D01*
X501000Y238999D02*
X499001D01*
X498001Y239999D01*
X499001Y240998D01*
X501000D01*
X499501D01*
Y238999D01*
X501000Y241998D02*
X498001D01*
Y243498D01*
X498501Y243997D01*
X499501D01*
X500000Y243498D01*
Y241998D01*
Y242998D02*
X501000Y243997D01*
X498001Y244997D02*
Y246996D01*
Y245997D01*
X501000D01*
Y249995D02*
Y247996D01*
X499001Y249995D01*
X498501D01*
X498001Y249496D01*
Y248496D01*
X498501Y247996D01*
X501500Y250995D02*
Y252994D01*
X498001Y253994D02*
Y255994D01*
Y254994D01*
X501000D01*
X498001Y256993D02*
X501000Y258993D01*
X498001D02*
X501000Y256993D01*
X508001Y236000D02*
X510500D01*
X511000Y236500D01*
Y237499D01*
X510500Y237999D01*
X508001D01*
X511000Y238999D02*
X509001D01*
X508001Y239999D01*
X509001Y240998D01*
X511000D01*
X509501D01*
Y238999D01*
X511000Y241998D02*
X508001D01*
Y243498D01*
X508501Y243997D01*
X509501D01*
X510000Y243498D01*
Y241998D01*
Y242998D02*
X511000Y243997D01*
X508001Y244997D02*
Y246996D01*
Y245997D01*
X511000D01*
Y249995D02*
Y247996D01*
X509001Y249995D01*
X508501D01*
X508001Y249496D01*
Y248496D01*
X508501Y247996D01*
X511500Y250995D02*
Y252994D01*
X511000Y253994D02*
X508001D01*
Y255494D01*
X508501Y255994D01*
X509501D01*
X510000Y255494D01*
Y253994D01*
Y254994D02*
X511000Y255994D01*
X508001Y256993D02*
X511000Y258993D01*
X508001D02*
X511000Y256993D01*
X518001Y237999D02*
Y236000D01*
X519500D01*
X519001Y237000D01*
Y237499D01*
X519500Y237999D01*
X520500D01*
X521000Y237499D01*
Y236500D01*
X520500Y236000D01*
X518001Y238999D02*
X520000D01*
X521000Y239999D01*
X520000Y240998D01*
X518001D01*
Y241998D02*
X521000D01*
Y243498D01*
X520500Y243997D01*
X520000D01*
X519500Y243498D01*
Y241998D01*
Y243498D01*
X519001Y243997D01*
X518501D01*
X518001Y243498D01*
Y241998D01*
X521000Y244997D02*
X519001D01*
X518001Y245997D01*
X519001Y246996D01*
X521000D01*
X519500D01*
Y244997D01*
X518001Y247996D02*
Y249995D01*
Y248996D01*
X521000D01*
X544501Y340999D02*
X544001Y340499D01*
Y339500D01*
X544501Y339000D01*
X545001D01*
X545501Y339500D01*
Y340499D01*
X546000Y340999D01*
X546500D01*
X547000Y340499D01*
Y339500D01*
X546500Y339000D01*
X544501Y343998D02*
X544001Y343498D01*
Y342499D01*
X544501Y341999D01*
X546500D01*
X547000Y342499D01*
Y343498D01*
X546500Y343998D01*
X544001Y344998D02*
X547000D01*
Y346997D01*
X547500Y347997D02*
Y349996D01*
X547000Y350996D02*
X545001D01*
X544001Y351996D01*
X545001Y352995D01*
X547000D01*
X545501D01*
Y350996D01*
X549501Y340499D02*
X549001Y340000D01*
Y339000D01*
X549501Y338500D01*
X550001D01*
X550500Y339000D01*
Y340000D01*
X551000Y340499D01*
X551500D01*
X552000Y340000D01*
Y339000D01*
X551500Y338500D01*
X549001Y341499D02*
X552000D01*
Y342999D01*
X551500Y343498D01*
X549501D01*
X549001Y342999D01*
Y341499D01*
X552000Y344498D02*
X550001D01*
X549001Y345498D01*
X550001Y346497D01*
X552000D01*
X550500D01*
Y344498D01*
X552500Y347497D02*
Y349496D01*
X552000Y350496D02*
X550001D01*
X549001Y351496D01*
X550001Y352496D01*
X552000D01*
X550500D01*
Y350496D01*
X540334Y476833D02*
X540001Y476500D01*
Y475833D01*
X540334Y475500D01*
X541667D01*
X542000Y475833D01*
Y476500D01*
X541667Y476833D01*
X540334Y478832D02*
X540001Y478499D01*
Y477833D01*
X540334Y477499D01*
X540667D01*
X541000Y477833D01*
Y478499D01*
X541334Y478832D01*
X541667D01*
X542000Y478499D01*
Y477833D01*
X541667Y477499D01*
X531500Y472000D02*
X529501D01*
X530167Y472666D01*
X529501Y473333D01*
X531500D01*
X529501Y474999D02*
Y474333D01*
X529834Y473999D01*
X531167D01*
X531500Y474333D01*
Y474999D01*
X531167Y475332D01*
X529834D01*
X529501Y474999D01*
X529834Y477332D02*
X529501Y476998D01*
Y476332D01*
X529834Y475999D01*
X530167D01*
X530500Y476332D01*
Y476998D01*
X530834Y477332D01*
X531167D01*
X531500Y476998D01*
Y476332D01*
X531167Y475999D01*
X529501Y477998D02*
Y478664D01*
Y478331D01*
X531500D01*
Y477998D01*
Y478664D01*
X522000Y472000D02*
X520001D01*
X520667Y472666D01*
X520001Y473333D01*
X522000D01*
X520001Y473999D02*
Y474666D01*
Y474333D01*
X522000D01*
Y473999D01*
Y474666D01*
X520334Y476998D02*
X520001Y476665D01*
Y475999D01*
X520334Y475666D01*
X520667D01*
X521000Y475999D01*
Y476665D01*
X521334Y476998D01*
X521667D01*
X522000Y476665D01*
Y475999D01*
X521667Y475666D01*
X520001Y478664D02*
Y477998D01*
X520334Y477665D01*
X521667D01*
X522000Y477998D01*
Y478664D01*
X521667Y478998D01*
X520334D01*
X520001Y478664D01*
X509834Y472833D02*
X509501Y472500D01*
Y471833D01*
X509834Y471500D01*
X510167D01*
X510500Y471833D01*
Y472500D01*
X510834Y472833D01*
X511167D01*
X511500Y472500D01*
Y471833D01*
X511167Y471500D01*
X509834Y474832D02*
X509501Y474499D01*
Y473833D01*
X509834Y473499D01*
X511167D01*
X511500Y473833D01*
Y474499D01*
X511167Y474832D01*
X509501Y475499D02*
X511500D01*
Y476832D01*
X509501Y477498D02*
X511500D01*
X510834D01*
X509501Y478831D01*
X510500Y477831D01*
X511500Y478831D01*
X499834Y474833D02*
X499501Y474500D01*
Y473833D01*
X499834Y473500D01*
X501167D01*
X501500Y473833D01*
Y474500D01*
X501167Y474833D01*
X500500D01*
Y474166D01*
X501500Y475499D02*
X499501D01*
X501500Y476832D01*
X499501D01*
Y477499D02*
X501500D01*
Y478498D01*
X501167Y478832D01*
X499834D01*
X499501Y478498D01*
Y477499D01*
X490334Y473500D02*
X490001Y473833D01*
Y474500D01*
X490334Y474833D01*
X490667D01*
X491000Y474500D01*
Y474166D01*
Y474500D01*
X491334Y474833D01*
X491667D01*
X492000Y474500D01*
Y473833D01*
X491667Y473500D01*
X490001Y475499D02*
X491334D01*
X492000Y476166D01*
X491334Y476832D01*
X490001D01*
X490334Y477499D02*
X490001Y477832D01*
Y478498D01*
X490334Y478832D01*
X490667D01*
X491000Y478498D01*
Y478165D01*
Y478498D01*
X491334Y478832D01*
X491667D01*
X492000Y478498D01*
Y477832D01*
X491667Y477499D01*
X324999Y263500D02*
Y264167D01*
X324666Y264500D01*
X323333D01*
X323000Y264167D01*
Y263500D01*
X323333Y263167D01*
X324666D01*
X324999Y263500D01*
X324666Y261168D02*
X324999Y261501D01*
Y262167D01*
X324666Y262501D01*
X324333D01*
X324000Y262167D01*
Y261501D01*
X323666Y261168D01*
X323333D01*
X323000Y261501D01*
Y262167D01*
X323333Y262501D01*
X324666Y259168D02*
X324999Y259502D01*
Y260168D01*
X324666Y260501D01*
X323333D01*
X323000Y260168D01*
Y259502D01*
X323333Y259168D01*
X324999Y255503D02*
Y256169D01*
X324666Y256503D01*
X323333D01*
X323000Y256169D01*
Y255503D01*
X323333Y255170D01*
X324666D01*
X324999Y255503D01*
Y254503D02*
X323333D01*
X323000Y254170D01*
Y253504D01*
X323333Y253170D01*
X324999D01*
Y252504D02*
Y251171D01*
Y251837D01*
X323000D01*
X324999Y248505D02*
X323000D01*
Y247505D01*
X323333Y247172D01*
X324666D01*
X324999Y247505D01*
Y248505D01*
Y246506D02*
X323000D01*
Y245506D01*
X323333Y245173D01*
X323666D01*
X324000Y245506D01*
Y246506D01*
Y245506D01*
X324333Y245173D01*
X324666D01*
X324999Y245506D01*
Y246506D01*
X324666Y243174D02*
X324999Y243507D01*
Y244173D01*
X324666Y244507D01*
X323333D01*
X323000Y244173D01*
Y243507D01*
X323333Y243174D01*
X324000D01*
Y243840D01*
X480334Y474833D02*
X480001Y474500D01*
Y473833D01*
X480334Y473500D01*
X480667D01*
X481000Y473833D01*
Y474500D01*
X481334Y474833D01*
X481667D01*
X482000Y474500D01*
Y473833D01*
X481667Y473500D01*
X480334Y476832D02*
X480001Y476499D01*
Y475833D01*
X480334Y475499D01*
X481667D01*
X482000Y475833D01*
Y476499D01*
X481667Y476832D01*
X482000Y477499D02*
X480667D01*
X480001Y478165D01*
X480667Y478832D01*
X482000D01*
X481000D01*
Y477499D01*
X469834Y474833D02*
X469501Y474500D01*
Y473833D01*
X469834Y473500D01*
X470167D01*
X470500Y473833D01*
Y474500D01*
X470834Y474833D01*
X471167D01*
X471500Y474500D01*
Y473833D01*
X471167Y473500D01*
X469834Y476832D02*
X469501Y476499D01*
Y475833D01*
X469834Y475499D01*
X471167D01*
X471500Y475833D01*
Y476499D01*
X471167Y476832D01*
X469501Y477499D02*
X471500D01*
Y478832D01*
D14*
X368425Y274480D02*
X386535D01*
X368425D02*
X386535D01*
X367425Y344480D02*
X385535D01*
X367425D02*
X385535D01*
D15*
X419500Y338975D02*
X433700D01*
X419500Y338925D02*
X433750D01*
X419500Y338875D02*
X433800D01*
X419500Y338825D02*
X433850D01*
X419500Y338775D02*
X433900D01*
X419500Y338725D02*
X433950D01*
X419500Y338675D02*
X434000D01*
X419500Y338625D02*
X434050D01*
X419500Y338575D02*
X434100D01*
X419500Y338525D02*
X434150D01*
X419500Y338475D02*
X434200D01*
X419500Y338425D02*
X434250D01*
X419500Y338375D02*
X434300D01*
X419500Y338325D02*
X434350D01*
X419500Y338275D02*
X434400D01*
X419500Y338225D02*
X420250D01*
X433400D02*
X434450D01*
X419500Y338175D02*
X420250D01*
X433450D02*
X434500D01*
X419500Y338125D02*
X420250D01*
X433500D02*
X434550D01*
X419500Y338075D02*
X420250D01*
X433550D02*
X434600D01*
X419500Y338025D02*
X420250D01*
X433600D02*
X434650D01*
X419500Y337975D02*
X420250D01*
X433650D02*
X434700D01*
X419500Y337925D02*
X420250D01*
X433700D02*
X434750D01*
X419500Y337875D02*
X420250D01*
X433750D02*
X434800D01*
X419500Y337825D02*
X420250D01*
X433800D02*
X434850D01*
X419500Y337775D02*
X420250D01*
X433850D02*
X434900D01*
X419500Y337725D02*
X420250D01*
X433900D02*
X434950D01*
X419500Y337675D02*
X420250D01*
X433950D02*
X435000D01*
X419500Y337625D02*
X420250D01*
X434000D02*
X435050D01*
X419500Y337575D02*
X420250D01*
X434050D02*
X435100D01*
X419500Y337525D02*
X420250D01*
X434100D02*
X435150D01*
X419500Y337475D02*
X420250D01*
X434150D02*
X435200D01*
X419500Y337425D02*
X420250D01*
X434200D02*
X435250D01*
X419500Y337375D02*
X420250D01*
X434250D02*
X435300D01*
X419500Y337325D02*
X420250D01*
X434300D02*
X435350D01*
X419500Y337275D02*
X420250D01*
X434350D02*
X435400D01*
X419500Y337225D02*
X420250D01*
X434400D02*
X435450D01*
X419500Y337175D02*
X420250D01*
X434450D02*
X435500D01*
X419500Y337125D02*
X420250D01*
X434500D02*
X435550D01*
X419500Y337075D02*
X420250D01*
X434550D02*
X435600D01*
X419500Y337025D02*
X420250D01*
X434600D02*
X435650D01*
X419500Y336975D02*
X420250D01*
X434650D02*
X435700D01*
X419500Y336925D02*
X420250D01*
X434700D02*
X435750D01*
X419500Y336875D02*
X420250D01*
X434750D02*
X435800D01*
X419500Y336825D02*
X420250D01*
X434800D02*
X435850D01*
X419500Y336775D02*
X420250D01*
X434850D02*
X435900D01*
X419500Y336725D02*
X420250D01*
X431800D02*
X432400D01*
X434900D02*
X435950D01*
X419500Y336675D02*
X420250D01*
X431600D02*
X432650D01*
X434950D02*
X436000D01*
X419500Y336625D02*
X420250D01*
X422850D02*
X425000D01*
X425850D02*
X426800D01*
X428550D02*
X429450D01*
X430200D02*
X430800D01*
X431500D02*
X432850D01*
X435000D02*
X436050D01*
X419500Y336575D02*
X420250D01*
X422550D02*
X425000D01*
X425800D02*
X426800D01*
X428550D02*
X429450D01*
X430200D02*
X430850D01*
X431400D02*
X432950D01*
X435050D02*
X436100D01*
X419500Y336525D02*
X420250D01*
X422400D02*
X425000D01*
X425800D02*
X426850D01*
X428550D02*
X429450D01*
X430200D02*
X430850D01*
X431300D02*
X433050D01*
X435100D02*
X436150D01*
X419500Y336475D02*
X420250D01*
X422300D02*
X425000D01*
X425800D02*
X426850D01*
X428550D02*
X429450D01*
X430200D02*
X430850D01*
X431250D02*
X433150D01*
X435150D02*
X436200D01*
X419500Y336425D02*
X420250D01*
X422200D02*
X425000D01*
X425800D02*
X426900D01*
X428550D02*
X429450D01*
X430200D02*
X430850D01*
X431150D02*
X433250D01*
X435200D02*
X436250D01*
X419500Y336375D02*
X420250D01*
X422100D02*
X425000D01*
X425800D02*
X426950D01*
X428550D02*
X429450D01*
X430200D02*
X430850D01*
X431100D02*
X433350D01*
X435250D02*
X436300D01*
X419500Y336325D02*
X420250D01*
X422000D02*
X425000D01*
X425800D02*
X426950D01*
X428550D02*
X429450D01*
X430200D02*
X430900D01*
X431050D02*
X433400D01*
X435300D02*
X436350D01*
X419500Y336275D02*
X420250D01*
X421950D02*
X425000D01*
X425800D02*
X427000D01*
X428550D02*
X429450D01*
X430200D02*
X430900D01*
X431000D02*
X433450D01*
X435350D02*
X436400D01*
X419500Y336225D02*
X420250D01*
X421900D02*
X425000D01*
X425800D02*
X427050D01*
X428550D02*
X429450D01*
X430200D02*
X430900D01*
X430950D02*
X433500D01*
X435400D02*
X436450D01*
X419500Y336175D02*
X420250D01*
X421850D02*
X425000D01*
X425800D02*
X427050D01*
X428550D02*
X429450D01*
X430200D02*
X433550D01*
X435450D02*
X436500D01*
X419500Y336125D02*
X420250D01*
X421800D02*
X425000D01*
X425800D02*
X427100D01*
X428550D02*
X429450D01*
X430200D02*
X433600D01*
X435500D02*
X436550D01*
X419500Y336075D02*
X420250D01*
X421750D02*
X425000D01*
X425800D02*
X427100D01*
X428550D02*
X429450D01*
X430200D02*
X433650D01*
X435550D02*
X436600D01*
X419500Y336025D02*
X420250D01*
X421700D02*
X425000D01*
X425800D02*
X427150D01*
X428550D02*
X429450D01*
X430200D02*
X433700D01*
X435600D02*
X436650D01*
X419500Y335975D02*
X420250D01*
X421650D02*
X425000D01*
X425800D02*
X427200D01*
X428550D02*
X429450D01*
X430200D02*
X433750D01*
X435650D02*
X436700D01*
X419500Y335925D02*
X420250D01*
X421600D02*
X425000D01*
X425800D02*
X427200D01*
X428550D02*
X429450D01*
X430200D02*
X431800D01*
X432350D02*
X433750D01*
X435700D02*
X436750D01*
X419500Y335875D02*
X420250D01*
X421600D02*
X425000D01*
X425800D02*
X427250D01*
X428550D02*
X429450D01*
X430200D02*
X431650D01*
X432500D02*
X433800D01*
X435750D02*
X436800D01*
X419500Y335825D02*
X420250D01*
X421550D02*
X423000D01*
X424050D02*
X425000D01*
X425800D02*
X427300D01*
X428550D02*
X429450D01*
X430200D02*
X431550D01*
X432650D02*
X433850D01*
X435800D02*
X436850D01*
X419500Y335775D02*
X420250D01*
X421500D02*
X422800D01*
X424050D02*
X425000D01*
X425800D02*
X427300D01*
X428550D02*
X429450D01*
X430200D02*
X431450D01*
X432700D02*
X433850D01*
X435850D02*
X436900D01*
X419500Y335725D02*
X420250D01*
X421500D02*
X422700D01*
X424050D02*
X425000D01*
X425800D02*
X427350D01*
X428550D02*
X429450D01*
X430200D02*
X431400D01*
X432800D02*
X433900D01*
X435900D02*
X436950D01*
X419500Y335675D02*
X420250D01*
X421450D02*
X422600D01*
X424050D02*
X425000D01*
X425800D02*
X427350D01*
X428550D02*
X429450D01*
X430200D02*
X431350D01*
X432850D02*
X433900D01*
X435950D02*
X437000D01*
X419500Y335625D02*
X420250D01*
X421450D02*
X422550D01*
X424050D02*
X425000D01*
X425800D02*
X427400D01*
X428550D02*
X429450D01*
X430200D02*
X431300D01*
X432900D02*
X433950D01*
X436000D02*
X437050D01*
X419500Y335575D02*
X420250D01*
X421400D02*
X422500D01*
X424050D02*
X425000D01*
X425800D02*
X427450D01*
X428550D02*
X429450D01*
X430200D02*
X431250D01*
X432950D02*
X433950D01*
X436050D02*
X437100D01*
X419500Y335525D02*
X420250D01*
X421400D02*
X422450D01*
X424050D02*
X425000D01*
X425800D02*
X427450D01*
X428550D02*
X429450D01*
X430200D02*
X431200D01*
X432950D02*
X434000D01*
X436100D02*
X437150D01*
X419500Y335475D02*
X420250D01*
X421400D02*
X422400D01*
X424050D02*
X425000D01*
X425800D02*
X427500D01*
X428550D02*
X429450D01*
X430200D02*
X431200D01*
X433000D02*
X434000D01*
X436150D02*
X437200D01*
X419500Y335425D02*
X420250D01*
X421350D02*
X422350D01*
X424050D02*
X425000D01*
X425800D02*
X427500D01*
X428550D02*
X429450D01*
X430200D02*
X431150D01*
X433050D02*
X434050D01*
X436200D02*
X437250D01*
X419500Y335375D02*
X420250D01*
X421350D02*
X422350D01*
X424050D02*
X425000D01*
X425800D02*
X427550D01*
X428550D02*
X429450D01*
X430200D02*
X431150D01*
X433050D02*
X434050D01*
X436250D02*
X437300D01*
X419500Y335325D02*
X420250D01*
X421300D02*
X422300D01*
X424050D02*
X425000D01*
X425800D02*
X427600D01*
X428550D02*
X429450D01*
X430200D02*
X431150D01*
X433100D02*
X434050D01*
X436300D02*
X437350D01*
X419500Y335275D02*
X420250D01*
X421300D02*
X422300D01*
X424050D02*
X425000D01*
X425800D02*
X427600D01*
X428550D02*
X429450D01*
X430200D02*
X431100D01*
X433100D02*
X434100D01*
X436350D02*
X437400D01*
X419500Y335225D02*
X420250D01*
X421300D02*
X422250D01*
X424050D02*
X425000D01*
X425800D02*
X427650D01*
X428550D02*
X429450D01*
X430200D02*
X431100D01*
X433150D02*
X434100D01*
X436400D02*
X437450D01*
X419500Y335175D02*
X420250D01*
X421300D02*
X422250D01*
X424050D02*
X425000D01*
X425800D02*
X426700D01*
X426750D02*
X427700D01*
X428550D02*
X429450D01*
X430200D02*
X431100D01*
X433150D02*
X434100D01*
X436450D02*
X437500D01*
X419500Y335125D02*
X420250D01*
X421250D02*
X422250D01*
X424050D02*
X425000D01*
X425800D02*
X426700D01*
X426800D02*
X427700D01*
X428550D02*
X429450D01*
X430200D02*
X431100D01*
X433150D02*
X434100D01*
X436500D02*
X437550D01*
X419500Y335075D02*
X420250D01*
X421250D02*
X422200D01*
X424050D02*
X425000D01*
X425800D02*
X426700D01*
X426800D02*
X427750D01*
X428550D02*
X429450D01*
X430200D02*
X431050D01*
X433200D02*
X434150D01*
X436550D02*
X437600D01*
X419500Y335025D02*
X420250D01*
X421250D02*
X422200D01*
X424050D02*
X425000D01*
X425800D02*
X426700D01*
X426850D02*
X427750D01*
X428550D02*
X429450D01*
X430200D02*
X431100D01*
X433200D02*
X434150D01*
X436600D02*
X437650D01*
X419500Y334975D02*
X420250D01*
X421250D02*
X422200D01*
X424050D02*
X425000D01*
X425800D02*
X426700D01*
X426900D02*
X427800D01*
X428550D02*
X429450D01*
X430200D02*
X432000D01*
X433200D02*
X434150D01*
X436650D02*
X437700D01*
X419500Y334925D02*
X420250D01*
X421250D02*
X422200D01*
X424050D02*
X425000D01*
X425800D02*
X426700D01*
X426900D02*
X427850D01*
X428550D02*
X429450D01*
X430200D02*
X432000D01*
X433200D02*
X434150D01*
X436700D02*
X437750D01*
X419500Y334875D02*
X420250D01*
X421250D02*
X422150D01*
X424050D02*
X425000D01*
X425800D02*
X426700D01*
X426950D02*
X427850D01*
X428550D02*
X429450D01*
X430200D02*
X432000D01*
X433200D02*
X434150D01*
X436750D02*
X437800D01*
X419500Y334825D02*
X420250D01*
X421250D02*
X422150D01*
X424050D02*
X425000D01*
X425800D02*
X426700D01*
X426950D02*
X427900D01*
X428550D02*
X429450D01*
X430200D02*
X432000D01*
X433250D02*
X434150D01*
X436800D02*
X437850D01*
X419500Y334775D02*
X420250D01*
X421200D02*
X422150D01*
X424050D02*
X425000D01*
X425800D02*
X426700D01*
X427000D02*
X427900D01*
X428550D02*
X429450D01*
X430200D02*
X432000D01*
X433250D02*
X434200D01*
X436850D02*
X437900D01*
X419500Y334725D02*
X420250D01*
X421200D02*
X422150D01*
X424050D02*
X425000D01*
X425800D02*
X426700D01*
X427050D02*
X427950D01*
X428550D02*
X429450D01*
X430200D02*
X432000D01*
X433250D02*
X434200D01*
X436900D02*
X437950D01*
X419500Y334675D02*
X420250D01*
X421200D02*
X422150D01*
X424050D02*
X425000D01*
X425800D02*
X426700D01*
X427050D02*
X428000D01*
X428550D02*
X429450D01*
X430200D02*
X432000D01*
X433250D02*
X434200D01*
X436950D02*
X438000D01*
X419500Y334625D02*
X420250D01*
X421200D02*
X422150D01*
X424050D02*
X425000D01*
X425800D02*
X426700D01*
X427100D02*
X428000D01*
X428550D02*
X429450D01*
X430200D02*
X432000D01*
X433250D02*
X434200D01*
X437000D02*
X438050D01*
X419500Y334575D02*
X420250D01*
X421200D02*
X422150D01*
X424050D02*
X425000D01*
X425800D02*
X426700D01*
X427100D02*
X428050D01*
X428550D02*
X429450D01*
X430200D02*
X432000D01*
X433250D02*
X434200D01*
X437050D02*
X438100D01*
X419500Y334525D02*
X420250D01*
X421200D02*
X422150D01*
X424050D02*
X425000D01*
X425800D02*
X426700D01*
X427150D02*
X428100D01*
X428550D02*
X429450D01*
X430200D02*
X432000D01*
X433250D02*
X434200D01*
X437100D02*
X438150D01*
X419500Y334475D02*
X420250D01*
X421200D02*
X422150D01*
X424050D02*
X425000D01*
X425800D02*
X426700D01*
X427200D02*
X428100D01*
X428550D02*
X429450D01*
X430200D02*
X432000D01*
X433250D02*
X434200D01*
X437100D02*
X438150D01*
X419500Y334425D02*
X420250D01*
X421200D02*
X422150D01*
X424050D02*
X425000D01*
X425800D02*
X426700D01*
X427200D02*
X428150D01*
X428550D02*
X429450D01*
X430200D02*
X432000D01*
X433250D02*
X434200D01*
X437100D02*
X438100D01*
X419500Y334375D02*
X420250D01*
X421200D02*
X422150D01*
X424050D02*
X425000D01*
X425800D02*
X426700D01*
X427250D02*
X428150D01*
X428550D02*
X429450D01*
X430200D02*
X432000D01*
X433250D02*
X434200D01*
X437050D02*
X438050D01*
X419500Y334325D02*
X420250D01*
X421200D02*
X422150D01*
X424050D02*
X425000D01*
X425800D02*
X426700D01*
X427300D02*
X428200D01*
X428550D02*
X429450D01*
X430200D02*
X432000D01*
X433250D02*
X434200D01*
X437000D02*
X438000D01*
X419500Y334275D02*
X420250D01*
X421200D02*
X422150D01*
X424050D02*
X425000D01*
X425800D02*
X426700D01*
X427300D02*
X428250D01*
X428550D02*
X429450D01*
X433250D02*
X434200D01*
X436950D02*
X437950D01*
X419500Y334225D02*
X420250D01*
X421200D02*
X422150D01*
X424050D02*
X425000D01*
X425800D02*
X426700D01*
X427350D02*
X428250D01*
X428550D02*
X429450D01*
X433250D02*
X434200D01*
X436900D02*
X437900D01*
X419500Y334175D02*
X420250D01*
X421200D02*
X422150D01*
X424050D02*
X425000D01*
X425800D02*
X426700D01*
X427350D02*
X428300D01*
X428550D02*
X429450D01*
X433250D02*
X434150D01*
X436850D02*
X437850D01*
X419500Y334125D02*
X420250D01*
X421250D02*
X422200D01*
X424050D02*
X425000D01*
X425800D02*
X426700D01*
X427400D02*
X428350D01*
X428550D02*
X429450D01*
X433200D02*
X434150D01*
X436800D02*
X437800D01*
X419500Y334075D02*
X420250D01*
X421250D02*
X422200D01*
X424050D02*
X425000D01*
X425800D02*
X426700D01*
X427450D02*
X428350D01*
X428550D02*
X429450D01*
X433200D02*
X434150D01*
X436750D02*
X437750D01*
X419500Y334025D02*
X420250D01*
X421250D02*
X422200D01*
X424050D02*
X425000D01*
X425800D02*
X426700D01*
X427450D02*
X428400D01*
X428550D02*
X429450D01*
X433200D02*
X434150D01*
X436700D02*
X437700D01*
X419500Y333975D02*
X420250D01*
X421250D02*
X422200D01*
X424050D02*
X425000D01*
X425800D02*
X426700D01*
X427500D02*
X428400D01*
X428550D02*
X429450D01*
X433200D02*
X434150D01*
X436650D02*
X437650D01*
X419500Y333925D02*
X420250D01*
X421250D02*
X422200D01*
X424050D02*
X425000D01*
X425800D02*
X426700D01*
X427550D02*
X428450D01*
X428550D02*
X429450D01*
X433200D02*
X434150D01*
X436600D02*
X437600D01*
X419500Y333875D02*
X420250D01*
X421250D02*
X422250D01*
X424050D02*
X425000D01*
X425800D02*
X426700D01*
X427550D02*
X428500D01*
X428550D02*
X429450D01*
X433150D02*
X434100D01*
X436550D02*
X437550D01*
X419500Y333825D02*
X420250D01*
X421250D02*
X422250D01*
X424050D02*
X425000D01*
X425800D02*
X426700D01*
X427600D02*
X428500D01*
X428550D02*
X429450D01*
X433150D02*
X434100D01*
X436500D02*
X437500D01*
X419500Y333775D02*
X420250D01*
X421300D02*
X422250D01*
X424050D02*
X425000D01*
X425800D02*
X426700D01*
X427600D02*
X429450D01*
X433150D02*
X434100D01*
X436450D02*
X437450D01*
X419500Y333725D02*
X420250D01*
X421300D02*
X422300D01*
X424050D02*
X425000D01*
X425800D02*
X426700D01*
X427650D02*
X429450D01*
X430300D02*
X431200D01*
X433100D02*
X434100D01*
X436400D02*
X437400D01*
X419500Y333675D02*
X420250D01*
X421300D02*
X422300D01*
X424050D02*
X425000D01*
X425800D02*
X426700D01*
X427700D02*
X429450D01*
X430300D02*
X431200D01*
X433100D02*
X434050D01*
X436350D02*
X437350D01*
X419500Y333625D02*
X420250D01*
X421350D02*
X422350D01*
X424050D02*
X425000D01*
X425800D02*
X426700D01*
X427700D02*
X429450D01*
X430300D02*
X431200D01*
X433050D02*
X434050D01*
X436300D02*
X437300D01*
X419500Y333575D02*
X420250D01*
X421350D02*
X422400D01*
X424050D02*
X425000D01*
X425800D02*
X426700D01*
X427750D02*
X429450D01*
X430300D02*
X431250D01*
X433050D02*
X434050D01*
X436250D02*
X437250D01*
X419500Y333525D02*
X420250D01*
X421350D02*
X422400D01*
X424050D02*
X425000D01*
X425800D02*
X426700D01*
X427750D02*
X429450D01*
X430300D02*
X431250D01*
X433000D02*
X434000D01*
X436200D02*
X437200D01*
X419500Y333475D02*
X420250D01*
X421400D02*
X422450D01*
X424050D02*
X425000D01*
X425800D02*
X426700D01*
X427800D02*
X429450D01*
X430350D02*
X431300D01*
X433000D02*
X434000D01*
X436150D02*
X437150D01*
X419500Y333425D02*
X420250D01*
X421400D02*
X422500D01*
X424050D02*
X425000D01*
X425800D02*
X426700D01*
X427850D02*
X429450D01*
X430350D02*
X431300D01*
X432950D02*
X434000D01*
X436100D02*
X437100D01*
X419500Y333375D02*
X420250D01*
X421400D02*
X422550D01*
X424050D02*
X425000D01*
X425800D02*
X426700D01*
X427850D02*
X429450D01*
X430350D02*
X431350D01*
X432900D02*
X433950D01*
X436050D02*
X437050D01*
X419500Y333325D02*
X420250D01*
X421450D02*
X422650D01*
X424050D02*
X425000D01*
X425800D02*
X426700D01*
X427900D02*
X429450D01*
X430400D02*
X431400D01*
X432850D02*
X433950D01*
X436000D02*
X437000D01*
X419500Y333275D02*
X420250D01*
X421450D02*
X422700D01*
X424050D02*
X425000D01*
X425800D02*
X426700D01*
X427950D02*
X429450D01*
X430400D02*
X431450D01*
X432800D02*
X433900D01*
X435950D02*
X436950D01*
X419500Y333225D02*
X420250D01*
X421500D02*
X422800D01*
X424050D02*
X425000D01*
X425800D02*
X426700D01*
X427950D02*
X429450D01*
X430400D02*
X431500D01*
X432750D02*
X433850D01*
X435900D02*
X436900D01*
X419500Y333175D02*
X420250D01*
X421500D02*
X423000D01*
X424050D02*
X425000D01*
X425800D02*
X426700D01*
X428000D02*
X429450D01*
X430450D02*
X431550D01*
X432650D02*
X433850D01*
X435850D02*
X436850D01*
X419500Y333125D02*
X420250D01*
X421550D02*
X425000D01*
X425800D02*
X426700D01*
X428000D02*
X429450D01*
X430450D02*
X431650D01*
X432550D02*
X433800D01*
X435800D02*
X436800D01*
X419500Y333075D02*
X420250D01*
X421600D02*
X425000D01*
X425800D02*
X426700D01*
X428050D02*
X429450D01*
X430500D02*
X431800D01*
X432400D02*
X433800D01*
X435750D02*
X436750D01*
X419500Y333025D02*
X420250D01*
X421650D02*
X425000D01*
X425800D02*
X426700D01*
X428100D02*
X429450D01*
X430550D02*
X433750D01*
X435700D02*
X436700D01*
X419500Y332975D02*
X420250D01*
X421650D02*
X425000D01*
X425800D02*
X426700D01*
X428100D02*
X429450D01*
X430550D02*
X433700D01*
X435650D02*
X436650D01*
X419500Y332925D02*
X420250D01*
X421700D02*
X425000D01*
X425800D02*
X426700D01*
X428150D02*
X429450D01*
X430600D02*
X433650D01*
X435600D02*
X436600D01*
X419500Y332875D02*
X420250D01*
X421750D02*
X425000D01*
X425800D02*
X426700D01*
X428150D02*
X429450D01*
X430650D02*
X433600D01*
X435550D02*
X436550D01*
X419500Y332825D02*
X420250D01*
X421800D02*
X425000D01*
X425800D02*
X426700D01*
X428200D02*
X429450D01*
X430700D02*
X433550D01*
X435500D02*
X436500D01*
X419500Y332775D02*
X420250D01*
X421850D02*
X425000D01*
X425800D02*
X426700D01*
X428250D02*
X429450D01*
X430750D02*
X433500D01*
X435450D02*
X436450D01*
X419500Y332725D02*
X420250D01*
X421900D02*
X425000D01*
X425800D02*
X426700D01*
X428250D02*
X429450D01*
X430800D02*
X433450D01*
X435400D02*
X436400D01*
X419500Y332675D02*
X420250D01*
X422000D02*
X425000D01*
X425800D02*
X426700D01*
X428300D02*
X429450D01*
X430850D02*
X433400D01*
X435350D02*
X436350D01*
X419500Y332625D02*
X420250D01*
X422050D02*
X425000D01*
X425800D02*
X426700D01*
X428350D02*
X429450D01*
X430900D02*
X433350D01*
X435300D02*
X436300D01*
X419500Y332575D02*
X420250D01*
X422150D02*
X425000D01*
X425800D02*
X426700D01*
X428350D02*
X429450D01*
X430950D02*
X433250D01*
X435250D02*
X436250D01*
X419500Y332525D02*
X420250D01*
X422250D02*
X425000D01*
X425800D02*
X426700D01*
X428400D02*
X429450D01*
X431050D02*
X433200D01*
X435200D02*
X436200D01*
X419500Y332475D02*
X420250D01*
X422350D02*
X425000D01*
X425800D02*
X426700D01*
X428400D02*
X429450D01*
X431100D02*
X433100D01*
X435150D02*
X436150D01*
X419500Y332425D02*
X420250D01*
X422500D02*
X425000D01*
X425800D02*
X426700D01*
X428450D02*
X429450D01*
X431200D02*
X433000D01*
X435100D02*
X436100D01*
X419500Y332375D02*
X420250D01*
X422700D02*
X425000D01*
X425800D02*
X426700D01*
X428500D02*
X429450D01*
X431350D02*
X432900D01*
X435050D02*
X436050D01*
X419500Y332325D02*
X420250D01*
X431500D02*
X432750D01*
X435000D02*
X436000D01*
X419500Y332275D02*
X420250D01*
X431650D02*
X432550D01*
X434950D02*
X435950D01*
X419500Y332225D02*
X420250D01*
X434900D02*
X435900D01*
X419500Y332175D02*
X420250D01*
X434850D02*
X435850D01*
X419500Y332125D02*
X420250D01*
X434800D02*
X435800D01*
X419500Y332075D02*
X420250D01*
X434750D02*
X435750D01*
X419500Y332025D02*
X420250D01*
X434700D02*
X435700D01*
X419500Y331975D02*
X420250D01*
X434650D02*
X435650D01*
X419500Y331925D02*
X420250D01*
X434600D02*
X435600D01*
X419500Y331875D02*
X420250D01*
X434550D02*
X435550D01*
X419500Y331825D02*
X420250D01*
X434500D02*
X435500D01*
X419500Y331775D02*
X420250D01*
X434450D02*
X435450D01*
X419500Y331725D02*
X420250D01*
X434400D02*
X435400D01*
X419500Y331675D02*
X420250D01*
X434350D02*
X435350D01*
X419500Y331625D02*
X420250D01*
X434300D02*
X435300D01*
X419500Y331575D02*
X420250D01*
X434250D02*
X435250D01*
X419500Y331525D02*
X420250D01*
X434200D02*
X435200D01*
X419500Y331475D02*
X420250D01*
X434150D02*
X435150D01*
X419500Y331425D02*
X420250D01*
X434100D02*
X435100D01*
X419500Y331375D02*
X420250D01*
X434050D02*
X435050D01*
X419500Y331325D02*
X420250D01*
X434000D02*
X435000D01*
X419500Y331275D02*
X420250D01*
X433950D02*
X434950D01*
X419500Y331225D02*
X420250D01*
X433900D02*
X434900D01*
X419500Y331175D02*
X420250D01*
X433850D02*
X434850D01*
X419500Y331125D02*
X420250D01*
X433800D02*
X434800D01*
X419500Y331075D02*
X420250D01*
X433750D02*
X434750D01*
X419500Y331025D02*
X420250D01*
X433700D02*
X434700D01*
X419500Y330975D02*
X420250D01*
X433650D02*
X434650D01*
X419500Y330925D02*
X420250D01*
X433600D02*
X434600D01*
X419500Y330875D02*
X420250D01*
X433550D02*
X434550D01*
X419500Y330825D02*
X420250D01*
X433500D02*
X434500D01*
X419500Y330775D02*
X420250D01*
X433450D02*
X434450D01*
X419500Y330725D02*
X420250D01*
X433350D02*
X434400D01*
X419500Y330675D02*
X434350D01*
X419500Y330625D02*
X434300D01*
X419500Y330575D02*
X434250D01*
X419500Y330525D02*
X434200D01*
X419500Y330475D02*
X434150D01*
X419500Y330425D02*
X434100D01*
X419500Y330375D02*
X434050D01*
X419500Y330325D02*
X434000D01*
X419500Y330275D02*
X433950D01*
X419500Y330225D02*
X433900D01*
X419500Y330175D02*
X433850D01*
X419500Y330125D02*
X433800D01*
X419500Y330075D02*
X433750D01*
X419500Y330025D02*
X433700D01*
X419500Y329975D02*
X433650D01*
X589550Y339000D02*
X603750D01*
X589550Y338950D02*
X603800D01*
X589550Y338900D02*
X603850D01*
X589550Y338850D02*
X603900D01*
X589550Y338800D02*
X603950D01*
X589550Y338750D02*
X604000D01*
X589550Y338700D02*
X604050D01*
X589550Y338650D02*
X604100D01*
X589550Y338600D02*
X604150D01*
X589550Y338550D02*
X604200D01*
X589550Y338500D02*
X604250D01*
X589550Y338450D02*
X604300D01*
X589550Y338400D02*
X604350D01*
X589550Y338350D02*
X604400D01*
X589550Y338300D02*
X604450D01*
X589550Y338250D02*
X604500D01*
X589550Y338200D02*
X604550D01*
X589550Y338150D02*
X604600D01*
X589550Y338100D02*
X604650D01*
X589550Y338050D02*
X604700D01*
X589550Y338000D02*
X604750D01*
X589550Y337950D02*
X604800D01*
X589550Y337900D02*
X604850D01*
X589550Y337850D02*
X604900D01*
X589550Y337800D02*
X604950D01*
X589550Y337750D02*
X605000D01*
X589550Y337700D02*
X605050D01*
X589550Y337650D02*
X605100D01*
X589550Y337600D02*
X605150D01*
X589550Y337550D02*
X605200D01*
X589550Y337500D02*
X605250D01*
X589550Y337450D02*
X605300D01*
X589550Y337400D02*
X605350D01*
X589550Y337350D02*
X605400D01*
X589550Y337300D02*
X605450D01*
X589550Y337250D02*
X605500D01*
X589550Y337200D02*
X605550D01*
X589550Y337150D02*
X605600D01*
X589550Y337100D02*
X605650D01*
X589550Y337050D02*
X605700D01*
X589550Y337000D02*
X605750D01*
X589550Y336950D02*
X605800D01*
X589550Y336900D02*
X605850D01*
X589550Y336850D02*
X599450D01*
X599850D02*
X605900D01*
X589550Y336800D02*
X599200D01*
X600150D02*
X605950D01*
X589550Y336750D02*
X595250D01*
X596400D02*
X599050D01*
X600350D02*
X606000D01*
X589550Y336700D02*
X595250D01*
X596450D02*
X598900D01*
X600450D02*
X606050D01*
X589550Y336650D02*
X595200D01*
X596450D02*
X598800D01*
X600600D02*
X606100D01*
X589550Y336600D02*
X595200D01*
X596450D02*
X598750D01*
X600650D02*
X606150D01*
X589550Y336550D02*
X595200D01*
X596450D02*
X598650D01*
X600750D02*
X606200D01*
X589550Y336500D02*
X595150D01*
X596500D02*
X598600D01*
X600800D02*
X606250D01*
X589550Y336450D02*
X595150D01*
X596500D02*
X598550D01*
X600850D02*
X606300D01*
X589550Y336400D02*
X595150D01*
X596500D02*
X598450D01*
X600950D02*
X606350D01*
X589550Y336350D02*
X595100D01*
X596550D02*
X598400D01*
X601000D02*
X606400D01*
X589550Y336300D02*
X595100D01*
X596550D02*
X598400D01*
X601000D02*
X606450D01*
X589550Y336250D02*
X595100D01*
X596550D02*
X598350D01*
X601050D02*
X606500D01*
X589550Y336200D02*
X595050D01*
X596600D02*
X598300D01*
X601100D02*
X606550D01*
X589550Y336150D02*
X595050D01*
X596600D02*
X598250D01*
X601150D02*
X606600D01*
X589550Y336100D02*
X595050D01*
X596600D02*
X598250D01*
X599650D02*
X599700D01*
X601150D02*
X606650D01*
X589550Y336050D02*
X595000D01*
X596650D02*
X598200D01*
X599400D02*
X599950D01*
X601200D02*
X606700D01*
X589550Y336000D02*
X595000D01*
X596650D02*
X598150D01*
X599300D02*
X600050D01*
X601200D02*
X606750D01*
X589550Y335950D02*
X595000D01*
X596650D02*
X598150D01*
X599200D02*
X600150D01*
X601250D02*
X606800D01*
X589550Y335900D02*
X594950D01*
X596700D02*
X598100D01*
X599150D02*
X600200D01*
X601250D02*
X606850D01*
X589550Y335850D02*
X594950D01*
X596700D02*
X598100D01*
X599100D02*
X600250D01*
X601250D02*
X606900D01*
X589550Y335800D02*
X594950D01*
X596700D02*
X598100D01*
X599100D02*
X600300D01*
X601300D02*
X606950D01*
X589550Y335750D02*
X594900D01*
X596750D02*
X598050D01*
X599050D02*
X600300D01*
X601300D02*
X607000D01*
X589550Y335700D02*
X594900D01*
X596750D02*
X598050D01*
X599000D02*
X600350D01*
X601300D02*
X607050D01*
X589550Y335650D02*
X594900D01*
X596750D02*
X598050D01*
X599000D02*
X600350D01*
X601300D02*
X607100D01*
X589550Y335600D02*
X594850D01*
X596800D02*
X598000D01*
X598950D02*
X600400D01*
X601300D02*
X607150D01*
X589550Y335550D02*
X594850D01*
X596800D02*
X598000D01*
X598950D02*
X600400D01*
X601350D02*
X607200D01*
X589550Y335500D02*
X594850D01*
X596800D02*
X598000D01*
X598950D02*
X600400D01*
X601350D02*
X607250D01*
X589550Y335450D02*
X594800D01*
X596850D02*
X598000D01*
X598900D02*
X600400D01*
X601350D02*
X607300D01*
X589550Y335400D02*
X594800D01*
X596850D02*
X598000D01*
X598900D02*
X607350D01*
X589550Y335350D02*
X594800D01*
X595800D02*
X595850D01*
X596850D02*
X598000D01*
X598900D02*
X607400D01*
X589550Y335300D02*
X594750D01*
X595800D02*
X595850D01*
X596900D02*
X598000D01*
X598900D02*
X607450D01*
X589550Y335250D02*
X594750D01*
X595750D02*
X595900D01*
X596900D02*
X597950D01*
X598900D02*
X607500D01*
X589550Y335200D02*
X594750D01*
X595750D02*
X595900D01*
X596900D02*
X597950D01*
X598900D02*
X607550D01*
X589550Y335150D02*
X594700D01*
X595750D02*
X595900D01*
X596950D02*
X598000D01*
X598900D02*
X607600D01*
X589550Y335100D02*
X594700D01*
X595700D02*
X595900D01*
X596950D02*
X598000D01*
X598900D02*
X607650D01*
X589550Y335050D02*
X594700D01*
X595700D02*
X595950D01*
X596950D02*
X598000D01*
X598900D02*
X607700D01*
X589550Y335000D02*
X594650D01*
X595700D02*
X595950D01*
X597000D02*
X598000D01*
X598900D02*
X607750D01*
X589550Y334950D02*
X594650D01*
X595650D02*
X595950D01*
X597000D02*
X598000D01*
X598950D02*
X607800D01*
X589550Y334900D02*
X594650D01*
X595650D02*
X596000D01*
X597000D02*
X598000D01*
X598950D02*
X607850D01*
X589550Y334850D02*
X594600D01*
X595650D02*
X596000D01*
X597050D02*
X598000D01*
X598950D02*
X607900D01*
X589550Y334800D02*
X594600D01*
X595600D02*
X596000D01*
X597050D02*
X598000D01*
X599000D02*
X607950D01*
X589550Y334750D02*
X594600D01*
X595600D02*
X596050D01*
X597050D02*
X598050D01*
X599000D02*
X608000D01*
X589550Y334700D02*
X594550D01*
X595600D02*
X596050D01*
X597100D02*
X598050D01*
X599050D02*
X600350D01*
X601200D02*
X608050D01*
X589550Y334650D02*
X594550D01*
X595550D02*
X596050D01*
X597100D02*
X598050D01*
X599100D02*
X600300D01*
X601150D02*
X608100D01*
X589550Y334600D02*
X594550D01*
X595550D02*
X596100D01*
X597100D02*
X598100D01*
X599150D02*
X600250D01*
X601150D02*
X608150D01*
X589550Y334550D02*
X594500D01*
X595550D02*
X596100D01*
X597100D02*
X598100D01*
X599200D02*
X600200D01*
X601150D02*
X608200D01*
X589550Y334500D02*
X594500D01*
X595550D02*
X596100D01*
X597150D02*
X598100D01*
X599250D02*
X600100D01*
X601150D02*
X608200D01*
X589550Y334450D02*
X594500D01*
X595500D02*
X596150D01*
X597150D02*
X598150D01*
X599350D02*
X600000D01*
X601150D02*
X608150D01*
X589550Y334400D02*
X594450D01*
X595500D02*
X596150D01*
X597150D02*
X598150D01*
X599500D02*
X599850D01*
X601150D02*
X608100D01*
X589550Y334350D02*
X594450D01*
X595500D02*
X596150D01*
X597200D02*
X598200D01*
X601100D02*
X608050D01*
X589550Y334300D02*
X594450D01*
X595450D02*
X596200D01*
X597200D02*
X598200D01*
X601100D02*
X608000D01*
X589550Y334250D02*
X594400D01*
X595450D02*
X596200D01*
X597200D02*
X598250D01*
X601100D02*
X607950D01*
X589550Y334200D02*
X594400D01*
X595450D02*
X596200D01*
X597250D02*
X598300D01*
X601100D02*
X607900D01*
X589550Y334150D02*
X594400D01*
X595400D02*
X596200D01*
X597250D02*
X598350D01*
X601100D02*
X607850D01*
X589550Y334100D02*
X594350D01*
X595400D02*
X596250D01*
X597250D02*
X598400D01*
X601100D02*
X607800D01*
X589550Y334050D02*
X594350D01*
X595400D02*
X596250D01*
X597300D02*
X598450D01*
X601050D02*
X607750D01*
X589550Y334000D02*
X594350D01*
X595350D02*
X596250D01*
X597300D02*
X598500D01*
X600200D02*
X600250D01*
X601050D02*
X607700D01*
X589550Y333950D02*
X594300D01*
X595350D02*
X596300D01*
X597300D02*
X598550D01*
X600150D02*
X600250D01*
X601050D02*
X607650D01*
X589550Y333900D02*
X594300D01*
X595350D02*
X596300D01*
X597350D02*
X598600D01*
X600100D02*
X600250D01*
X601050D02*
X607600D01*
X589550Y333850D02*
X594300D01*
X595300D02*
X596300D01*
X597350D02*
X598700D01*
X600000D02*
X600250D01*
X601050D02*
X607550D01*
X589550Y333800D02*
X594250D01*
X595300D02*
X596350D01*
X597350D02*
X598800D01*
X599900D02*
X600250D01*
X601000D02*
X607500D01*
X589550Y333750D02*
X594250D01*
X595300D02*
X596350D01*
X597400D02*
X598950D01*
X599800D02*
X600200D01*
X601000D02*
X607450D01*
X589550Y333700D02*
X594250D01*
X595250D02*
X596350D01*
X597400D02*
X599250D01*
X599500D02*
X600200D01*
X601000D02*
X607400D01*
X589550Y333650D02*
X594200D01*
X595250D02*
X596400D01*
X597400D02*
X600200D01*
X601000D02*
X607350D01*
X589550Y333600D02*
X594200D01*
X595250D02*
X596400D01*
X597450D02*
X600200D01*
X601000D02*
X607300D01*
X589550Y333550D02*
X594200D01*
X595200D02*
X596400D01*
X597450D02*
X600200D01*
X601000D02*
X607250D01*
X589550Y333500D02*
X594150D01*
X595200D02*
X596450D01*
X597450D02*
X600150D01*
X600950D02*
X607200D01*
X589550Y333450D02*
X594150D01*
X595200D02*
X596450D01*
X597500D02*
X600150D01*
X600950D02*
X607150D01*
X589550Y333400D02*
X594150D01*
X595150D02*
X596450D01*
X597500D02*
X600150D01*
X600950D02*
X607100D01*
X589550Y333350D02*
X594100D01*
X595150D02*
X596500D01*
X597500D02*
X600150D01*
X600950D02*
X607050D01*
X589550Y333300D02*
X594100D01*
X595150D02*
X596500D01*
X597550D02*
X600150D01*
X600950D02*
X607000D01*
X589550Y333250D02*
X594100D01*
X595150D02*
X596500D01*
X597550D02*
X600150D01*
X600950D02*
X606950D01*
X589550Y333200D02*
X594050D01*
X595100D02*
X596550D01*
X597550D02*
X600100D01*
X600900D02*
X606900D01*
X589550Y333150D02*
X594050D01*
X595100D02*
X596550D01*
X597600D02*
X600100D01*
X600900D02*
X606850D01*
X589550Y333100D02*
X594050D01*
X595100D02*
X596550D01*
X597600D02*
X600100D01*
X600900D02*
X606800D01*
X589550Y333050D02*
X594000D01*
X595050D02*
X596550D01*
X597600D02*
X600100D01*
X600900D02*
X606750D01*
X589550Y333000D02*
X594000D01*
X595050D02*
X596600D01*
X597650D02*
X598250D01*
X600900D02*
X606700D01*
X589550Y332950D02*
X594000D01*
X595050D02*
X596600D01*
X597650D02*
X598200D01*
X600850D02*
X606650D01*
X589550Y332900D02*
X593950D01*
X595000D02*
X596600D01*
X597650D02*
X598200D01*
X600850D02*
X606600D01*
X589550Y332850D02*
X593950D01*
X595000D02*
X596650D01*
X597700D02*
X598200D01*
X600850D02*
X606550D01*
X589550Y332800D02*
X593950D01*
X595000D02*
X596650D01*
X597700D02*
X598200D01*
X600850D02*
X606500D01*
X589550Y332750D02*
X593900D01*
X594950D02*
X596650D01*
X597700D02*
X598200D01*
X600850D02*
X606450D01*
X589550Y332700D02*
X593900D01*
X594950D02*
X596700D01*
X597750D02*
X598200D01*
X600850D02*
X606400D01*
X589550Y332650D02*
X593900D01*
X594950D02*
X596700D01*
X597750D02*
X598200D01*
X600800D02*
X606350D01*
X589550Y332600D02*
X593850D01*
X594900D02*
X596700D01*
X597750D02*
X598200D01*
X600800D02*
X606300D01*
X589550Y332550D02*
X593850D01*
X594900D02*
X596750D01*
X597800D02*
X598200D01*
X600800D02*
X606250D01*
X589550Y332500D02*
X593850D01*
X594900D02*
X596750D01*
X597800D02*
X598200D01*
X600800D02*
X606200D01*
X589550Y332450D02*
X593800D01*
X594850D02*
X596750D01*
X597800D02*
X598200D01*
X600800D02*
X606150D01*
X589550Y332400D02*
X593800D01*
X594850D02*
X596800D01*
X597800D02*
X598200D01*
X600750D02*
X606100D01*
X589550Y332350D02*
X593800D01*
X594850D02*
X596800D01*
X597850D02*
X598200D01*
X600750D02*
X606050D01*
X589550Y332300D02*
X593750D01*
X594800D02*
X596800D01*
X597850D02*
X598200D01*
X600750D02*
X606000D01*
X589550Y332250D02*
X593750D01*
X594800D02*
X596850D01*
X597850D02*
X598250D01*
X600750D02*
X605950D01*
X589550Y332200D02*
X593750D01*
X594800D02*
X596850D01*
X597900D02*
X605900D01*
X589550Y332150D02*
X605850D01*
X589550Y332100D02*
X605800D01*
X589550Y332050D02*
X605750D01*
X589550Y332000D02*
X605700D01*
X589550Y331950D02*
X605650D01*
X589550Y331900D02*
X605600D01*
X589550Y331850D02*
X605550D01*
X589550Y331800D02*
X605500D01*
X589550Y331750D02*
X605450D01*
X589550Y331700D02*
X605400D01*
X589550Y331650D02*
X605350D01*
X589550Y331600D02*
X605300D01*
X589550Y331550D02*
X605250D01*
X589550Y331500D02*
X605200D01*
X589550Y331450D02*
X605150D01*
X589550Y331400D02*
X605100D01*
X589550Y331350D02*
X605050D01*
X589550Y331300D02*
X605000D01*
X589550Y331250D02*
X604950D01*
X589550Y331200D02*
X604900D01*
X589550Y331150D02*
X604850D01*
X589550Y331100D02*
X604800D01*
X589550Y331050D02*
X604750D01*
X589550Y331000D02*
X604700D01*
X589550Y330950D02*
X604650D01*
X589550Y330900D02*
X604600D01*
X589550Y330850D02*
X604550D01*
X589550Y330800D02*
X604500D01*
X589550Y330750D02*
X604450D01*
X589550Y330700D02*
X604400D01*
X589550Y330650D02*
X604350D01*
X589550Y330600D02*
X604300D01*
X589550Y330550D02*
X604250D01*
X589550Y330500D02*
X604200D01*
X589550Y330450D02*
X604150D01*
X589550Y330400D02*
X604100D01*
X589550Y330350D02*
X604050D01*
X589550Y330300D02*
X604000D01*
X589550Y330250D02*
X603950D01*
X589550Y330200D02*
X603900D01*
X589550Y330150D02*
X603850D01*
X589550Y330100D02*
X603800D01*
X589550Y330050D02*
X603750D01*
X589550Y330000D02*
X603700D01*
X635350Y330050D02*
X649500D01*
X635300Y330100D02*
X649500D01*
X635250Y330150D02*
X649500D01*
X635200Y330200D02*
X649500D01*
X635150Y330250D02*
X649500D01*
X635100Y330300D02*
X649500D01*
X635050Y330350D02*
X649500D01*
X635000Y330400D02*
X649500D01*
X634950Y330450D02*
X649500D01*
X634900Y330500D02*
X649500D01*
X634850Y330550D02*
X649500D01*
X634800Y330600D02*
X649500D01*
X634750Y330650D02*
X649500D01*
X634700Y330700D02*
X649500D01*
X634650Y330750D02*
X649500D01*
X634600Y330800D02*
X649500D01*
X634550Y330850D02*
X649500D01*
X634500Y330900D02*
X649500D01*
X634450Y330950D02*
X649500D01*
X634400Y331000D02*
X649500D01*
X634350Y331050D02*
X649500D01*
X634300Y331100D02*
X649500D01*
X634250Y331150D02*
X649500D01*
X634200Y331200D02*
X649500D01*
X634150Y331250D02*
X649500D01*
X634100Y331300D02*
X649500D01*
X634050Y331350D02*
X649500D01*
X634000Y331400D02*
X649500D01*
X633950Y331450D02*
X649500D01*
X633900Y331500D02*
X649500D01*
X633850Y331550D02*
X649500D01*
X633800Y331600D02*
X649500D01*
X633750Y331650D02*
X649500D01*
X633700Y331700D02*
X649500D01*
X633650Y331750D02*
X649500D01*
X633600Y331800D02*
X649500D01*
X633550Y331850D02*
X649500D01*
X633500Y331900D02*
X649500D01*
X633450Y331950D02*
X649500D01*
X633400Y332000D02*
X649500D01*
X633350Y332050D02*
X649500D01*
X633300Y332100D02*
X649500D01*
X633250Y332150D02*
X649500D01*
X645750Y332200D02*
X649500D01*
X643650D02*
X645100D01*
X640550D02*
X642600D01*
X638050D02*
X639500D01*
X633200D02*
X637400D01*
X645950Y332250D02*
X649500D01*
X643600D02*
X644850D01*
X640550D02*
X642600D01*
X638250D02*
X639500D01*
X633150D02*
X637200D01*
X646050Y332300D02*
X649500D01*
X643600D02*
X644700D01*
X640550D02*
X642550D01*
X638400D02*
X639500D01*
X633100D02*
X637050D01*
X646150Y332350D02*
X649500D01*
X643600D02*
X644600D01*
X640600D02*
X642550D01*
X638500D02*
X639550D01*
X633050D02*
X636950D01*
X646250Y332400D02*
X649500D01*
X643550D02*
X644500D01*
X640600D02*
X642550D01*
X638600D02*
X639550D01*
X633000D02*
X636850D01*
X646350Y332450D02*
X649500D01*
X643550D02*
X644450D01*
X640600D02*
X642500D01*
X638650D02*
X639550D01*
X632950D02*
X636800D01*
X646400Y332500D02*
X649500D01*
X643550D02*
X644350D01*
X640650D02*
X642500D01*
X638750D02*
X639600D01*
X632900D02*
X636700D01*
X646450Y332550D02*
X649500D01*
X643500D02*
X644300D01*
X640650D02*
X642500D01*
X638800D02*
X639600D01*
X632850D02*
X636650D01*
X646500Y332600D02*
X649500D01*
X643500D02*
X644250D01*
X640650D02*
X642450D01*
X638850D02*
X639600D01*
X632800D02*
X636600D01*
X646550Y332650D02*
X649500D01*
X643500D02*
X644200D01*
X640700D02*
X642450D01*
X638900D02*
X639650D01*
X632750D02*
X636550D01*
X646600Y332700D02*
X649500D01*
X643450D02*
X644150D01*
X640700D02*
X642450D01*
X638950D02*
X639650D01*
X632700D02*
X636500D01*
X646650Y332750D02*
X649500D01*
X643450D02*
X644100D01*
X640700D02*
X642400D01*
X639000D02*
X639650D01*
X632650D02*
X636450D01*
X646650Y332800D02*
X649500D01*
X643450D02*
X644050D01*
X640750D02*
X642400D01*
X639000D02*
X639700D01*
X632600D02*
X636400D01*
X646700Y332850D02*
X649500D01*
X643450D02*
X644050D01*
X640750D02*
X642400D01*
X639050D02*
X639700D01*
X632550D02*
X636400D01*
X646750Y332900D02*
X649500D01*
X643400D02*
X644000D01*
X640750D02*
X642350D01*
X639100D02*
X639700D01*
X632500D02*
X636350D01*
X646750Y332950D02*
X649500D01*
X645200D02*
X645600D01*
X643400D02*
X644000D01*
X640750D02*
X642350D01*
X639100D02*
X639750D01*
X637550D02*
X637950D01*
X632450D02*
X636350D01*
X646800Y333000D02*
X649500D01*
X645100D02*
X645700D01*
X643400D02*
X643950D01*
X640800D02*
X642350D01*
X639150D02*
X639750D01*
X637400D02*
X638050D01*
X632400D02*
X636300D01*
X646800Y333050D02*
X649500D01*
X645000D02*
X645800D01*
X643350D02*
X643950D01*
X640800D02*
X642300D01*
X639150D02*
X639750D01*
X637350D02*
X638150D01*
X632350D02*
X636300D01*
X646850Y333100D02*
X649500D01*
X644950D02*
X645850D01*
X643350D02*
X643950D01*
X640800D02*
X642300D01*
X639150D02*
X639800D01*
X637250D02*
X638200D01*
X632300D02*
X636250D01*
X646850Y333150D02*
X649500D01*
X644900D02*
X645900D01*
X643350D02*
X643900D01*
X640850D02*
X642300D01*
X639200D02*
X639800D01*
X637250D02*
X638250D01*
X632250D02*
X636250D01*
X646850Y333200D02*
X649500D01*
X644850D02*
X645950D01*
X643300D02*
X643900D01*
X640850D02*
X642300D01*
X639200D02*
X639800D01*
X637200D02*
X638300D01*
X632200D02*
X636250D01*
X646900Y333250D02*
X649500D01*
X644800D02*
X646000D01*
X643300D02*
X643900D01*
X640850D02*
X642250D01*
X639250D02*
X639850D01*
X637150D02*
X638300D01*
X632150D02*
X636250D01*
X646900Y333300D02*
X649500D01*
X644800D02*
X646000D01*
X643300D02*
X643900D01*
X640900D02*
X642250D01*
X639250D02*
X639850D01*
X637150D02*
X638350D01*
X632100D02*
X636250D01*
X646900Y333350D02*
X649500D01*
X644800D02*
X646000D01*
X643250D02*
X643900D01*
X640900D02*
X642250D01*
X639250D02*
X639850D01*
X637100D02*
X638350D01*
X632050D02*
X636250D01*
X646900Y333400D02*
X649500D01*
X644750D02*
X646050D01*
X643250D02*
X643900D01*
X640900D02*
X642200D01*
X639250D02*
X639900D01*
X637100D02*
X638400D01*
X632000D02*
X636250D01*
X646950Y333450D02*
X649500D01*
X644750D02*
X646050D01*
X643250D02*
X643900D01*
X640950D02*
X642200D01*
X639250D02*
X639900D01*
X637100D02*
X638400D01*
X631950D02*
X636250D01*
X646950Y333500D02*
X649500D01*
X644750D02*
X646050D01*
X643200D02*
X643900D01*
X640950D02*
X642200D01*
X639300D02*
X639900D01*
X637100D02*
X638400D01*
X631900D02*
X636250D01*
X646950Y333550D02*
X649500D01*
X644750D02*
X646100D01*
X643200D02*
X643900D01*
X640950D02*
X642150D01*
X639300D02*
X639950D01*
X637100D02*
X638400D01*
X631850D02*
X636250D01*
X646950Y333600D02*
X649500D01*
X644750D02*
X646100D01*
X643200D02*
X643900D01*
X641000D02*
X642150D01*
X639300D02*
X639950D01*
X637100D02*
X638400D01*
X631800D02*
X636250D01*
X646950Y333650D02*
X649500D01*
X644750D02*
X646100D01*
X643150D02*
X643900D01*
X641000D02*
X642150D01*
X639300D02*
X639950D01*
X637100D02*
X638450D01*
X631750D02*
X636250D01*
X646950Y333700D02*
X649500D01*
X644800D02*
X646100D01*
X643150D02*
X643900D01*
X641000D02*
X642100D01*
X639300D02*
X640000D01*
X637100D02*
X638450D01*
X631700D02*
X636250D01*
X644800Y333750D02*
X649500D01*
X643150D02*
X643950D01*
X641050D02*
X642100D01*
X637150D02*
X640000D01*
X631650D02*
X636250D01*
X644850Y333800D02*
X649500D01*
X643100D02*
X643950D01*
X641050D02*
X642100D01*
X637150D02*
X640000D01*
X631600D02*
X636300D01*
X644850Y333850D02*
X649500D01*
X643100D02*
X643950D01*
X641050D02*
X642050D01*
X637200D02*
X640050D01*
X631550D02*
X636300D01*
X644900Y333900D02*
X649500D01*
X643100D02*
X644000D01*
X641100D02*
X642050D01*
X637250D02*
X640050D01*
X631500D02*
X636350D01*
X644950Y333950D02*
X649500D01*
X643050D02*
X644000D01*
X641100D02*
X642050D01*
X637300D02*
X640050D01*
X631450D02*
X636350D01*
X645050Y334000D02*
X649500D01*
X643050D02*
X644050D01*
X641100D02*
X642000D01*
X637400D02*
X640100D01*
X631400D02*
X636400D01*
X645200Y334050D02*
X649500D01*
X643050D02*
X644100D01*
X641150D02*
X642000D01*
X637550D02*
X640100D01*
X631350D02*
X636400D01*
X645700Y334100D02*
X649500D01*
X643000D02*
X644100D01*
X641150D02*
X642000D01*
X638050D02*
X640100D01*
X631300D02*
X636450D01*
X645700Y334150D02*
X649500D01*
X643000D02*
X644150D01*
X641150D02*
X642000D01*
X638050D02*
X640150D01*
X631250D02*
X636500D01*
X645700Y334200D02*
X649500D01*
X643000D02*
X644200D01*
X641200D02*
X641950D01*
X638050D02*
X640150D01*
X631200D02*
X636550D01*
X645700Y334250D02*
X649500D01*
X642950D02*
X644300D01*
X641200D02*
X641950D01*
X638050D02*
X640150D01*
X631150D02*
X636650D01*
X645700Y334300D02*
X649500D01*
X642950D02*
X644400D01*
X641200D02*
X641950D01*
X638050D02*
X640200D01*
X631100D02*
X636750D01*
X645700Y334350D02*
X649500D01*
X642950D02*
X644500D01*
X641200D02*
X641900D01*
X638050D02*
X640200D01*
X631050D02*
X636850D01*
X645700Y334400D02*
X649500D01*
X642900D02*
X644400D01*
X641250D02*
X641900D01*
X638050D02*
X640200D01*
X631000D02*
X636700D01*
X645700Y334450D02*
X649500D01*
X642900D02*
X644250D01*
X641250D02*
X641900D01*
X638050D02*
X640250D01*
X630950D02*
X636600D01*
X645700Y334500D02*
X649500D01*
X642900D02*
X644150D01*
X641250D02*
X641850D01*
X638050D02*
X640250D01*
X630900D02*
X636500D01*
X645700Y334550D02*
X649500D01*
X642850D02*
X644100D01*
X641300D02*
X641850D01*
X638050D02*
X640250D01*
X630900D02*
X636450D01*
X645700Y334600D02*
X649500D01*
X642850D02*
X644050D01*
X641300D02*
X641850D01*
X638050D02*
X640300D01*
X630950D02*
X636400D01*
X645700Y334650D02*
X649500D01*
X642850D02*
X644000D01*
X641300D02*
X641800D01*
X638050D02*
X640300D01*
X631000D02*
X636350D01*
X645700Y334700D02*
X649500D01*
X642850D02*
X643950D01*
X641350D02*
X641800D01*
X638050D02*
X640300D01*
X631050D02*
X636300D01*
X645300Y334750D02*
X649500D01*
X642800D02*
X643900D01*
X641350D02*
X641800D01*
X637650D02*
X640350D01*
X631100D02*
X636250D01*
X645050Y334800D02*
X649500D01*
X642800D02*
X643900D01*
X641350D02*
X641750D01*
X637400D02*
X640350D01*
X631150D02*
X636200D01*
X644950Y334850D02*
X649500D01*
X642800D02*
X643850D01*
X641400D02*
X641750D01*
X637300D02*
X640350D01*
X631200D02*
X636200D01*
X644850Y334900D02*
X649500D01*
X642750D02*
X643800D01*
X641400D02*
X641750D01*
X637200D02*
X640400D01*
X631250D02*
X636150D01*
X644800Y334950D02*
X649500D01*
X642750D02*
X643800D01*
X641400D02*
X641700D01*
X637150D02*
X640400D01*
X631300D02*
X636150D01*
X644800Y335000D02*
X649500D01*
X642750D02*
X643800D01*
X641450D02*
X641700D01*
X637100D02*
X640400D01*
X631350D02*
X636100D01*
X644750Y335050D02*
X649500D01*
X642700D02*
X643750D01*
X641450D02*
X641700D01*
X637100D02*
X640450D01*
X631400D02*
X636100D01*
X644700Y335100D02*
X649500D01*
X642700D02*
X643750D01*
X641450D02*
X641650D01*
X637050D02*
X640450D01*
X631450D02*
X636100D01*
X644700Y335150D02*
X649500D01*
X642700D02*
X643750D01*
X641500D02*
X641650D01*
X637050D02*
X640450D01*
X631500D02*
X636100D01*
X644700Y335200D02*
X649500D01*
X642650D02*
X643750D01*
X641500D02*
X641650D01*
X637050D02*
X640500D01*
X631550D02*
X636050D01*
X647050Y335250D02*
X649500D01*
X644700D02*
X646200D01*
X642650D02*
X643750D01*
X641500D02*
X641650D01*
X639400D02*
X640500D01*
X637050D02*
X638550D01*
X631600D02*
X636050D01*
X647050Y335300D02*
X649500D01*
X644700D02*
X646200D01*
X642650D02*
X643700D01*
X641550D02*
X641600D01*
X639400D02*
X640500D01*
X637000D02*
X638550D01*
X631650D02*
X636050D01*
X647050Y335350D02*
X649500D01*
X644650D02*
X646200D01*
X642600D02*
X643700D01*
X641550D02*
X641600D01*
X639400D02*
X640550D01*
X637000D02*
X638550D01*
X631700D02*
X636050D01*
X647050Y335400D02*
X649500D01*
X644650D02*
X646200D01*
X642600D02*
X643700D01*
X639400D02*
X640550D01*
X637000D02*
X638500D01*
X631750D02*
X636050D01*
X647050Y335450D02*
X649500D01*
X644650D02*
X646150D01*
X642600D02*
X643700D01*
X639400D02*
X640550D01*
X637000D02*
X638500D01*
X631800D02*
X636050D01*
X647050Y335500D02*
X649500D01*
X644700D02*
X646150D01*
X642550D02*
X643700D01*
X639400D02*
X640600D01*
X637000D02*
X638500D01*
X631850D02*
X636050D01*
X647050Y335550D02*
X649500D01*
X644700D02*
X646150D01*
X642550D02*
X643700D01*
X639400D02*
X640600D01*
X637050D02*
X638500D01*
X631900D02*
X636050D01*
X647050Y335600D02*
X649500D01*
X644700D02*
X646150D01*
X642550D02*
X643750D01*
X639400D02*
X640600D01*
X637050D02*
X638450D01*
X631950D02*
X636050D01*
X647050Y335650D02*
X649500D01*
X644700D02*
X646100D01*
X642500D02*
X643750D01*
X639350D02*
X640650D01*
X637050D02*
X638450D01*
X632000D02*
X636100D01*
X647000Y335700D02*
X649500D01*
X644750D02*
X646100D01*
X642500D02*
X643750D01*
X639350D02*
X640650D01*
X637050D02*
X638450D01*
X632050D02*
X636100D01*
X647000Y335750D02*
X649500D01*
X644750D02*
X646050D01*
X642500D02*
X643750D01*
X639350D02*
X640650D01*
X637100D02*
X638400D01*
X632100D02*
X636100D01*
X647000Y335800D02*
X649500D01*
X644800D02*
X646050D01*
X642450D02*
X643750D01*
X639350D02*
X640700D01*
X637150D02*
X638350D01*
X632150D02*
X636100D01*
X647000Y335850D02*
X649500D01*
X644800D02*
X646000D01*
X642450D02*
X643800D01*
X639300D02*
X640700D01*
X637150D02*
X638350D01*
X632200D02*
X636150D01*
X646950Y335900D02*
X649500D01*
X644850D02*
X645950D01*
X642450D02*
X643800D01*
X639300D02*
X640700D01*
X637200D02*
X638300D01*
X632250D02*
X636150D01*
X646950Y335950D02*
X649500D01*
X644900D02*
X645900D01*
X642400D02*
X643800D01*
X639300D02*
X640750D01*
X637250D02*
X638250D01*
X632300D02*
X636150D01*
X646900Y336000D02*
X649500D01*
X645000D02*
X645850D01*
X642400D02*
X643850D01*
X639250D02*
X640750D01*
X637350D02*
X638150D01*
X632350D02*
X636200D01*
X646900Y336050D02*
X649500D01*
X645100D02*
X645750D01*
X642400D02*
X643850D01*
X639250D02*
X640750D01*
X637450D02*
X638100D01*
X632400D02*
X636200D01*
X646850Y336100D02*
X649500D01*
X645250D02*
X645550D01*
X642350D02*
X643900D01*
X639200D02*
X640800D01*
X637600D02*
X637900D01*
X632450D02*
X636250D01*
X646850Y336150D02*
X649500D01*
X642350D02*
X643950D01*
X639200D02*
X640800D01*
X632500D02*
X636250D01*
X646800Y336200D02*
X649500D01*
X642350D02*
X643950D01*
X639150D02*
X640800D01*
X632550D02*
X636300D01*
X646800Y336250D02*
X649500D01*
X642300D02*
X644000D01*
X639100D02*
X640850D01*
X632600D02*
X636350D01*
X646750Y336300D02*
X649500D01*
X642300D02*
X644050D01*
X639100D02*
X640850D01*
X632650D02*
X636400D01*
X646700Y336350D02*
X649500D01*
X642300D02*
X644100D01*
X639050D02*
X640850D01*
X632700D02*
X636400D01*
X646650Y336400D02*
X649500D01*
X642250D02*
X644150D01*
X639000D02*
X640900D01*
X632750D02*
X636450D01*
X646600Y336450D02*
X649500D01*
X642250D02*
X644200D01*
X638950D02*
X640900D01*
X632800D02*
X636550D01*
X646550Y336500D02*
X649500D01*
X642250D02*
X644250D01*
X638900D02*
X640900D01*
X632850D02*
X636600D01*
X646500Y336550D02*
X649500D01*
X642250D02*
X644300D01*
X638800D02*
X640950D01*
X632900D02*
X636650D01*
X646400Y336600D02*
X649500D01*
X642200D02*
X644400D01*
X638750D02*
X640950D01*
X632950D02*
X636700D01*
X646300Y336650D02*
X649500D01*
X642200D02*
X644450D01*
X638650D02*
X640950D01*
X633000D02*
X636800D01*
X646250Y336700D02*
X649500D01*
X642200D02*
X644550D01*
X638550D02*
X641000D01*
X633050D02*
X636900D01*
X646100Y336750D02*
X649500D01*
X642150D02*
X644700D01*
X638450D02*
X641000D01*
X633100D02*
X637050D01*
X645950Y336800D02*
X649500D01*
X638300D02*
X644850D01*
X633150D02*
X637200D01*
X645700Y336850D02*
X649500D01*
X638050D02*
X645100D01*
X633200D02*
X637450D01*
X633250Y336900D02*
X649500D01*
X633300Y336950D02*
X649500D01*
X633350Y337000D02*
X649500D01*
X633400Y337050D02*
X649500D01*
X633450Y337100D02*
X649500D01*
X633500Y337150D02*
X649500D01*
X633550Y337200D02*
X649500D01*
X633600Y337250D02*
X649500D01*
X633650Y337300D02*
X649500D01*
X633700Y337350D02*
X649500D01*
X633750Y337400D02*
X649500D01*
X633800Y337450D02*
X649500D01*
X633850Y337500D02*
X649500D01*
X633900Y337550D02*
X649500D01*
X633950Y337600D02*
X649500D01*
X634000Y337650D02*
X649500D01*
X634050Y337700D02*
X649500D01*
X634100Y337750D02*
X649500D01*
X634150Y337800D02*
X649500D01*
X634200Y337850D02*
X649500D01*
X634250Y337900D02*
X649500D01*
X634300Y337950D02*
X649500D01*
X634350Y338000D02*
X649500D01*
X634400Y338050D02*
X649500D01*
X634450Y338100D02*
X649500D01*
X634500Y338150D02*
X649500D01*
X634550Y338200D02*
X649500D01*
X634600Y338250D02*
X649500D01*
X634650Y338300D02*
X649500D01*
X634700Y338350D02*
X649500D01*
X634750Y338400D02*
X649500D01*
X634800Y338450D02*
X649500D01*
X634850Y338500D02*
X649500D01*
X634900Y338550D02*
X649500D01*
X634950Y338600D02*
X649500D01*
X635000Y338650D02*
X649500D01*
X635050Y338700D02*
X649500D01*
X635100Y338750D02*
X649500D01*
X635150Y338800D02*
X649500D01*
X635200Y338850D02*
X649500D01*
X635250Y338900D02*
X649500D01*
X635300Y338950D02*
X649500D01*
X635350Y339000D02*
X649500D01*
X589500Y339975D02*
X603650D01*
X589500Y340025D02*
X603700D01*
X589500Y340075D02*
X603750D01*
X589500Y340125D02*
X603800D01*
X589500Y340175D02*
X603850D01*
X589500Y340225D02*
X603900D01*
X589500Y340275D02*
X603950D01*
X589500Y340325D02*
X604000D01*
X589500Y340375D02*
X604050D01*
X589500Y340425D02*
X604100D01*
X589500Y340475D02*
X604150D01*
X589500Y340525D02*
X604200D01*
X589500Y340575D02*
X604250D01*
X589500Y340625D02*
X604300D01*
X589500Y340675D02*
X604350D01*
X603350Y340725D02*
X604400D01*
X589500D02*
X590250D01*
X603450Y340775D02*
X604450D01*
X589500D02*
X590250D01*
X603500Y340825D02*
X604500D01*
X589500D02*
X590250D01*
X603550Y340875D02*
X604550D01*
X589500D02*
X590250D01*
X603600Y340925D02*
X604600D01*
X589500D02*
X590250D01*
X603650Y340975D02*
X604650D01*
X589500D02*
X590250D01*
X603700Y341025D02*
X604700D01*
X589500D02*
X590250D01*
X603750Y341075D02*
X604750D01*
X589500D02*
X590250D01*
X603800Y341125D02*
X604800D01*
X589500D02*
X590250D01*
X603850Y341175D02*
X604850D01*
X589500D02*
X590250D01*
X603900Y341225D02*
X604900D01*
X589500D02*
X590250D01*
X603950Y341275D02*
X604950D01*
X589500D02*
X590250D01*
X604000Y341325D02*
X605000D01*
X589500D02*
X590250D01*
X604050Y341375D02*
X605050D01*
X589500D02*
X590250D01*
X604100Y341425D02*
X605100D01*
X589500D02*
X590250D01*
X604150Y341475D02*
X605150D01*
X589500D02*
X590250D01*
X604200Y341525D02*
X605200D01*
X589500D02*
X590250D01*
X604250Y341575D02*
X605250D01*
X589500D02*
X590250D01*
X604300Y341625D02*
X605300D01*
X589500D02*
X590250D01*
X604350Y341675D02*
X605350D01*
X589500D02*
X590250D01*
X604400Y341725D02*
X605400D01*
X589500D02*
X590250D01*
X604450Y341775D02*
X605450D01*
X589500D02*
X590250D01*
X604500Y341825D02*
X605500D01*
X589500D02*
X590250D01*
X604550Y341875D02*
X605550D01*
X589500D02*
X590250D01*
X604600Y341925D02*
X605600D01*
X589500D02*
X590250D01*
X604650Y341975D02*
X605650D01*
X589500D02*
X590250D01*
X604700Y342025D02*
X605700D01*
X589500D02*
X590250D01*
X604750Y342075D02*
X605750D01*
X589500D02*
X590250D01*
X604800Y342125D02*
X605800D01*
X589500D02*
X590250D01*
X604850Y342175D02*
X605850D01*
X589500D02*
X590250D01*
X604900Y342225D02*
X605900D01*
X589500D02*
X590250D01*
X604950Y342275D02*
X605950D01*
X601650D02*
X602550D01*
X589500D02*
X590250D01*
X605000Y342325D02*
X606000D01*
X601500D02*
X602750D01*
X589500D02*
X590250D01*
X605050Y342375D02*
X606050D01*
X601350D02*
X602900D01*
X598500D02*
X599450D01*
X595800D02*
X596700D01*
X592700D02*
X595000D01*
X589500D02*
X590250D01*
X605100Y342425D02*
X606100D01*
X601200D02*
X603000D01*
X598450D02*
X599450D01*
X595800D02*
X596700D01*
X592500D02*
X595000D01*
X589500D02*
X590250D01*
X605150Y342475D02*
X606150D01*
X601100D02*
X603100D01*
X598400D02*
X599450D01*
X595800D02*
X596700D01*
X592350D02*
X595000D01*
X589500D02*
X590250D01*
X605200Y342525D02*
X606200D01*
X601050D02*
X603200D01*
X598400D02*
X599450D01*
X595800D02*
X596700D01*
X592250D02*
X595000D01*
X589500D02*
X590250D01*
X605250Y342575D02*
X606250D01*
X600950D02*
X603250D01*
X598350D02*
X599450D01*
X595800D02*
X596700D01*
X592150D02*
X595000D01*
X589500D02*
X590250D01*
X605300Y342625D02*
X606300D01*
X600900D02*
X603350D01*
X598350D02*
X599450D01*
X595800D02*
X596700D01*
X592050D02*
X595000D01*
X589500D02*
X590250D01*
X605350Y342675D02*
X606350D01*
X600850D02*
X603400D01*
X598300D02*
X599450D01*
X595800D02*
X596700D01*
X592000D02*
X595000D01*
X589500D02*
X590250D01*
X605400Y342725D02*
X606400D01*
X600800D02*
X603450D01*
X598250D02*
X599450D01*
X595800D02*
X596700D01*
X591900D02*
X595000D01*
X589500D02*
X590250D01*
X605450Y342775D02*
X606450D01*
X600750D02*
X603500D01*
X598250D02*
X599450D01*
X595800D02*
X596700D01*
X591850D02*
X595000D01*
X589500D02*
X590250D01*
X605500Y342825D02*
X606500D01*
X600700D02*
X603550D01*
X598200D02*
X599450D01*
X595800D02*
X596700D01*
X591800D02*
X595000D01*
X589500D02*
X590250D01*
X605550Y342875D02*
X606550D01*
X600650D02*
X603600D01*
X598150D02*
X599450D01*
X595800D02*
X596700D01*
X591750D02*
X595000D01*
X589500D02*
X590250D01*
X605600Y342925D02*
X606600D01*
X600600D02*
X603650D01*
X598150D02*
X599450D01*
X595800D02*
X596700D01*
X591700D02*
X595000D01*
X589500D02*
X590250D01*
X605650Y342975D02*
X606650D01*
X600550D02*
X603700D01*
X598100D02*
X599450D01*
X595800D02*
X596700D01*
X591650D02*
X595000D01*
X589500D02*
X590250D01*
X605700Y343025D02*
X606700D01*
X600550D02*
X603750D01*
X598100D02*
X599450D01*
X595800D02*
X596700D01*
X591650D02*
X595000D01*
X589500D02*
X590250D01*
X605750Y343075D02*
X606750D01*
X602400D02*
X603800D01*
X600500D02*
X601800D01*
X598050D02*
X599450D01*
X595800D02*
X596700D01*
X591600D02*
X595000D01*
X589500D02*
X590250D01*
X605800Y343125D02*
X606800D01*
X602550D02*
X603800D01*
X600450D02*
X601650D01*
X598000D02*
X599450D01*
X595800D02*
X596700D01*
X591550D02*
X595000D01*
X589500D02*
X590250D01*
X605850Y343175D02*
X606850D01*
X602650D02*
X603850D01*
X600450D02*
X601550D01*
X598000D02*
X599450D01*
X595800D02*
X596700D01*
X594050D02*
X595000D01*
X591500D02*
X593000D01*
X589500D02*
X590250D01*
X605900Y343225D02*
X606900D01*
X602750D02*
X603850D01*
X600400D02*
X601500D01*
X597950D02*
X599450D01*
X595800D02*
X596700D01*
X594050D02*
X595000D01*
X591500D02*
X592800D01*
X589500D02*
X590250D01*
X605950Y343275D02*
X606950D01*
X602800D02*
X603900D01*
X600400D02*
X601450D01*
X597950D02*
X599450D01*
X595800D02*
X596700D01*
X594050D02*
X595000D01*
X591450D02*
X592700D01*
X589500D02*
X590250D01*
X606000Y343325D02*
X607000D01*
X602850D02*
X603950D01*
X600400D02*
X601400D01*
X597900D02*
X599450D01*
X595800D02*
X596700D01*
X594050D02*
X595000D01*
X591450D02*
X592650D01*
X589500D02*
X590250D01*
X606050Y343375D02*
X607050D01*
X602900D02*
X603950D01*
X600350D02*
X601350D01*
X597850D02*
X599450D01*
X595800D02*
X596700D01*
X594050D02*
X595000D01*
X591400D02*
X592550D01*
X589500D02*
X590250D01*
X606100Y343425D02*
X607100D01*
X602950D02*
X604000D01*
X600350D02*
X601300D01*
X597850D02*
X599450D01*
X595800D02*
X596700D01*
X594050D02*
X595000D01*
X591400D02*
X592500D01*
X589500D02*
X590250D01*
X606150Y343475D02*
X607150D01*
X603000D02*
X604000D01*
X600350D02*
X601300D01*
X597800D02*
X599450D01*
X595800D02*
X596700D01*
X594050D02*
X595000D01*
X591400D02*
X592450D01*
X589500D02*
X590250D01*
X606200Y343525D02*
X607200D01*
X603000D02*
X604000D01*
X600300D02*
X601250D01*
X597750D02*
X599450D01*
X595800D02*
X596700D01*
X594050D02*
X595000D01*
X591350D02*
X592400D01*
X589500D02*
X590250D01*
X606250Y343575D02*
X607250D01*
X603050D02*
X604050D01*
X600300D02*
X601250D01*
X597750D02*
X599450D01*
X595800D02*
X596700D01*
X594050D02*
X595000D01*
X591350D02*
X592400D01*
X589500D02*
X590250D01*
X606300Y343625D02*
X607300D01*
X603050D02*
X604050D01*
X600300D02*
X601200D01*
X597700D02*
X599450D01*
X595800D02*
X596700D01*
X594050D02*
X595000D01*
X591350D02*
X592350D01*
X589500D02*
X590250D01*
X606350Y343675D02*
X607350D01*
X603100D02*
X604050D01*
X600300D02*
X601200D01*
X597700D02*
X599450D01*
X595800D02*
X596700D01*
X594050D02*
X595000D01*
X591300D02*
X592300D01*
X589500D02*
X590250D01*
X606400Y343725D02*
X607400D01*
X603100D02*
X604100D01*
X600300D02*
X601200D01*
X597650D02*
X599450D01*
X595800D02*
X596700D01*
X594050D02*
X595000D01*
X591300D02*
X592300D01*
X589500D02*
X590250D01*
X606450Y343775D02*
X607450D01*
X603150D02*
X604100D01*
X597600D02*
X599450D01*
X595800D02*
X596700D01*
X594050D02*
X595000D01*
X591300D02*
X592250D01*
X589500D02*
X590250D01*
X606500Y343825D02*
X607500D01*
X603150D02*
X604100D01*
X598550D02*
X599450D01*
X597600D02*
X598500D01*
X595800D02*
X596700D01*
X594050D02*
X595000D01*
X591250D02*
X592250D01*
X589500D02*
X590250D01*
X606550Y343875D02*
X607550D01*
X603150D02*
X604100D01*
X598550D02*
X599450D01*
X597550D02*
X598500D01*
X595800D02*
X596700D01*
X594050D02*
X595000D01*
X591250D02*
X592250D01*
X589500D02*
X590250D01*
X606600Y343925D02*
X607600D01*
X603200D02*
X604150D01*
X598550D02*
X599450D01*
X597550D02*
X598450D01*
X595800D02*
X596700D01*
X594050D02*
X595000D01*
X591250D02*
X592200D01*
X589500D02*
X590250D01*
X606650Y343975D02*
X607650D01*
X603200D02*
X604150D01*
X598550D02*
X599450D01*
X597500D02*
X598400D01*
X595800D02*
X596700D01*
X594050D02*
X595000D01*
X591250D02*
X592200D01*
X589500D02*
X590250D01*
X606700Y344025D02*
X607700D01*
X603200D02*
X604150D01*
X598550D02*
X599450D01*
X597450D02*
X598400D01*
X595800D02*
X596700D01*
X594050D02*
X595000D01*
X591250D02*
X592200D01*
X589500D02*
X590250D01*
X606750Y344075D02*
X607750D01*
X603200D02*
X604150D01*
X598550D02*
X599450D01*
X597450D02*
X598350D01*
X595800D02*
X596700D01*
X594050D02*
X595000D01*
X591250D02*
X592200D01*
X589500D02*
X590250D01*
X606800Y344125D02*
X607800D01*
X603200D02*
X604150D01*
X598550D02*
X599450D01*
X597400D02*
X598350D01*
X595800D02*
X596700D01*
X594050D02*
X595000D01*
X591250D02*
X592200D01*
X589500D02*
X590250D01*
X606850Y344175D02*
X607850D01*
X603250D02*
X604150D01*
X598550D02*
X599450D01*
X597350D02*
X598300D01*
X595800D02*
X596700D01*
X594050D02*
X595000D01*
X591200D02*
X592150D01*
X589500D02*
X590250D01*
X606900Y344225D02*
X607900D01*
X603250D02*
X604200D01*
X598550D02*
X599450D01*
X597350D02*
X598250D01*
X595800D02*
X596700D01*
X594050D02*
X595000D01*
X591200D02*
X592150D01*
X589500D02*
X590250D01*
X606950Y344275D02*
X607950D01*
X603250D02*
X604200D01*
X598550D02*
X599450D01*
X597300D02*
X598250D01*
X595800D02*
X596700D01*
X594050D02*
X595000D01*
X591200D02*
X592150D01*
X589500D02*
X590250D01*
X607000Y344325D02*
X608000D01*
X603250D02*
X604200D01*
X600200D02*
X602000D01*
X598550D02*
X599450D01*
X597300D02*
X598200D01*
X595800D02*
X596700D01*
X594050D02*
X595000D01*
X591200D02*
X592150D01*
X589500D02*
X590250D01*
X607050Y344375D02*
X608050D01*
X603250D02*
X604200D01*
X600200D02*
X602000D01*
X598550D02*
X599450D01*
X597250D02*
X598150D01*
X595800D02*
X596700D01*
X594050D02*
X595000D01*
X591200D02*
X592150D01*
X589500D02*
X590250D01*
X607100Y344425D02*
X608100D01*
X603250D02*
X604200D01*
X600200D02*
X602000D01*
X598550D02*
X599450D01*
X597200D02*
X598150D01*
X595800D02*
X596700D01*
X594050D02*
X595000D01*
X591200D02*
X592150D01*
X589500D02*
X590250D01*
X607100Y344475D02*
X608150D01*
X603250D02*
X604200D01*
X600200D02*
X602000D01*
X598550D02*
X599450D01*
X597200D02*
X598100D01*
X595800D02*
X596700D01*
X594050D02*
X595000D01*
X591200D02*
X592150D01*
X589500D02*
X590250D01*
X607100Y344525D02*
X608150D01*
X603250D02*
X604200D01*
X600200D02*
X602000D01*
X598550D02*
X599450D01*
X597150D02*
X598100D01*
X595800D02*
X596700D01*
X594050D02*
X595000D01*
X591200D02*
X592150D01*
X589500D02*
X590250D01*
X607050Y344575D02*
X608100D01*
X603250D02*
X604200D01*
X600200D02*
X602000D01*
X598550D02*
X599450D01*
X597100D02*
X598050D01*
X595800D02*
X596700D01*
X594050D02*
X595000D01*
X591200D02*
X592150D01*
X589500D02*
X590250D01*
X607000Y344625D02*
X608050D01*
X603250D02*
X604200D01*
X600200D02*
X602000D01*
X598550D02*
X599450D01*
X597100D02*
X598000D01*
X595800D02*
X596700D01*
X594050D02*
X595000D01*
X591200D02*
X592150D01*
X589500D02*
X590250D01*
X606950Y344675D02*
X608000D01*
X603250D02*
X604200D01*
X600200D02*
X602000D01*
X598550D02*
X599450D01*
X597050D02*
X598000D01*
X595800D02*
X596700D01*
X594050D02*
X595000D01*
X591200D02*
X592150D01*
X589500D02*
X590250D01*
X606900Y344725D02*
X607950D01*
X603250D02*
X604200D01*
X600200D02*
X602000D01*
X598550D02*
X599450D01*
X597050D02*
X597950D01*
X595800D02*
X596700D01*
X594050D02*
X595000D01*
X591200D02*
X592150D01*
X589500D02*
X590250D01*
X606850Y344775D02*
X607900D01*
X603250D02*
X604200D01*
X600200D02*
X602000D01*
X598550D02*
X599450D01*
X597000D02*
X597900D01*
X595800D02*
X596700D01*
X594050D02*
X595000D01*
X591200D02*
X592150D01*
X589500D02*
X590250D01*
X606800Y344825D02*
X607850D01*
X603250D02*
X604150D01*
X600200D02*
X602000D01*
X598550D02*
X599450D01*
X596950D02*
X597900D01*
X595800D02*
X596700D01*
X594050D02*
X595000D01*
X591250D02*
X592150D01*
X589500D02*
X590250D01*
X606750Y344875D02*
X607800D01*
X603200D02*
X604150D01*
X600200D02*
X602000D01*
X598550D02*
X599450D01*
X596950D02*
X597850D01*
X595800D02*
X596700D01*
X594050D02*
X595000D01*
X591250D02*
X592150D01*
X589500D02*
X590250D01*
X606700Y344925D02*
X607750D01*
X603200D02*
X604150D01*
X600200D02*
X602000D01*
X598550D02*
X599450D01*
X596900D02*
X597850D01*
X595800D02*
X596700D01*
X594050D02*
X595000D01*
X591250D02*
X592200D01*
X589500D02*
X590250D01*
X606650Y344975D02*
X607700D01*
X603200D02*
X604150D01*
X600200D02*
X602000D01*
X598550D02*
X599450D01*
X596900D02*
X597800D01*
X595800D02*
X596700D01*
X594050D02*
X595000D01*
X591250D02*
X592200D01*
X589500D02*
X590250D01*
X606600Y345025D02*
X607650D01*
X603200D02*
X604150D01*
X600200D02*
X601100D01*
X598550D02*
X599450D01*
X596850D02*
X597750D01*
X595800D02*
X596700D01*
X594050D02*
X595000D01*
X591250D02*
X592200D01*
X589500D02*
X590250D01*
X606550Y345075D02*
X607600D01*
X603200D02*
X604150D01*
X600200D02*
X601050D01*
X598550D02*
X599450D01*
X596800D02*
X597750D01*
X595800D02*
X596700D01*
X594050D02*
X595000D01*
X591250D02*
X592200D01*
X589500D02*
X590250D01*
X606500Y345125D02*
X607550D01*
X603150D02*
X604100D01*
X600200D02*
X601100D01*
X598550D02*
X599450D01*
X596800D02*
X597700D01*
X595800D02*
X596700D01*
X594050D02*
X595000D01*
X591250D02*
X592250D01*
X589500D02*
X590250D01*
X606450Y345175D02*
X607500D01*
X603150D02*
X604100D01*
X600200D02*
X601100D01*
X598550D02*
X599450D01*
X596750D02*
X597700D01*
X595800D02*
X596700D01*
X594050D02*
X595000D01*
X591300D02*
X592250D01*
X589500D02*
X590250D01*
X606400Y345225D02*
X607450D01*
X603150D02*
X604100D01*
X600200D02*
X601100D01*
X598550D02*
X599450D01*
X595800D02*
X597650D01*
X594050D02*
X595000D01*
X591300D02*
X592250D01*
X589500D02*
X590250D01*
X606350Y345275D02*
X607400D01*
X603100D02*
X604100D01*
X600200D02*
X601100D01*
X598550D02*
X599450D01*
X595800D02*
X597600D01*
X594050D02*
X595000D01*
X591300D02*
X592300D01*
X589500D02*
X590250D01*
X606300Y345325D02*
X607350D01*
X603100D02*
X604050D01*
X600200D02*
X601150D01*
X598550D02*
X599450D01*
X595800D02*
X597600D01*
X594050D02*
X595000D01*
X591300D02*
X592300D01*
X589500D02*
X590250D01*
X606250Y345375D02*
X607300D01*
X603050D02*
X604050D01*
X600200D02*
X601150D01*
X598550D02*
X599450D01*
X595800D02*
X597550D01*
X594050D02*
X595000D01*
X591350D02*
X592350D01*
X589500D02*
X590250D01*
X606200Y345425D02*
X607250D01*
X603050D02*
X604050D01*
X600200D02*
X601150D01*
X598550D02*
X599450D01*
X595800D02*
X597500D01*
X594050D02*
X595000D01*
X591350D02*
X592350D01*
X589500D02*
X590250D01*
X606150Y345475D02*
X607200D01*
X603000D02*
X604000D01*
X600200D02*
X601200D01*
X598550D02*
X599450D01*
X595800D02*
X597500D01*
X594050D02*
X595000D01*
X591400D02*
X592400D01*
X589500D02*
X590250D01*
X606100Y345525D02*
X607150D01*
X602950D02*
X604000D01*
X600200D02*
X601200D01*
X598550D02*
X599450D01*
X595800D02*
X597450D01*
X594050D02*
X595000D01*
X591400D02*
X592450D01*
X589500D02*
X590250D01*
X606050Y345575D02*
X607100D01*
X602950D02*
X603950D01*
X600200D02*
X601250D01*
X598550D02*
X599450D01*
X595800D02*
X597450D01*
X594050D02*
X595000D01*
X591400D02*
X592500D01*
X589500D02*
X590250D01*
X606000Y345625D02*
X607050D01*
X602900D02*
X603950D01*
X600200D02*
X601300D01*
X598550D02*
X599450D01*
X595800D02*
X597400D01*
X594050D02*
X595000D01*
X591450D02*
X592550D01*
X589500D02*
X590250D01*
X605950Y345675D02*
X607000D01*
X602850D02*
X603900D01*
X600200D02*
X601350D01*
X598550D02*
X599450D01*
X595800D02*
X597350D01*
X594050D02*
X595000D01*
X591450D02*
X592600D01*
X589500D02*
X590250D01*
X605900Y345725D02*
X606950D01*
X602800D02*
X603900D01*
X600200D02*
X601400D01*
X598550D02*
X599450D01*
X595800D02*
X597350D01*
X594050D02*
X595000D01*
X591500D02*
X592700D01*
X589500D02*
X590250D01*
X605850Y345775D02*
X606900D01*
X602700D02*
X603850D01*
X600200D02*
X601450D01*
X598550D02*
X599450D01*
X595800D02*
X597300D01*
X594050D02*
X595000D01*
X591500D02*
X592800D01*
X589500D02*
X590250D01*
X605800Y345825D02*
X606850D01*
X602650D02*
X603850D01*
X600200D02*
X601550D01*
X598550D02*
X599450D01*
X595800D02*
X597300D01*
X594050D02*
X595000D01*
X591550D02*
X593000D01*
X589500D02*
X590250D01*
X605750Y345875D02*
X606800D01*
X602500D02*
X603800D01*
X600200D02*
X601650D01*
X598550D02*
X599450D01*
X595800D02*
X597250D01*
X591600D02*
X595000D01*
X589500D02*
X590250D01*
X605700Y345925D02*
X606750D01*
X602350D02*
X603750D01*
X600200D02*
X601800D01*
X598550D02*
X599450D01*
X595800D02*
X597200D01*
X591600D02*
X595000D01*
X589500D02*
X590250D01*
X605650Y345975D02*
X606700D01*
X600200D02*
X603750D01*
X598550D02*
X599450D01*
X595800D02*
X597200D01*
X591650D02*
X595000D01*
X589500D02*
X590250D01*
X605600Y346025D02*
X606650D01*
X600200D02*
X603700D01*
X598550D02*
X599450D01*
X595800D02*
X597150D01*
X591700D02*
X595000D01*
X589500D02*
X590250D01*
X605550Y346075D02*
X606600D01*
X600200D02*
X603650D01*
X598550D02*
X599450D01*
X595800D02*
X597100D01*
X591750D02*
X595000D01*
X589500D02*
X590250D01*
X605500Y346125D02*
X606550D01*
X600200D02*
X603600D01*
X598550D02*
X599450D01*
X595800D02*
X597100D01*
X591800D02*
X595000D01*
X589500D02*
X590250D01*
X605450Y346175D02*
X606500D01*
X600200D02*
X603550D01*
X598550D02*
X599450D01*
X595800D02*
X597050D01*
X591850D02*
X595000D01*
X589500D02*
X590250D01*
X605400Y346225D02*
X606450D01*
X600950D02*
X603500D01*
X600200D02*
X600900D01*
X598550D02*
X599450D01*
X595800D02*
X597050D01*
X591900D02*
X595000D01*
X589500D02*
X590250D01*
X605350Y346275D02*
X606400D01*
X601000D02*
X603450D01*
X600200D02*
X600900D01*
X598550D02*
X599450D01*
X595800D02*
X597000D01*
X591950D02*
X595000D01*
X589500D02*
X590250D01*
X605300Y346325D02*
X606350D01*
X601050D02*
X603400D01*
X600200D02*
X600900D01*
X598550D02*
X599450D01*
X595800D02*
X596950D01*
X592000D02*
X595000D01*
X589500D02*
X590250D01*
X605250Y346375D02*
X606300D01*
X601100D02*
X603350D01*
X600200D02*
X600850D01*
X598550D02*
X599450D01*
X595800D02*
X596950D01*
X592100D02*
X595000D01*
X589500D02*
X590250D01*
X605200Y346425D02*
X606250D01*
X601150D02*
X603250D01*
X600200D02*
X600850D01*
X598550D02*
X599450D01*
X595800D02*
X596900D01*
X592200D02*
X595000D01*
X589500D02*
X590250D01*
X605150Y346475D02*
X606200D01*
X601250D02*
X603150D01*
X600200D02*
X600850D01*
X598550D02*
X599450D01*
X595800D02*
X596850D01*
X592300D02*
X595000D01*
X589500D02*
X590250D01*
X605100Y346525D02*
X606150D01*
X601300D02*
X603050D01*
X600200D02*
X600850D01*
X598550D02*
X599450D01*
X595800D02*
X596850D01*
X592400D02*
X595000D01*
X589500D02*
X590250D01*
X605050Y346575D02*
X606100D01*
X601400D02*
X602950D01*
X600200D02*
X600850D01*
X598550D02*
X599450D01*
X595800D02*
X596800D01*
X592550D02*
X595000D01*
X589500D02*
X590250D01*
X605000Y346625D02*
X606050D01*
X601500D02*
X602850D01*
X600200D02*
X600800D01*
X598550D02*
X599450D01*
X595850D02*
X596800D01*
X592850D02*
X595000D01*
X589500D02*
X590250D01*
X604950Y346675D02*
X606000D01*
X601600D02*
X602650D01*
X589500D02*
X590250D01*
X604900Y346725D02*
X605950D01*
X601800D02*
X602400D01*
X589500D02*
X590250D01*
X604850Y346775D02*
X605900D01*
X589500D02*
X590250D01*
X604800Y346825D02*
X605850D01*
X589500D02*
X590250D01*
X604750Y346875D02*
X605800D01*
X589500D02*
X590250D01*
X604700Y346925D02*
X605750D01*
X589500D02*
X590250D01*
X604650Y346975D02*
X605700D01*
X589500D02*
X590250D01*
X604600Y347025D02*
X605650D01*
X589500D02*
X590250D01*
X604550Y347075D02*
X605600D01*
X589500D02*
X590250D01*
X604500Y347125D02*
X605550D01*
X589500D02*
X590250D01*
X604450Y347175D02*
X605500D01*
X589500D02*
X590250D01*
X604400Y347225D02*
X605450D01*
X589500D02*
X590250D01*
X604350Y347275D02*
X605400D01*
X589500D02*
X590250D01*
X604300Y347325D02*
X605350D01*
X589500D02*
X590250D01*
X604250Y347375D02*
X605300D01*
X589500D02*
X590250D01*
X604200Y347425D02*
X605250D01*
X589500D02*
X590250D01*
X604150Y347475D02*
X605200D01*
X589500D02*
X590250D01*
X604100Y347525D02*
X605150D01*
X589500D02*
X590250D01*
X604050Y347575D02*
X605100D01*
X589500D02*
X590250D01*
X604000Y347625D02*
X605050D01*
X589500D02*
X590250D01*
X603950Y347675D02*
X605000D01*
X589500D02*
X590250D01*
X603900Y347725D02*
X604950D01*
X589500D02*
X590250D01*
X603850Y347775D02*
X604900D01*
X589500D02*
X590250D01*
X603800Y347825D02*
X604850D01*
X589500D02*
X590250D01*
X603750Y347875D02*
X604800D01*
X589500D02*
X590250D01*
X603700Y347925D02*
X604750D01*
X589500D02*
X590250D01*
X603650Y347975D02*
X604700D01*
X589500D02*
X590250D01*
X603600Y348025D02*
X604650D01*
X589500D02*
X590250D01*
X603550Y348075D02*
X604600D01*
X589500D02*
X590250D01*
X603500Y348125D02*
X604550D01*
X589500D02*
X590250D01*
X603450Y348175D02*
X604500D01*
X589500D02*
X590250D01*
X603400Y348225D02*
X604450D01*
X589500D02*
X590250D01*
X589500Y348275D02*
X604400D01*
X589500Y348325D02*
X604350D01*
X589500Y348375D02*
X604300D01*
X589500Y348425D02*
X604250D01*
X589500Y348475D02*
X604200D01*
X589500Y348525D02*
X604150D01*
X589500Y348575D02*
X604100D01*
X589500Y348625D02*
X604050D01*
X589500Y348675D02*
X604000D01*
X589500Y348725D02*
X603950D01*
X589500Y348775D02*
X603900D01*
X589500Y348825D02*
X603850D01*
X589500Y348875D02*
X603800D01*
X589500Y348925D02*
X603750D01*
X589500Y348975D02*
X603700D01*
D16*
X560800Y378500D02*
Y379800D01*
Y360200D02*
Y361500D01*
X541200Y360200D02*
X542500D01*
X541200Y378500D02*
Y379800D01*
X559500D02*
X560800D01*
X559500Y360200D02*
X560800D01*
X541200Y379800D02*
X542500D01*
X541200Y360200D02*
Y361500D01*
X532000Y365500D02*
X536000D01*
X553500Y385000D02*
Y389000D01*
X454537Y329519D02*
Y327020D01*
X455787Y328269D01*
X454121D01*
X453288Y327436D02*
X452871Y327020D01*
X452038D01*
X451622Y327436D01*
Y329102D01*
X452038Y329519D01*
X452871D01*
X453288Y329102D01*
Y327436D01*
X446147Y329519D02*
X447813D01*
X446147Y327853D01*
Y327436D01*
X446563Y327020D01*
X447397D01*
X447813Y327436D01*
X445314D02*
X444897Y327020D01*
X444064D01*
X443648Y327436D01*
Y329102D01*
X444064Y329519D01*
X444897D01*
X445314Y329102D01*
Y327436D01*
X446241Y325480D02*
Y322481D01*
X444741D01*
X444241Y322981D01*
Y323980D01*
X444741Y324480D01*
X446241D01*
X441242Y325480D02*
X443242D01*
X441242Y323481D01*
Y322981D01*
X441742Y322481D01*
X442742D01*
X443242Y322981D01*
X459593Y326263D02*
Y323264D01*
X458094D01*
X457594Y323763D01*
Y324763D01*
X458094Y325263D01*
X459593D01*
X455095Y326263D02*
Y323264D01*
X456594Y324763D01*
X454595D01*
D17*
X604668Y509502D02*
X606334Y510335D01*
X608000Y512001D01*
Y513667D01*
X607167Y514500D01*
X605501D01*
X604668Y513667D01*
Y512834D01*
X605501Y512001D01*
X608000D01*
X604668Y519502D02*
X608000D01*
Y522001D01*
X606334Y521168D01*
X605501D01*
X604668Y522001D01*
Y523667D01*
X605501Y524500D01*
X607167D01*
X608000Y523667D01*
X640668Y514500D02*
X644000D01*
X640668Y511168D01*
Y510335D01*
X641501Y509502D01*
X643167D01*
X644000Y510335D01*
X642000Y524500D02*
X640334D01*
X641167D01*
Y519502D01*
X642000Y520335D01*
D18*
X456500Y432001D02*
X456000Y431501D01*
X455000D01*
X454501Y432001D01*
Y432501D01*
X455000Y433001D01*
X455500D01*
X455000D01*
X454501Y433500D01*
Y434000D01*
X455000Y434500D01*
X456000D01*
X456500Y434000D01*
X453501Y434500D02*
X452501D01*
X453001D01*
Y431501D01*
X453501Y432001D01*
X446200Y434500D02*
X445200D01*
X445700D01*
Y431501D01*
X446200Y432001D01*
X443701Y434500D02*
X442701D01*
X443201D01*
Y431501D01*
X443701Y432001D01*
X626335Y434500D02*
X625335D01*
X625835D01*
Y431501D01*
X626335Y432001D01*
X623836D02*
X623336Y431501D01*
X622336D01*
X621837Y432001D01*
Y434000D01*
X622336Y434500D01*
X623336D01*
X623836Y434000D01*
Y432001D01*
X617770Y432125D02*
X617270Y431625D01*
X616271D01*
X615771Y432125D01*
Y432625D01*
X616271Y433125D01*
X616771D01*
X616271D01*
X615771Y433625D01*
Y434125D01*
X616271Y434624D01*
X617270D01*
X617770Y434125D01*
X614771Y432125D02*
X614271Y431625D01*
X613272D01*
X612772Y432125D01*
Y434125D01*
X613272Y434624D01*
X614271D01*
X614771Y434125D01*
Y432125D01*
M02*
