G04*
G04 #@! TF.GenerationSoftware,Altium Limited,Altium Designer,19.1.5 (86)*
G04*
G04 Layer_Color=16711935*
%FSLAX25Y25*%
%MOIN*%
G70*
G01*
G75*
%ADD10C,0.01000*%
%ADD12C,0.00787*%
%ADD13C,0.00500*%
%ADD14C,0.00394*%
%ADD75C,0.00197*%
%ADD76C,0.00000*%
G36*
X484411Y378512D02*
Y377135D01*
X483035D01*
Y378512D01*
X484411D01*
D02*
G37*
D10*
X566500Y357835D02*
X563168Y361167D01*
X566500D02*
X563168Y357835D01*
X566500Y359501D02*
X563168D01*
X564834Y361167D02*
Y357835D01*
D12*
X348374Y396654D02*
G03*
X348374Y396654I-394J0D01*
G01*
X399740Y325279D02*
G03*
X399740Y325279I-394J0D01*
G01*
Y312779D02*
G03*
X399740Y312779I-394J0D01*
G01*
X368425Y274480D02*
Y288654D01*
X386535D01*
Y274480D02*
Y288654D01*
X368425Y274480D02*
X386535D01*
X367425Y344480D02*
Y358654D01*
X385535D01*
Y344480D02*
Y358654D01*
X367425Y344480D02*
X385535D01*
D13*
X406418Y361296D02*
G03*
X397543Y361296I-4437J-9516D01*
G01*
Y342263D02*
G03*
X406418Y342263I4437J9516D01*
G01*
X317478Y376839D02*
X358482D01*
Y394339D01*
X317478D02*
X358482D01*
X317478Y376839D02*
Y394339D01*
X369504Y321500D02*
X387457D01*
X369504Y329059D02*
X387457D01*
Y321500D02*
Y325280D01*
Y329059D01*
X369504Y321500D02*
Y325280D01*
Y329059D01*
X387457Y325280D02*
X392579D01*
X364382D02*
X369504D01*
Y309000D02*
X387457D01*
X369504Y316559D02*
X387457D01*
Y309000D02*
Y312780D01*
Y316559D01*
X369504Y309000D02*
Y312780D01*
Y316559D01*
X387457Y312780D02*
X392579D01*
X364382D02*
X369504D01*
X401480Y347307D02*
Y356252D01*
Y357307D02*
Y362268D01*
Y341291D02*
Y346252D01*
D14*
X624705Y456870D02*
X631594D01*
X624705Y453130D02*
X631594D01*
Y456870D01*
X624705Y453130D02*
Y456870D01*
X624555Y449870D02*
X631445D01*
X624555Y446130D02*
X631445D01*
Y449870D01*
X624555Y446130D02*
Y449870D01*
X653559Y465492D02*
Y489508D01*
X598441D02*
X653559D01*
X598441Y465492D02*
Y489508D01*
Y465492D02*
X653559D01*
X651591D02*
X653559Y467461D01*
X575630Y423445D02*
X579370D01*
X575630Y416555D02*
X579370D01*
Y423445D01*
X575630Y416555D02*
Y423445D01*
Y440445D02*
X579370D01*
X575630Y433555D02*
X579370D01*
Y440445D01*
X575630Y433555D02*
Y440445D01*
X655555Y401130D02*
X662445D01*
X655555Y404870D02*
X662445D01*
Y401130D02*
Y404870D01*
X655555Y401130D02*
Y404870D01*
X300350Y294685D02*
Y301575D01*
X296610Y294685D02*
Y301575D01*
X300350D01*
X296610Y294685D02*
X300350D01*
X289610Y294335D02*
Y301224D01*
X293350Y294335D02*
Y301224D01*
X289610Y294335D02*
X293350D01*
X289610Y301224D02*
X293350D01*
X569630Y367555D02*
Y374445D01*
X573370Y367555D02*
Y374445D01*
X569630Y367555D02*
X573370D01*
X569630Y374445D02*
X573370D01*
X542055Y390130D02*
Y393870D01*
X548945Y390130D02*
Y393870D01*
X542055D02*
X548945D01*
X542055Y390130D02*
X548945D01*
X526630Y369555D02*
X530370D01*
X526630Y376445D02*
X530370D01*
X526630Y369555D02*
Y376445D01*
X530370Y369555D02*
Y376445D01*
X614055Y318370D02*
X620945D01*
X614055Y314630D02*
X620945D01*
X614055D02*
Y318370D01*
X620945Y314630D02*
Y318370D01*
X613906Y311870D02*
X620795D01*
X613906Y308130D02*
X620795D01*
X613906D02*
Y311870D01*
X620795Y308130D02*
Y311870D01*
X614055Y324870D02*
X620945D01*
X614055Y321130D02*
X620945D01*
X614055D02*
Y324870D01*
X620945Y321130D02*
Y324870D01*
X330110Y302224D02*
X333850D01*
X330110Y295335D02*
X333850D01*
Y302224D01*
X330110Y295335D02*
Y302224D01*
X323626Y299425D02*
Y314780D01*
X304335Y299425D02*
X323626D01*
X304335D02*
Y314780D01*
X323626D01*
X318626D02*
X323626Y309780D01*
X319610Y333224D02*
X323350D01*
X319610Y326335D02*
X323350D01*
Y333224D01*
X319610Y326335D02*
Y333224D01*
X363610Y389374D02*
X367350D01*
X363610Y382484D02*
X367350D01*
Y389374D01*
X363610Y382484D02*
Y389374D01*
X375110Y376874D02*
X378850D01*
X375110Y369984D02*
X378850D01*
Y376874D01*
X375110Y369984D02*
Y376874D01*
X381610Y376724D02*
X385350D01*
X381610Y369835D02*
X385350D01*
Y376724D01*
X381610Y369835D02*
Y376724D01*
X375425Y296909D02*
Y300650D01*
X368535Y296909D02*
Y300650D01*
Y296909D02*
X375425D01*
X368535Y300650D02*
X375425D01*
X355535Y333409D02*
Y337150D01*
X362425Y333409D02*
Y337150D01*
X355535D02*
X362425D01*
X355535Y333409D02*
X362425D01*
X353610Y352835D02*
X357350D01*
X353610Y359724D02*
X357350D01*
X353610Y352835D02*
Y359724D01*
X357350Y352835D02*
Y359724D01*
X319610Y339335D02*
X323350D01*
X319610Y346224D02*
X323350D01*
X319610Y339335D02*
Y346224D01*
X323350Y339335D02*
Y346224D01*
X332685Y254909D02*
Y258650D01*
X339575Y254909D02*
Y258650D01*
X332685D02*
X339575D01*
X332685Y254909D02*
X339575D01*
X297610Y327835D02*
X301350D01*
X297610Y334724D02*
X301350D01*
X297610Y327835D02*
Y334724D01*
X301350Y327835D02*
Y334724D01*
X313425Y358409D02*
Y362150D01*
X306535Y358409D02*
Y362150D01*
Y358409D02*
X313425D01*
X306535Y362150D02*
X313425D01*
X326425Y358409D02*
Y362150D01*
X319535Y358409D02*
Y362150D01*
Y358409D02*
X326425D01*
X319535Y362150D02*
X326425D01*
X344610Y256984D02*
X348350D01*
X344610Y263874D02*
X348350D01*
X344610Y256984D02*
Y263874D01*
X348350Y256984D02*
Y263874D01*
X332685Y261909D02*
Y265650D01*
X339575Y261909D02*
Y265650D01*
X332685D02*
X339575D01*
X332685Y261909D02*
X339575D01*
X282610Y314724D02*
X286350D01*
X282610Y307835D02*
X286350D01*
Y314724D01*
X282610Y307835D02*
Y314724D01*
Y301374D02*
X286350D01*
X282610Y294484D02*
X286350D01*
Y301374D01*
X282610Y294484D02*
Y301374D01*
X312610Y326335D02*
X316350D01*
X312610Y333224D02*
X316350D01*
X312610Y326335D02*
Y333224D01*
X316350Y326335D02*
Y333224D01*
X312610Y346224D02*
X316350D01*
X312610Y339335D02*
X316350D01*
Y346224D01*
X312610Y339335D02*
Y346224D01*
X291110Y327835D02*
X294850D01*
X291110Y334724D02*
X294850D01*
X291110Y327835D02*
Y334724D01*
X294850Y327835D02*
Y334724D01*
X489055Y384130D02*
Y387870D01*
X495945Y384130D02*
Y387870D01*
X489055D02*
X495945D01*
X489055Y384130D02*
X495945D01*
X493555Y358630D02*
Y362370D01*
X500445Y358630D02*
Y362370D01*
X493555D02*
X500445D01*
X493555Y358630D02*
X500445D01*
D75*
X482640Y367093D02*
X500357D01*
X482640D02*
Y378904D01*
X500357D01*
Y367093D02*
Y378904D01*
D76*
X560800Y360200D02*
Y379800D01*
X541200Y360200D02*
X560800D01*
X541200D02*
Y379800D01*
X560800D01*
X541200Y362800D02*
Y364200D01*
Y365000D02*
Y366300D01*
Y367200D02*
Y368500D01*
Y369300D02*
Y370700D01*
Y371500D02*
Y372800D01*
Y373700D02*
Y375000D01*
Y375800D02*
Y377200D01*
X543800Y379800D02*
X545200D01*
X546000D02*
X547300D01*
X548200D02*
X549500D01*
X550300D02*
X551700D01*
X552500D02*
X553800D01*
X554700D02*
X556000D01*
X556800D02*
X558200D01*
X560800Y375800D02*
Y377200D01*
Y373700D02*
Y375000D01*
Y371500D02*
Y372800D01*
Y369300D02*
Y370700D01*
Y367200D02*
Y368500D01*
Y365000D02*
Y366300D01*
Y362800D02*
Y364200D01*
X556800Y360200D02*
X558200D01*
X554700D02*
X556000D01*
X552500D02*
X553800D01*
X550300D02*
X551700D01*
X548200D02*
X549500D01*
X546000D02*
X547300D01*
X543800D02*
X545200D01*
X555800D02*
X560800Y365200D01*
M02*
