G04*
G04 #@! TF.GenerationSoftware,Altium Limited,Altium Designer,19.1.5 (86)*
G04*
G04 Layer_Color=128*
%FSLAX25Y25*%
%MOIN*%
G70*
G01*
G75*
%ADD20R,0.04134X0.03937*%
%ADD22R,0.03937X0.03740*%
%ADD73R,0.01181X0.05807*%
D20*
X631150Y448000D02*
D03*
X624850D02*
D03*
D22*
X631299Y455000D02*
D03*
X625000D02*
D03*
D73*
X652575Y462587D02*
D03*
X650606D02*
D03*
X648638D02*
D03*
X646669D02*
D03*
X644701D02*
D03*
X642732D02*
D03*
X640764D02*
D03*
X638795D02*
D03*
X636827D02*
D03*
X634858D02*
D03*
X632890D02*
D03*
X630921D02*
D03*
X628953D02*
D03*
X626984D02*
D03*
X625016D02*
D03*
X623047D02*
D03*
X621079D02*
D03*
X619110D02*
D03*
X617142D02*
D03*
X615173D02*
D03*
X613205D02*
D03*
X611236D02*
D03*
X609268D02*
D03*
X607299D02*
D03*
X605331D02*
D03*
X603362D02*
D03*
X601394D02*
D03*
X599425D02*
D03*
Y492413D02*
D03*
X601394D02*
D03*
X603362D02*
D03*
X605331D02*
D03*
X607299D02*
D03*
X609268D02*
D03*
X611236D02*
D03*
X613205D02*
D03*
X615173D02*
D03*
X617142D02*
D03*
X619110D02*
D03*
X621079D02*
D03*
X623047D02*
D03*
X625016D02*
D03*
X626984D02*
D03*
X628953D02*
D03*
X630921D02*
D03*
X632890D02*
D03*
X634858D02*
D03*
X636827D02*
D03*
X638795D02*
D03*
X640764D02*
D03*
X642732D02*
D03*
X644701D02*
D03*
X646669D02*
D03*
X648638D02*
D03*
X650606D02*
D03*
X652575D02*
D03*
M02*
