M48
;Layer_Color=9474304
;FILE_FORMAT=2:5
INCH,LZ
;TYPE=PLATED
T1F00S00C0.01500
T2F00S00C0.02362
T3F00S00C0.02874
T4F00S00C0.03200
T5F00S00C0.03500
T6F00S00C0.03543
T7F00S00C0.03862
T8F00S00C0.04000
T9F00S00C0.04016
T10F00S00C0.04843
T11F00S00C0.26600
%
T01
X04995Y0249
X04827Y034305
X048825Y036115
X05051Y03663
X05084Y03697
X0527Y03655
X05352Y03675
X05468Y03699
X055Y03743
X0552Y03865
X05355Y03888
X05729Y0407
X05815Y04191
X06131Y04359
X06013Y04494
X06034Y04551
X0608Y0328
X0628Y03165
X06322Y03383
X06446Y03459
X06525Y0382
X06486Y0392
X06623Y04108
X06812Y04188
X0672Y04624
X06484Y04687
X065585Y0448
X06544Y04724
X0605331Y04874
X05767Y04967
X0531Y04724
X04266Y05093
T02
X031548Y026928
X031048
X05455Y03285
X05505
Y03335
X05455
T03
X0362157Y031278
Y032528
X0394803
Y031278
T04
X040198Y034178
Y035178
Y036178
T05
X04365Y0229
Y0244
Y0259
T06
X04895Y02295
X04995
X05095
X05195
X030648Y038828
X029648
X0568Y0455
Y0465
X0634Y05125
Y05225
X0624
Y05125
X0614
Y05225
X0583Y0519
X0573
X0563
X0553
X0514Y05195
X0504
X0494
X0484
X0481Y0486
X0471
X0491
X0501
X0511
X0521
X0531
X0541
X0568Y0485
Y0475
X04445Y05195
X04345
X04245
X04145
T07
X037248Y028078
X038248
X037748Y028578
X038148Y035078
X037648Y035578
X037148Y035078
T08
X06785Y0262
Y0272
Y0282
Y0292
Y0302
Y0312
Y0322
Y0332
Y0342
Y0352
Y0362
Y0372
Y0382
Y0392
Y0402
Y0412
T09
X04445Y03345
X04545
Y03445
Y03545
Y03645
Y03745
Y03845
Y03945
Y04045
Y04145
Y04245
X04445
Y04145
Y04045
Y03945
Y03845
Y03745
Y03645
Y03545
Y03445
X06145
Y03545
Y03645
Y03745
Y03845
Y03945
Y04045
Y04145
Y04245
X06245
Y04145
Y04045
Y03945
Y03845
Y03745
Y03645
Y03545
Y03445
Y03345
X06145
T10
X032798Y038878
X033798
X034798
T11
X0663Y023
X02785
X0663Y053
X02785
M30
