G04*
G04 #@! TF.GenerationSoftware,Altium Limited,Altium Designer,19.1.5 (86)*
G04*
G04 Layer_Color=16711935*
%FSLAX25Y25*%
%MOIN*%
G70*
G01*
G75*
%ADD29R,0.04934X0.04737*%
%ADD31R,0.04737X0.04540*%
%ADD37C,0.06706*%
%ADD38R,0.06706X0.06706*%
%ADD39R,0.06706X0.06706*%
%ADD40R,0.04737X0.04737*%
%ADD41C,0.04737*%
%ADD42C,0.07800*%
%ADD43R,0.07800X0.07800*%
%ADD44C,0.07300*%
%ADD45C,0.06808*%
%ADD46C,0.06602*%
%ADD47C,0.08083*%
%ADD48R,0.08083X0.08083*%
%ADD49R,0.05674X0.05674*%
%ADD50C,0.05674*%
%ADD51O,0.11200X0.06000*%
G04:AMPARAMS|DCode=52|XSize=66.02mil|YSize=66.02mil|CornerRadius=4.33mil|HoleSize=0mil|Usage=FLASHONLY|Rotation=90.000|XOffset=0mil|YOffset=0mil|HoleType=Round|Shape=RoundedRectangle|*
%AMROUNDEDRECTD52*
21,1,0.06602,0.05736,0,0,90.0*
21,1,0.05736,0.06602,0,0,90.0*
1,1,0.00866,0.02868,0.02868*
1,1,0.00866,0.02868,-0.02868*
1,1,0.00866,-0.02868,-0.02868*
1,1,0.00866,-0.02868,0.02868*
%
%ADD52ROUNDEDRECTD52*%
%ADD53C,0.03300*%
%ADD54C,0.27400*%
%ADD74R,0.01981X0.06607*%
D29*
X631150Y448000D02*
D03*
X624850D02*
D03*
D31*
X631299Y455000D02*
D03*
X625000D02*
D03*
D37*
X568000D02*
D03*
Y465000D02*
D03*
Y475000D02*
D03*
X634000Y512500D02*
D03*
X624000Y522500D02*
D03*
Y512500D02*
D03*
X614000Y522500D02*
D03*
Y512500D02*
D03*
X519500Y229500D02*
D03*
X509500D02*
D03*
X499500D02*
D03*
X444500Y519500D02*
D03*
X434500D02*
D03*
X424500D02*
D03*
X583000Y519000D02*
D03*
X573000D02*
D03*
X563000D02*
D03*
X481000Y486000D02*
D03*
X491000D02*
D03*
X501000D02*
D03*
X511000D02*
D03*
X521000D02*
D03*
X531000D02*
D03*
X541000D02*
D03*
X514000Y519500D02*
D03*
X504000D02*
D03*
X494000D02*
D03*
X296480Y388280D02*
D03*
D38*
X568000Y485000D02*
D03*
D39*
X634000Y522500D02*
D03*
X489500Y229500D02*
D03*
X414500Y519500D02*
D03*
X553000Y519000D02*
D03*
X471000Y486000D02*
D03*
X484000Y519500D02*
D03*
X306480Y388280D02*
D03*
D40*
X550500Y333500D02*
D03*
X315480Y269280D02*
D03*
D41*
X550500Y328500D02*
D03*
X545500Y333500D02*
D03*
Y328500D02*
D03*
X310480Y269280D02*
D03*
D42*
X678500Y412000D02*
D03*
Y402000D02*
D03*
Y392000D02*
D03*
Y382000D02*
D03*
Y372000D02*
D03*
Y362000D02*
D03*
Y352000D02*
D03*
Y342000D02*
D03*
Y332000D02*
D03*
Y322000D02*
D03*
Y312000D02*
D03*
Y302000D02*
D03*
Y292000D02*
D03*
Y282000D02*
D03*
Y272000D02*
D03*
D43*
Y262000D02*
D03*
D44*
X436500Y229000D02*
D03*
Y259000D02*
D03*
Y244000D02*
D03*
D45*
X382480Y280780D02*
D03*
X377480Y285780D02*
D03*
X372480Y280780D02*
D03*
X381480Y350780D02*
D03*
X376480Y355780D02*
D03*
X371480Y350780D02*
D03*
D46*
X454500Y334500D02*
D03*
Y344500D02*
D03*
Y354500D02*
D03*
Y364500D02*
D03*
Y374500D02*
D03*
Y384500D02*
D03*
Y394500D02*
D03*
Y404500D02*
D03*
Y414500D02*
D03*
Y424500D02*
D03*
X444500Y334500D02*
D03*
Y344500D02*
D03*
Y354500D02*
D03*
Y364500D02*
D03*
Y374500D02*
D03*
Y384500D02*
D03*
Y394500D02*
D03*
Y404500D02*
D03*
Y414500D02*
D03*
Y424500D02*
D03*
X614500D02*
D03*
Y414500D02*
D03*
Y404500D02*
D03*
Y394500D02*
D03*
Y384500D02*
D03*
Y374500D02*
D03*
Y364500D02*
D03*
Y354500D02*
D03*
Y344500D02*
D03*
Y334500D02*
D03*
X624500Y424500D02*
D03*
Y414500D02*
D03*
Y404500D02*
D03*
Y394500D02*
D03*
Y384500D02*
D03*
Y374500D02*
D03*
Y364500D02*
D03*
Y354500D02*
D03*
Y344500D02*
D03*
D47*
X327980Y388780D02*
D03*
X337980D02*
D03*
D48*
X347980D02*
D03*
D49*
X394803Y325280D02*
D03*
Y312780D02*
D03*
D50*
X362157Y325280D02*
D03*
Y312780D02*
D03*
D51*
X401980Y361780D02*
D03*
Y341780D02*
D03*
Y351780D02*
D03*
D52*
X624500Y334500D02*
D03*
D53*
X535200Y367500D02*
D03*
X605331Y487400D02*
D03*
X508400Y369700D02*
D03*
X552000Y386500D02*
D03*
X482700Y343050D02*
D03*
X655850Y448000D02*
D03*
X581500Y419100D02*
D03*
X613100Y435900D02*
D03*
X426600Y509300D02*
D03*
X505100Y366300D02*
D03*
X576700Y496700D02*
D03*
X546800Y369900D02*
D03*
D54*
X278500Y530000D02*
D03*
Y230000D02*
D03*
X663000D02*
D03*
Y530000D02*
D03*
D74*
X652575Y462587D02*
D03*
X650606D02*
D03*
X648638D02*
D03*
X646669D02*
D03*
X644701D02*
D03*
X642732D02*
D03*
X640764D02*
D03*
X638795D02*
D03*
X636827D02*
D03*
X634858D02*
D03*
X632890D02*
D03*
X630921D02*
D03*
X628953D02*
D03*
X626984D02*
D03*
X625016D02*
D03*
X623047D02*
D03*
X621079D02*
D03*
X619110D02*
D03*
X617142D02*
D03*
X615173D02*
D03*
X613205D02*
D03*
X611236D02*
D03*
X609268D02*
D03*
X607299D02*
D03*
X605331D02*
D03*
X603362D02*
D03*
X601394D02*
D03*
X599425D02*
D03*
Y492413D02*
D03*
X601394D02*
D03*
X603362D02*
D03*
X605331D02*
D03*
X607299D02*
D03*
X609268D02*
D03*
X611236D02*
D03*
X613205D02*
D03*
X615173D02*
D03*
X617142D02*
D03*
X619110D02*
D03*
X621079D02*
D03*
X623047D02*
D03*
X625016D02*
D03*
X626984D02*
D03*
X628953D02*
D03*
X630921D02*
D03*
X632890D02*
D03*
X634858D02*
D03*
X636827D02*
D03*
X638795D02*
D03*
X640764D02*
D03*
X642732D02*
D03*
X644701D02*
D03*
X646669D02*
D03*
X648638D02*
D03*
X650606D02*
D03*
X652575D02*
D03*
M02*
