G04*
G04 #@! TF.GenerationSoftware,Altium Limited,Altium Designer,20.0.9 (164)*
G04*
G04 Layer_Color=16711935*
%FSLAX25Y25*%
%MOIN*%
G70*
G01*
G75*
%ADD10C,0.00787*%
%ADD12C,0.00600*%
%ADD13C,0.00500*%
%ADD87C,0.00394*%
D10*
X399571Y195150D02*
G03*
X399571Y195150I-394J0D01*
G01*
X238669Y184571D02*
G03*
X238669Y184571I-394J0D01*
G01*
X325268Y156595D02*
G03*
X325268Y156595I-394J0D01*
G01*
X324130Y249433D02*
G03*
X324130Y249433I-394J0D01*
G01*
X308543Y290228D02*
G03*
X308543Y290228I-394J0D01*
G01*
D12*
X389541Y233930D02*
G03*
X389541Y240070I-10041J3070D01*
G01*
X393959Y240570D02*
G03*
X393959Y234430I10041J-3070D01*
G01*
X220570Y249041D02*
G03*
X214430Y249041I-3070J-10041D01*
G01*
X220570Y219041D02*
G03*
X214430Y219041I-3070J-10041D01*
G01*
D13*
X258457Y285701D02*
G03*
X258457Y285701I-11496J0D01*
G01*
X304496Y311500D02*
G03*
X304496Y311500I-11496J0D01*
G01*
X225996Y310500D02*
G03*
X225996Y310500I-11496J0D01*
G01*
X343744Y162295D02*
X399256D01*
X343744Y186705D02*
X399256D01*
X343744Y162295D02*
Y186705D01*
X399256Y162295D02*
Y186705D01*
X359154Y232476D02*
Y274524D01*
X356654Y232476D02*
X359154D01*
X340138D02*
X356654D01*
X340138D02*
Y274524D01*
X356654D01*
X359154D01*
X356654Y232476D02*
Y274524D01*
X402476Y275154D02*
X444524D01*
Y272654D02*
Y275154D01*
Y256138D02*
Y272654D01*
X402476Y256138D02*
X444524D01*
X402476D02*
Y272654D01*
Y275154D01*
Y272654D02*
X444524D01*
X439654Y208476D02*
Y250524D01*
X437154Y208476D02*
X439654D01*
X420638D02*
X437154D01*
X420638D02*
Y250524D01*
X437154D01*
X439654D01*
X437154Y208476D02*
Y250524D01*
X451654Y160476D02*
Y202524D01*
X449154Y160476D02*
X451654D01*
X432638D02*
X449154D01*
X432638D02*
Y202524D01*
X449154D01*
X451654D01*
X449154Y160476D02*
Y202524D01*
X433654Y112976D02*
Y155024D01*
X431154Y112976D02*
X433654D01*
X414638D02*
X431154D01*
X414638D02*
Y155024D01*
X431154D01*
X433654D01*
X431154Y112976D02*
Y155024D01*
X179654Y228476D02*
Y270524D01*
X177154Y228476D02*
X179654D01*
X160638D02*
X177154D01*
X160638D02*
Y270524D01*
X177154D01*
X179654D01*
X177154Y228476D02*
Y270524D01*
X237695Y208154D02*
X257006D01*
X237695Y192799D02*
X257006D01*
Y208154D01*
X237695Y192799D02*
Y208154D01*
X315032Y140945D02*
X326843D01*
X315032Y152756D02*
X326843D01*
X315032Y140945D02*
Y152756D01*
X326843Y140945D02*
Y152756D01*
X139476Y142346D02*
X181524D01*
Y139846D02*
Y142346D01*
Y158862D01*
X139476D02*
X181524D01*
X139476Y142346D02*
Y158862D01*
Y139846D02*
Y142346D01*
Y139846D02*
X181524D01*
X139476Y174346D02*
X181524D01*
Y171846D02*
Y174346D01*
Y190862D01*
X139476D02*
X181524D01*
X139476Y174346D02*
Y190862D01*
Y171846D02*
Y174346D01*
Y171846D02*
X181524D01*
X139476Y207346D02*
X181524D01*
Y204846D02*
Y207346D01*
Y223862D01*
X139476D02*
X181524D01*
X139476Y207346D02*
Y223862D01*
Y204846D02*
Y207346D01*
Y204846D02*
X181524D01*
X138976Y279846D02*
X181024D01*
Y277346D02*
Y279846D01*
Y296362D01*
X138976D02*
X181024D01*
X138976Y279846D02*
Y296362D01*
Y277346D02*
Y279846D01*
Y277346D02*
X181024D01*
X323736Y276795D02*
Y285850D01*
Y253961D02*
Y263016D01*
X320783D02*
Y276795D01*
X323736D01*
X326689D01*
Y263016D02*
Y276795D01*
X323736Y263016D02*
X326689D01*
X320783D02*
X323736D01*
X308150Y253811D02*
Y262866D01*
Y276646D02*
Y285701D01*
X311102Y262866D02*
Y276646D01*
X308150Y262866D02*
X311102D01*
X305197D02*
X308150D01*
X305197D02*
Y276646D01*
X308150D01*
X311102D01*
D87*
X406906Y279630D02*
Y283370D01*
X413795Y279630D02*
Y283370D01*
X406906D02*
X413795D01*
X406906Y279630D02*
X413795D01*
X162555Y301130D02*
Y304870D01*
X169445Y301130D02*
Y304870D01*
X162555D02*
X169445D01*
X162555Y301130D02*
X169445D01*
X361130Y221445D02*
X364870D01*
X361130Y214555D02*
X364870D01*
Y221445D01*
X361130Y214555D02*
Y221445D01*
X351630Y214555D02*
X355370D01*
X351630Y221445D02*
X355370D01*
X351630Y214555D02*
Y221445D01*
X355370Y214555D02*
Y221445D01*
X341630Y221240D02*
X345370D01*
X341630Y214350D02*
X345370D01*
Y221240D01*
X341630Y214350D02*
Y221240D01*
X187650Y135496D02*
Y141205D01*
X196350Y135496D02*
Y141205D01*
X187650D02*
X196350D01*
X187650Y135496D02*
X196350D01*
X381638Y255130D02*
Y258870D01*
X388528Y255130D02*
Y258870D01*
X381638D02*
X388528D01*
X381638Y255130D02*
X388528D01*
X381638Y272130D02*
Y275870D01*
X388528Y272130D02*
Y275870D01*
X381638D02*
X388528D01*
X381638Y272130D02*
X388528D01*
X381638Y263630D02*
Y267370D01*
X388528Y263630D02*
Y267370D01*
X381638D02*
X388528D01*
X381638Y263630D02*
X388528D01*
X404646Y124705D02*
X410354D01*
X404646Y133406D02*
X410354D01*
X404646Y124705D02*
Y133406D01*
X410354Y124705D02*
Y133406D01*
X290630Y243055D02*
X294370D01*
X290630Y249945D02*
X294370D01*
X290630Y243055D02*
Y249945D01*
X294370Y243055D02*
Y249945D01*
X291130Y280555D02*
X294870D01*
X291130Y287445D02*
X294870D01*
X291130Y280555D02*
Y287445D01*
X294870Y280555D02*
Y287445D01*
X281630Y280555D02*
X285370D01*
X281630Y287445D02*
X285370D01*
X281630Y280555D02*
Y287445D01*
X285370Y280555D02*
Y287445D01*
X272630Y280555D02*
X276370D01*
X272630Y287445D02*
X276370D01*
X272630Y280555D02*
Y287445D01*
X276370Y280555D02*
Y287445D01*
X263630Y280406D02*
X267370D01*
X263630Y287295D02*
X267370D01*
X263630Y280406D02*
Y287295D01*
X267370Y280406D02*
Y287295D01*
X224630Y285555D02*
X228370D01*
X224630Y292445D02*
X228370D01*
X224630Y285555D02*
Y292445D01*
X228370Y285555D02*
Y292445D01*
X216130Y285555D02*
X219870D01*
X216130Y292445D02*
X219870D01*
X216130Y285555D02*
Y292445D01*
X219870Y285555D02*
Y292445D01*
X267555Y219130D02*
Y222870D01*
X274445Y219130D02*
Y222870D01*
X267555D02*
X274445D01*
X267555Y219130D02*
X274445D01*
X286146Y202150D02*
X291854D01*
X286146Y210850D02*
X291854D01*
X286146Y202150D02*
Y210850D01*
X291854Y202150D02*
Y210850D01*
X259630Y229055D02*
X263370D01*
X259630Y235945D02*
X263370D01*
X259630Y229055D02*
Y235945D01*
X263370Y229055D02*
Y235945D01*
X251630Y229055D02*
X255370D01*
X251630Y235945D02*
X255370D01*
X251630Y229055D02*
Y235945D01*
X255370Y229055D02*
Y235945D01*
X245756Y227146D02*
Y232854D01*
X237055Y227146D02*
Y232854D01*
Y227146D02*
X245756D01*
X237055Y232854D02*
X245756D01*
X281150Y217146D02*
Y222854D01*
X289850Y217146D02*
Y222854D01*
X281150D02*
X289850D01*
X281150Y217146D02*
X289850D01*
X276630Y210445D02*
X280370D01*
X276630Y203555D02*
X280370D01*
Y210445D01*
X276630Y203555D02*
Y210445D01*
X186260Y216795D02*
X190000D01*
X186260Y209906D02*
X190000D01*
Y216795D01*
X186260Y209906D02*
Y216795D01*
X264976Y211106D02*
X270685D01*
X264976Y202406D02*
X270685D01*
Y211106D01*
X264976Y202406D02*
Y211106D01*
X195260Y292295D02*
X199000D01*
X195260Y285406D02*
X199000D01*
Y292295D01*
X195260Y285406D02*
Y292295D01*
X207630Y292445D02*
X211370D01*
X207630Y285555D02*
X211370D01*
Y292445D01*
X207630Y285555D02*
Y292445D01*
X195130Y241055D02*
X198870D01*
X195130Y247945D02*
X198870D01*
X195130Y241055D02*
Y247945D01*
X198870Y241055D02*
Y247945D01*
X315055Y129370D02*
X321945D01*
X315055Y125630D02*
X321945D01*
X315055D02*
Y129370D01*
X321945Y125630D02*
Y129370D01*
X205130Y138055D02*
Y144945D01*
X208870Y138055D02*
Y144945D01*
X205130Y138055D02*
X208870D01*
X205130Y144945D02*
X208870D01*
X314055Y192370D02*
X320945D01*
X314055Y188630D02*
X320945D01*
X314055D02*
Y192370D01*
X320945Y188630D02*
Y192370D01*
X314055Y182870D02*
X320945D01*
X314055Y179130D02*
X320945D01*
X314055D02*
Y182870D01*
X320945Y179130D02*
Y182870D01*
X314055Y173370D02*
X320945D01*
X314055Y169630D02*
X320945D01*
X314055D02*
Y173370D01*
X320945Y169630D02*
Y173370D01*
X335870Y143555D02*
Y150445D01*
X332130Y143555D02*
Y150445D01*
X335870D01*
X332130Y143555D02*
X335870D01*
X239535Y147370D02*
X246425D01*
X239535Y143630D02*
X246425D01*
X239535D02*
Y147370D01*
X246425Y143630D02*
Y147370D01*
X239535Y158315D02*
X246425D01*
X239535Y154575D02*
X246425D01*
X239535D02*
Y158315D01*
X246425Y154575D02*
Y158315D01*
X186260Y176906D02*
Y183795D01*
X190000Y176906D02*
Y183795D01*
X186260Y176906D02*
X190000D01*
X186260Y183795D02*
X190000D01*
X380055Y202130D02*
X386945D01*
X380055Y205870D02*
X386945D01*
Y202130D02*
Y205870D01*
X380055Y202130D02*
Y205870D01*
X397555D02*
X404445D01*
X397555Y202130D02*
X404445D01*
X397555D02*
Y205870D01*
X404445Y202130D02*
Y205870D01*
X301555Y234870D02*
X308445D01*
X301555Y231130D02*
X308445D01*
X301555D02*
Y234870D01*
X308445Y231130D02*
Y234870D01*
X239535Y167370D02*
X246425D01*
X239535Y163630D02*
X246425D01*
X239535D02*
Y167370D01*
X246425Y163630D02*
Y167370D01*
X254555Y163630D02*
X261445D01*
X254555Y167370D02*
X261445D01*
Y163630D02*
Y167370D01*
X254555Y163630D02*
Y167370D01*
X267370Y295055D02*
Y301945D01*
X263630Y295055D02*
Y301945D01*
X267370D01*
X263630Y295055D02*
X267370D01*
X289055Y165370D02*
X295945D01*
X289055Y161630D02*
X295945D01*
X289055D02*
Y165370D01*
X295945Y161630D02*
Y165370D01*
M02*
