G04*
G04 #@! TF.GenerationSoftware,Altium Limited,Altium Designer,20.0.9 (164)*
G04*
G04 Layer_Color=255*
%FSLAX25Y25*%
%MOIN*%
G70*
G01*
G75*
%ADD68C,0.05906*%
%ADD69R,0.05906X0.05906*%
%ADD70R,0.07913X0.07913*%
%ADD71C,0.07913*%
%ADD72R,0.07913X0.07913*%
%ADD73C,0.05150*%
%ADD74C,0.03937*%
%ADD75R,0.03937X0.03937*%
%ADD76R,0.04449X0.04449*%
%ADD77C,0.04449*%
%ADD78R,0.03937X0.03937*%
%ADD79C,0.16000*%
%ADD80R,0.04449X0.04449*%
%ADD81C,0.04724*%
%ADD82R,0.04724X0.04724*%
D68*
X244000Y321000D02*
D03*
D69*
X254000D02*
D03*
D70*
X347500Y263500D02*
D03*
X428000Y239500D02*
D03*
X440000Y191500D02*
D03*
X422000Y144000D02*
D03*
X168000Y259500D02*
D03*
D71*
X347500Y253500D02*
D03*
Y243500D02*
D03*
X423500Y263500D02*
D03*
X433500D02*
D03*
X428000Y229500D02*
D03*
Y219500D02*
D03*
X440000Y181500D02*
D03*
Y171500D02*
D03*
X422000Y134000D02*
D03*
Y124000D02*
D03*
X168000Y249500D02*
D03*
Y239500D02*
D03*
X150500Y151500D02*
D03*
X160500D02*
D03*
X150500Y183500D02*
D03*
X160500D02*
D03*
X150500Y216500D02*
D03*
X160500D02*
D03*
X150000Y289000D02*
D03*
X160000D02*
D03*
D72*
X413500Y263500D02*
D03*
X170500Y151500D02*
D03*
Y183500D02*
D03*
Y216500D02*
D03*
X170000Y289000D02*
D03*
D73*
X379500Y247000D02*
D03*
Y237000D02*
D03*
Y227000D02*
D03*
X404000Y227500D02*
D03*
Y237500D02*
D03*
Y247500D02*
D03*
X207500Y239000D02*
D03*
X217500D02*
D03*
X227500D02*
D03*
X207500Y209000D02*
D03*
X217500D02*
D03*
X227500D02*
D03*
D74*
X446000Y219500D02*
D03*
X142000Y241000D02*
D03*
X375500Y132500D02*
D03*
X380500D02*
D03*
X385500D02*
D03*
X347000Y133000D02*
D03*
X352000D02*
D03*
X357000D02*
D03*
X407500Y176000D02*
D03*
Y181000D02*
D03*
Y186000D02*
D03*
D75*
X446000Y214500D02*
D03*
X142000Y246000D02*
D03*
X407500Y171000D02*
D03*
D76*
X246961Y280701D02*
D03*
X293000Y316500D02*
D03*
D77*
X251961Y285701D02*
D03*
X246961Y290701D02*
D03*
X293000Y306500D02*
D03*
X288000Y311500D02*
D03*
X219500Y310500D02*
D03*
X214500Y305500D02*
D03*
D78*
X390500Y132500D02*
D03*
X362000Y133000D02*
D03*
D79*
X246130Y131000D02*
D03*
X224870D02*
D03*
D80*
X209500Y310500D02*
D03*
D81*
X323736Y285850D02*
D03*
X308150Y253811D02*
D03*
D82*
X323736Y253961D02*
D03*
X308150Y285701D02*
D03*
M02*
