M48
;Layer_Color=9474304
;FILE_FORMAT=2:5
INCH,LZ
;TYPE=PLATED
T1F00S00C0.00787
T2F00S00C0.00787
T3F00S00C0.00800
T4F00S00C0.01200
T5F00S00C0.01500
T7F00S00C0.02795
T8F00S00C0.03799
T9F00S00C0.04000
T10F00S00C0.04016
T11F00S00C0.04331
T12F00S00C0.04528
%
T01
X0104674Y014226
X0109004
X0156211Y0380527
Y0384858
T02
X0081985Y0041834
X0093796
X0105606
X0103048Y0044394
X0105606Y0046953
X0108166Y0044394
X0105606Y0053645
X0103048Y0056204
X0108166
X0105606Y0058764
Y0065456
X0103048Y0068015
X0108166
X0105606Y0070575
X0093796
X0091237Y0068114
X0093796Y0065456
X0096355Y0068015
Y0056204
X0093796Y0053645
Y0058764
X0091237Y0056303
X0084544Y0056204
X0081985Y0053645
Y0058764
X0079425Y0056204
Y0044394
X0084544
X0081985Y0046953
X0091237Y0044394
X0093796Y0046953
X0096355Y0044394
X0081985Y0065456
X0084544Y0068015
X0079425
X0081985Y0070575
T03
X000966Y0016377
Y0022468
Y0028558
X0003569
X001575
X0021841
Y0022468
Y0016377
X001575
Y0022468
X0027931
Y0016377
X0034022
Y0022468
Y0028558
Y0034649
X0040112
Y0028558
Y0022468
Y0016377
X0027931Y0028558
Y0034649
X0058071Y0041209
X0078875Y0025791
X0085417Y0025765
X011533Y0022408
X0133775Y001779
X0138775
X0143775
X0168725Y0016424
X0198146Y001672
X0207524Y0026411
X012917Y0033688
X0213321Y0041872
X021462Y0060939
X0213985Y0093006
X0202117Y009016
X020075Y0111951
X020696Y0111598
X0199963Y0124339
X0200158Y0130408
X0199929Y0141193
X0189965Y0139722
X017554Y0132948
X0167639Y0127127
X0157617Y0130463
X0158754Y0142019
X016515Y0142261
X016264Y0147127
X0155722Y0147505
X0152699Y0155368
X0148778Y0161892
X013842Y0161508
X012369Y0159528
X01133Y0169328
X0109855Y0171604
X0111192Y0179904
X0100912Y0176698
X009583Y0173688
X009051Y0176718
X007556Y0175148
X0065718Y0177321
X006815Y0182068
X006933Y0188438
Y0193138
X0073262Y0189308
X0058959Y0180016
X006242Y0173388
X0065802Y0166625
X00554Y01674
X0056306Y0158841
X0061272Y0143833
X0060039Y0136793
X0063451Y0137537
X0073944Y0136234
X0071685Y0127218
X0078991Y0129781
X0080929Y0142219
X006952Y0147078
X00827Y0161448
X009303Y0153698
X0098064Y0123883
X0093159Y0106026
X0091399Y0097672
X009039Y0094478
X009792Y0094651
X0086463Y0100197
X0086226Y0086201
X0075625Y0090772
X006455Y0104898
X0070598Y0111746
X0118406Y0105952
X011539Y0097088
X0123874Y0089181
X0125955Y0113585
X0118923Y0117771
X012068Y0132038
X0125182Y0133287
X013293Y0139128
X0132577Y0125709
X013569Y0122418
X014023Y0124428
X01378Y0117038
X0140084Y0114562
X013792Y0112108
X0156103Y0112283
X0152983Y0116911
X0159045Y0118879
X0182272Y0111965
X0167917Y0097127
X016959Y0093006
X0175595Y0063245
X0179027Y0053909
X0186508Y0053838
X0164665Y0053909
X0158404Y0047559
X0150303Y0053909
X0144698Y00484
X0130719Y0045368
X0130318Y0052065
X0121041Y0045299
X0147157Y006877
X0164976Y0154766
X016758Y0152226
X016717Y0162278
X0171745Y015911
X0167836Y0172047
X0160777Y0169693
X01615Y0179771
X015753Y0178428
X0153778Y0182027
X0156814Y0187229
X0142955Y0188406
X0135198Y0184598
X0109467Y0197459
X0098Y0189078
X018015Y0182027
X018095Y0196962
X0207755Y0188119
X0208641Y0162912
X0209193Y0152777
X0198733Y0161844
X00462Y01593
X0040608Y0169
X00503Y0178878
X0047743Y0190139
X0039224Y0190232
X000793Y0188768
X0000783Y0182816
X000119Y0170718
X0005785Y01721
X-0001103Y0162316
X000199Y0150517
X000368Y0143467
X0009422Y0130581
X000602Y0123238
X000475Y0116157
X-0000351Y0102546
X0010847Y0101633
X0011151Y0091721
X0013552Y0085
X0026171Y0084354
X0039042Y0087854
X0042228Y0085246
X0043167Y0093128
X0039207Y0095398
X0043351Y0100681
X0051138Y0108011
X0051195Y01192
X00428Y01318
X0038953Y0138599
X0045509Y01414
X0037924Y0148241
X0051223Y0085492
X0042959Y0074078
X0040069Y006513
X0044308Y0057764
X004659Y0044028
X0028582Y005922
X-0002393Y0047657
X-0000881Y0089
X001783Y0210809
X0012002Y021832
X0021747Y0230412
X0021847Y0239765
X0026862Y0250393
X0049477Y0229105
X0044158Y0218821
X0002032Y0324522
Y0330542
Y0336682
X-0005358Y0337872
Y0331732
Y0325712
X001122Y035421
X0130018Y0351537
X0118167Y032984
X0121326Y0285523
X010892Y0285373
X0108937Y0289979
X00988Y0280035
X0114607Y0249812
X013176Y0247338
X0136481Y0252657
X013662Y0238378
X0145127Y0238414
X014954Y0210876
X015351Y0205356
X0158544Y0203513
X0163778Y0210753
X0168897Y0212871
X0166338Y02201
X0175378Y0219074
X0175501Y0223397
X01373Y0211096
X013043Y0204406
X0102343Y0199846
X009734Y0202136
X009069Y0205076
X008392Y0205608
X0074913Y0206345
X0074857Y0215133
X0064876Y0213565
X0056176Y0209814
X0083766Y0227237
X0086491Y0224793
X009368Y0230596
X010866Y0230536
X0077637Y0235925
X0069233Y02489
X0147824Y0284896
X021356Y0285905
X0213906Y034816
X0204997Y0356253
X0198857
X0192838
X0186697
X0184217Y0365571
X0190357
X0196377
X0202517
X0200137Y0375111
X0193997
X0187977
X0185597Y0384651
X0191617
X0197757
X0198947Y0392041
X0192807
X0186787
X0172787Y0398951
X0176777Y0405871
X0164617
X0156003Y0394262
Y0389062
X015629Y0376622
X0123117Y0362965
X0050388Y0396457
X0036561Y0391363
X0033579Y0394203
X0029579
X0030262Y0386046
X0034262
X0019749Y0383349
X001708Y0379549
X-0004655Y0373226
X-0001043Y0397456
X0005123
X0010551Y0404151
Y0411984
T04
X0176865Y0026462
X0215127Y0196833
X0208845Y0158837
X0020889Y0194745
X-0004583Y019536
X0000824Y0202266
X0030117Y0206692
X0032386Y0229814
X-0004583Y0235895
X0008275Y0294617
Y0299617
Y0304617
X0008701Y0310364
X0002167Y0308639
X-0003548
X0010276Y0321388
X0008701Y0327349
X0018636Y0331285
X0020723Y0339149
X0014424Y0339799
X0034411Y0326854
Y0320646
Y0312681
X0044609Y0303493
X0051255
X0050294Y0282175
X003957Y0282775
X0033271
X0043995Y035083
X0061318
X0077066
X008179
X0083199Y0347036
X0084461Y0340285
Y0335561
X0084502Y0324537
X009507Y0322963
Y0329262
X0107195
X0107734Y0324464
X0109681Y0334825
X011042Y0340289
Y0345089
Y0349889
Y0354689
X0118029Y0343478
X0126887
X0126211Y0332283
X0121486
X0125915Y032436
X0126211Y0313165
X0121486
X0117622Y0308971
Y0304171
X0121623Y0295458
X0130517Y0308971
X0136845Y0318665
X0141569
Y0330055
Y0337783
X0136845
Y0349173
X0141569
X0172694Y0352036
X0172932Y0343527
X0184009Y0337023
X0184034Y0321637
X0179071Y0313482
X0175071Y0307199
X0175064Y0298252
X01653Y0298621
X0157977Y0298867
X0139137Y0301492
X0116945Y031758
X0110458Y0312283
X0097295Y0313364
X0079382Y030078
X0073916Y0299798
X006206Y030078
X0055852
X0090074Y0288904
X018129Y0304296
X0182717Y026483
X0187092
X0191467
X0185318Y0259397
X0197823Y0252325
X020442Y02694
X0209453Y0232136
Y0228413
X0189722Y022975
X0181787Y0220635
X0195679Y0202636
X0214433Y0240142
X0172694Y0356632
Y0361229
Y0365826
Y0370422
Y0375019
Y0379616
X0159951Y0376604
X0152471
X0155463Y0369623
X015677Y0360353
X0144943Y0372348
X0139892Y0382734
X0140063Y0388257
X0143693
X0147401
X0152471Y0388781
X0159951Y0400349
X0119014Y039479
X01121Y0389273
Y0377883
X0107376
X0096742Y0372383
X0092018
X0085091Y0372
X0080291
X0075491
X0088496Y0383578
X0096761Y0387883
X0101516Y0411448
X0111458Y0404362
X0122274Y0375874
X0129754Y0375841
X0062318Y0384696
X0065692Y0403766
X0069543Y0407549
X0060274Y0413084
X0055818Y0365876
X0059743Y0360449
X0051094Y0365895
X0046176Y0384696
X0049325Y039285
X001057
X-0004557Y0378226
Y0368226
X-0003595Y0358924
X0020541Y0359458
Y0364038
X0027793Y037467
T05
X009039Y0023169
X0092875Y0133162
X0096947Y0139544
X0106839Y0134345
X0120526Y0141764
X0120601Y0154279
X0108977Y0161062
X0103277
X0071429Y0159556
X015316Y0195946
X0160929Y0198467
X0180793Y0077433
X0020886Y0217314
X0033386Y0242314
X0077886Y0228314
Y0223314
X0105979Y0215671
Y0207704
X0120979Y0230558
Y0245519
X0115979
X0095979Y024605
X0183428Y0204325
T07
X01521Y0287686
Y0292686
X01571
X01621
X01671
X01721
Y0287686
X01671
X01621
X01571
Y0316486
Y0321486
X01621
X01671
X01721
Y0316486
X01671
X01621
X01521
Y0321486
T08
X0134879Y0217463
T09
X019507Y0057026
Y0067026
Y0077026
X001492
Y0067026
Y0057026
T10
X018507Y0097026
X019507
Y0107026
Y0117026
Y0127026
Y0137026
Y0147026
Y0157026
Y0167026
Y0177026
Y0187026
X018507
Y0177026
Y0167026
Y0157026
Y0147026
Y0137026
Y0127026
Y0117026
Y0107026
X002507Y0107026
X002507Y0117026
Y0127026
Y0137026
X001507Y0137026
X001507Y0127026
X001507Y0117026
X001507Y0107026
X001507Y0097026
X002507Y0097026
X002507Y0147026
X002507Y0157026
X002507Y0167026
X001507Y0167026
X001507Y0177026
X002507Y0177026
X002507Y0187026
X001507Y0187026
X001507Y0157026
X001507Y0147026
T11
X0135824Y0034243
X0145824
X01521Y0228186
X01621
X01721
Y0238186
X01621
X01521
T12
X019507Y00304
Y00404
X016115Y008815
X015115
Y009815
X014115
Y008815
X016115Y009815
X0135676Y0177882
X0128604Y0184953
X0120096Y0194252
X00488Y0263586
X00388
Y0273586
X00488
X00288
Y0263586
X00188
Y0273586
X-000037Y0255928
Y0245928
X00588Y0263586
X00688
X00788
X00888
X00988
X01088
X01188
Y0273586
X01088
X00988
X00888
X00788
X00688
Y0283586
X00588
Y0273586
X01288
Y0263586
X01521Y0257325
X01621
X01721
X0113024Y0201323
M30
