M48
;Layer_Color=9474304
;FILE_FORMAT=2:5
INCH,LZ
;TYPE=PLATED
T1F00S00C0.02362
T2F00S00C0.02800
T3F00S00C0.02874
T4F00S00C0.03150
T5F00S00C0.03543
T6F00S00C0.05276
T7F00S00C0.13000
T8F00S00C0.13386
%
T01
X0347Y0133
X0352
X0357
X0362
X03755Y01325
X03805
X03855
X03905
X04075Y0171
Y0176
Y0181
Y0186
X0446Y02145
Y02195
X0142Y0241
Y0246
T02
X02147Y014465
X0309Y015
X03266Y01358
X0337Y01344
X0367Y0145
X0398075Y0136575
X03935Y01725
X03685Y01795
X03691Y0199
X0351805Y02012
X03485Y0209
X0339404Y02047
X03354Y01966
X03544Y01725
X03888Y0247
X02075Y02515
T03
X02145Y03055
X02195Y03105
X02095
X0246961Y0290701
Y0280701
X0251961Y0285701
X0293Y03065
X0288Y03115
X0293Y03165
T04
X0323736Y0253961
Y028585
X03795Y0247
Y0237
Y0227
X0404Y02275
Y02375
Y02475
X030815Y0253811
Y0285701
X02275Y0239
X02175
X02075
Y0209
X02175
X02275
T05
X0244Y0321
X0254
T06
X01505Y01515
X01605
X01705
X0422Y0144
Y0134
Y0124
X044Y01715
Y01815
Y01915
X0428Y02195
Y02295
Y02395
X04235Y02635
X04135
X04335
X03475
Y02535
Y02435
X0168Y02395
Y02495
Y02595
X017Y0289
X016
X01605Y02165
X01705
Y01835
X01605
X01505
Y02165
X015Y0289
T07
X022487Y0131
X024613
T08
X01475Y01225
X04485
X015Y0325
X04475
M30
