G04*
G04 #@! TF.GenerationSoftware,Altium Limited,Altium Designer,20.0.9 (164)*
G04*
G04 Layer_Physical_Order=1*
G04 Layer_Color=255*
%FSLAX25Y25*%
%MOIN*%
G70*
G01*
G75*
%ADD17C,0.01000*%
%ADD18R,0.04134X0.03937*%
G04:AMPARAMS|DCode=19|XSize=59.84mil|YSize=11.02mil|CornerRadius=1.38mil|HoleSize=0mil|Usage=FLASHONLY|Rotation=270.000|XOffset=0mil|YOffset=0mil|HoleType=Round|Shape=RoundedRectangle|*
%AMROUNDEDRECTD19*
21,1,0.05984,0.00827,0,0,270.0*
21,1,0.05709,0.01102,0,0,270.0*
1,1,0.00276,-0.00413,-0.02854*
1,1,0.00276,-0.00413,0.02854*
1,1,0.00276,0.00413,0.02854*
1,1,0.00276,0.00413,-0.02854*
%
%ADD19ROUNDEDRECTD19*%
%ADD20R,0.03740X0.03937*%
%ADD21R,0.03937X0.04134*%
%ADD22R,0.05118X0.05906*%
%ADD23R,0.03937X0.03740*%
%ADD24R,0.05906X0.05118*%
%ADD25R,0.08661X0.13780*%
%ADD26R,0.08661X0.04724*%
%ADD27R,0.08661X0.02362*%
G04:AMPARAMS|DCode=28|XSize=77.56mil|YSize=23.62mil|CornerRadius=2.95mil|HoleSize=0mil|Usage=FLASHONLY|Rotation=90.000|XOffset=0mil|YOffset=0mil|HoleType=Round|Shape=RoundedRectangle|*
%AMROUNDEDRECTD28*
21,1,0.07756,0.01772,0,0,90.0*
21,1,0.07165,0.02362,0,0,90.0*
1,1,0.00591,0.00886,0.03583*
1,1,0.00591,0.00886,-0.03583*
1,1,0.00591,-0.00886,-0.03583*
1,1,0.00591,-0.00886,0.03583*
%
%ADD28ROUNDEDRECTD28*%
G04:AMPARAMS|DCode=29|XSize=33.07mil|YSize=10.24mil|CornerRadius=1.28mil|HoleSize=0mil|Usage=FLASHONLY|Rotation=270.000|XOffset=0mil|YOffset=0mil|HoleType=Round|Shape=RoundedRectangle|*
%AMROUNDEDRECTD29*
21,1,0.03307,0.00768,0,0,270.0*
21,1,0.03051,0.01024,0,0,270.0*
1,1,0.00256,-0.00384,-0.01526*
1,1,0.00256,-0.00384,0.01526*
1,1,0.00256,0.00384,0.01526*
1,1,0.00256,0.00384,-0.01526*
%
%ADD29ROUNDEDRECTD29*%
%ADD30R,0.32284X0.10236*%
%ADD63R,0.11850X0.04134*%
%ADD64C,0.02000*%
%ADD65C,0.01500*%
%ADD66C,0.04000*%
%ADD67C,0.03000*%
%ADD68C,0.05906*%
%ADD69R,0.05906X0.05906*%
%ADD70R,0.07913X0.07913*%
%ADD71C,0.07913*%
%ADD72R,0.07913X0.07913*%
%ADD73C,0.05150*%
%ADD74C,0.03937*%
%ADD75R,0.03937X0.03937*%
%ADD76R,0.04449X0.04449*%
%ADD77C,0.04449*%
%ADD78R,0.03937X0.03937*%
%ADD79C,0.16000*%
%ADD80R,0.04449X0.04449*%
%ADD81C,0.04724*%
%ADD82R,0.04724X0.04724*%
%ADD83C,0.05000*%
%ADD84C,0.15000*%
%ADD85C,0.17500*%
G36*
X451797Y341344D02*
X453549Y340923D01*
X455214Y340234D01*
X456751Y339292D01*
X458121Y338121D01*
X459292Y336751D01*
X460234Y335214D01*
X460923Y333549D01*
X461344Y331797D01*
X461484Y330018D01*
X461480Y330000D01*
Y120000D01*
X461484Y119982D01*
X461344Y118203D01*
X460923Y116451D01*
X460234Y114786D01*
X459292Y113249D01*
X458121Y111879D01*
X456751Y110708D01*
X455214Y109766D01*
X453549Y109077D01*
X451797Y108656D01*
X450018Y108516D01*
X450000Y108520D01*
X145000D01*
X144982Y108516D01*
X143203Y108656D01*
X141451Y109077D01*
X139786Y109766D01*
X138249Y110708D01*
X136879Y111879D01*
X135708Y113249D01*
X134766Y114786D01*
X134077Y116451D01*
X133656Y118203D01*
X133516Y119982D01*
X133520Y120000D01*
X133519Y330000D01*
X133520Y330000D01*
X133520D01*
X133553Y330486D01*
X133656Y331797D01*
X134077Y333549D01*
X134766Y335214D01*
X135708Y336751D01*
X136879Y338121D01*
X138249Y339292D01*
X139786Y340234D01*
X141451Y340923D01*
X143203Y341344D01*
X144982Y341484D01*
X145000Y341480D01*
X450000D01*
X450018Y341484D01*
X451797Y341344D01*
D02*
G37*
%LPC*%
G36*
X244500Y324921D02*
Y321500D01*
X247921D01*
X247851Y322032D01*
X247453Y322993D01*
X246819Y323819D01*
X245993Y324453D01*
X245032Y324851D01*
X244500Y324921D01*
D02*
G37*
G36*
X243500D02*
X242968Y324851D01*
X242007Y324453D01*
X241181Y323819D01*
X240547Y322993D01*
X240149Y322032D01*
X240079Y321500D01*
X243500D01*
Y324921D01*
D02*
G37*
G36*
X247921Y320500D02*
X244500D01*
Y317079D01*
X245032Y317149D01*
X245993Y317547D01*
X246819Y318181D01*
X247453Y319007D01*
X247851Y319968D01*
X247921Y320500D01*
D02*
G37*
G36*
X243500D02*
X240079D01*
X240149Y319968D01*
X240547Y319007D01*
X241181Y318181D01*
X242007Y317547D01*
X242968Y317149D01*
X243500Y317079D01*
Y320500D01*
D02*
G37*
G36*
X296224Y319724D02*
X293500D01*
Y317000D01*
X296224D01*
Y319724D01*
D02*
G37*
G36*
X447500Y334295D02*
X445687Y334116D01*
X443943Y333587D01*
X442336Y332728D01*
X440928Y331572D01*
X439772Y330164D01*
X438913Y328557D01*
X438384Y326813D01*
X438205Y325000D01*
X438384Y323187D01*
X438913Y321443D01*
X439772Y319836D01*
X440928Y318428D01*
X442336Y317272D01*
X443943Y316413D01*
X445687Y315884D01*
X447500Y315705D01*
X449313Y315884D01*
X451057Y316413D01*
X452664Y317272D01*
X454072Y318428D01*
X455228Y319836D01*
X456087Y321443D01*
X456616Y323187D01*
X456795Y325000D01*
X456616Y326813D01*
X456087Y328557D01*
X455228Y330164D01*
X454072Y331572D01*
X452664Y332728D01*
X451057Y333587D01*
X449313Y334116D01*
X447500Y334295D01*
D02*
G37*
G36*
X150000D02*
X148187Y334116D01*
X146443Y333587D01*
X144836Y332728D01*
X143428Y331572D01*
X142272Y330164D01*
X141413Y328557D01*
X140884Y326813D01*
X140705Y325000D01*
X140884Y323187D01*
X141413Y321443D01*
X142272Y319836D01*
X143428Y318428D01*
X144836Y317272D01*
X146443Y316413D01*
X148187Y315884D01*
X150000Y315705D01*
X151813Y315884D01*
X153557Y316413D01*
X155164Y317272D01*
X156572Y318428D01*
X157728Y319836D01*
X158587Y321443D01*
X159116Y323187D01*
X159295Y325000D01*
X159116Y326813D01*
X158587Y328557D01*
X157728Y330164D01*
X156572Y331572D01*
X155164Y332728D01*
X153557Y333587D01*
X151813Y334116D01*
X150000Y334295D01*
D02*
G37*
G36*
X296224Y316000D02*
X293500D01*
Y313276D01*
X296224D01*
Y316000D01*
D02*
G37*
G36*
X212724Y313724D02*
X210000D01*
Y311000D01*
X212724D01*
Y313724D01*
D02*
G37*
G36*
X209000D02*
X206276D01*
Y311000D01*
X209000D01*
Y313724D01*
D02*
G37*
G36*
Y310000D02*
X206276D01*
Y307276D01*
X209000D01*
Y310000D01*
D02*
G37*
G36*
X212724D02*
X210000D01*
Y307276D01*
X211869D01*
X212080Y306776D01*
X211846Y306211D01*
X211752Y305500D01*
X211846Y304789D01*
X212120Y304126D01*
X212557Y303557D01*
X213126Y303120D01*
X213789Y302846D01*
X214500Y302752D01*
X215211Y302846D01*
X215874Y303120D01*
X216443Y303557D01*
X216880Y304126D01*
X217154Y304789D01*
X217248Y305500D01*
X217154Y306211D01*
X216880Y306874D01*
X216443Y307443D01*
X215874Y307880D01*
X215211Y308154D01*
X214500Y308248D01*
X213789Y308154D01*
X213224Y307921D01*
X212724Y308131D01*
Y310000D01*
D02*
G37*
G36*
X257453Y324453D02*
X250547D01*
Y317547D01*
X256011D01*
X264480Y309078D01*
Y304118D01*
X263130D01*
Y299420D01*
X224422D01*
X220520Y303322D01*
Y307974D01*
X220874Y308120D01*
X221443Y308557D01*
X221880Y309126D01*
X222154Y309789D01*
X222248Y310500D01*
X222154Y311211D01*
X221880Y311874D01*
X221443Y312443D01*
X220874Y312880D01*
X220211Y313154D01*
X219500Y313248D01*
X218789Y313154D01*
X218126Y312880D01*
X217557Y312443D01*
X217120Y311874D01*
X216846Y311211D01*
X216752Y310500D01*
X216846Y309789D01*
X217120Y309126D01*
X217557Y308557D01*
X218126Y308120D01*
X218480Y307974D01*
Y302900D01*
X218558Y302510D01*
X218779Y302179D01*
X223279Y297679D01*
X223610Y297458D01*
X224000Y297380D01*
X263130D01*
Y292882D01*
X264480D01*
Y289567D01*
X263032D01*
Y284433D01*
X267969D01*
Y285980D01*
X269900D01*
X270290Y286058D01*
X270398Y286130D01*
X272031D01*
Y284583D01*
X276480D01*
Y283417D01*
X272031D01*
Y278284D01*
X276969D01*
Y279831D01*
X277500D01*
X277780Y279887D01*
X278140Y279690D01*
X278280Y279568D01*
Y262822D01*
X260779Y245321D01*
X260558Y244990D01*
X260480Y244600D01*
Y238618D01*
X258630D01*
Y236669D01*
X256370D01*
Y238618D01*
X254000D01*
Y235650D01*
Y232681D01*
X256370D01*
Y234630D01*
X258630D01*
Y232681D01*
X261000D01*
Y235650D01*
X261500D01*
Y236150D01*
X264370D01*
Y238618D01*
X262520D01*
Y244178D01*
X280021Y261679D01*
X280242Y262010D01*
X280320Y262400D01*
Y281778D01*
X280668Y282126D01*
X281130Y281935D01*
Y278382D01*
X282480D01*
Y253012D01*
X281334Y251866D01*
X281113Y251535D01*
X281036Y251145D01*
Y224000D01*
Y223453D01*
X278996D01*
Y216547D01*
X285114D01*
Y222980D01*
X285886D01*
Y216547D01*
X287925D01*
Y214955D01*
X287980Y214678D01*
Y213004D01*
X285547D01*
Y210140D01*
X281332Y205924D01*
X280870Y206116D01*
Y206319D01*
X276130D01*
Y201382D01*
X280870D01*
Y202865D01*
X281090Y202908D01*
X281421Y203129D01*
X284547Y206256D01*
X285047Y206049D01*
Y203555D01*
X289000D01*
Y203055D01*
X289500D01*
Y199496D01*
X292953D01*
Y202036D01*
X294378D01*
X296689Y199724D01*
X297020Y199503D01*
X297410Y199425D01*
X297933D01*
Y198264D01*
X302764D01*
Y200445D01*
Y202626D01*
X297933D01*
Y202071D01*
X297433Y201864D01*
X295521Y203776D01*
X295190Y203997D01*
X294800Y204075D01*
X292953D01*
Y206614D01*
X292840D01*
X292453Y206886D01*
Y208925D01*
X293378D01*
X297579Y204724D01*
X297910Y204503D01*
X298300Y204425D01*
X298433D01*
Y203764D01*
X307580D01*
Y202626D01*
X303764D01*
Y200445D01*
Y198264D01*
X307469D01*
X307660Y197802D01*
X305978Y196120D01*
X254850D01*
X254460Y196042D01*
X254129Y195821D01*
X253908Y195490D01*
X253835Y195120D01*
X253654Y195084D01*
X253391Y194908D01*
X253215Y194645D01*
X253154Y194335D01*
Y187169D01*
X253215Y186859D01*
X253391Y186596D01*
X253654Y186420D01*
X253965Y186358D01*
X255736D01*
X256047Y186420D01*
X256310Y186596D01*
X256485Y186859D01*
X256547Y187169D01*
Y194080D01*
X274036D01*
X274227Y193619D01*
X254129Y173521D01*
X253908Y173190D01*
X253831Y172800D01*
Y167870D01*
X252382D01*
Y166520D01*
X248697D01*
Y167968D01*
X243920D01*
Y171900D01*
X243842Y172290D01*
X243621Y172621D01*
X243120Y173122D01*
Y186176D01*
X243620Y186443D01*
X243654Y186420D01*
X243965Y186358D01*
X245736D01*
X246046Y186420D01*
X246310Y186596D01*
X246485Y186859D01*
X246547Y187169D01*
Y194335D01*
X246485Y194645D01*
X246310Y194908D01*
X246046Y195084D01*
X245870Y195119D01*
Y197478D01*
X250571Y202179D01*
X250792Y202510D01*
X250870Y202900D01*
Y203310D01*
X251200Y203580D01*
X260500D01*
X260890Y203658D01*
X261221Y203879D01*
X263996Y206654D01*
X264378Y206329D01*
Y200252D01*
X264378D01*
X264215Y199820D01*
X253050D01*
X252660Y199742D01*
X252329Y199521D01*
X249129Y196321D01*
X248908Y195990D01*
X248831Y195600D01*
Y195119D01*
X248654Y195084D01*
X248391Y194908D01*
X248215Y194645D01*
X248154Y194335D01*
Y187169D01*
X248215Y186859D01*
X248391Y186596D01*
X248654Y186420D01*
X248965Y186358D01*
X250736D01*
X251046Y186420D01*
X251310Y186596D01*
X251485Y186859D01*
X251547Y187169D01*
Y194335D01*
X251485Y194645D01*
X251310Y194908D01*
X251308Y194909D01*
X251215Y195517D01*
X251218Y195525D01*
X253473Y197780D01*
X266231D01*
X266621Y197858D01*
X266952Y198079D01*
X268552Y199679D01*
X268773Y200010D01*
X268821Y200252D01*
X271284D01*
Y202291D01*
X271800D01*
X272190Y202369D01*
X272521Y202590D01*
X272742Y202921D01*
X272820Y203311D01*
Y216941D01*
X273320Y217093D01*
X273429Y216929D01*
X277240Y213118D01*
X277033Y212618D01*
X276130D01*
Y207681D01*
X280870D01*
Y212618D01*
X279520D01*
Y213300D01*
X279442Y213690D01*
X279221Y214021D01*
X275169Y218073D01*
Y218630D01*
X276618D01*
Y223370D01*
X271681D01*
Y221932D01*
X271379Y221794D01*
X271181Y221748D01*
X270890Y221942D01*
X270500Y222020D01*
X270319D01*
Y223370D01*
X265382D01*
Y218630D01*
X269480D01*
Y218400D01*
X269558Y218010D01*
X269779Y217679D01*
X270780Y216678D01*
Y213260D01*
X264378D01*
Y209920D01*
X260078Y205620D01*
X256573D01*
X256444Y205827D01*
X256360Y206120D01*
X256485Y206308D01*
X256547Y206618D01*
Y213784D01*
X256485Y214094D01*
X256310Y214357D01*
X256047Y214533D01*
X255870Y214568D01*
Y215878D01*
X262221Y222229D01*
X262442Y222559D01*
X262520Y222950D01*
Y226882D01*
X263870D01*
Y231819D01*
X259130D01*
Y226882D01*
X260480D01*
Y223372D01*
X254129Y217021D01*
X253908Y216690D01*
X253831Y216300D01*
Y214568D01*
X253654Y214533D01*
X253391Y214357D01*
X253215Y214094D01*
X253154Y213784D01*
Y206618D01*
X253215Y206308D01*
X253341Y206120D01*
X253256Y205827D01*
X253128Y205620D01*
X251651D01*
X251304Y205988D01*
X251310Y206045D01*
X251485Y206308D01*
X251547Y206618D01*
Y213784D01*
X251485Y214094D01*
X251310Y214357D01*
X251046Y214533D01*
X250870Y214568D01*
Y217478D01*
X254221Y220829D01*
X254442Y221159D01*
X254520Y221550D01*
Y226882D01*
X255870D01*
Y231819D01*
X251130D01*
Y226882D01*
X252480D01*
Y221972D01*
X249935Y219427D01*
X249475Y219673D01*
X249520Y219900D01*
Y234000D01*
X249494Y234130D01*
X249837Y234630D01*
X250630D01*
Y232681D01*
X253000D01*
Y235650D01*
Y238618D01*
X250630D01*
Y236669D01*
X231273D01*
X230658Y237284D01*
X230983Y238067D01*
X231040Y238500D01*
X223960D01*
X224017Y238067D01*
X224377Y237197D01*
X224950Y236450D01*
X225697Y235877D01*
X226567Y235517D01*
X226516Y235020D01*
X224724D01*
X224488Y235177D01*
X224000Y235275D01*
X220292D01*
X220085Y235413D01*
X219500Y235529D01*
X218404D01*
X218303Y236004D01*
X219051Y236314D01*
X219693Y236807D01*
X220186Y237449D01*
X220496Y238197D01*
X220601Y239000D01*
X220496Y239803D01*
X220186Y240551D01*
X219693Y241193D01*
X219051Y241686D01*
X218303Y241996D01*
X217500Y242101D01*
X216697Y241996D01*
X215949Y241686D01*
X215307Y241193D01*
X214814Y240551D01*
X214504Y239803D01*
X214399Y239000D01*
X214504Y238197D01*
X214814Y237449D01*
X215307Y236807D01*
X215949Y236314D01*
X216697Y236004D01*
X216596Y235529D01*
X215500D01*
X214915Y235413D01*
X214419Y235081D01*
X211419Y232081D01*
X211087Y231585D01*
X210971Y231000D01*
Y219346D01*
X210509Y219154D01*
X198529Y231134D01*
Y238784D01*
X199469D01*
Y239853D01*
X199883D01*
X200468Y239970D01*
X200964Y240301D01*
X203081Y242419D01*
X203413Y242915D01*
X203529Y243500D01*
Y265400D01*
X203413Y265985D01*
X203081Y266481D01*
X191529Y278033D01*
Y286866D01*
X194360Y289697D01*
X194760Y289531D01*
Y289531D01*
X199500D01*
Y290471D01*
X203200D01*
X203785Y290587D01*
X203835Y290620D01*
X207130D01*
Y289681D01*
X211870D01*
Y290620D01*
X215630D01*
Y289681D01*
X220370D01*
Y290620D01*
X224031D01*
Y289583D01*
X228969D01*
Y290620D01*
X235367D01*
X236367Y289619D01*
X236863Y289288D01*
X237449Y289171D01*
X244700D01*
X245018Y288758D01*
X245587Y288321D01*
X246249Y288047D01*
X246961Y287953D01*
X247672Y288047D01*
X248335Y288321D01*
X248904Y288758D01*
X249340Y289327D01*
X249615Y289990D01*
X249709Y290701D01*
X249615Y291412D01*
X249340Y292075D01*
X248904Y292644D01*
X248335Y293081D01*
X247672Y293355D01*
X246961Y293449D01*
X246249Y293355D01*
X245587Y293081D01*
X245018Y292644D01*
X244700Y292230D01*
X238082D01*
X237081Y293231D01*
X236585Y293563D01*
X236000Y293679D01*
X228969D01*
Y294717D01*
X224031D01*
Y293679D01*
X220370D01*
Y294618D01*
X215630D01*
Y293679D01*
X211870D01*
Y294618D01*
X207130D01*
Y293679D01*
X203350D01*
X202764Y293563D01*
X202715Y293529D01*
X199500D01*
Y294468D01*
X194760D01*
Y293375D01*
X194346D01*
X193760Y293259D01*
X193264Y292927D01*
X188919Y288581D01*
X188587Y288085D01*
X188471Y287500D01*
Y277400D01*
X188587Y276815D01*
X188919Y276319D01*
X200471Y264767D01*
Y244133D01*
X199930Y243593D01*
X199469Y243785D01*
Y243917D01*
X194532D01*
Y243390D01*
X183350D01*
X182570Y243234D01*
X181909Y242792D01*
X180655Y241539D01*
X172188D01*
X171981Y242039D01*
X173678Y243736D01*
X173899Y244067D01*
X173976Y244457D01*
Y251375D01*
X174476Y251582D01*
X179129Y246929D01*
X179460Y246708D01*
X179850Y246630D01*
X194532D01*
Y245083D01*
X199469D01*
Y250217D01*
X194532D01*
Y248669D01*
X180273D01*
X172457Y256485D01*
Y263957D01*
X163543D01*
Y256252D01*
X163081Y256061D01*
X161020Y258122D01*
Y284639D01*
X161163Y284658D01*
X162248Y285107D01*
X163179Y285822D01*
X163893Y286752D01*
X164342Y287837D01*
X164495Y289000D01*
X164342Y290163D01*
X163893Y291248D01*
X163763Y291417D01*
X163792Y291460D01*
X163870Y291850D01*
Y300532D01*
X165417D01*
Y305469D01*
X160284D01*
Y300532D01*
X161831D01*
Y293515D01*
X161415Y293238D01*
X161163Y293342D01*
X160000Y293495D01*
X158837Y293342D01*
X157752Y292893D01*
X156822Y292179D01*
X156107Y291248D01*
X155658Y290163D01*
X155505Y289000D01*
X155658Y287837D01*
X156107Y286752D01*
X156822Y285822D01*
X157752Y285107D01*
X158837Y284658D01*
X158980Y284639D01*
Y257700D01*
X159058Y257310D01*
X159279Y256979D01*
X162479Y253779D01*
X162810Y253558D01*
X163200Y253480D01*
X165045D01*
X165215Y252980D01*
X164822Y252678D01*
X164107Y251748D01*
X163658Y250663D01*
X163505Y249500D01*
X163658Y248337D01*
X164107Y247252D01*
X164195Y247137D01*
X159779Y242721D01*
X159558Y242390D01*
X159480Y242000D01*
Y220861D01*
X159337Y220842D01*
X158252Y220393D01*
X157322Y219678D01*
X156607Y218748D01*
X156158Y217663D01*
X156005Y216500D01*
X156158Y215337D01*
X156607Y214252D01*
X157322Y213321D01*
X158252Y212607D01*
X159337Y212158D01*
X160500Y212005D01*
X161663Y212158D01*
X162748Y212607D01*
X163679Y213321D01*
X164393Y214252D01*
X164842Y215337D01*
X164995Y216500D01*
X164842Y217663D01*
X164393Y218748D01*
X163679Y219678D01*
X162748Y220393D01*
X161663Y220842D01*
X161520Y220861D01*
Y241578D01*
X165637Y245695D01*
X165752Y245607D01*
X166837Y245158D01*
X168000Y245005D01*
X169163Y245158D01*
X170248Y245607D01*
X171178Y246322D01*
X171437Y246658D01*
X171937Y246489D01*
Y244879D01*
X170363Y243305D01*
X170248Y243393D01*
X169163Y243842D01*
X168000Y243995D01*
X166837Y243842D01*
X165752Y243393D01*
X164822Y242678D01*
X164107Y241748D01*
X163658Y240663D01*
X163505Y239500D01*
X163658Y238337D01*
X163988Y237539D01*
X163980Y237500D01*
X164058Y237110D01*
X164279Y236779D01*
X164610Y236558D01*
X164645Y236551D01*
X164822Y236321D01*
X165752Y235607D01*
X166837Y235158D01*
X168000Y235005D01*
X169163Y235158D01*
X170248Y235607D01*
X171178Y236321D01*
X171893Y237252D01*
X171979Y237461D01*
X181500D01*
X182280Y237616D01*
X182942Y238058D01*
X184195Y239311D01*
X194532D01*
Y238784D01*
X195471D01*
Y230500D01*
X195587Y229915D01*
X195919Y229419D01*
X210971Y214367D01*
Y211171D01*
X210471Y211001D01*
X210050Y211550D01*
X209303Y212123D01*
X208433Y212483D01*
X208000Y212540D01*
Y209000D01*
Y205460D01*
X208433Y205517D01*
X209303Y205877D01*
X210050Y206450D01*
X210471Y206999D01*
X210971Y206829D01*
Y190400D01*
X211087Y189815D01*
X211419Y189319D01*
X222471Y178267D01*
Y177417D01*
X221162D01*
Y171693D01*
X230823D01*
Y177417D01*
X225529D01*
Y178900D01*
X225413Y179485D01*
X225081Y179981D01*
X214029Y191033D01*
Y208096D01*
X214504Y208197D01*
X214814Y207449D01*
X215307Y206807D01*
X215949Y206314D01*
X216697Y206004D01*
X217500Y205899D01*
X218303Y206004D01*
X219051Y206314D01*
X219693Y206807D01*
X220186Y207449D01*
X220496Y208197D01*
X220601Y209000D01*
X220496Y209803D01*
X220186Y210551D01*
X219693Y211193D01*
X219051Y211686D01*
X218303Y211996D01*
X217500Y212101D01*
X216697Y211996D01*
X215949Y211686D01*
X215307Y211193D01*
X214814Y210551D01*
X214504Y209803D01*
X214029Y209904D01*
Y215000D01*
Y230366D01*
X216133Y232471D01*
X219500D01*
X220085Y232587D01*
X220292Y232726D01*
X224000D01*
X224488Y232822D01*
X224724Y232980D01*
X234901D01*
Y226547D01*
X236941D01*
Y220990D01*
X237019Y220600D01*
X237240Y220269D01*
X238831Y218678D01*
Y214568D01*
X238654Y214533D01*
X238391Y214357D01*
X238215Y214094D01*
X238154Y213784D01*
Y207696D01*
X231979Y201521D01*
X231758Y201190D01*
X231680Y200800D01*
Y168222D01*
X231285Y167827D01*
X230823Y168018D01*
Y168362D01*
X221162D01*
Y166520D01*
X204838D01*
Y172890D01*
X195177D01*
Y158110D01*
X203356D01*
X205980Y155485D01*
Y147118D01*
X204630D01*
Y142181D01*
X209370D01*
Y143630D01*
X211875D01*
X212080Y143137D01*
X212560Y142510D01*
X213187Y142029D01*
X213917Y141727D01*
X214700Y141624D01*
X215483Y141727D01*
X216213Y142029D01*
X216840Y142510D01*
X217320Y143137D01*
X217623Y143866D01*
X217726Y144650D01*
X217623Y145433D01*
X217320Y146162D01*
X216840Y146789D01*
X216213Y147270D01*
X215483Y147572D01*
X214700Y147676D01*
X213917Y147572D01*
X213187Y147270D01*
X212560Y146789D01*
X212080Y146162D01*
X211875Y145669D01*
X209370D01*
Y147118D01*
X208020D01*
Y155908D01*
X207942Y156298D01*
X207721Y156629D01*
X204838Y159511D01*
Y164480D01*
X221162D01*
Y162638D01*
X230823D01*
Y164580D01*
X231121Y164779D01*
X233421Y167079D01*
X233642Y167410D01*
X233720Y167800D01*
Y200378D01*
X239149Y205807D01*
X240736D01*
X241047Y205869D01*
X241310Y206045D01*
X241485Y206308D01*
X241547Y206618D01*
Y213784D01*
X241485Y214094D01*
X241310Y214357D01*
X241047Y214533D01*
X240870Y214568D01*
Y219100D01*
X240792Y219490D01*
X240571Y219821D01*
X238980Y221412D01*
Y226547D01*
X241020D01*
Y232980D01*
X241791D01*
Y226547D01*
X243831D01*
Y214568D01*
X243654Y214533D01*
X243391Y214357D01*
X243215Y214094D01*
X243154Y213784D01*
Y206618D01*
X243215Y206308D01*
X243391Y206045D01*
X243654Y205869D01*
X243965Y205807D01*
X245012D01*
X245203Y205345D01*
X241379Y201521D01*
X241158Y201190D01*
X241080Y200800D01*
Y195938D01*
X240736Y195655D01*
X240350D01*
Y190752D01*
X239850D01*
Y190252D01*
X237644D01*
Y187169D01*
X237744Y186664D01*
X238031Y186235D01*
X238459Y185949D01*
X238831Y185875D01*
Y178199D01*
X238811Y178100D01*
Y168468D01*
X236764D01*
Y166000D01*
X239831D01*
Y165000D01*
X236764D01*
Y162531D01*
X238811D01*
Y159315D01*
X236862D01*
Y157464D01*
X231323D01*
Y159807D01*
X226492D01*
Y156445D01*
X225992D01*
Y155945D01*
X220661D01*
Y153083D01*
X224973D01*
Y144644D01*
X224149Y143821D01*
X223928Y143490D01*
X223850Y143100D01*
Y139943D01*
X223106Y139870D01*
X221409Y139355D01*
X219846Y138519D01*
X219267Y138045D01*
X218241Y139071D01*
X217910Y139292D01*
X217520Y139370D01*
X209870D01*
Y141319D01*
X207500D01*
Y138350D01*
Y135382D01*
X209870D01*
Y137331D01*
X217097D01*
X217825Y136603D01*
X217351Y136024D01*
X216515Y134461D01*
X216000Y132764D01*
X215876Y131500D01*
X224870D01*
X233864D01*
X233740Y132764D01*
X233225Y134461D01*
X232389Y136024D01*
X231265Y137395D01*
X229894Y138519D01*
X228331Y139355D01*
X226634Y139870D01*
X225890Y139943D01*
Y142678D01*
X226713Y143501D01*
X226934Y143832D01*
X227012Y144222D01*
Y153083D01*
X231323D01*
Y155425D01*
X236862D01*
Y153575D01*
X238811D01*
Y148370D01*
X236862D01*
Y146000D01*
X239831D01*
X242799D01*
Y148370D01*
X240850D01*
Y153575D01*
X242799D01*
Y155550D01*
X243079Y155666D01*
X243247Y155700D01*
X243661Y155397D01*
Y154075D01*
X245110D01*
Y147870D01*
X243661D01*
Y143130D01*
X245110D01*
Y139441D01*
X244464Y139377D01*
X242862Y138891D01*
X241385Y138102D01*
X240090Y137039D01*
X239028Y135745D01*
X238239Y134269D01*
X237753Y132666D01*
X237589Y131000D01*
X237753Y129334D01*
X238239Y127731D01*
X239028Y126255D01*
X240090Y124960D01*
X241385Y123898D01*
X242862Y123109D01*
X244464Y122623D01*
X246130Y122459D01*
X247796Y122623D01*
X249398Y123109D01*
X250062Y123463D01*
X252698Y120827D01*
X252698Y120827D01*
X262828Y110698D01*
X263654Y110145D01*
X264630Y109951D01*
X420000D01*
X420975Y110145D01*
X421802Y110698D01*
X456802Y145698D01*
X457355Y146525D01*
X457549Y147500D01*
Y250000D01*
X457355Y250975D01*
X456802Y251802D01*
X443302Y265302D01*
X442476Y265855D01*
X441500Y266049D01*
X437162D01*
X436679Y266679D01*
X435748Y267393D01*
X435029Y267690D01*
Y283000D01*
X434913Y283585D01*
X434581Y284081D01*
X432281Y286382D01*
X431784Y286714D01*
X431199Y286830D01*
X408902D01*
X408316Y286714D01*
X407820Y286382D01*
X406119Y284681D01*
X405788Y284185D01*
X405745Y283968D01*
X404634D01*
Y283029D01*
X387200D01*
X386615Y282913D01*
X386119Y282581D01*
X380852Y277314D01*
X380520Y276818D01*
X380431Y276370D01*
X379465D01*
Y271630D01*
X380404D01*
Y267870D01*
X379465D01*
Y263130D01*
X380404D01*
Y259469D01*
X379366D01*
Y258529D01*
X351000D01*
X350415Y258413D01*
X349919Y258081D01*
X349382Y257544D01*
X348663Y257842D01*
X347500Y257995D01*
X346337Y257842D01*
X345252Y257393D01*
X344321Y256679D01*
X343607Y255748D01*
X343158Y254663D01*
X343005Y253500D01*
X343158Y252337D01*
X343607Y251252D01*
X344321Y250322D01*
X345252Y249607D01*
X346337Y249158D01*
X347500Y249005D01*
X348663Y249158D01*
X349748Y249607D01*
X350678Y250322D01*
X351393Y251252D01*
X351842Y252337D01*
X351995Y253500D01*
X351842Y254663D01*
X351715Y254971D01*
X352049Y255471D01*
X379366D01*
Y254532D01*
X384080D01*
Y239969D01*
X383580Y239761D01*
X382021Y241321D01*
X381690Y241542D01*
X381300Y241620D01*
X366400D01*
X366010Y241542D01*
X365679Y241321D01*
X362279Y237921D01*
X362058Y237590D01*
X361980Y237200D01*
Y223618D01*
X360630D01*
Y222169D01*
X355968D01*
Y223716D01*
X351031D01*
Y221964D01*
X345870D01*
Y223413D01*
X341130D01*
Y221964D01*
X329600D01*
X329210Y221887D01*
X328879Y221666D01*
X326179Y218966D01*
X325958Y218635D01*
X325880Y218245D01*
Y217126D01*
X318905D01*
Y213764D01*
X328567D01*
Y217126D01*
X327920D01*
Y217823D01*
X330022Y219925D01*
X341130D01*
Y218476D01*
X345870D01*
Y219925D01*
X351031D01*
Y218583D01*
X355968D01*
Y220130D01*
X360630D01*
Y218681D01*
X365370D01*
Y223618D01*
X364020D01*
Y236778D01*
X366822Y239580D01*
X377054D01*
X377221Y239080D01*
X376814Y238551D01*
X376504Y237803D01*
X376399Y237000D01*
X376504Y236197D01*
X376724Y235666D01*
X373704Y232646D01*
X373483Y232315D01*
X373406Y231925D01*
Y218925D01*
X373483Y218535D01*
X373704Y218204D01*
X379331Y212578D01*
Y206469D01*
X377783D01*
Y205020D01*
X367842D01*
X367452Y204942D01*
X367121Y204721D01*
X361921Y199521D01*
X361700Y199190D01*
X361622Y198800D01*
Y193030D01*
X361564Y192947D01*
X361122Y192663D01*
X361087Y192670D01*
X360260D01*
X360224Y192663D01*
X359783Y192947D01*
X359724Y193030D01*
Y194300D01*
X359647Y194690D01*
X359426Y195021D01*
X354523Y199924D01*
X354728Y200417D01*
X354831Y201200D01*
X354728Y201983D01*
X354425Y202713D01*
X353944Y203340D01*
X353318Y203820D01*
X352588Y204123D01*
X351805Y204226D01*
X351728Y204216D01*
X351547Y204696D01*
X351671Y204779D01*
X359668Y212776D01*
X360130Y212585D01*
Y211882D01*
X362500D01*
Y214850D01*
Y217819D01*
X360130D01*
Y215836D01*
X359910Y215792D01*
X359579Y215571D01*
X356469Y212461D01*
X355968Y212668D01*
Y217417D01*
X351031D01*
Y215870D01*
X350850D01*
X350460Y215792D01*
X350129Y215571D01*
X347779Y213221D01*
X347558Y212890D01*
X347480Y212500D01*
Y211825D01*
X346987Y211620D01*
X346862Y211524D01*
X346690Y211532D01*
X346371Y211777D01*
X346370Y211787D01*
X346370Y212123D01*
Y214146D01*
X343500D01*
Y214646D01*
X343000D01*
Y217614D01*
X340630D01*
Y215665D01*
X340146D01*
X339755Y215588D01*
X339425Y215367D01*
X333278Y209220D01*
X328567D01*
Y212126D01*
X318905D01*
Y209844D01*
X318405Y209637D01*
X317820Y210222D01*
Y233900D01*
X317742Y234290D01*
X317521Y234621D01*
X308071Y244071D01*
X307740Y244292D01*
X307350Y244370D01*
X295468D01*
Y246417D01*
X293000D01*
Y243350D01*
X292000D01*
Y246417D01*
X289531D01*
Y245064D01*
X289070Y244872D01*
X287420Y246522D01*
Y282735D01*
X287881Y282926D01*
X290531Y280276D01*
Y278284D01*
X291980D01*
Y265922D01*
X291779Y265721D01*
X291558Y265390D01*
X291480Y265000D01*
Y252217D01*
X290032D01*
Y247083D01*
X294969D01*
Y252217D01*
X293520D01*
Y264578D01*
X293721Y264779D01*
X293942Y265110D01*
X294020Y265500D01*
Y278284D01*
X295468D01*
Y283417D01*
X290531D01*
X290531Y283417D01*
Y283417D01*
X290098Y283594D01*
X288890Y284802D01*
Y285206D01*
X288812Y285596D01*
X288591Y285927D01*
X288260Y286148D01*
X287870Y286226D01*
X287466D01*
X285870Y287821D01*
Y289618D01*
X284520D01*
Y306578D01*
X286934Y308993D01*
X287289Y308846D01*
X288000Y308752D01*
X288711Y308846D01*
X289374Y309120D01*
X289943Y309557D01*
X290380Y310126D01*
X290654Y310789D01*
X290748Y311500D01*
X290654Y312211D01*
X290421Y312776D01*
X290631Y313276D01*
X292500D01*
Y316500D01*
Y319724D01*
X289776D01*
Y317520D01*
X282800D01*
X282410Y317442D01*
X282079Y317221D01*
X278579Y313721D01*
X278358Y313390D01*
X278280Y313000D01*
Y296169D01*
X277780Y295961D01*
X274621Y299121D01*
X274290Y299342D01*
X273900Y299420D01*
X267870D01*
Y304118D01*
X266520D01*
Y309500D01*
X266442Y309890D01*
X266221Y310221D01*
X257453Y318989D01*
Y324453D01*
D02*
G37*
G36*
X217500Y288819D02*
X215130D01*
Y286870D01*
X212370D01*
Y288819D01*
X210000D01*
Y285850D01*
Y282882D01*
X212370D01*
Y284831D01*
X215130D01*
Y282882D01*
X216980D01*
Y248500D01*
X217058Y248110D01*
X217279Y247779D01*
X224342Y240716D01*
X224017Y239933D01*
X223960Y239500D01*
X227000D01*
Y242540D01*
X226567Y242483D01*
X225784Y242158D01*
X219020Y248922D01*
Y282882D01*
X220870D01*
Y285350D01*
X218000D01*
Y285850D01*
X217500D01*
Y288819D01*
D02*
G37*
G36*
X251961Y288449D02*
X251249Y288355D01*
X250587Y288081D01*
X250017Y287644D01*
X249581Y287075D01*
X249434Y286720D01*
X239598D01*
X239490Y286792D01*
X239100Y286870D01*
X228969D01*
Y288417D01*
X224031D01*
Y283283D01*
X228969D01*
Y284831D01*
X238752D01*
X238859Y284759D01*
X239250Y284681D01*
X249434D01*
X249581Y284327D01*
X249984Y283801D01*
X249670Y283425D01*
X249196Y283425D01*
X249196Y283425D01*
X249191Y283425D01*
X244236D01*
Y277976D01*
X249685D01*
Y279681D01*
X263032D01*
Y278134D01*
X267969D01*
Y283268D01*
X263032D01*
Y281720D01*
X249685D01*
Y282932D01*
X249685Y282936D01*
X249685Y282937D01*
X249685Y283410D01*
X250061Y283724D01*
X250587Y283321D01*
X251249Y283047D01*
X251961Y282953D01*
X252672Y283047D01*
X253335Y283321D01*
X253904Y283758D01*
X254340Y284327D01*
X254615Y284990D01*
X254709Y285701D01*
X254615Y286412D01*
X254340Y287075D01*
X253904Y287644D01*
X253335Y288081D01*
X252672Y288355D01*
X251961Y288449D01*
D02*
G37*
G36*
X209000Y288819D02*
X206630D01*
Y286870D01*
X203350D01*
X202959Y286792D01*
X202852Y286720D01*
X200000D01*
Y288669D01*
X197630D01*
Y285701D01*
Y282732D01*
X200000D01*
Y284681D01*
X203200D01*
X203590Y284759D01*
X203698Y284831D01*
X206630D01*
Y282882D01*
X209000D01*
Y285850D01*
Y288819D01*
D02*
G37*
G36*
X220870D02*
X218500D01*
Y286350D01*
X220870D01*
Y288819D01*
D02*
G37*
G36*
X196630Y288669D02*
X194260D01*
Y286201D01*
X196630D01*
Y288669D01*
D02*
G37*
G36*
X171716Y305469D02*
X166583D01*
Y300532D01*
X168130D01*
Y296350D01*
X168208Y295960D01*
X168429Y295629D01*
X168980Y295078D01*
Y293457D01*
X165543D01*
Y284543D01*
X174457D01*
Y293457D01*
X171020D01*
Y295500D01*
X170942Y295890D01*
X170721Y296221D01*
X170169Y296773D01*
Y300532D01*
X171716D01*
Y305469D01*
D02*
G37*
G36*
X293000Y309248D02*
X292289Y309154D01*
X291626Y308880D01*
X291057Y308443D01*
X290620Y307874D01*
X290346Y307211D01*
X290252Y306500D01*
X290346Y305789D01*
X290620Y305126D01*
X291057Y304557D01*
X291626Y304120D01*
X291980Y303974D01*
Y289717D01*
X290531D01*
Y284583D01*
X295468D01*
Y286130D01*
X299300D01*
X299690Y286208D01*
X300021Y286429D01*
X302073Y288480D01*
X305287D01*
Y282839D01*
X311012D01*
Y288480D01*
X319664D01*
X321123Y287021D01*
X320948Y286598D01*
X320849Y285850D01*
X320948Y285103D01*
X321236Y284407D01*
X321695Y283809D01*
X322292Y283350D01*
X322989Y283062D01*
X323736Y282963D01*
X324483Y283062D01*
X325179Y283350D01*
X325777Y283809D01*
X326236Y284407D01*
X326524Y285103D01*
X326623Y285850D01*
X326524Y286598D01*
X326236Y287294D01*
X325777Y287892D01*
X325179Y288351D01*
X324483Y288639D01*
X323736Y288737D01*
X322989Y288639D01*
X322565Y288463D01*
X320807Y290221D01*
X320477Y290442D01*
X320086Y290520D01*
X301650D01*
X301260Y290442D01*
X300929Y290221D01*
X298878Y288169D01*
X295468D01*
Y289717D01*
X294020D01*
Y303974D01*
X294374Y304120D01*
X294943Y304557D01*
X295380Y305126D01*
X295654Y305789D01*
X295748Y306500D01*
X295654Y307211D01*
X295380Y307874D01*
X294943Y308443D01*
X294374Y308880D01*
X293711Y309154D01*
X293000Y309248D01*
D02*
G37*
G36*
X196630Y285201D02*
X194260D01*
Y282732D01*
X196630D01*
Y285201D01*
D02*
G37*
G36*
X351957Y267957D02*
X343043D01*
Y259043D01*
X351957D01*
Y267957D01*
D02*
G37*
G36*
X326598Y256823D02*
X320874D01*
Y251098D01*
X326598D01*
Y256823D01*
D02*
G37*
G36*
X308150Y256698D02*
X307402Y256599D01*
X306706Y256311D01*
X306108Y255852D01*
X305649Y255254D01*
X305361Y254558D01*
X305263Y253811D01*
X305361Y253064D01*
X305649Y252367D01*
X306108Y251770D01*
X306706Y251311D01*
X307402Y251023D01*
X308150Y250924D01*
X308897Y251023D01*
X309593Y251311D01*
X310191Y251770D01*
X310650Y252367D01*
X310938Y253064D01*
X311036Y253811D01*
X310938Y254558D01*
X310650Y255254D01*
X310191Y255852D01*
X309593Y256311D01*
X308897Y256599D01*
X308150Y256698D01*
D02*
G37*
G36*
X150000Y293495D02*
X148837Y293342D01*
X147752Y292893D01*
X146821Y292179D01*
X146107Y291248D01*
X145658Y290163D01*
X145505Y289000D01*
X145658Y287837D01*
X146107Y286752D01*
X146821Y285822D01*
X147752Y285107D01*
X148471Y284810D01*
Y247433D01*
X144968Y243931D01*
X144468Y244139D01*
Y248468D01*
X139532D01*
Y243531D01*
X140445D01*
X140597Y243032D01*
X140220Y242780D01*
X139675Y241963D01*
X139483Y241000D01*
X139675Y240037D01*
X140220Y239220D01*
X140471Y239053D01*
Y192000D01*
X140587Y191415D01*
X140919Y190919D01*
X146456Y185382D01*
X146158Y184663D01*
X146005Y183500D01*
X146158Y182337D01*
X146607Y181252D01*
X147321Y180322D01*
X148252Y179607D01*
X149337Y179158D01*
X150500Y179005D01*
X151663Y179158D01*
X152748Y179607D01*
X153679Y180322D01*
X154393Y181252D01*
X154842Y182337D01*
X154995Y183500D01*
X154842Y184663D01*
X154393Y185748D01*
X153679Y186679D01*
X152748Y187393D01*
X151663Y187842D01*
X150500Y187995D01*
X149337Y187842D01*
X148618Y187545D01*
X143529Y192633D01*
Y239053D01*
X143780Y239220D01*
X143977Y239515D01*
X144200Y239471D01*
X144785Y239587D01*
X145281Y239919D01*
X151081Y245719D01*
X151413Y246215D01*
X151529Y246800D01*
Y284810D01*
X152248Y285107D01*
X153179Y285822D01*
X153893Y286752D01*
X154342Y287837D01*
X154495Y289000D01*
X154342Y290163D01*
X153893Y291248D01*
X153179Y292179D01*
X152248Y292893D01*
X151163Y293342D01*
X150000Y293495D01*
D02*
G37*
G36*
X379500Y250101D02*
X378697Y249996D01*
X377949Y249686D01*
X377307Y249193D01*
X376814Y248551D01*
X376504Y247803D01*
X376399Y247000D01*
X376504Y246197D01*
X376814Y245449D01*
X377307Y244807D01*
X377949Y244314D01*
X378697Y244004D01*
X379500Y243899D01*
X380303Y244004D01*
X381051Y244314D01*
X381693Y244807D01*
X382186Y245449D01*
X382496Y246197D01*
X382601Y247000D01*
X382496Y247803D01*
X382186Y248551D01*
X381693Y249193D01*
X381051Y249686D01*
X380303Y249996D01*
X379500Y250101D01*
D02*
G37*
G36*
X228000Y242540D02*
Y239500D01*
X231040D01*
X230983Y239933D01*
X230623Y240803D01*
X230050Y241550D01*
X229303Y242123D01*
X228433Y242483D01*
X228000Y242540D01*
D02*
G37*
G36*
X347500Y247995D02*
X346337Y247842D01*
X345252Y247393D01*
X344321Y246678D01*
X343607Y245748D01*
X343158Y244663D01*
X343005Y243500D01*
X343158Y242337D01*
X343607Y241252D01*
X344321Y240321D01*
X345252Y239607D01*
X346337Y239158D01*
X347500Y239005D01*
X348663Y239158D01*
X349748Y239607D01*
X350678Y240321D01*
X351393Y241252D01*
X351842Y242337D01*
X351995Y243500D01*
X351842Y244663D01*
X351393Y245748D01*
X350678Y246678D01*
X349748Y247393D01*
X348663Y247842D01*
X347500Y247995D01*
D02*
G37*
G36*
X207500Y254526D02*
X206717Y254423D01*
X205987Y254120D01*
X205360Y253640D01*
X204879Y253013D01*
X204577Y252283D01*
X204474Y251500D01*
X204577Y250717D01*
X204879Y249987D01*
X205360Y249360D01*
X205987Y248880D01*
X206480Y248675D01*
Y241906D01*
X205949Y241686D01*
X205307Y241193D01*
X204814Y240551D01*
X204504Y239803D01*
X204399Y239000D01*
X204504Y238197D01*
X204814Y237449D01*
X205307Y236807D01*
X205949Y236314D01*
X206697Y236004D01*
X207500Y235899D01*
X208303Y236004D01*
X209051Y236314D01*
X209693Y236807D01*
X210186Y237449D01*
X210496Y238197D01*
X210601Y239000D01*
X210496Y239803D01*
X210186Y240551D01*
X209693Y241193D01*
X209051Y241686D01*
X208520Y241906D01*
Y248675D01*
X209013Y248880D01*
X209640Y249360D01*
X210121Y249987D01*
X210423Y250717D01*
X210526Y251500D01*
X210423Y252283D01*
X210121Y253013D01*
X209640Y253640D01*
X209013Y254120D01*
X208283Y254423D01*
X207500Y254526D01*
D02*
G37*
G36*
X264370Y235150D02*
X262000D01*
Y232681D01*
X264370D01*
Y235150D01*
D02*
G37*
G36*
X365870Y217819D02*
X363500D01*
Y215350D01*
X365870D01*
Y217819D01*
D02*
G37*
G36*
X346370Y217614D02*
X344000D01*
Y215146D01*
X346370D01*
Y217614D01*
D02*
G37*
G36*
X174957Y220957D02*
X166043D01*
Y212043D01*
X174957D01*
Y215480D01*
X185661D01*
Y213933D01*
X190598D01*
Y219067D01*
X185661D01*
Y217520D01*
X174957D01*
Y220957D01*
D02*
G37*
G36*
X365870Y214350D02*
X363500D01*
Y211882D01*
X365870D01*
Y214350D01*
D02*
G37*
G36*
X187630Y213268D02*
X185161D01*
Y210701D01*
X187630D01*
Y213268D01*
D02*
G37*
G36*
Y209701D02*
X185161D01*
Y207134D01*
X187630D01*
Y209701D01*
D02*
G37*
G36*
X227500Y212101D02*
X226697Y211996D01*
X225949Y211686D01*
X225307Y211193D01*
X224814Y210551D01*
X224504Y209803D01*
X224399Y209000D01*
X224504Y208197D01*
X224814Y207449D01*
X225307Y206807D01*
X225949Y206314D01*
X226697Y206004D01*
X227500Y205899D01*
X228303Y206004D01*
X229051Y206314D01*
X229693Y206807D01*
X230186Y207449D01*
X230496Y208197D01*
X230601Y209000D01*
X230496Y209803D01*
X230186Y210551D01*
X229693Y211193D01*
X229051Y211686D01*
X228303Y211996D01*
X227500Y212101D01*
D02*
G37*
G36*
X150500Y220995D02*
X149337Y220842D01*
X148252Y220393D01*
X147321Y219678D01*
X146607Y218748D01*
X146158Y217663D01*
X146005Y216500D01*
X146158Y215337D01*
X146607Y214252D01*
X147321Y213321D01*
X148252Y212607D01*
X149337Y212158D01*
X149480Y212139D01*
Y193500D01*
X149558Y193110D01*
X149779Y192779D01*
X156695Y185863D01*
X156607Y185748D01*
X156158Y184663D01*
X156005Y183500D01*
X156158Y182337D01*
X156607Y181252D01*
X157322Y180322D01*
X158252Y179607D01*
X159337Y179158D01*
X159480Y179139D01*
Y155861D01*
X159337Y155842D01*
X158252Y155393D01*
X158137Y155305D01*
X155821Y157621D01*
X155490Y157842D01*
X155100Y157920D01*
X147200D01*
X146810Y157842D01*
X146479Y157621D01*
X144779Y155921D01*
X144558Y155590D01*
X144480Y155200D01*
Y143250D01*
X144558Y142860D01*
X144779Y142529D01*
X149679Y137629D01*
X150010Y137408D01*
X150400Y137331D01*
X185496D01*
Y134898D01*
X191614D01*
X191886Y134510D01*
Y134398D01*
X194945D01*
Y138350D01*
X195945D01*
Y134398D01*
X199004D01*
Y137331D01*
X204130D01*
Y135382D01*
X206500D01*
Y138350D01*
Y141319D01*
X204130D01*
Y139370D01*
X199004D01*
Y142303D01*
X196464D01*
Y146870D01*
X196387Y147260D01*
X196166Y147591D01*
X189150Y154607D01*
Y174134D01*
X191098D01*
Y176557D01*
X191821Y177279D01*
X192042Y177610D01*
X192120Y178000D01*
Y209181D01*
X203735D01*
X203894Y209000D01*
X204017Y208067D01*
X204377Y207197D01*
X204950Y206450D01*
X205697Y205877D01*
X206567Y205517D01*
X207000Y205460D01*
Y209000D01*
Y212540D01*
X206567Y212483D01*
X205697Y212123D01*
X204950Y211550D01*
X204698Y211220D01*
X191098D01*
Y213268D01*
X188630D01*
Y210201D01*
Y207134D01*
X190080D01*
Y186067D01*
X185661D01*
Y184520D01*
X174957D01*
Y187957D01*
X166043D01*
Y179043D01*
X174957D01*
Y182480D01*
X185661D01*
Y180933D01*
X190080D01*
Y180268D01*
X188630D01*
Y177201D01*
X188130D01*
Y176701D01*
X185161D01*
Y174134D01*
X187110D01*
Y154185D01*
X187188Y153795D01*
X187409Y153464D01*
X194425Y146448D01*
Y143440D01*
X194400Y143420D01*
X160022D01*
X154661Y148781D01*
X154830Y149000D01*
X155329Y150206D01*
X155434Y151000D01*
X151000D01*
Y146566D01*
X151794Y146671D01*
X153000Y147170D01*
X153219Y147339D01*
X158879Y141679D01*
X159210Y141458D01*
X159600Y141380D01*
X185496D01*
Y139370D01*
X150822D01*
X146520Y143673D01*
Y147812D01*
X147020Y147923D01*
X148000Y147170D01*
X149206Y146671D01*
X150000Y146566D01*
Y151500D01*
X150500D01*
Y152000D01*
X155434D01*
X155329Y152794D01*
X154830Y154000D01*
X154035Y155035D01*
X153585Y155380D01*
X153755Y155880D01*
X154678D01*
X156695Y153863D01*
X156607Y153748D01*
X156158Y152663D01*
X156005Y151500D01*
X156158Y150337D01*
X156607Y149252D01*
X157322Y148321D01*
X158252Y147607D01*
X159337Y147158D01*
X160500Y147005D01*
X161663Y147158D01*
X162748Y147607D01*
X163679Y148321D01*
X164393Y149252D01*
X164842Y150337D01*
X164995Y151500D01*
X164842Y152663D01*
X164393Y153748D01*
X163679Y154678D01*
X162748Y155393D01*
X161663Y155842D01*
X161520Y155861D01*
Y179139D01*
X161663Y179158D01*
X162748Y179607D01*
X163679Y180322D01*
X164393Y181252D01*
X164842Y182337D01*
X164995Y183500D01*
X164842Y184663D01*
X164393Y185748D01*
X163679Y186679D01*
X162748Y187393D01*
X161663Y187842D01*
X160500Y187995D01*
X159337Y187842D01*
X158252Y187393D01*
X158137Y187305D01*
X151520Y193922D01*
Y212139D01*
X151663Y212158D01*
X152748Y212607D01*
X153679Y213321D01*
X154393Y214252D01*
X154842Y215337D01*
X154995Y216500D01*
X154842Y217663D01*
X154393Y218748D01*
X153679Y219678D01*
X152748Y220393D01*
X151663Y220842D01*
X150500Y220995D01*
D02*
G37*
G36*
X288500Y202555D02*
X285047D01*
Y199496D01*
X288500D01*
Y202555D01*
D02*
G37*
G36*
X239350Y195655D02*
X238965D01*
X238459Y195555D01*
X238031Y195268D01*
X237744Y194840D01*
X237644Y194335D01*
Y191252D01*
X239350D01*
Y195655D01*
D02*
G37*
G36*
X187630Y180268D02*
X185161D01*
Y177701D01*
X187630D01*
Y180268D01*
D02*
G37*
G36*
X225492Y159807D02*
X220661D01*
Y156945D01*
X225492D01*
Y159807D01*
D02*
G37*
G36*
X174957Y155957D02*
X166043D01*
Y147043D01*
X174957D01*
Y155957D01*
D02*
G37*
G36*
X242799Y145000D02*
X240331D01*
Y142630D01*
X242799D01*
Y145000D01*
D02*
G37*
G36*
X239331D02*
X236862D01*
Y142630D01*
X239331D01*
Y145000D01*
D02*
G37*
G36*
X233864Y130500D02*
X225370D01*
Y122006D01*
X226634Y122130D01*
X228331Y122645D01*
X229894Y123481D01*
X231265Y124605D01*
X232389Y125976D01*
X233225Y127539D01*
X233740Y129236D01*
X233864Y130500D01*
D02*
G37*
G36*
X224370D02*
X215876D01*
X216000Y129236D01*
X216515Y127539D01*
X217351Y125976D01*
X218475Y124605D01*
X219846Y123481D01*
X221409Y122645D01*
X223106Y122130D01*
X224370Y122006D01*
Y130500D01*
D02*
G37*
G36*
X147500Y130539D02*
X145932Y130384D01*
X144424Y129927D01*
X143034Y129184D01*
X141816Y128184D01*
X140816Y126966D01*
X140073Y125576D01*
X139616Y124068D01*
X139461Y122500D01*
X139616Y120932D01*
X140073Y119424D01*
X140816Y118034D01*
X141816Y116816D01*
X143034Y115816D01*
X144424Y115073D01*
X145932Y114616D01*
X147500Y114461D01*
X149068Y114616D01*
X150576Y115073D01*
X151966Y115816D01*
X153184Y116816D01*
X154184Y118034D01*
X154927Y119424D01*
X155384Y120932D01*
X155539Y122500D01*
X155384Y124068D01*
X154927Y125576D01*
X154184Y126966D01*
X153184Y128184D01*
X151966Y129184D01*
X150576Y129927D01*
X149068Y130384D01*
X147500Y130539D01*
D02*
G37*
G36*
X448500Y131795D02*
X446687Y131616D01*
X444943Y131087D01*
X443336Y130228D01*
X441928Y129072D01*
X440772Y127664D01*
X439913Y126057D01*
X439384Y124313D01*
X439205Y122500D01*
X439384Y120687D01*
X439913Y118943D01*
X440772Y117336D01*
X441928Y115928D01*
X443336Y114772D01*
X444943Y113913D01*
X446687Y113384D01*
X448500Y113205D01*
X450313Y113384D01*
X452057Y113913D01*
X453664Y114772D01*
X455072Y115928D01*
X456228Y117336D01*
X457087Y118943D01*
X457616Y120687D01*
X457795Y122500D01*
X457616Y124313D01*
X457087Y126057D01*
X456228Y127664D01*
X455072Y129072D01*
X453664Y130228D01*
X452057Y131087D01*
X450313Y131616D01*
X448500Y131795D01*
D02*
G37*
%LPD*%
G36*
X289776Y314131D02*
X289276Y313920D01*
X288711Y314154D01*
X288000Y314248D01*
X287289Y314154D01*
X286626Y313880D01*
X286057Y313443D01*
X285620Y312874D01*
X285346Y312211D01*
X285252Y311500D01*
X285346Y310789D01*
X285492Y310434D01*
X282779Y307721D01*
X282558Y307390D01*
X282480Y307000D01*
Y289618D01*
X281130D01*
Y285194D01*
X280752Y285013D01*
X280320Y285300D01*
Y312578D01*
X283222Y315480D01*
X289776D01*
Y314131D01*
D02*
G37*
G36*
X276480Y294378D02*
Y289717D01*
X272031D01*
Y288169D01*
X270050D01*
X269659Y288092D01*
X269552Y288020D01*
X267969D01*
Y289567D01*
X266520D01*
Y292882D01*
X267870D01*
Y297380D01*
X273478D01*
X276480Y294378D01*
D02*
G37*
G36*
X431971Y282366D02*
Y267690D01*
X431252Y267393D01*
X430322Y266679D01*
X429607Y265748D01*
X429158Y264663D01*
X429005Y263500D01*
X429158Y262337D01*
X429607Y261252D01*
X430322Y260321D01*
X431252Y259607D01*
X432337Y259158D01*
X433500Y259005D01*
X434663Y259158D01*
X435748Y259607D01*
X436679Y260321D01*
X437162Y260951D01*
X440444D01*
X452451Y248944D01*
Y148556D01*
X426864Y122968D01*
X426390Y123202D01*
X426495Y124000D01*
X426342Y125163D01*
X425893Y126248D01*
X425805Y126363D01*
X440721Y141279D01*
X440942Y141610D01*
X441020Y142000D01*
Y167139D01*
X441163Y167158D01*
X442248Y167607D01*
X443179Y168322D01*
X443893Y169252D01*
X444342Y170337D01*
X444495Y171500D01*
X444342Y172663D01*
X443893Y173748D01*
X443805Y173863D01*
X449721Y179779D01*
X449942Y180110D01*
X450020Y180500D01*
Y224013D01*
X449942Y224403D01*
X449721Y224734D01*
X444234Y230221D01*
X443903Y230442D01*
X443513Y230520D01*
X432361D01*
X432342Y230663D01*
X431893Y231748D01*
X431179Y232679D01*
X430248Y233393D01*
X429163Y233842D01*
X428000Y233995D01*
X426837Y233842D01*
X425752Y233393D01*
X424822Y232679D01*
X424520Y232285D01*
X424020Y232455D01*
Y235043D01*
X432457D01*
Y243957D01*
X424020D01*
Y259073D01*
X424663Y259158D01*
X425748Y259607D01*
X426679Y260321D01*
X427393Y261252D01*
X427842Y262337D01*
X427995Y263500D01*
X427842Y264663D01*
X427393Y265748D01*
X426679Y266679D01*
X425748Y267393D01*
X424663Y267842D01*
X423500Y267995D01*
X422337Y267842D01*
X421252Y267393D01*
X420322Y266679D01*
X419607Y265748D01*
X419158Y264663D01*
X419005Y263500D01*
X419158Y262337D01*
X419607Y261252D01*
X420322Y260321D01*
X421252Y259607D01*
X421980Y259306D01*
Y227100D01*
X422058Y226710D01*
X422279Y226379D01*
X424879Y223779D01*
X425176Y223581D01*
X425214Y223529D01*
X425284Y223033D01*
X424822Y222678D01*
X424107Y221748D01*
X423658Y220663D01*
X423505Y219500D01*
X423658Y218337D01*
X424107Y217252D01*
X424822Y216321D01*
X425752Y215607D01*
X426837Y215158D01*
X428000Y215005D01*
X429163Y215158D01*
X430248Y215607D01*
X431179Y216321D01*
X431893Y217252D01*
X432342Y218337D01*
X432495Y219500D01*
X432342Y220663D01*
X431893Y221748D01*
X431179Y222678D01*
X430785Y222980D01*
X430955Y223480D01*
X435578D01*
X443532Y215527D01*
Y212032D01*
X444980D01*
Y188376D01*
X444957Y188360D01*
X444457Y188628D01*
Y195957D01*
X435543D01*
Y187043D01*
X443448D01*
X443640Y186581D01*
X442363Y185305D01*
X442248Y185393D01*
X441163Y185842D01*
X440000Y185995D01*
X438837Y185842D01*
X437752Y185393D01*
X436822Y184678D01*
X436107Y183748D01*
X435658Y182663D01*
X435505Y181500D01*
X435658Y180337D01*
X436107Y179252D01*
X436822Y178322D01*
X437752Y177607D01*
X438837Y177158D01*
X440000Y177005D01*
X441163Y177158D01*
X442248Y177607D01*
X443179Y178322D01*
X443893Y179252D01*
X444342Y180337D01*
X444495Y181500D01*
X444342Y182663D01*
X443893Y183748D01*
X443805Y183863D01*
X446721Y186779D01*
X446942Y187110D01*
X447020Y187500D01*
Y212032D01*
X447980D01*
Y180922D01*
X442363Y175305D01*
X442248Y175393D01*
X441163Y175842D01*
X440000Y175995D01*
X438837Y175842D01*
X437752Y175393D01*
X436822Y174679D01*
X436107Y173748D01*
X435658Y172663D01*
X435505Y171500D01*
X435658Y170337D01*
X436107Y169252D01*
X436822Y168322D01*
X437752Y167607D01*
X438837Y167158D01*
X438980Y167139D01*
Y142422D01*
X424363Y127805D01*
X424248Y127893D01*
X423163Y128342D01*
X422000Y128495D01*
X420837Y128342D01*
X419752Y127893D01*
X418821Y127179D01*
X418107Y126248D01*
X417658Y125163D01*
X417639Y125020D01*
X415933D01*
X414621Y126331D01*
X414290Y126552D01*
X413900Y126630D01*
X410953D01*
Y128669D01*
X411340Y128941D01*
X411453D01*
Y131480D01*
X414000D01*
X414390Y131558D01*
X414721Y131779D01*
X415922Y132980D01*
X417135D01*
X417171Y132706D01*
X417670Y131500D01*
X418465Y130465D01*
X419500Y129670D01*
X420706Y129171D01*
X421500Y129066D01*
Y134000D01*
Y138934D01*
X420706Y138829D01*
X419500Y138330D01*
X418465Y137535D01*
X417670Y136500D01*
X417171Y135294D01*
X417135Y135020D01*
X415500D01*
X415110Y134942D01*
X414779Y134721D01*
X413578Y133520D01*
X411453D01*
Y136059D01*
X408520D01*
Y148700D01*
X408442Y149090D01*
X408221Y149421D01*
X405520Y152122D01*
Y168532D01*
X409969D01*
Y172027D01*
X411221Y173279D01*
X411442Y173610D01*
X411520Y174000D01*
Y240400D01*
X411442Y240790D01*
X411221Y241121D01*
X409021Y243321D01*
X408690Y243542D01*
X408300Y243620D01*
X392213D01*
X391822Y243542D01*
X391492Y243321D01*
X390379Y242208D01*
X390158Y241878D01*
X390080Y241487D01*
Y233422D01*
X383557Y226899D01*
X383088Y227137D01*
X382983Y227933D01*
X382658Y228716D01*
X385821Y231879D01*
X386042Y232210D01*
X386120Y232600D01*
Y244744D01*
X386620Y244914D01*
X386660Y244860D01*
X387287Y244379D01*
X388017Y244077D01*
X388800Y243974D01*
X389583Y244077D01*
X390313Y244379D01*
X390940Y244860D01*
X391421Y245487D01*
X391723Y246217D01*
X391826Y247000D01*
X391723Y247783D01*
X391421Y248513D01*
X390940Y249140D01*
X390313Y249621D01*
X389820Y249825D01*
Y254532D01*
X390799D01*
Y259469D01*
X386120D01*
Y262630D01*
X387732D01*
Y265500D01*
X388232D01*
Y266000D01*
X391201D01*
Y268370D01*
X389252D01*
Y271130D01*
X391201D01*
Y273500D01*
X388232D01*
Y274000D01*
X387732D01*
Y276870D01*
X385440D01*
X385211Y277348D01*
X387833Y279971D01*
X404634D01*
Y279031D01*
X409768D01*
Y283771D01*
X410933D01*
Y279031D01*
X412480D01*
Y267957D01*
X409043D01*
Y259043D01*
X412480D01*
Y257422D01*
X405334Y250276D01*
X404803Y250496D01*
X404000Y250601D01*
X403197Y250496D01*
X402449Y250186D01*
X401807Y249693D01*
X401314Y249051D01*
X401004Y248303D01*
X400899Y247500D01*
X401004Y246697D01*
X401314Y245949D01*
X401807Y245307D01*
X402449Y244814D01*
X403197Y244504D01*
X404000Y244399D01*
X404803Y244504D01*
X405551Y244814D01*
X406193Y245307D01*
X406686Y245949D01*
X406996Y246697D01*
X407101Y247500D01*
X406996Y248303D01*
X406776Y248834D01*
X414221Y256279D01*
X414442Y256610D01*
X414520Y257000D01*
Y259043D01*
X417957D01*
Y267957D01*
X414520D01*
Y279031D01*
X416067D01*
Y283771D01*
X430566D01*
X431971Y282366D01*
D02*
G37*
G36*
X404500Y223960D02*
X404933Y224017D01*
X405716Y224342D01*
X406480Y223578D01*
Y206469D01*
X405169D01*
Y213650D01*
X405092Y214041D01*
X404871Y214371D01*
X401020Y218222D01*
Y224773D01*
X401520Y224897D01*
X402197Y224377D01*
X403067Y224017D01*
X403500Y223960D01*
Y227500D01*
X404500D01*
Y223960D01*
D02*
G37*
G36*
X447980Y223591D02*
Y221747D01*
X447480Y221480D01*
X446963Y221825D01*
X446000Y222017D01*
X445037Y221825D01*
X444220Y221280D01*
X443675Y220463D01*
X443483Y219500D01*
X443566Y219083D01*
X443105Y218837D01*
X436721Y225221D01*
X436390Y225442D01*
X436000Y225520D01*
X430955D01*
X430785Y226020D01*
X431179Y226322D01*
X431893Y227252D01*
X432342Y228337D01*
X432361Y228480D01*
X443091D01*
X447980Y223591D01*
D02*
G37*
G36*
X285380Y246100D02*
X285458Y245710D01*
X285679Y245379D01*
X288429Y242629D01*
X288759Y242408D01*
X289150Y242331D01*
X289531D01*
Y240283D01*
X291480D01*
Y234000D01*
X291558Y233610D01*
X291779Y233279D01*
X307432Y217626D01*
X307225Y217126D01*
X298433D01*
Y216679D01*
X297933Y216553D01*
X293620Y220867D01*
Y224000D01*
X293542Y224390D01*
X293321Y224721D01*
X292990Y224942D01*
X292600Y225020D01*
X283075D01*
Y250723D01*
X284221Y251869D01*
X284442Y252199D01*
X284520Y252590D01*
Y278382D01*
X285380D01*
Y246100D01*
D02*
G37*
G36*
X296879Y214724D02*
X297210Y214503D01*
X297600Y214425D01*
X298433D01*
Y213764D01*
X302244D01*
Y212126D01*
X298433D01*
Y208764D01*
X307580D01*
Y207126D01*
X298433D01*
Y207126D01*
X298170Y207017D01*
X294521Y210666D01*
X294190Y210887D01*
X293800Y210964D01*
X292453D01*
Y213004D01*
X290020D01*
Y214900D01*
X289964Y215177D01*
Y216547D01*
X292004D01*
Y218946D01*
X292466Y219137D01*
X296879Y214724D01*
D02*
G37*
G36*
X376879Y222679D02*
X377210Y222458D01*
X377600Y222380D01*
X382480D01*
Y206469D01*
X381370D01*
Y213000D01*
X381292Y213390D01*
X381071Y213721D01*
X375445Y219348D01*
Y223460D01*
X375907Y223651D01*
X376879Y222679D01*
D02*
G37*
G36*
X396831Y236582D02*
Y206968D01*
X394783D01*
Y205020D01*
X389717D01*
Y206968D01*
X387150D01*
Y204000D01*
X386150D01*
Y206968D01*
X384520D01*
Y222380D01*
X387200D01*
X387590Y222458D01*
X387921Y222679D01*
X391821Y226579D01*
X392042Y226910D01*
X392120Y227300D01*
Y232578D01*
X396331Y236789D01*
X396831Y236582D01*
D02*
G37*
G36*
X315780Y233478D02*
Y209800D01*
X315858Y209410D01*
X316079Y209079D01*
X317679Y207479D01*
X318010Y207258D01*
X318400Y207180D01*
X318428D01*
X318905Y207126D01*
Y203920D01*
X317222D01*
X312820Y208322D01*
Y224600D01*
X312742Y224990D01*
X312521Y225321D01*
X309169Y228673D01*
Y230532D01*
X310717D01*
Y235469D01*
X305583D01*
Y230532D01*
X307130D01*
Y228250D01*
X307208Y227860D01*
X307429Y227529D01*
X310780Y224178D01*
Y221492D01*
X310318Y221301D01*
X302870Y228749D01*
Y230532D01*
X304417D01*
Y235469D01*
X299284D01*
Y230532D01*
X300831D01*
Y228327D01*
X300908Y227937D01*
X301129Y227606D01*
X308797Y219938D01*
X308783Y219867D01*
X308240Y219702D01*
X293520Y234422D01*
Y240283D01*
X295468D01*
Y242331D01*
X306927D01*
X315780Y233478D01*
D02*
G37*
G36*
X403130Y213228D02*
Y206469D01*
X401583D01*
Y201532D01*
X403130D01*
Y189372D01*
X399429Y185670D01*
X399040Y185989D01*
X399089Y186062D01*
X399138Y186311D01*
Y192020D01*
X399089Y192269D01*
X398948Y192480D01*
X398737Y192621D01*
X398488Y192670D01*
X397661D01*
X397413Y192621D01*
X397202Y192480D01*
X396980D01*
X396769Y192621D01*
X396520Y192670D01*
X395693D01*
X395444Y192621D01*
X395122Y192516D01*
X394800Y192621D01*
X394551Y192670D01*
X393724D01*
X393476Y192621D01*
X393154Y192516D01*
X392831Y192621D01*
X392583Y192670D01*
X391756D01*
X391507Y192621D01*
X391296Y192480D01*
X391074D01*
X390863Y192621D01*
X390614Y192670D01*
X389787D01*
X389539Y192621D01*
X389216Y192516D01*
X388894Y192621D01*
X388646Y192670D01*
X387819D01*
X387570Y192621D01*
X387359Y192480D01*
X387137D01*
X386926Y192621D01*
X386677Y192670D01*
X385850D01*
X385602Y192621D01*
X385279Y192516D01*
X384957Y192621D01*
X384709Y192670D01*
X383882D01*
X383633Y192621D01*
X383422Y192480D01*
X383200D01*
X382989Y192621D01*
X382740Y192670D01*
X381913D01*
X381665Y192621D01*
X381343Y192516D01*
X381020Y192621D01*
X380772Y192670D01*
X379945D01*
X379696Y192621D01*
X379485Y192480D01*
X379263D01*
X379052Y192621D01*
X378803Y192670D01*
X377976D01*
X377728Y192621D01*
X377406Y192516D01*
X377083Y192621D01*
X376835Y192670D01*
X376008D01*
X375759Y192621D01*
X375548Y192480D01*
X375326D01*
X375115Y192621D01*
X374866Y192670D01*
X374719D01*
X374512Y193170D01*
X375372Y194030D01*
X382899D01*
X383289Y194108D01*
X383620Y194329D01*
X387371Y198079D01*
X387592Y198410D01*
X387669Y198800D01*
Y201031D01*
X389717D01*
Y202980D01*
X394783D01*
Y201031D01*
X397350D01*
Y204000D01*
X397850D01*
Y204500D01*
X400917D01*
Y206968D01*
X398870D01*
Y216797D01*
X399015Y216897D01*
X399370Y216988D01*
X403130Y213228D01*
D02*
G37*
G36*
X385630Y199222D02*
X382477Y196069D01*
X375218D01*
X375011Y196569D01*
X377522Y199080D01*
X382400D01*
X382790Y199158D01*
X383121Y199379D01*
X384221Y200479D01*
X384442Y200810D01*
X384486Y201031D01*
X385630D01*
Y199222D01*
D02*
G37*
G36*
X377783Y201532D02*
X377571Y201120D01*
X377100D01*
X376710Y201042D01*
X376379Y200821D01*
X369795Y194237D01*
X369574Y193906D01*
X369496Y193516D01*
Y193030D01*
X369438Y192947D01*
X368996Y192663D01*
X368961Y192670D01*
X368134D01*
X368098Y192663D01*
X367657Y192947D01*
X367598Y193030D01*
Y195853D01*
X368043Y196191D01*
X368317Y196077D01*
X369100Y195974D01*
X369883Y196077D01*
X370613Y196379D01*
X371240Y196860D01*
X371721Y197487D01*
X372023Y198217D01*
X372126Y199000D01*
X372023Y199783D01*
X371721Y200513D01*
X371240Y201140D01*
X370613Y201621D01*
X369883Y201923D01*
X369100Y202026D01*
X368317Y201923D01*
X367587Y201621D01*
X367308Y202024D01*
X368264Y202980D01*
X377783D01*
Y201532D01*
D02*
G37*
G36*
X340630Y212981D02*
Y211677D01*
X342480D01*
Y207500D01*
X342558Y207110D01*
X342779Y206779D01*
X344779Y204779D01*
X345110Y204558D01*
X345500Y204480D01*
X350578D01*
X350678Y203980D01*
X350292Y203820D01*
X349665Y203340D01*
X349184Y202713D01*
X348882Y201983D01*
X348779Y201200D01*
X348882Y200417D01*
X349184Y199687D01*
X349665Y199060D01*
X350292Y198580D01*
X351022Y198277D01*
X351805Y198174D01*
X352588Y198277D01*
X353081Y198482D01*
X357537Y194026D01*
X357499Y193750D01*
X356970Y193572D01*
X354021Y196521D01*
X353690Y196742D01*
X353300Y196820D01*
X348726D01*
X342122Y203424D01*
X342327Y203917D01*
X342430Y204700D01*
X342327Y205483D01*
X342024Y206213D01*
X341543Y206840D01*
X340917Y207320D01*
X340187Y207623D01*
X339404Y207726D01*
X338621Y207623D01*
X337891Y207320D01*
X337264Y206840D01*
X336783Y206213D01*
X336481Y205483D01*
X336378Y204700D01*
X336481Y203917D01*
X336783Y203187D01*
X337264Y202560D01*
X337891Y202080D01*
X338621Y201777D01*
X339404Y201674D01*
X340187Y201777D01*
X340680Y201982D01*
X347583Y195079D01*
X347914Y194858D01*
X348304Y194780D01*
X352878D01*
X354540Y193118D01*
X354477Y192966D01*
X354293Y192658D01*
X354106Y192621D01*
X353783Y192516D01*
X353461Y192621D01*
X353213Y192670D01*
X352386D01*
X352137Y192621D01*
X351926Y192480D01*
X351704D01*
X351493Y192621D01*
X351244Y192670D01*
X350417D01*
X350169Y192621D01*
X349847Y192516D01*
X349524Y192621D01*
X349276Y192670D01*
X348449D01*
X348200Y192621D01*
X347989Y192480D01*
X347767D01*
X347556Y192621D01*
X347307Y192670D01*
X346480D01*
X346232Y192621D01*
X345910Y192516D01*
X345587Y192621D01*
X345339Y192670D01*
X344512D01*
X344263Y192621D01*
X344052Y192480D01*
X343911Y192269D01*
X343862Y192020D01*
Y186311D01*
X343906Y186089D01*
Y183622D01*
X336279Y175996D01*
X336058Y175665D01*
X335980Y175275D01*
Y152717D01*
X331532D01*
Y151169D01*
X325898D01*
Y154026D01*
X325849Y154271D01*
X325711Y154478D01*
X325503Y154617D01*
X325258Y154666D01*
X324490D01*
X324425Y154653D01*
X324002Y154912D01*
X323925Y155005D01*
Y156178D01*
X326321Y158573D01*
X326542Y158904D01*
X326620Y159294D01*
Y183700D01*
X326542Y184090D01*
X326321Y184421D01*
X323210Y187531D01*
X323217Y188031D01*
X323217D01*
Y192968D01*
X321669D01*
Y193600D01*
X321592Y193990D01*
X321371Y194321D01*
X321040Y194542D01*
X320650Y194620D01*
X308015D01*
X307823Y195081D01*
X310821Y198079D01*
X311042Y198410D01*
X311120Y198800D01*
Y206485D01*
X311581Y206677D01*
X316079Y202179D01*
X316410Y201958D01*
X316800Y201880D01*
X318905D01*
Y198764D01*
X328567D01*
Y201284D01*
X329067Y201491D01*
X332682Y197877D01*
X332477Y197383D01*
X332374Y196600D01*
X332477Y195817D01*
X332780Y195087D01*
X333260Y194460D01*
X333887Y193980D01*
X334617Y193677D01*
X335400Y193574D01*
X336183Y193677D01*
X336913Y193980D01*
X337540Y194460D01*
X338020Y195087D01*
X338323Y195817D01*
X338426Y196600D01*
X338323Y197383D01*
X338020Y198113D01*
X337540Y198740D01*
X336913Y199221D01*
X336183Y199523D01*
X335400Y199626D01*
X334617Y199523D01*
X334123Y199318D01*
X329821Y203621D01*
X329490Y203842D01*
X329100Y203920D01*
X328567D01*
Y207126D01*
X329044Y207180D01*
X333700D01*
X334090Y207258D01*
X334421Y207479D01*
X340130Y213188D01*
X340630Y212981D01*
D02*
G37*
G36*
X409480Y239917D02*
Y188787D01*
X409032Y188566D01*
X408997Y188593D01*
X408525Y188788D01*
X408620Y233798D01*
X408619Y233799D01*
X408620Y233800D01*
Y239875D01*
X409052Y240267D01*
X409102Y240272D01*
X409480Y239917D01*
D02*
G37*
G36*
X318083Y188031D02*
X321099D01*
Y187182D01*
X321176Y186792D01*
X321397Y186461D01*
X324580Y183278D01*
Y176064D01*
X324118Y175873D01*
X321862Y178130D01*
X322069Y178630D01*
X323118D01*
Y183370D01*
X318181D01*
Y178630D01*
X319630D01*
Y177900D01*
X319708Y177510D01*
X319929Y177179D01*
X322738Y174370D01*
X322531Y173870D01*
X318181D01*
Y172432D01*
X317879Y172294D01*
X317738Y172261D01*
X317319Y172556D01*
Y174370D01*
X315370D01*
Y178130D01*
X317319D01*
Y180500D01*
X314350D01*
X311382D01*
Y178130D01*
X313331D01*
Y174370D01*
X311382D01*
Y172000D01*
X314350D01*
Y171000D01*
X311382D01*
Y168630D01*
X313331D01*
Y167222D01*
X310628Y164520D01*
X298618D01*
Y166370D01*
X296150D01*
Y163500D01*
Y160630D01*
X298618D01*
Y162480D01*
X311050D01*
X311441Y162558D01*
X311771Y162779D01*
X315071Y166079D01*
X315292Y166410D01*
X315370Y166800D01*
Y168630D01*
X315980D01*
Y154957D01*
X315803Y154839D01*
X315554Y154466D01*
X315466Y154026D01*
Y153000D01*
X317000D01*
Y152000D01*
X315466D01*
Y151052D01*
X315456Y151020D01*
X312366D01*
X312057Y151765D01*
X311496Y152496D01*
X310765Y153057D01*
X309914Y153410D01*
X309500Y153464D01*
Y150000D01*
Y146536D01*
X309914Y146590D01*
X310765Y146943D01*
X311496Y147504D01*
X312057Y148235D01*
X312366Y148980D01*
X314512D01*
Y144283D01*
X327362D01*
Y149130D01*
X331532D01*
Y147583D01*
X335980D01*
Y146417D01*
X331532D01*
Y143842D01*
X330929Y143240D01*
X325862D01*
X325675Y143203D01*
X325503Y143318D01*
X325258Y143367D01*
X324490D01*
X324245Y143318D01*
X324037Y143179D01*
X323742Y143179D01*
X323534Y143318D01*
X323289Y143367D01*
X322522D01*
X322277Y143318D01*
X322069Y143179D01*
X321774Y143179D01*
X321566Y143318D01*
X321321Y143367D01*
X320553D01*
X320308Y143318D01*
X320100Y143179D01*
X319805Y143179D01*
X319598Y143318D01*
X319353Y143367D01*
X318585D01*
X318340Y143318D01*
X318132Y143179D01*
X317837Y143179D01*
X317629Y143318D01*
X317384Y143367D01*
X316616D01*
X316371Y143318D01*
X316163Y143179D01*
X316025Y142971D01*
X315976Y142726D01*
Y139675D01*
X315980Y139653D01*
Y135572D01*
X314629Y134221D01*
X314408Y133890D01*
X314331Y133500D01*
Y129870D01*
X312882D01*
Y128520D01*
X304947D01*
X304557Y128442D01*
X304226Y128221D01*
X304076Y128071D01*
X273320D01*
Y138882D01*
X306142D01*
Y147207D01*
X306642Y147398D01*
X307235Y146943D01*
X308086Y146590D01*
X308500Y146536D01*
Y150000D01*
Y153464D01*
X308086Y153410D01*
X307235Y153057D01*
X306504Y152496D01*
X305943Y151765D01*
X305590Y150914D01*
X305485Y150118D01*
X290370D01*
Y161130D01*
X291819D01*
Y165870D01*
X290370D01*
Y183028D01*
X296822Y189480D01*
X311784D01*
Y188031D01*
X316917D01*
Y192580D01*
X318083D01*
Y188031D01*
D02*
G37*
G36*
X360011Y185710D02*
X360260Y185661D01*
X361087D01*
X361335Y185710D01*
X361658Y185815D01*
X361980Y185710D01*
X362228Y185661D01*
X363055D01*
X363366Y185213D01*
Y178665D01*
X363444Y178275D01*
X363665Y177944D01*
X366329Y175279D01*
X366660Y175058D01*
X367050Y174980D01*
X391024D01*
X391030Y174975D01*
X391251Y174514D01*
X391252Y174499D01*
X390880Y174013D01*
X390577Y173283D01*
X390474Y172500D01*
X390577Y171717D01*
X390880Y170987D01*
X391360Y170360D01*
X391987Y169879D01*
X392717Y169577D01*
X393169Y169518D01*
Y163665D01*
X393081Y163567D01*
X392669Y163322D01*
X392583Y163339D01*
X391756D01*
X391507Y163290D01*
X391296Y163149D01*
X391074D01*
X390863Y163290D01*
X390614Y163339D01*
X389787D01*
X389539Y163290D01*
X389216Y163185D01*
X388894Y163290D01*
X388646Y163339D01*
X387819D01*
X387570Y163290D01*
X387359Y163149D01*
X387137D01*
X386926Y163290D01*
X386677Y163339D01*
X385850D01*
X385602Y163290D01*
X385279Y163185D01*
X384957Y163290D01*
X384709Y163339D01*
X383882D01*
X383633Y163290D01*
X383422Y163149D01*
X383200D01*
X382989Y163290D01*
X382740Y163339D01*
X381913D01*
X381665Y163290D01*
X381343Y163185D01*
X381020Y163290D01*
X380772Y163339D01*
X379945D01*
X379696Y163290D01*
X379485Y163149D01*
X379263D01*
X379052Y163290D01*
X378803Y163339D01*
X377976D01*
X377728Y163290D01*
X377406Y163185D01*
X377083Y163290D01*
X376835Y163339D01*
X376008D01*
X375759Y163290D01*
X375548Y163149D01*
X375326D01*
X375115Y163290D01*
X374866Y163339D01*
X374039D01*
X373791Y163290D01*
X373468Y163185D01*
X373146Y163290D01*
X372898Y163339D01*
X372071D01*
X371822Y163290D01*
X371611Y163149D01*
X371389D01*
X371178Y163290D01*
X370929Y163339D01*
X370102D01*
X369854Y163290D01*
X369531Y163185D01*
X369209Y163290D01*
X368961Y163339D01*
X368134D01*
X367885Y163290D01*
X367674Y163149D01*
X367452D01*
X367241Y163290D01*
X366992Y163339D01*
X366165D01*
X365917Y163290D01*
X365595Y163185D01*
X365272Y163290D01*
X365024Y163339D01*
X364197D01*
X363948Y163290D01*
X363737Y163149D01*
X363515D01*
X363304Y163290D01*
X363055Y163339D01*
X362228D01*
X361980Y163290D01*
X361658Y163185D01*
X361335Y163290D01*
X361087Y163339D01*
X360260D01*
X360011Y163290D01*
X359800Y163149D01*
X359578D01*
X359367Y163290D01*
X359118Y163339D01*
X358291D01*
X358256Y163332D01*
X357814Y163616D01*
X357756Y163699D01*
Y170164D01*
X357678Y170554D01*
X357457Y170885D01*
X357118Y171223D01*
X357323Y171717D01*
X357426Y172500D01*
X357323Y173283D01*
X357020Y174013D01*
X356540Y174640D01*
X355913Y175120D01*
X355183Y175423D01*
X354400Y175526D01*
X353617Y175423D01*
X352887Y175120D01*
X352260Y174640D01*
X351780Y174013D01*
X351477Y173283D01*
X351374Y172500D01*
X351477Y171717D01*
X351780Y170987D01*
X352260Y170360D01*
X352887Y169879D01*
X353617Y169577D01*
X354400Y169474D01*
X355183Y169577D01*
X355217Y169591D01*
X355717Y169257D01*
Y163700D01*
X355658Y163616D01*
X355217Y163332D01*
X355181Y163339D01*
X354354D01*
X354106Y163290D01*
X353783Y163185D01*
X353461Y163290D01*
X353213Y163339D01*
X352386D01*
X352137Y163290D01*
X351926Y163149D01*
X351704D01*
X351493Y163290D01*
X351244Y163339D01*
X350417D01*
X350169Y163290D01*
X349847Y163185D01*
X349524Y163290D01*
X349276Y163339D01*
X348449D01*
X348200Y163290D01*
X347989Y163149D01*
X347767D01*
X347556Y163290D01*
X347307Y163339D01*
X346480D01*
X346232Y163290D01*
X345910Y163185D01*
X345587Y163290D01*
X345339Y163339D01*
X344512D01*
X344320Y163497D01*
Y170978D01*
X347615Y174273D01*
X347836Y174604D01*
X347913Y174994D01*
Y185300D01*
X347972Y185384D01*
X348413Y185668D01*
X348449Y185661D01*
X349276D01*
X349524Y185710D01*
X349847Y185815D01*
X350169Y185710D01*
X350417Y185661D01*
X351244D01*
X351493Y185710D01*
X351704Y185851D01*
X351926D01*
X352137Y185710D01*
X352386Y185661D01*
X353213D01*
X353461Y185710D01*
X353783Y185815D01*
X354106Y185710D01*
X354354Y185661D01*
X355181D01*
X355430Y185710D01*
X355641Y185851D01*
X355863D01*
X356074Y185710D01*
X356323Y185661D01*
X357150D01*
X357398Y185710D01*
X357720Y185815D01*
X358043Y185710D01*
X358291Y185661D01*
X359118D01*
X359367Y185710D01*
X359578Y185851D01*
X359800D01*
X360011Y185710D01*
D02*
G37*
G36*
X372984Y185168D02*
X373341Y185239D01*
X373718Y185491D01*
X373856Y185697D01*
X374039Y185661D01*
X374866D01*
X375115Y185710D01*
X375326Y185851D01*
X375548D01*
X375759Y185710D01*
X376008Y185661D01*
X376835D01*
X377083Y185710D01*
X377406Y185815D01*
X377728Y185710D01*
X377976Y185661D01*
X378803D01*
X379052Y185710D01*
X379263Y185851D01*
X379485D01*
X379696Y185710D01*
X379945Y185661D01*
X380772D01*
X381020Y185710D01*
X381343Y185815D01*
X381665Y185710D01*
X381913Y185661D01*
X382740D01*
X382989Y185710D01*
X383200Y185851D01*
X383422D01*
X383633Y185710D01*
X383882Y185661D01*
X384709D01*
X384957Y185710D01*
X385279Y185815D01*
X385602Y185710D01*
X385850Y185661D01*
X386677D01*
X386926Y185710D01*
X387137Y185851D01*
X387359D01*
X387570Y185710D01*
X387819Y185661D01*
X388646D01*
X388894Y185710D01*
X389216Y185815D01*
X389539Y185710D01*
X389787Y185661D01*
X390614D01*
X390863Y185710D01*
X391074Y185851D01*
X391296D01*
X391507Y185710D01*
X391756Y185661D01*
X392583D01*
X392831Y185710D01*
X393154Y185815D01*
X393476Y185710D01*
X393724Y185661D01*
X394551D01*
X394800Y185710D01*
X395122Y185815D01*
X395444Y185710D01*
X395693Y185661D01*
X396520D01*
X396769Y185710D01*
X396980Y185851D01*
X397202D01*
X397413Y185710D01*
X397661Y185661D01*
X398488D01*
X398737Y185710D01*
X398810Y185759D01*
X399129Y185371D01*
X390778Y177020D01*
X370973D01*
X370762Y177520D01*
X371121Y177987D01*
X371423Y178717D01*
X371526Y179500D01*
X371423Y180283D01*
X371121Y181013D01*
X370640Y181640D01*
X370013Y182121D01*
X369520Y182325D01*
Y185332D01*
X369605Y185429D01*
X370020Y185677D01*
X370102Y185661D01*
X370929D01*
X371113Y185697D01*
X371251Y185491D01*
X371627Y185239D01*
X371984Y185168D01*
Y189165D01*
X372984D01*
Y185168D01*
D02*
G37*
G36*
X311784Y191520D02*
X296400D01*
X296010Y191442D01*
X295679Y191221D01*
X288629Y184171D01*
X288408Y183841D01*
X288331Y183450D01*
Y165870D01*
X286882D01*
Y164520D01*
X276622D01*
X274921Y166221D01*
X274590Y166442D01*
X274200Y166520D01*
X263618D01*
Y167870D01*
X258681D01*
Y163130D01*
X263618D01*
Y164480D01*
X273778D01*
X275479Y162779D01*
X275810Y162558D01*
X276200Y162480D01*
X286882D01*
Y161130D01*
X288331D01*
Y150118D01*
X272858D01*
Y145452D01*
X272810Y145442D01*
X272479Y145221D01*
X271579Y144321D01*
X271358Y143990D01*
X271280Y143600D01*
Y116300D01*
X271358Y115910D01*
X271579Y115579D01*
X271624Y115549D01*
X271472Y115049D01*
X265686D01*
X256302Y124432D01*
X256302Y124432D01*
X253666Y127068D01*
X254021Y127731D01*
X254507Y129334D01*
X254671Y131000D01*
X254507Y132666D01*
X254021Y134269D01*
X253232Y135745D01*
X252169Y137039D01*
X250875Y138102D01*
X249398Y138891D01*
X247796Y139377D01*
X247150Y139441D01*
Y143130D01*
X248599D01*
Y147870D01*
X247150D01*
Y154075D01*
X248599D01*
Y158815D01*
X243920D01*
Y163031D01*
X248697D01*
Y164480D01*
X252382D01*
Y163130D01*
X257319D01*
Y167870D01*
X255870D01*
Y172378D01*
X276073Y192580D01*
X311784D01*
Y191520D01*
D02*
G37*
G36*
X391507Y156379D02*
X391756Y156330D01*
X392583D01*
X392831Y156379D01*
X393154Y156484D01*
X393476Y156379D01*
X393724Y156330D01*
X393981D01*
X394188Y155830D01*
X384779Y146421D01*
X384558Y146090D01*
X384480Y145700D01*
Y134788D01*
X383720Y134280D01*
X383278Y133617D01*
X383237Y133603D01*
X382764D01*
X382722Y133617D01*
X382280Y134280D01*
X381463Y134825D01*
X380500Y135017D01*
X379537Y134825D01*
X378720Y134280D01*
X378278Y133617D01*
X378237Y133603D01*
X377764D01*
X377722Y133617D01*
X377280Y134280D01*
X376463Y134825D01*
X375500Y135017D01*
X374537Y134825D01*
X373720Y134280D01*
X373175Y133463D01*
X372983Y132500D01*
X373175Y131537D01*
X373720Y130720D01*
X374537Y130175D01*
X375500Y129983D01*
X376463Y130175D01*
X377280Y130720D01*
X377722Y131383D01*
X377764Y131397D01*
X378237D01*
X378278Y131383D01*
X378720Y130720D01*
X379537Y130175D01*
X380500Y129983D01*
X381463Y130175D01*
X382280Y130720D01*
X382722Y131383D01*
X382764Y131397D01*
X383237D01*
X383278Y131383D01*
X383720Y130720D01*
X384537Y130175D01*
X385500Y129983D01*
X386463Y130175D01*
X387032Y130554D01*
X387531Y130287D01*
Y129532D01*
X390000D01*
Y132500D01*
Y135468D01*
X387531D01*
Y134713D01*
X387032Y134446D01*
X386520Y134788D01*
Y145278D01*
X396555Y155313D01*
X397055Y155106D01*
Y139400D01*
X396562Y139195D01*
X395935Y138714D01*
X395454Y138088D01*
X395152Y137358D01*
X395049Y136575D01*
X395152Y135792D01*
X395454Y135062D01*
X395935Y134435D01*
X396477Y134020D01*
X396424Y133681D01*
X396343Y133520D01*
X393468D01*
Y135468D01*
X391000D01*
Y132500D01*
Y129532D01*
X393468D01*
Y131480D01*
X403547D01*
Y128941D01*
X403660D01*
X404047Y128669D01*
Y122551D01*
X410953D01*
Y124591D01*
X413478D01*
X414789Y123279D01*
X415120Y123058D01*
X415510Y122980D01*
X417639D01*
X417658Y122837D01*
X418107Y121752D01*
X418821Y120821D01*
X419752Y120107D01*
X420837Y119658D01*
X422000Y119505D01*
X422798Y119610D01*
X423032Y119136D01*
X418944Y115049D01*
X331128D01*
X330976Y115549D01*
X331021Y115579D01*
X346103Y130661D01*
X347000Y130483D01*
X347963Y130675D01*
X348780Y131220D01*
X349222Y131883D01*
X349264Y131897D01*
X349736D01*
X349778Y131883D01*
X350220Y131220D01*
X351037Y130675D01*
X352000Y130483D01*
X352963Y130675D01*
X353780Y131220D01*
X354222Y131883D01*
X354263Y131897D01*
X354736D01*
X354778Y131883D01*
X355220Y131220D01*
X356037Y130675D01*
X357000Y130483D01*
X357963Y130675D01*
X358531Y131054D01*
X359032Y130787D01*
Y130032D01*
X361500D01*
Y133000D01*
Y135968D01*
X359032D01*
Y135213D01*
X358531Y134945D01*
X357963Y135325D01*
X357000Y135517D01*
X356037Y135325D01*
X355220Y134780D01*
X354778Y134117D01*
X354736Y134103D01*
X354263D01*
X354222Y134117D01*
X353780Y134780D01*
X352963Y135325D01*
X352000Y135517D01*
X351103Y135338D01*
X344320Y142122D01*
Y156172D01*
X344512Y156330D01*
X345339D01*
X345587Y156379D01*
X345910Y156484D01*
X346232Y156379D01*
X346480Y156330D01*
X347307D01*
X347556Y156379D01*
X347767Y156520D01*
X347989D01*
X348200Y156379D01*
X348449Y156330D01*
X349276D01*
X349524Y156379D01*
X349847Y156484D01*
X350169Y156379D01*
X350417Y156330D01*
X351244D01*
X351493Y156379D01*
X351704Y156520D01*
X351926D01*
X352137Y156379D01*
X352386Y156330D01*
X353213D01*
X353461Y156379D01*
X353783Y156484D01*
X354106Y156379D01*
X354354Y156330D01*
X355181D01*
X355430Y156379D01*
X355641Y156520D01*
X355863D01*
X356074Y156379D01*
X356323Y156330D01*
X357150D01*
X357185Y156337D01*
X357627Y156053D01*
X357685Y155970D01*
Y153295D01*
X357763Y152905D01*
X357984Y152574D01*
X364282Y146276D01*
X364077Y145783D01*
X363974Y145000D01*
X364077Y144217D01*
X364380Y143487D01*
X364860Y142860D01*
X365487Y142379D01*
X366217Y142077D01*
X367000Y141974D01*
X367783Y142077D01*
X368513Y142379D01*
X369140Y142860D01*
X369620Y143487D01*
X369923Y144217D01*
X370026Y145000D01*
X369923Y145783D01*
X369620Y146513D01*
X369140Y147140D01*
X368513Y147620D01*
X367783Y147923D01*
X367000Y148026D01*
X366217Y147923D01*
X365723Y147718D01*
X359724Y153718D01*
Y155970D01*
X359783Y156053D01*
X360224Y156337D01*
X360260Y156330D01*
X361087D01*
X361335Y156379D01*
X361658Y156484D01*
X361980Y156379D01*
X362228Y156330D01*
X363055D01*
X363304Y156379D01*
X363515Y156520D01*
X363737D01*
X363948Y156379D01*
X364197Y156330D01*
X365024D01*
X365272Y156379D01*
X365595Y156484D01*
X365917Y156379D01*
X366165Y156330D01*
X366992D01*
X367241Y156379D01*
X367452Y156520D01*
X367674D01*
X367885Y156379D01*
X368134Y156330D01*
X368961D01*
X369209Y156379D01*
X369531Y156484D01*
X369854Y156379D01*
X370102Y156330D01*
X370929D01*
X371178Y156379D01*
X371389Y156520D01*
X371611D01*
X371822Y156379D01*
X372071Y156330D01*
X372898D01*
X373146Y156379D01*
X373468Y156484D01*
X373791Y156379D01*
X374039Y156330D01*
X374866D01*
X375115Y156379D01*
X375326Y156520D01*
X375548D01*
X375759Y156379D01*
X376008Y156330D01*
X376835D01*
X377083Y156379D01*
X377406Y156484D01*
X377728Y156379D01*
X377976Y156330D01*
X378803D01*
X379052Y156379D01*
X379263Y156520D01*
X379485D01*
X379696Y156379D01*
X379945Y156330D01*
X380772D01*
X381020Y156379D01*
X381343Y156484D01*
X381665Y156379D01*
X381913Y156330D01*
X382740D01*
X382989Y156379D01*
X383200Y156520D01*
X383422D01*
X383633Y156379D01*
X383882Y156330D01*
X384709D01*
X384957Y156379D01*
X385279Y156484D01*
X385602Y156379D01*
X385850Y156330D01*
X386677D01*
X386926Y156379D01*
X387137Y156520D01*
X387359D01*
X387570Y156379D01*
X387819Y156330D01*
X388646D01*
X388894Y156379D01*
X389216Y156484D01*
X389539Y156379D01*
X389787Y156330D01*
X390614D01*
X390863Y156379D01*
X391074Y156520D01*
X391296D01*
X391507Y156379D01*
D02*
G37*
G36*
X405108Y187759D02*
X404907Y187497D01*
X404608Y186775D01*
X404572Y186500D01*
X407500D01*
Y185500D01*
X404572D01*
X404608Y185225D01*
X404806Y184748D01*
X403779Y183721D01*
X403558Y183390D01*
X403480Y183000D01*
Y151700D01*
X403558Y151310D01*
X403779Y150979D01*
X406480Y148278D01*
Y136059D01*
X403547D01*
Y133520D01*
X399806D01*
X399725Y133681D01*
X399673Y134020D01*
X400214Y134435D01*
X400695Y135062D01*
X400998Y135792D01*
X401101Y136575D01*
X400998Y137358D01*
X400695Y138088D01*
X400214Y138714D01*
X399588Y139195D01*
X399094Y139400D01*
Y156759D01*
X399138Y156980D01*
Y162689D01*
X399089Y162938D01*
X398948Y163149D01*
X398737Y163290D01*
X398488Y163339D01*
X397661D01*
X397413Y163290D01*
X397202Y163149D01*
X396980D01*
X396769Y163290D01*
X396520Y163339D01*
X395693D01*
X395233Y163671D01*
X395209Y163714D01*
Y170030D01*
X395640Y170360D01*
X396121Y170987D01*
X396423Y171717D01*
X396526Y172500D01*
X396423Y173283D01*
X396121Y174013D01*
X395640Y174640D01*
X395013Y175120D01*
X394283Y175423D01*
X393500Y175526D01*
X392780Y175431D01*
X392662Y175555D01*
X392527Y175885D01*
X404731Y188089D01*
X405108Y187759D01*
D02*
G37*
G36*
X345874Y182000D02*
Y175416D01*
X342579Y172121D01*
X342358Y171790D01*
X342280Y171400D01*
Y141700D01*
X342358Y141310D01*
X342579Y140979D01*
X347663Y135895D01*
X347417Y135434D01*
X347000Y135517D01*
X346037Y135325D01*
X345220Y134780D01*
X344675Y133963D01*
X344483Y133000D01*
X344661Y132103D01*
X329878Y117320D01*
X306142D01*
Y126480D01*
X312882D01*
Y125130D01*
X317819D01*
Y129870D01*
X316370D01*
Y133078D01*
X317721Y134429D01*
X317942Y134759D01*
X318020Y135150D01*
Y138696D01*
X318096Y138789D01*
X318520Y139048D01*
X318585Y139035D01*
X319353D01*
X319417Y139048D01*
X319841Y138789D01*
X319917Y138696D01*
Y134613D01*
X319995Y134222D01*
X320216Y133892D01*
X320630Y133478D01*
Y129870D01*
X319181D01*
Y125130D01*
X324118D01*
Y129870D01*
X322669D01*
Y133900D01*
X322592Y134290D01*
X322371Y134621D01*
X321957Y135035D01*
Y138324D01*
X322457Y138592D01*
X322515Y138552D01*
X322906Y138475D01*
X323342Y138338D01*
X323393Y138101D01*
X323463Y137751D01*
X323794Y137255D01*
X323908Y137141D01*
X323677Y136583D01*
X323574Y135800D01*
X323677Y135017D01*
X323979Y134287D01*
X324460Y133660D01*
X325087Y133179D01*
X325817Y132877D01*
X326600Y132774D01*
X327383Y132877D01*
X328113Y133179D01*
X328740Y133660D01*
X329221Y134287D01*
X329523Y135017D01*
X329626Y135800D01*
X329523Y136583D01*
X329221Y137313D01*
X328740Y137940D01*
X328113Y138420D01*
X327531Y138662D01*
X327630Y139162D01*
X331774D01*
X332555Y139317D01*
X333216Y139759D01*
X334741Y141284D01*
X335980D01*
Y137225D01*
X335487Y137021D01*
X334860Y136540D01*
X334380Y135913D01*
X334077Y135183D01*
X333974Y134400D01*
X334077Y133617D01*
X334380Y132887D01*
X334860Y132260D01*
X335487Y131780D01*
X336217Y131477D01*
X337000Y131374D01*
X337783Y131477D01*
X338513Y131780D01*
X339140Y132260D01*
X339620Y132887D01*
X339923Y133617D01*
X340026Y134400D01*
X339923Y135183D01*
X339620Y135913D01*
X339140Y136540D01*
X338513Y137021D01*
X338020Y137225D01*
Y174853D01*
X345374Y182207D01*
X345874Y182000D01*
D02*
G37*
%LPC*%
G36*
X391201Y276870D02*
X388732D01*
Y274500D01*
X391201D01*
Y276870D01*
D02*
G37*
G36*
Y265000D02*
X388732D01*
Y262630D01*
X391201D01*
Y265000D01*
D02*
G37*
G36*
X426457Y148457D02*
X417543D01*
Y139543D01*
X426457D01*
Y148457D01*
D02*
G37*
G36*
X422500Y138934D02*
Y134500D01*
X426934D01*
X426829Y135294D01*
X426330Y136500D01*
X425535Y137535D01*
X424500Y138330D01*
X423294Y138829D01*
X422500Y138934D01*
D02*
G37*
G36*
X426934Y133500D02*
X422500D01*
Y129066D01*
X423294Y129171D01*
X424500Y129670D01*
X425535Y130465D01*
X426330Y131500D01*
X426829Y132706D01*
X426934Y133500D01*
D02*
G37*
G36*
X400917Y203500D02*
X398350D01*
Y201031D01*
X400917D01*
Y203500D01*
D02*
G37*
G36*
X317319Y183870D02*
X314850D01*
Y181500D01*
X317319D01*
Y183870D01*
D02*
G37*
G36*
X313850D02*
X311382D01*
Y181500D01*
X313850D01*
Y183870D01*
D02*
G37*
G36*
X295150Y166370D02*
X292681D01*
Y164000D01*
X295150D01*
Y166370D01*
D02*
G37*
G36*
Y163000D02*
X292681D01*
Y160630D01*
X295150D01*
Y163000D01*
D02*
G37*
G36*
X364968Y135968D02*
X362500D01*
Y133500D01*
X364968D01*
Y135968D01*
D02*
G37*
G36*
Y132500D02*
X362500D01*
Y130032D01*
X364968D01*
Y132500D01*
D02*
G37*
%LPD*%
D17*
X224000Y234000D02*
X248500D01*
X167000Y239500D02*
X168000D01*
X165000Y237500D02*
X167000Y239500D01*
X168000Y259500D02*
X179850Y247650D01*
X197000D01*
X160500Y216500D02*
Y242000D01*
X168000Y249500D01*
X254500Y122630D02*
Y122630D01*
X272300Y116300D02*
X330300D01*
X272300D02*
Y143600D01*
X330300Y116300D02*
X347000Y133000D01*
X423000Y227100D02*
Y262000D01*
X423500D02*
Y263500D01*
X423000Y262000D02*
X423500D01*
X423000Y227100D02*
X425600Y224500D01*
X436000D02*
X446000Y214500D01*
X425600Y224500D02*
X436000D01*
X391100Y227300D02*
Y233000D01*
Y241487D01*
X410500Y174000D02*
Y240400D01*
X408300Y242600D02*
X410500Y240400D01*
X391100Y241487D02*
X392213Y242600D01*
X387200Y223400D02*
X391100Y227300D01*
X383500Y223400D02*
X387200D01*
X392213Y242600D02*
X400700D01*
X407500Y171000D02*
X410500Y174000D01*
X322906Y139494D02*
Y141201D01*
X398075Y136575D02*
Y159835D01*
X390500Y132500D02*
X407500D01*
X358705Y153295D02*
X367000Y145000D01*
X358705Y153295D02*
Y159835D01*
X348500Y212500D02*
X350850Y214850D01*
X348500Y209000D02*
Y212500D01*
X343500Y207500D02*
Y214646D01*
X345500Y205500D02*
X350950D01*
X343500Y207500D02*
X345500Y205500D01*
X350950D02*
X360300Y214850D01*
X363000D01*
X393500Y172500D02*
X394189Y171811D01*
Y159886D02*
Y171811D01*
X394138Y159835D02*
X394189Y159886D01*
X364386Y178665D02*
X367050Y176000D01*
X364386Y178665D02*
Y186673D01*
X368500Y179500D02*
Y189118D01*
X368547Y189165D01*
X391200Y176000D02*
X404150Y188950D01*
X367050Y176000D02*
X391200D01*
X391100Y233000D02*
X400700Y242600D01*
X383500Y225400D02*
X391100Y233000D01*
X377600Y223400D02*
X383500D01*
Y225400D01*
Y201200D02*
Y223400D01*
X326900Y215445D02*
Y218245D01*
X289350Y144500D02*
Y163500D01*
X273200Y144500D02*
X289350D01*
X279300Y282200D02*
Y313000D01*
Y262400D02*
Y282200D01*
X190099Y210201D02*
X205425D01*
Y209000D02*
Y210201D01*
X195445Y141355D02*
Y146870D01*
X322118Y187182D02*
Y190500D01*
X364386Y186673D02*
X364610D01*
X388800Y247000D02*
Y257000D01*
X254850Y195100D02*
X306400D01*
X282055Y224000D02*
Y251145D01*
X249850Y205950D02*
Y210201D01*
Y202900D02*
Y205950D01*
X289350Y163500D02*
Y183450D01*
X296400Y190500D01*
X314350D01*
X289350Y144500D02*
X289500D01*
X162850Y291850D02*
Y303000D01*
X160000Y289000D02*
X162850Y291850D01*
X372484Y189165D02*
Y192584D01*
X374950Y195050D01*
X382899D01*
X386650Y198800D01*
Y204000D01*
X397850D02*
Y236925D01*
X402000Y241075D01*
X406400D01*
X407600Y239875D01*
Y233800D02*
Y239875D01*
X407500Y186000D02*
X407600Y233800D01*
X218000Y248500D02*
Y285850D01*
Y248500D02*
X227500Y239000D01*
X282800Y316500D02*
X293000D01*
X279300Y313000D02*
X282800Y316500D01*
X261500Y235650D02*
Y244600D01*
X289150Y243350D02*
X292500D01*
X286400Y246100D02*
X289150Y243350D01*
X286400Y246100D02*
Y283819D01*
X280919D02*
X286400D01*
X279300Y282200D02*
X280919Y283819D01*
X261500Y244600D02*
X279300Y262400D01*
X340146Y214646D02*
X343500D01*
X333700Y208200D02*
X340146Y214646D01*
X318400Y208200D02*
X333700D01*
X316800Y209800D02*
X318400Y208200D01*
X316800Y209800D02*
Y233900D01*
X307350Y243350D02*
X316800Y233900D01*
X292500Y243350D02*
X307350D01*
X309000Y150000D02*
X316200D01*
X317000Y152500D01*
X249850Y190752D02*
Y195600D01*
X253050Y198800D01*
X266231D01*
X267831Y200400D01*
Y203311D01*
X283500Y287150D02*
Y307000D01*
X288000Y311500D01*
X293000Y287150D02*
X299300D01*
X301650Y289500D01*
X320086D01*
X323736Y285850D01*
X339404Y204700D02*
X348304Y195800D01*
X353300D01*
X356736Y192364D01*
Y189165D02*
Y192364D01*
X329100Y202900D02*
X335400Y196600D01*
X316800Y202900D02*
X329100D01*
X311800Y207900D02*
X316800Y202900D01*
X311800Y207900D02*
Y224600D01*
X308150Y228250D02*
X311800Y224600D01*
X308150Y228250D02*
Y233000D01*
X274500Y280850D02*
X277500D01*
Y294800D01*
X273900Y298400D02*
X277500Y294800D01*
X224000Y298400D02*
X273900D01*
X219500Y302900D02*
X224000Y298400D01*
X219500Y302900D02*
Y310500D01*
X413500Y257000D02*
Y263500D01*
X404000Y247500D02*
X413500Y257000D01*
X440000Y171500D02*
X449000Y180500D01*
Y224013D01*
X443513Y229500D02*
X449000Y224013D01*
X428000Y229500D02*
X443513D01*
X207500Y239000D02*
Y251500D01*
X150500Y193500D02*
Y216500D01*
Y193500D02*
X160500Y183500D01*
X366579Y196479D02*
X369100Y199000D01*
X366579Y189165D02*
Y196479D01*
X350850Y214850D02*
X353500D01*
X244850Y197900D02*
X249850Y202900D01*
X244850Y190752D02*
Y197900D01*
X301850Y228327D02*
Y233000D01*
Y228327D02*
X310100Y220077D01*
Y198800D02*
Y220077D01*
X306400Y195100D02*
X310100Y198800D01*
X254850Y190752D02*
Y195100D01*
X303264Y200445D02*
X308600D01*
Y217900D01*
X292500Y234000D02*
X308600Y217900D01*
X292500Y234000D02*
Y243350D01*
X344925Y183200D02*
Y189165D01*
X337000Y175275D02*
X344925Y183200D01*
X337000Y134400D02*
Y175275D01*
X364610Y186673D02*
Y189165D01*
X404150Y188950D02*
Y204000D01*
X282055Y220000D02*
Y224000D01*
X292600D01*
Y220445D02*
Y224000D01*
Y220445D02*
X297600Y215445D01*
X303264D01*
X155100Y156900D02*
X160500Y151500D01*
X147200Y156900D02*
X155100D01*
X145500Y155200D02*
X147200Y156900D01*
X145500Y143250D02*
Y155200D01*
Y143250D02*
X150400Y138350D01*
X188555D01*
X388232Y257000D02*
X388800D01*
X346894Y174994D02*
Y189165D01*
X343300Y171400D02*
X346894Y174994D01*
X343300Y141700D02*
Y171400D01*
Y141700D02*
X352000Y133000D01*
X207000Y144650D02*
X214700D01*
X354400Y172500D02*
X356736Y170164D01*
Y159835D02*
Y170164D01*
X320650Y190500D02*
X322118D01*
Y187182D02*
X325600Y183700D01*
Y159294D02*
Y183700D01*
X322906Y156600D02*
X325600Y159294D01*
X322906Y152500D02*
Y156600D01*
X351805Y201200D02*
X358705Y194300D01*
Y189165D02*
Y194300D01*
X400700Y242600D02*
X408300D01*
X382400Y200100D02*
X383500Y201200D01*
X377100Y200100D02*
X382400D01*
X370516Y193516D02*
X377100Y200100D01*
X370516Y189165D02*
Y193516D01*
X386200Y265500D02*
X388232D01*
X385100Y264400D02*
X386200Y265500D01*
X385100Y232600D02*
Y264400D01*
X379500Y227000D02*
X385100Y232600D01*
X380350Y204000D02*
Y213000D01*
X374425Y218925D02*
X380350Y213000D01*
X374425Y218925D02*
Y231925D01*
X379500Y237000D01*
X404150Y204000D02*
Y213650D01*
X400000Y217800D02*
X404150Y213650D01*
X400000Y217800D02*
Y233500D01*
X404000Y237500D01*
X363000Y221150D02*
Y237200D01*
X366400Y240600D01*
X381300D01*
X383100Y238800D01*
Y234200D02*
Y238800D01*
X379475Y230575D02*
X383100Y234200D01*
X377600Y230575D02*
X379475D01*
X375925Y228900D02*
X377600Y230575D01*
X375925Y225075D02*
Y228900D01*
Y225075D02*
X377600Y223400D01*
X367842Y204000D02*
X380350D01*
X362642Y198800D02*
X367842Y204000D01*
X362642Y189165D02*
Y198800D01*
X320650Y190500D02*
Y193600D01*
X275650D02*
X320650D01*
X254850Y172800D02*
X275650Y193600D01*
X254850Y165500D02*
Y172800D01*
X407500Y186000D02*
Y224000D01*
X404000Y227500D02*
X407500Y224000D01*
X253500Y221550D02*
Y229350D01*
X249850Y217900D02*
X253500Y221550D01*
X249850Y210201D02*
Y217900D01*
X230850Y235650D02*
X253500D01*
X227500Y239000D02*
X230850Y235650D01*
X224000Y174555D02*
X225992D01*
X248500Y219900D02*
Y234000D01*
X247600Y219000D02*
X248500Y219900D01*
X247600Y206300D02*
Y219000D01*
X242100Y200800D02*
X247600Y206300D01*
X242100Y172700D02*
Y200800D01*
Y172700D02*
X242900Y171900D01*
Y157545D02*
Y171900D01*
Y157545D02*
X244000Y156445D01*
X246130D01*
X407201Y281500D02*
Y283600D01*
X272300Y143600D02*
X273200Y144500D01*
X323736Y215445D02*
X326900D01*
Y218245D02*
X329600Y220945D01*
X343500D01*
X267850Y221000D02*
X270500D01*
Y218400D02*
Y221000D01*
Y218400D02*
X271800Y217100D01*
Y203311D02*
Y217100D01*
X267831Y203311D02*
X271800D01*
X160000Y257700D02*
Y289000D01*
Y257700D02*
X163200Y254500D01*
X170400D01*
X172957Y251943D01*
Y244457D02*
Y251943D01*
X168000Y239500D02*
X172957Y244457D01*
X150500Y151500D02*
X159600Y142400D01*
X194400D01*
X195445Y141355D01*
Y138350D02*
Y141355D01*
X188130Y154185D02*
Y177201D01*
Y154185D02*
X195445Y146870D01*
X265500Y301650D02*
Y309500D01*
X254000Y321000D02*
X265500Y309500D01*
X205425Y209000D02*
X207500D01*
X295650Y163500D02*
X311050D01*
X314350Y166800D01*
Y171500D01*
X207000Y138350D02*
X217520D01*
X224870Y131000D01*
X396106Y156306D02*
Y159835D01*
X385500Y145700D02*
X396106Y156306D01*
X385500Y132500D02*
Y145700D01*
X440000Y142000D02*
Y171500D01*
X422000Y124000D02*
X440000Y142000D01*
X261500Y222950D02*
Y229350D01*
X254850Y216300D02*
X261500Y222950D01*
X254850Y210201D02*
Y216300D01*
X207000Y144650D02*
Y155908D01*
X200008Y162900D02*
X207000Y155908D01*
X200008Y162900D02*
Y165500D01*
X239850Y207950D02*
Y210201D01*
X232700Y200800D02*
X239850Y207950D01*
X232700Y167800D02*
Y200800D01*
X230400Y165500D02*
X232700Y167800D01*
X225992Y165500D02*
X230400D01*
X381933Y274000D02*
Y276233D01*
X324874Y150150D02*
Y152500D01*
Y150150D02*
X334000D01*
X291399Y280850D02*
X293000D01*
X287870Y284379D02*
X291399Y280850D01*
X287870Y284379D02*
Y285206D01*
X287043D02*
X287870D01*
X285100Y287150D02*
X287043Y285206D01*
X283500Y287150D02*
X285100D01*
X283500Y252590D02*
Y280850D01*
X282055Y251145D02*
X283500Y252590D01*
X440000Y181500D02*
X446000Y187500D01*
Y214500D01*
X142000Y241000D02*
X144200D01*
X317000Y152500D02*
Y171500D01*
X314350D02*
X317000D01*
X197000Y241350D02*
X197032Y241383D01*
X407500Y132500D02*
Y148700D01*
X404500Y151700D02*
X407500Y148700D01*
X404500Y151700D02*
Y183000D01*
X407500Y186000D01*
X188130Y210201D02*
X190099D01*
X191100Y209200D01*
Y178000D02*
Y209200D01*
X190301Y177201D02*
X191100Y178000D01*
X188130Y177201D02*
X190301D01*
X266101Y210201D02*
X267831D01*
X260500Y204600D02*
X266101Y210201D01*
X251200Y204600D02*
X260500D01*
X249850Y205950D02*
X251200Y204600D01*
X343500Y220945D02*
X353295D01*
X353500Y221150D01*
X363000D01*
X237961Y220990D02*
Y230000D01*
Y220990D02*
X239850Y219100D01*
Y210201D02*
Y219100D01*
X200008Y165500D02*
X225992D01*
X276200Y163500D02*
X289350D01*
X274200Y165500D02*
X276200Y163500D01*
X261150Y165500D02*
X274200D01*
X246130Y131000D02*
Y145500D01*
Y156445D01*
X203200Y292000D02*
X203350Y292150D01*
X196976Y291846D02*
X197130Y292000D01*
X415500Y134000D02*
X422000D01*
X414000Y132500D02*
X415500Y134000D01*
X407500Y132500D02*
X414000D01*
X388232Y265500D02*
Y274000D01*
X386650Y204000D02*
X397850D01*
X203350Y285850D02*
X209500D01*
X203200Y285701D02*
X203350Y285850D01*
X197130Y285701D02*
X203200D01*
X209500Y285850D02*
X218000D01*
X253500Y235650D02*
X261500D01*
X297410Y200445D02*
X303264D01*
X294800Y203055D02*
X297410Y200445D01*
X289000Y203055D02*
X294800D01*
X314350Y171500D02*
Y181000D01*
X225992Y156445D02*
X239831D01*
Y145500D02*
Y156445D01*
X239850Y178120D02*
Y190752D01*
X239831Y178100D02*
X239850Y178120D01*
X239831Y165500D02*
Y178100D01*
Y156445D02*
Y165500D01*
X225992Y144222D02*
Y156445D01*
X224870Y143100D02*
X225992Y144222D01*
X224870Y131000D02*
Y143100D01*
X195445Y138350D02*
X207000D01*
X320937Y134613D02*
Y141201D01*
Y134613D02*
X321650Y133900D01*
Y127500D02*
Y133900D01*
X304947Y127500D02*
X315350D01*
X299900Y122453D02*
X304947Y127500D01*
X289500Y122453D02*
X299900D01*
X317000Y135150D02*
Y141201D01*
X315350Y133500D02*
X317000Y135150D01*
X315350Y127500D02*
Y133500D01*
X317000Y141201D02*
X318969D01*
X320937Y152500D02*
Y160337D01*
X324100Y163500D01*
Y174450D01*
X320650Y177900D02*
X324100Y174450D01*
X320650Y177900D02*
Y181000D01*
Y162781D02*
Y171500D01*
X318969Y161100D02*
X320650Y162781D01*
X318969Y152500D02*
Y161100D01*
X274150Y217650D02*
Y221000D01*
Y217650D02*
X278500Y213300D01*
Y210150D02*
Y213300D01*
X298300Y205445D02*
X303264D01*
X293800Y209945D02*
X298300Y205445D01*
X289000Y209945D02*
X293800D01*
X286794D02*
X289000D01*
X280700Y203850D02*
X286794Y209945D01*
X278500Y203850D02*
X280700D01*
X288945Y214955D02*
Y220000D01*
Y214955D02*
X289000Y214900D01*
Y209945D02*
Y214900D01*
X270050Y287150D02*
X274500D01*
X269900Y287000D02*
X270050Y287150D01*
X265500Y287000D02*
X269900D01*
X265500D02*
Y295350D01*
X293000Y265500D02*
Y280850D01*
X292500Y265000D02*
X293000Y265500D01*
X292500Y249650D02*
Y265000D01*
X246130Y165500D02*
X254850D01*
X239250Y285701D02*
X251961D01*
X239100Y285850D02*
X239250Y285701D01*
X226500Y285850D02*
X239100D01*
X293000Y287150D02*
Y306500D01*
X170500Y183500D02*
X188130D01*
X170500Y216500D02*
X188130D01*
X246961Y280701D02*
X265500D01*
X413500Y263500D02*
Y281500D01*
X415510Y124000D02*
X422000D01*
X413900Y125610D02*
X415510Y124000D01*
X407500Y125610D02*
X413900D01*
X169150Y296350D02*
Y303000D01*
Y296350D02*
X170000Y295500D01*
Y289000D02*
Y295500D01*
X160500Y151500D02*
Y183500D01*
X244850Y210201D02*
Y230000D01*
X303264Y210445D02*
Y215445D01*
D18*
X407201Y281500D02*
D03*
X413500D02*
D03*
X162850Y303000D02*
D03*
X169150D02*
D03*
X381933Y257000D02*
D03*
X388232D02*
D03*
X314350Y190500D02*
D03*
X320650D02*
D03*
X386650Y204000D02*
D03*
X380350D02*
D03*
X397850D02*
D03*
X404150D02*
D03*
X301850Y233000D02*
D03*
X308150D02*
D03*
X239831Y165500D02*
D03*
X246130D02*
D03*
D19*
X398075Y159835D02*
D03*
X396106D02*
D03*
X394138D02*
D03*
X392169D02*
D03*
X390201D02*
D03*
X388232D02*
D03*
X386264D02*
D03*
X384295D02*
D03*
X382327D02*
D03*
X380358D02*
D03*
X378390D02*
D03*
X376421D02*
D03*
X374453D02*
D03*
X372484D02*
D03*
X370516D02*
D03*
X368547D02*
D03*
X366579D02*
D03*
X364610D02*
D03*
X362642D02*
D03*
X360673D02*
D03*
X358705D02*
D03*
X356736D02*
D03*
X354768D02*
D03*
X352799D02*
D03*
X350831D02*
D03*
X348862D02*
D03*
X346894D02*
D03*
X344925D02*
D03*
Y189165D02*
D03*
X346894D02*
D03*
X348862D02*
D03*
X350831D02*
D03*
X352799D02*
D03*
X354768D02*
D03*
X356736D02*
D03*
X358705D02*
D03*
X360673D02*
D03*
X362642D02*
D03*
X364610D02*
D03*
X366579D02*
D03*
X368547D02*
D03*
X370516D02*
D03*
X372484D02*
D03*
X374453D02*
D03*
X376421D02*
D03*
X378390D02*
D03*
X380358D02*
D03*
X382327D02*
D03*
X384295D02*
D03*
X386264D02*
D03*
X388232D02*
D03*
X390201D02*
D03*
X392169D02*
D03*
X394138D02*
D03*
X396106D02*
D03*
X398075D02*
D03*
D20*
X363000Y221150D02*
D03*
Y214850D02*
D03*
X343500Y220945D02*
D03*
Y214646D02*
D03*
X283500Y280850D02*
D03*
Y287150D02*
D03*
X218000Y285850D02*
D03*
Y292150D02*
D03*
X261500Y229350D02*
D03*
Y235650D02*
D03*
X253500Y229350D02*
D03*
Y235650D02*
D03*
X278500Y210150D02*
D03*
Y203850D02*
D03*
X197130Y292000D02*
D03*
Y285701D02*
D03*
X209500Y292150D02*
D03*
Y285850D02*
D03*
X207000Y138350D02*
D03*
Y144650D02*
D03*
X265500Y301650D02*
D03*
Y295350D02*
D03*
D21*
X353500Y214850D02*
D03*
Y221150D02*
D03*
X292500Y243350D02*
D03*
Y249650D02*
D03*
X293000Y280850D02*
D03*
Y287150D02*
D03*
X274500Y280850D02*
D03*
Y287150D02*
D03*
X265500Y280701D02*
D03*
Y287000D02*
D03*
X226500Y285850D02*
D03*
Y292150D02*
D03*
X188130Y216500D02*
D03*
Y210201D02*
D03*
X197000Y241350D02*
D03*
Y247650D02*
D03*
X334000Y150150D02*
D03*
Y143850D02*
D03*
X188130Y177201D02*
D03*
Y183500D02*
D03*
D22*
X188555Y138350D02*
D03*
X195445D02*
D03*
X244850Y230000D02*
D03*
X237961D02*
D03*
X282055Y220000D02*
D03*
X288945D02*
D03*
D23*
X381933Y274000D02*
D03*
X388232D02*
D03*
X381933Y265500D02*
D03*
X388232D02*
D03*
X267850Y221000D02*
D03*
X274150D02*
D03*
X315350Y127500D02*
D03*
X321650D02*
D03*
X314350Y181000D02*
D03*
X320650D02*
D03*
X314350Y171500D02*
D03*
X320650D02*
D03*
X239831Y145500D02*
D03*
X246130D02*
D03*
X239831Y156445D02*
D03*
X246130D02*
D03*
X261150Y165500D02*
D03*
X254850D02*
D03*
X289350Y163500D02*
D03*
X295650D02*
D03*
D24*
X407500Y125610D02*
D03*
Y132500D02*
D03*
X289000Y203055D02*
D03*
Y209945D02*
D03*
X267831Y210201D02*
D03*
Y203311D02*
D03*
D25*
X200008Y165500D02*
D03*
D26*
X225992Y174555D02*
D03*
Y165500D02*
D03*
Y156445D02*
D03*
D27*
X323736Y215445D02*
D03*
Y210445D02*
D03*
Y205445D02*
D03*
Y200445D02*
D03*
X303264D02*
D03*
Y205445D02*
D03*
Y210445D02*
D03*
Y215445D02*
D03*
D28*
X239850Y210201D02*
D03*
X244850D02*
D03*
X249850D02*
D03*
X254850D02*
D03*
Y190752D02*
D03*
X249850D02*
D03*
X244850D02*
D03*
X239850D02*
D03*
D29*
X324874Y141201D02*
D03*
X322906D02*
D03*
X320937D02*
D03*
X318969D02*
D03*
X317000D02*
D03*
Y152500D02*
D03*
X318969D02*
D03*
X320937D02*
D03*
X322906D02*
D03*
X324874D02*
D03*
D30*
X289500Y144500D02*
D03*
Y122453D02*
D03*
D63*
X320937Y146850D02*
D03*
D64*
X197130Y292000D02*
X203200D01*
X190000Y277400D02*
X202000Y265400D01*
Y243500D02*
Y265400D01*
X215500Y234000D02*
X219500D01*
X212500Y231000D02*
X215500Y234000D01*
X212500Y215000D02*
Y231000D01*
X224000Y174555D02*
Y178900D01*
X212500Y190400D02*
X224000Y178900D01*
X324876Y138336D02*
X326600Y136612D01*
X324876Y138336D02*
Y140547D01*
X351000Y257000D02*
X381933D01*
X347500Y253500D02*
X351000Y257000D01*
X197000Y230500D02*
Y241350D01*
Y230500D02*
X212500Y215000D01*
Y190400D02*
Y215000D01*
X433500Y263500D02*
Y283000D01*
X431199Y285301D02*
X433500Y283000D01*
X408902Y285301D02*
X431199D01*
X407201Y283600D02*
X408902Y285301D01*
X387200Y281500D02*
X407201D01*
X381933Y276233D02*
X387200Y281500D01*
X326600Y135800D02*
Y136612D01*
X150000Y246800D02*
Y289000D01*
X144200Y241000D02*
X150000Y246800D01*
X142000Y192000D02*
Y241000D01*
Y192000D02*
X150500Y183500D01*
X197032Y241383D02*
X199883D01*
X190000Y287500D02*
X194346Y291846D01*
X199883Y241383D02*
X202000Y243500D01*
X194346Y291846D02*
X196976D01*
X190000Y277400D02*
Y287500D01*
X381933Y257000D02*
Y265500D01*
Y274000D01*
X203350Y292150D02*
X209500D01*
X237449Y290701D02*
X246961D01*
X236000Y292150D02*
X237449Y290701D01*
X226500Y292150D02*
X236000D01*
X209500D02*
X218000D01*
X226500D01*
D65*
X219500Y234000D02*
X224000D01*
X322906Y141201D02*
X324874D01*
D66*
X455000Y147500D02*
Y250000D01*
X246130Y131000D02*
X254500Y122630D01*
X264630Y112500D02*
X420000D01*
X433500Y263500D02*
X441500D01*
X254500Y122630D02*
X264630Y112500D01*
X420000D02*
X455000Y147500D01*
X441500Y263500D02*
X455000Y250000D01*
D67*
X331774Y141201D02*
X333531Y142958D01*
Y143382D01*
X325862Y141201D02*
X331774D01*
X333531Y143382D02*
X334000Y143850D01*
X183350Y241350D02*
X197000D01*
X181500Y239500D02*
X183350Y241350D01*
X168000Y239500D02*
X181500D01*
D68*
X244000Y321000D02*
D03*
D69*
X254000D02*
D03*
D70*
X347500Y263500D02*
D03*
X428000Y239500D02*
D03*
X440000Y191500D02*
D03*
X422000Y144000D02*
D03*
X168000Y259500D02*
D03*
D71*
X347500Y253500D02*
D03*
Y243500D02*
D03*
X423500Y263500D02*
D03*
X433500D02*
D03*
X428000Y229500D02*
D03*
Y219500D02*
D03*
X440000Y181500D02*
D03*
Y171500D02*
D03*
X422000Y134000D02*
D03*
Y124000D02*
D03*
X168000Y249500D02*
D03*
Y239500D02*
D03*
X150500Y151500D02*
D03*
X160500D02*
D03*
X150500Y183500D02*
D03*
X160500D02*
D03*
X150500Y216500D02*
D03*
X160500D02*
D03*
X150000Y289000D02*
D03*
X160000D02*
D03*
D72*
X413500Y263500D02*
D03*
X170500Y151500D02*
D03*
Y183500D02*
D03*
Y216500D02*
D03*
X170000Y289000D02*
D03*
D73*
X379500Y247000D02*
D03*
Y237000D02*
D03*
Y227000D02*
D03*
X404000Y227500D02*
D03*
Y237500D02*
D03*
Y247500D02*
D03*
X207500Y239000D02*
D03*
X217500D02*
D03*
X227500D02*
D03*
X207500Y209000D02*
D03*
X217500D02*
D03*
X227500D02*
D03*
D74*
X446000Y219500D02*
D03*
X142000Y241000D02*
D03*
X375500Y132500D02*
D03*
X380500D02*
D03*
X385500D02*
D03*
X347000Y133000D02*
D03*
X352000D02*
D03*
X357000D02*
D03*
X407500Y176000D02*
D03*
Y181000D02*
D03*
Y186000D02*
D03*
D75*
X446000Y214500D02*
D03*
X142000Y246000D02*
D03*
X407500Y171000D02*
D03*
D76*
X246961Y280701D02*
D03*
X293000Y316500D02*
D03*
D77*
X251961Y285701D02*
D03*
X246961Y290701D02*
D03*
X293000Y306500D02*
D03*
X288000Y311500D02*
D03*
X219500Y310500D02*
D03*
X214500Y305500D02*
D03*
D78*
X390500Y132500D02*
D03*
X362000Y133000D02*
D03*
D79*
X246130Y131000D02*
D03*
X224870D02*
D03*
D80*
X209500Y310500D02*
D03*
D81*
X323736Y285850D02*
D03*
X308150Y253811D02*
D03*
D82*
X323736Y253961D02*
D03*
X308150Y285701D02*
D03*
D83*
X398075Y136575D02*
D03*
X367000Y145000D02*
D03*
X348500Y209000D02*
D03*
X393500Y172500D02*
D03*
X368500Y179500D02*
D03*
X309000Y150000D02*
D03*
X339404Y204700D02*
D03*
X335400Y196600D02*
D03*
X207500Y251500D02*
D03*
X369100Y199000D02*
D03*
X337000Y134400D02*
D03*
X388800Y247000D02*
D03*
X214700Y144650D02*
D03*
X354400Y172500D02*
D03*
X351805Y201200D02*
D03*
X326600Y135800D02*
D03*
D84*
X147500Y122500D02*
D03*
D85*
X150000Y325000D02*
D03*
X448500Y122500D02*
D03*
X447500Y325000D02*
D03*
M02*
