G04*
G04 #@! TF.GenerationSoftware,Altium Limited,Altium Designer,20.0.9 (164)*
G04*
G04 Layer_Color=8388736*
%FSLAX25Y25*%
%MOIN*%
G70*
G01*
G75*
%ADD31R,0.04934X0.04737*%
G04:AMPARAMS|DCode=32|XSize=67.84mil|YSize=19.02mil|CornerRadius=5.38mil|HoleSize=0mil|Usage=FLASHONLY|Rotation=270.000|XOffset=0mil|YOffset=0mil|HoleType=Round|Shape=RoundedRectangle|*
%AMROUNDEDRECTD32*
21,1,0.06784,0.00827,0,0,270.0*
21,1,0.05709,0.01902,0,0,270.0*
1,1,0.01076,-0.00413,-0.02854*
1,1,0.01076,-0.00413,0.02854*
1,1,0.01076,0.00413,0.02854*
1,1,0.01076,0.00413,-0.02854*
%
%ADD32ROUNDEDRECTD32*%
%ADD33R,0.04540X0.04737*%
%ADD34R,0.04737X0.04934*%
%ADD35R,0.05918X0.06706*%
%ADD36R,0.04737X0.04540*%
%ADD37R,0.06706X0.05918*%
%ADD38R,0.09461X0.14580*%
%ADD39R,0.09461X0.05524*%
%ADD40R,0.09461X0.03162*%
G04:AMPARAMS|DCode=41|XSize=85.56mil|YSize=31.62mil|CornerRadius=6.95mil|HoleSize=0mil|Usage=FLASHONLY|Rotation=90.000|XOffset=0mil|YOffset=0mil|HoleType=Round|Shape=RoundedRectangle|*
%AMROUNDEDRECTD41*
21,1,0.08556,0.01772,0,0,90.0*
21,1,0.07165,0.03162,0,0,90.0*
1,1,0.01391,0.00886,0.03583*
1,1,0.01391,0.00886,-0.03583*
1,1,0.01391,-0.00886,-0.03583*
1,1,0.01391,-0.00886,0.03583*
%
%ADD41ROUNDEDRECTD41*%
%ADD42R,0.12650X0.04934*%
G04:AMPARAMS|DCode=43|XSize=41.07mil|YSize=18.24mil|CornerRadius=5.28mil|HoleSize=0mil|Usage=FLASHONLY|Rotation=270.000|XOffset=0mil|YOffset=0mil|HoleType=Round|Shape=RoundedRectangle|*
%AMROUNDEDRECTD43*
21,1,0.04107,0.00768,0,0,270.0*
21,1,0.03051,0.01824,0,0,270.0*
1,1,0.01056,-0.00384,-0.01526*
1,1,0.01056,-0.00384,0.01526*
1,1,0.01056,0.00384,0.01526*
1,1,0.01056,0.00384,-0.01526*
%
%ADD43ROUNDEDRECTD43*%
%ADD44R,0.33084X0.11036*%
%ADD45C,0.06706*%
%ADD46R,0.06706X0.06706*%
%ADD47R,0.08713X0.08713*%
%ADD48C,0.08713*%
%ADD49R,0.08713X0.08713*%
%ADD50C,0.05950*%
%ADD51C,0.04737*%
%ADD52R,0.04737X0.04737*%
%ADD53R,0.05249X0.05249*%
%ADD54C,0.05249*%
%ADD55R,0.04737X0.04737*%
%ADD56C,0.16800*%
%ADD57R,0.05249X0.05249*%
%ADD58C,0.05524*%
%ADD59R,0.05524X0.05524*%
%ADD60C,0.05800*%
%ADD61C,0.15800*%
%ADD62C,0.18300*%
D31*
X407201Y281500D02*
D03*
X413500D02*
D03*
X162850Y303000D02*
D03*
X169150D02*
D03*
X381933Y257000D02*
D03*
X388232D02*
D03*
X314350Y190500D02*
D03*
X320650D02*
D03*
X386650Y204000D02*
D03*
X380350D02*
D03*
X397850D02*
D03*
X404150D02*
D03*
X301850Y233000D02*
D03*
X308150D02*
D03*
X239831Y165500D02*
D03*
X246130D02*
D03*
D32*
X398075Y159835D02*
D03*
X396106D02*
D03*
X394138D02*
D03*
X392169D02*
D03*
X390201D02*
D03*
X388232D02*
D03*
X386264D02*
D03*
X384295D02*
D03*
X382327D02*
D03*
X380358D02*
D03*
X378390D02*
D03*
X376421D02*
D03*
X374453D02*
D03*
X372484D02*
D03*
X370516D02*
D03*
X368547D02*
D03*
X366579D02*
D03*
X364610D02*
D03*
X362642D02*
D03*
X360673D02*
D03*
X358705D02*
D03*
X356736D02*
D03*
X354768D02*
D03*
X352799D02*
D03*
X350831D02*
D03*
X348862D02*
D03*
X346894D02*
D03*
X344925D02*
D03*
Y189165D02*
D03*
X346894D02*
D03*
X348862D02*
D03*
X350831D02*
D03*
X352799D02*
D03*
X354768D02*
D03*
X356736D02*
D03*
X358705D02*
D03*
X360673D02*
D03*
X362642D02*
D03*
X364610D02*
D03*
X366579D02*
D03*
X368547D02*
D03*
X370516D02*
D03*
X372484D02*
D03*
X374453D02*
D03*
X376421D02*
D03*
X378390D02*
D03*
X380358D02*
D03*
X382327D02*
D03*
X384295D02*
D03*
X386264D02*
D03*
X388232D02*
D03*
X390201D02*
D03*
X392169D02*
D03*
X394138D02*
D03*
X396106D02*
D03*
X398075D02*
D03*
D33*
X363000Y221150D02*
D03*
Y214850D02*
D03*
X343500Y220945D02*
D03*
Y214646D02*
D03*
X283500Y280850D02*
D03*
Y287150D02*
D03*
X218000Y285850D02*
D03*
Y292150D02*
D03*
X261500Y229350D02*
D03*
Y235650D02*
D03*
X253500Y229350D02*
D03*
Y235650D02*
D03*
X278500Y210150D02*
D03*
Y203850D02*
D03*
X197130Y292000D02*
D03*
Y285701D02*
D03*
X209500Y292150D02*
D03*
Y285850D02*
D03*
X207000Y138350D02*
D03*
Y144650D02*
D03*
X265500Y301650D02*
D03*
Y295350D02*
D03*
D34*
X353500Y214850D02*
D03*
Y221150D02*
D03*
X292500Y243350D02*
D03*
Y249650D02*
D03*
X293000Y280850D02*
D03*
Y287150D02*
D03*
X274500Y280850D02*
D03*
Y287150D02*
D03*
X265500Y280701D02*
D03*
Y287000D02*
D03*
X226500Y285850D02*
D03*
Y292150D02*
D03*
X188130Y216500D02*
D03*
Y210201D02*
D03*
X197000Y241350D02*
D03*
Y247650D02*
D03*
X334000Y150150D02*
D03*
Y143850D02*
D03*
X188130Y177201D02*
D03*
Y183500D02*
D03*
D35*
X188555Y138350D02*
D03*
X195445D02*
D03*
X244850Y230000D02*
D03*
X237961D02*
D03*
X282055Y220000D02*
D03*
X288945D02*
D03*
D36*
X381933Y274000D02*
D03*
X388232D02*
D03*
X381933Y265500D02*
D03*
X388232D02*
D03*
X267850Y221000D02*
D03*
X274150D02*
D03*
X315350Y127500D02*
D03*
X321650D02*
D03*
X314350Y181000D02*
D03*
X320650D02*
D03*
X314350Y171500D02*
D03*
X320650D02*
D03*
X239831Y145500D02*
D03*
X246130D02*
D03*
X239831Y156445D02*
D03*
X246130D02*
D03*
X261150Y165500D02*
D03*
X254850D02*
D03*
X289350Y163500D02*
D03*
X295650D02*
D03*
D37*
X407500Y125610D02*
D03*
Y132500D02*
D03*
X289000Y203055D02*
D03*
Y209945D02*
D03*
X267831Y210201D02*
D03*
Y203311D02*
D03*
D38*
X200008Y165500D02*
D03*
D39*
X225992Y174555D02*
D03*
Y165500D02*
D03*
Y156445D02*
D03*
D40*
X323736Y215445D02*
D03*
Y210445D02*
D03*
Y205445D02*
D03*
Y200445D02*
D03*
X303264D02*
D03*
Y205445D02*
D03*
Y210445D02*
D03*
Y215445D02*
D03*
D41*
X239850Y210201D02*
D03*
X244850D02*
D03*
X249850D02*
D03*
X254850D02*
D03*
Y190752D02*
D03*
X249850D02*
D03*
X244850D02*
D03*
X239850D02*
D03*
D42*
X320937Y146850D02*
D03*
D43*
X324874Y141201D02*
D03*
X322906D02*
D03*
X320937D02*
D03*
X318969D02*
D03*
X317000D02*
D03*
Y152500D02*
D03*
X318969D02*
D03*
X320937D02*
D03*
X322906D02*
D03*
X324874D02*
D03*
D44*
X289500Y144500D02*
D03*
Y122453D02*
D03*
D45*
X244000Y321000D02*
D03*
D46*
X254000D02*
D03*
D47*
X347500Y263500D02*
D03*
X428000Y239500D02*
D03*
X440000Y191500D02*
D03*
X422000Y144000D02*
D03*
X168000Y259500D02*
D03*
D48*
X347500Y253500D02*
D03*
Y243500D02*
D03*
X423500Y263500D02*
D03*
X433500D02*
D03*
X428000Y229500D02*
D03*
Y219500D02*
D03*
X440000Y181500D02*
D03*
Y171500D02*
D03*
X422000Y134000D02*
D03*
Y124000D02*
D03*
X168000Y249500D02*
D03*
Y239500D02*
D03*
X150500Y151500D02*
D03*
X160500D02*
D03*
X150500Y183500D02*
D03*
X160500D02*
D03*
X150500Y216500D02*
D03*
X160500D02*
D03*
X150000Y289000D02*
D03*
X160000D02*
D03*
D49*
X413500Y263500D02*
D03*
X170500Y151500D02*
D03*
Y183500D02*
D03*
Y216500D02*
D03*
X170000Y289000D02*
D03*
D50*
X379500Y247000D02*
D03*
Y237000D02*
D03*
Y227000D02*
D03*
X404000Y227500D02*
D03*
Y237500D02*
D03*
Y247500D02*
D03*
X207500Y239000D02*
D03*
X217500D02*
D03*
X227500D02*
D03*
X207500Y209000D02*
D03*
X217500D02*
D03*
X227500D02*
D03*
D51*
X446000Y219500D02*
D03*
X142000Y241000D02*
D03*
X375500Y132500D02*
D03*
X380500D02*
D03*
X385500D02*
D03*
X347000Y133000D02*
D03*
X352000D02*
D03*
X357000D02*
D03*
X407500Y176000D02*
D03*
Y181000D02*
D03*
Y186000D02*
D03*
D52*
X446000Y214500D02*
D03*
X142000Y246000D02*
D03*
X407500Y171000D02*
D03*
D53*
X246961Y280701D02*
D03*
X293000Y316500D02*
D03*
D54*
X251961Y285701D02*
D03*
X246961Y290701D02*
D03*
X293000Y306500D02*
D03*
X288000Y311500D02*
D03*
X219500Y310500D02*
D03*
X214500Y305500D02*
D03*
D55*
X390500Y132500D02*
D03*
X362000Y133000D02*
D03*
D56*
X246130Y131000D02*
D03*
X224870D02*
D03*
D57*
X209500Y310500D02*
D03*
D58*
X323736Y285850D02*
D03*
X308150Y253811D02*
D03*
D59*
X323736Y253961D02*
D03*
X308150Y285701D02*
D03*
D60*
X398075Y136575D02*
D03*
X367000Y145000D02*
D03*
X348500Y209000D02*
D03*
X393500Y172500D02*
D03*
X368500Y179500D02*
D03*
X309000Y150000D02*
D03*
X339404Y204700D02*
D03*
X335400Y196600D02*
D03*
X207500Y251500D02*
D03*
X369100Y199000D02*
D03*
X337000Y134400D02*
D03*
X388800Y247000D02*
D03*
X214700Y144650D02*
D03*
X354400Y172500D02*
D03*
X351805Y201200D02*
D03*
X326600Y135800D02*
D03*
D61*
X147500Y122500D02*
D03*
D62*
X150000Y325000D02*
D03*
X448500Y122500D02*
D03*
X447500Y325000D02*
D03*
M02*
