G04*
G04 #@! TF.GenerationSoftware,Altium Limited,Altium Designer,20.0.9 (164)*
G04*
G04 Layer_Color=65535*
%FSLAX25Y25*%
%MOIN*%
G70*
G01*
G75*
%ADD10C,0.00787*%
%ADD11C,0.00984*%
%ADD12C,0.00600*%
%ADD13C,0.00500*%
%ADD14C,0.01200*%
%ADD15C,0.00591*%
%ADD16C,0.00800*%
%ADD17C,0.01000*%
D10*
X399571Y195150D02*
G03*
X399571Y195150I-394J0D01*
G01*
X349783Y276200D02*
G03*
X349783Y276200I-394J0D01*
G01*
X401194Y265390D02*
G03*
X401194Y265390I-394J0D01*
G01*
X430283Y252200D02*
G03*
X430283Y252200I-394J0D01*
G01*
X442283Y204200D02*
G03*
X442283Y204200I-394J0D01*
G01*
X424284Y156700D02*
G03*
X424284Y156700I-394J0D01*
G01*
X247354Y270701D02*
G03*
X247354Y270701I-394J0D01*
G01*
X170283Y272200D02*
G03*
X170283Y272200I-394J0D01*
G01*
X238669Y184571D02*
G03*
X238669Y184571I-394J0D01*
G01*
X325268Y156595D02*
G03*
X325268Y156595I-394J0D01*
G01*
X183594Y149610D02*
G03*
X183594Y149610I-394J0D01*
G01*
Y181610D02*
G03*
X183594Y181610I-394J0D01*
G01*
Y214610D02*
G03*
X183594Y214610I-394J0D01*
G01*
X183094Y287110D02*
G03*
X183094Y287110I-394J0D01*
G01*
X293394Y326500D02*
G03*
X293394Y326500I-394J0D01*
G01*
X199894Y310500D02*
G03*
X199894Y310500I-394J0D01*
G01*
X324130Y249433D02*
G03*
X324130Y249433I-394J0D01*
G01*
X308543Y290228D02*
G03*
X308543Y290228I-394J0D01*
G01*
X259512Y315488D02*
Y326512D01*
X238488Y315488D02*
Y326512D01*
Y315488D02*
X259512D01*
X238488Y326512D02*
X259512D01*
X442457Y223043D02*
X449543D01*
X442457Y210957D02*
Y223043D01*
Y210957D02*
X449543D01*
Y223043D01*
X138457Y237457D02*
X145543D01*
Y249543D01*
X138457D02*
X145543D01*
X138457Y237457D02*
Y249543D01*
X371957Y128957D02*
Y136043D01*
Y128957D02*
X394043D01*
Y136043D01*
X371957D02*
X394043D01*
X343457Y129457D02*
Y136543D01*
Y129457D02*
X365543D01*
Y136543D01*
X343457D02*
X365543D01*
X411043Y167457D02*
Y189543D01*
X403957Y167457D02*
X411043D01*
X403957D02*
Y189543D01*
X411043D01*
D11*
X254492Y312929D02*
G03*
X254492Y312929I-492J0D01*
G01*
D12*
X389541Y240070D02*
G03*
X373035Y245274I-10041J-3070D01*
G01*
X373036Y228724D02*
G03*
X389541Y233928I6464J8274D01*
G01*
X393959Y234430D02*
G03*
X410465Y229226I10041J3070D01*
G01*
X410464Y245776D02*
G03*
X393959Y240572I-6464J-8274D01*
G01*
X214430Y249041D02*
G03*
X209226Y232535I3070J-10041D01*
G01*
X225776Y232536D02*
G03*
X220572Y249041I-8274J6464D01*
G01*
X214430Y219041D02*
G03*
X209226Y202535I3070J-10041D01*
G01*
X225776Y202536D02*
G03*
X220572Y219041I-8274J6464D01*
G01*
X373000Y228752D02*
Y245248D01*
X410500Y229252D02*
Y245748D01*
X209252Y232500D02*
X225748D01*
X209252Y202500D02*
X225748D01*
D13*
X258457Y285701D02*
G03*
X258457Y285701I-11496J0D01*
G01*
X304496Y311500D02*
G03*
X304496Y311500I-11496J0D01*
G01*
X225996Y310500D02*
G03*
X225996Y310500I-11496J0D01*
G01*
X343114Y162295D02*
Y186705D01*
X399886Y162295D02*
Y186705D01*
X359154Y232476D02*
Y274524D01*
X356654Y232476D02*
X359154D01*
X340138D02*
X356654D01*
X340138D02*
Y274524D01*
X356654D01*
X359154D01*
X356654Y232476D02*
Y274524D01*
X402476Y275154D02*
X444524D01*
Y272654D02*
Y275154D01*
Y256138D02*
Y272654D01*
X402476Y256138D02*
X444524D01*
X402476D02*
Y272654D01*
Y275154D01*
Y272654D02*
X444524D01*
X439654Y208476D02*
Y250524D01*
X437154Y208476D02*
X439654D01*
X420638D02*
X437154D01*
X420638D02*
Y250524D01*
X437154D01*
X439654D01*
X437154Y208476D02*
Y250524D01*
X451654Y160476D02*
Y202524D01*
X449154Y160476D02*
X451654D01*
X432638D02*
X449154D01*
X432638D02*
Y202524D01*
X449154D01*
X451654D01*
X449154Y160476D02*
Y202524D01*
X433654Y112976D02*
Y155024D01*
X431154Y112976D02*
X433654D01*
X414638D02*
X431154D01*
X414638D02*
Y155024D01*
X431154D01*
X433654D01*
X431154Y112976D02*
Y155024D01*
X179654Y228476D02*
Y270524D01*
X177154Y228476D02*
X179654D01*
X160638D02*
X177154D01*
X160638D02*
Y270524D01*
X177154D01*
X179654D01*
X177154Y228476D02*
Y270524D01*
X257291Y192799D02*
Y208154D01*
X237409Y192799D02*
Y208154D01*
X313752Y140945D02*
Y152756D01*
X328122Y140945D02*
Y152756D01*
X139476Y142346D02*
X181524D01*
Y139846D02*
Y142346D01*
Y158862D01*
X139476D02*
X181524D01*
X139476Y142346D02*
Y158862D01*
Y139846D02*
Y142346D01*
Y139846D02*
X181524D01*
X139476Y174346D02*
X181524D01*
Y171846D02*
Y174346D01*
Y190862D01*
X139476D02*
X181524D01*
X139476Y174346D02*
Y190862D01*
Y171846D02*
Y174346D01*
Y171846D02*
X181524D01*
X139476Y207346D02*
X181524D01*
Y204846D02*
Y207346D01*
Y223862D01*
X139476D02*
X181524D01*
X139476Y207346D02*
Y223862D01*
Y204846D02*
Y207346D01*
Y204846D02*
X181524D01*
X138976Y279846D02*
X181024D01*
Y277346D02*
Y279846D01*
Y296362D01*
X138976D02*
X181024D01*
X138976Y279846D02*
Y296362D01*
Y277346D02*
Y279846D01*
Y277346D02*
X181024D01*
X320783Y263016D02*
Y276795D01*
X323736D01*
X326689D01*
Y263016D02*
Y276795D01*
X323736Y263016D02*
X326689D01*
X320783D02*
X323736D01*
X311102Y262866D02*
Y276646D01*
X308150Y262866D02*
X311102D01*
X305197D02*
X308150D01*
X305197D02*
Y276646D01*
X308150D01*
X311102D01*
D14*
X311500Y215445D02*
G03*
X311500Y215445I-500J0D01*
G01*
D15*
X205520Y150146D02*
Y180854D01*
X220480D01*
Y150146D02*
Y180854D01*
X205520Y150146D02*
X220480D01*
D16*
X308500Y197945D02*
Y217945D01*
X318500Y197945D02*
Y217945D01*
X308500D02*
X318500D01*
X308500Y197945D02*
X318500D01*
X400300Y121132D02*
Y117133D01*
X402299D01*
X402966Y117799D01*
Y118466D01*
X402299Y119132D01*
X400300D01*
X402299D01*
X402966Y119799D01*
Y120465D01*
X402299Y121132D01*
X400300D01*
X404299Y119799D02*
Y117799D01*
X404965Y117133D01*
X406964D01*
Y116466D01*
X406298Y115800D01*
X405632D01*
X406964Y117133D02*
Y119799D01*
X408297Y115800D02*
Y119799D01*
X410297D01*
X410963Y119132D01*
Y117799D01*
X410297Y117133D01*
X408297D01*
X387484Y123379D02*
Y126044D01*
X383485D01*
Y123379D01*
X385485Y126044D02*
Y124711D01*
X386818Y119380D02*
X387484Y120046D01*
Y121379D01*
X386818Y122046D01*
X384152D01*
X383485Y121379D01*
Y120046D01*
X384152Y119380D01*
X387484Y118047D02*
X383485D01*
X385485D01*
Y115381D01*
X387484D01*
X383485D01*
X358984Y127044D02*
Y124379D01*
Y125711D01*
X354985D01*
X358984Y123046D02*
X354985Y120380D01*
X358984D02*
X354985Y123046D01*
X392318Y123379D02*
X392984Y124045D01*
Y125378D01*
X392318Y126044D01*
X389652D01*
X388985Y125378D01*
Y124045D01*
X389652Y123379D01*
X390985D01*
Y124711D01*
X388985Y122046D02*
X392984D01*
X388985Y119380D01*
X392984D01*
Y118047D02*
X388985D01*
Y116048D01*
X389652Y115381D01*
X392318D01*
X392984Y116048D01*
Y118047D01*
X376299Y123534D02*
Y126200D01*
X374299D01*
X374966Y124867D01*
Y124201D01*
X374299Y123534D01*
X372966D01*
X372300Y124201D01*
Y125533D01*
X372966Y126200D01*
X376299Y122201D02*
X373633D01*
X372300Y120868D01*
X373633Y119536D01*
X376299D01*
X363818Y124379D02*
X364484Y125045D01*
Y126378D01*
X363818Y127044D01*
X361152D01*
X360485Y126378D01*
Y125045D01*
X361152Y124379D01*
X362485D01*
Y125711D01*
X360485Y123046D02*
X364484D01*
X360485Y120380D01*
X364484D01*
Y119047D02*
X360485D01*
Y117048D01*
X361152Y116381D01*
X363818D01*
X364484Y117048D01*
Y119047D01*
X347799Y124534D02*
Y127200D01*
X345799D01*
X346466Y125867D01*
Y125201D01*
X345799Y124534D01*
X344466D01*
X343800Y125201D01*
Y126533D01*
X344466Y127200D01*
X347799Y123201D02*
X345133D01*
X343800Y121868D01*
X345133Y120536D01*
X347799D01*
X349485Y127044D02*
X353484D01*
Y125045D01*
X352818Y124379D01*
X351485D01*
X350818Y125045D01*
Y127044D01*
Y125711D02*
X349485Y124379D01*
X353484Y123046D02*
X349485Y120380D01*
X353484D02*
X349485Y123046D01*
X381984Y126044D02*
Y123379D01*
Y124711D01*
X377985D01*
Y122046D02*
X381984D01*
Y120046D01*
X381317Y119380D01*
X379985D01*
X379318Y120046D01*
Y122046D01*
Y120713D02*
X377985Y119380D01*
X381317Y115381D02*
X381984Y116048D01*
Y117380D01*
X381317Y118047D01*
X378652D01*
X377985Y117380D01*
Y116048D01*
X378652Y115381D01*
X379985D01*
Y116714D01*
X413300Y171132D02*
X413966Y171799D01*
X415299D01*
X415966Y171132D01*
Y170466D01*
X415299Y169799D01*
X414633D01*
X415299D01*
X415966Y169133D01*
Y168466D01*
X415299Y167800D01*
X413966D01*
X413300Y168466D01*
X417299Y171799D02*
Y169133D01*
X418632Y167800D01*
X419965Y169133D01*
Y171799D01*
X421297Y171132D02*
X421964Y171799D01*
X423297D01*
X423963Y171132D01*
Y170466D01*
X423297Y169799D01*
X422630D01*
X423297D01*
X423963Y169133D01*
Y168466D01*
X423297Y167800D01*
X421964D01*
X421297Y168466D01*
X405300Y161300D02*
Y165798D01*
X407549D01*
X408299Y165048D01*
Y163549D01*
X407549Y162799D01*
X405300D01*
X409798Y164299D02*
Y161300D01*
Y162799D01*
X410548Y163549D01*
X411298Y164299D01*
X412048D01*
X415047Y161300D02*
X416546D01*
X417296Y162049D01*
Y163549D01*
X416546Y164299D01*
X415047D01*
X414297Y163549D01*
Y162049D01*
X415047Y161300D01*
X420295Y159800D02*
X421045D01*
X421795Y160550D01*
Y164299D01*
X419545D01*
X418796Y163549D01*
Y162049D01*
X419545Y161300D01*
X421795D01*
X413300Y177799D02*
Y173800D01*
X415299D01*
X415966Y174467D01*
Y177132D01*
X415299Y177799D01*
X413300D01*
X417299D02*
X418632D01*
X417965D01*
Y173800D01*
X417299D01*
X418632D01*
X422630Y177799D02*
X421297D01*
X420631Y177132D01*
Y174467D01*
X421297Y173800D01*
X422630D01*
X423297Y174467D01*
Y177132D01*
X422630Y177799D01*
X413300Y183299D02*
X415966D01*
X414633D01*
Y179300D01*
X419965Y182632D02*
X419298Y183299D01*
X417965D01*
X417299Y182632D01*
Y179966D01*
X417965Y179300D01*
X419298D01*
X419965Y179966D01*
X421297Y183299D02*
Y179300D01*
Y180633D01*
X423963Y183299D01*
X421964Y181299D01*
X423963Y179300D01*
X415966Y188632D02*
X415299Y189299D01*
X413966D01*
X413300Y188632D01*
Y185967D01*
X413966Y185300D01*
X415299D01*
X415966Y185967D01*
Y187299D01*
X414633D01*
X417299Y185300D02*
Y189299D01*
X419965Y185300D01*
Y189299D01*
X421297D02*
Y185300D01*
X423297D01*
X423963Y185967D01*
Y188632D01*
X423297Y189299D01*
X421297D01*
D17*
X305642Y131245D02*
Y135445D01*
X273752Y131145D02*
Y135445D01*
X405002Y289001D02*
Y294999D01*
X408002D01*
X409001Y293999D01*
Y292000D01*
X408002Y291000D01*
X405002D01*
X407002D02*
X409001Y289001D01*
X411000D02*
X413000D01*
X412000D01*
Y294999D01*
X411000Y293999D01*
X418998Y289001D02*
Y294999D01*
X415999Y292000D01*
X419998D01*
X174503Y302001D02*
Y307999D01*
X177502D01*
X178501Y306999D01*
Y305000D01*
X177502Y304000D01*
X174503D01*
X176502D02*
X178501Y302001D01*
X184499D02*
X180501D01*
X184499Y306000D01*
Y306999D01*
X183500Y307999D01*
X181500D01*
X180501Y306999D01*
X186499D02*
X187498Y307999D01*
X189498D01*
X190497Y306999D01*
Y303001D01*
X189498Y302001D01*
X187498D01*
X186499Y303001D01*
Y306999D01*
X453000Y239000D02*
X458998D01*
X456999Y237001D01*
X458998Y235001D01*
X453000D01*
Y232002D02*
Y230003D01*
X454000Y229003D01*
X455999D01*
X456999Y230003D01*
Y232002D01*
X455999Y233002D01*
X454000D01*
X453000Y232002D01*
X457998Y226004D02*
X456999D01*
Y227004D01*
Y225005D01*
Y226004D01*
X454000D01*
X453000Y225005D01*
Y221006D02*
Y219006D01*
X454000Y218007D01*
X455999D01*
X456999Y219006D01*
Y221006D01*
X455999Y222006D01*
X454000D01*
X453000Y221006D01*
X456999Y216007D02*
X453000D01*
X454999D01*
X455999Y215008D01*
X456999Y214008D01*
Y213008D01*
X453000Y210009D02*
Y208010D01*
Y209010D01*
X458998D01*
X457998Y210009D01*
X346499Y300498D02*
X342500D01*
Y297499D01*
X344499D01*
X342500D01*
Y294500D01*
X349498Y298499D02*
X351497D01*
X352497Y297499D01*
Y294500D01*
X349498D01*
X348498Y295500D01*
X349498Y296499D01*
X352497D01*
X354496Y294500D02*
X356495D01*
X355496D01*
Y300498D01*
X354496D01*
X359494Y294500D02*
X361494D01*
X360494D01*
Y300498D01*
X359494D01*
X374490Y294500D02*
X370491D01*
X374490Y298499D01*
Y299498D01*
X373490Y300498D01*
X371491D01*
X370491Y299498D01*
X376489D02*
X377489Y300498D01*
X379488D01*
X380488Y299498D01*
Y295500D01*
X379488Y294500D01*
X377489D01*
X376489Y295500D01*
Y299498D01*
X386486Y294500D02*
X382487D01*
X386486Y298499D01*
Y299498D01*
X385486Y300498D01*
X383487D01*
X382487Y299498D01*
X388485Y294500D02*
X390484D01*
X389485D01*
Y300498D01*
X388485Y299498D01*
X346499Y308998D02*
X345499Y309997D01*
X343500D01*
X342500Y308998D01*
Y307998D01*
X343500Y306998D01*
X345499D01*
X346499Y305999D01*
Y304999D01*
X345499Y303999D01*
X343500D01*
X342500Y304999D01*
X351497Y303999D02*
X349498D01*
X348498Y304999D01*
Y306998D01*
X349498Y307998D01*
X351497D01*
X352497Y306998D01*
Y305999D01*
X348498D01*
X354496Y303999D02*
Y307998D01*
X357495D01*
X358495Y306998D01*
Y303999D01*
X360494D02*
X362493D01*
X361494D01*
Y307998D01*
X360494D01*
X366492Y303999D02*
X368492D01*
X369491Y304999D01*
Y306998D01*
X368492Y307998D01*
X366492D01*
X365493Y306998D01*
Y304999D01*
X366492Y303999D01*
X371491Y307998D02*
Y303999D01*
Y305999D01*
X372490Y306998D01*
X373490Y307998D01*
X374490D01*
X383487Y309997D02*
Y303999D01*
X386486D01*
X387485Y304999D01*
Y308998D01*
X386486Y309997D01*
X383487D01*
X392484Y303999D02*
X390484D01*
X389485Y304999D01*
Y306998D01*
X390484Y307998D01*
X392484D01*
X393483Y306998D01*
Y305999D01*
X389485D01*
X395483Y303999D02*
X398482D01*
X399482Y304999D01*
X398482Y305999D01*
X396482D01*
X395483Y306998D01*
X396482Y307998D01*
X399482D01*
X401481Y303999D02*
X403480D01*
X402481D01*
Y307998D01*
X401481D01*
X408479Y302000D02*
X409478D01*
X410478Y303000D01*
Y307998D01*
X407479D01*
X406479Y306998D01*
Y304999D01*
X407479Y303999D01*
X410478D01*
X412477D02*
Y307998D01*
X415476D01*
X416476Y306998D01*
Y303999D01*
X428472D02*
X424473D01*
X428472Y307998D01*
Y308998D01*
X427472Y309997D01*
X425473D01*
X424473Y308998D01*
X342500Y318998D02*
X346499D01*
X344499D01*
Y313000D01*
X351497D02*
X349498D01*
X348498Y314000D01*
Y315999D01*
X349498Y316999D01*
X351497D01*
X352497Y315999D01*
Y314999D01*
X348498D01*
X355496Y316999D02*
X357495D01*
X358495Y315999D01*
Y313000D01*
X355496D01*
X354496Y314000D01*
X355496Y314999D01*
X358495D01*
X360494Y313000D02*
Y316999D01*
X361494D01*
X362493Y315999D01*
Y313000D01*
Y315999D01*
X363493Y316999D01*
X364493Y315999D01*
Y313000D01*
X372490D02*
Y318998D01*
X375489D01*
X376489Y317998D01*
Y315999D01*
X375489Y314999D01*
X372490D01*
X374490D02*
X376489Y313000D01*
X378488Y316999D02*
Y314000D01*
X379488Y313000D01*
X382487D01*
Y316999D01*
X384486Y313000D02*
X387485D01*
X388485Y314000D01*
X387485Y314999D01*
X385486D01*
X384486Y315999D01*
X385486Y316999D01*
X388485D01*
X390484Y318998D02*
Y313000D01*
Y315999D01*
X391484Y316999D01*
X393483D01*
X394483Y315999D01*
Y313000D01*
X402481Y318998D02*
Y313000D01*
Y315999D01*
X406479D01*
Y318998D01*
Y313000D01*
X409478D02*
X411478D01*
X412477Y314000D01*
Y315999D01*
X411478Y316999D01*
X409478D01*
X408479Y315999D01*
Y314000D01*
X409478Y313000D01*
X414477Y316999D02*
Y314000D01*
X415476Y313000D01*
X418475D01*
Y316999D01*
X420475D02*
Y313000D01*
Y314999D01*
X421475Y315999D01*
X422474Y316999D01*
X423474D01*
X342500Y327498D02*
Y321500D01*
X345499D01*
X346499Y322500D01*
Y326498D01*
X345499Y327498D01*
X342500D01*
X349498Y325499D02*
X351497D01*
X352497Y324499D01*
Y321500D01*
X349498D01*
X348498Y322500D01*
X349498Y323499D01*
X352497D01*
X354496Y321500D02*
Y325499D01*
X357495D01*
X358495Y324499D01*
Y321500D01*
X360494D02*
X362493D01*
X361494D01*
Y325499D01*
X360494D01*
X368492Y321500D02*
X366492D01*
X365493Y322500D01*
Y324499D01*
X366492Y325499D01*
X368492D01*
X369491Y324499D01*
Y323499D01*
X365493D01*
X371491Y321500D02*
X373490D01*
X372490D01*
Y327498D01*
X371491D01*
X385486D02*
X383487D01*
X382487Y326498D01*
Y322500D01*
X383487Y321500D01*
X385486D01*
X386486Y322500D01*
Y326498D01*
X385486Y327498D01*
X388485Y321500D02*
X390484D01*
X389485D01*
Y327498D01*
X388485D01*
X393483Y321500D02*
X395483D01*
X394483D01*
Y325499D01*
X393483D01*
X398482Y321500D02*
X401481D01*
X402481Y322500D01*
X401481Y323499D01*
X399482D01*
X398482Y324499D01*
X399482Y325499D01*
X402481D01*
X224999Y335498D02*
X223999Y336497D01*
X222000D01*
X221000Y335498D01*
Y334498D01*
X222000Y333498D01*
X223999D01*
X224999Y332499D01*
Y331499D01*
X223999Y330499D01*
X222000D01*
X221000Y331499D01*
X226998Y328500D02*
Y334498D01*
X229997D01*
X230997Y333498D01*
Y331499D01*
X229997Y330499D01*
X226998D01*
X235995D02*
X233996D01*
X232996Y331499D01*
Y333498D01*
X233996Y334498D01*
X235995D01*
X236995Y333498D01*
Y332499D01*
X232996D01*
X239994Y334498D02*
X241993D01*
X242993Y333498D01*
Y330499D01*
X239994D01*
X238994Y331499D01*
X239994Y332499D01*
X242993D01*
X244992Y330499D02*
Y336497D01*
Y332499D02*
X247991Y334498D01*
X244992Y332499D02*
X247991Y330499D01*
X253989D02*
X251990D01*
X250990Y331499D01*
Y333498D01*
X251990Y334498D01*
X253989D01*
X254989Y333498D01*
Y332499D01*
X250990D01*
X256988Y334498D02*
Y330499D01*
Y332499D01*
X257988Y333498D01*
X258988Y334498D01*
X259987D01*
X149000Y271000D02*
X154998D01*
X152999Y269001D01*
X154998Y267001D01*
X149000D01*
Y264002D02*
Y262003D01*
X150000Y261003D01*
X151999D01*
X152999Y262003D01*
Y264002D01*
X151999Y265002D01*
X150000D01*
X149000Y264002D01*
X153998Y258004D02*
X152999D01*
Y259004D01*
Y257004D01*
Y258004D01*
X150000D01*
X149000Y257004D01*
Y253006D02*
Y251007D01*
X150000Y250007D01*
X151999D01*
X152999Y251007D01*
Y253006D01*
X151999Y254006D01*
X150000D01*
X149000Y253006D01*
X152999Y248007D02*
X149000D01*
X150999D01*
X151999Y247008D01*
X152999Y246008D01*
Y245008D01*
X149000Y238011D02*
Y242009D01*
X152999Y238011D01*
X153998D01*
X154998Y239010D01*
Y241010D01*
X153998Y242009D01*
X176500Y131998D02*
Y126000D01*
X179499D01*
X180499Y127000D01*
Y127999D01*
X179499Y128999D01*
X176500D01*
X179499D01*
X180499Y129999D01*
Y130998D01*
X179499Y131998D01*
X176500D01*
X182498D02*
Y130998D01*
X184497Y128999D01*
X186497Y130998D01*
Y131998D01*
X184497Y128999D02*
Y126000D01*
X188496D02*
Y131998D01*
X191495D01*
X192495Y130998D01*
Y128999D01*
X191495Y127999D01*
X188496D01*
X198493Y130998D02*
X197493Y131998D01*
X195494D01*
X194494Y130998D01*
Y129999D01*
X195494Y128999D01*
X197493D01*
X198493Y127999D01*
Y127000D01*
X197493Y126000D01*
X195494D01*
X194494Y127000D01*
X221499Y119498D02*
X220499Y120498D01*
X218500D01*
X217500Y119498D01*
Y115500D01*
X218500Y114500D01*
X220499D01*
X221499Y115500D01*
Y117499D01*
X219499D01*
X223498Y114500D02*
Y120498D01*
X227497Y114500D01*
Y120498D01*
X229496D02*
Y114500D01*
X232495D01*
X233495Y115500D01*
Y119498D01*
X232495Y120498D01*
X229496D01*
X239000D02*
Y116499D01*
X240999Y114500D01*
X242999Y116499D01*
Y120498D01*
X248997Y119498D02*
X247997Y120498D01*
X245998D01*
X244998Y119498D01*
Y115500D01*
X245998Y114500D01*
X247997D01*
X248997Y115500D01*
X254995Y119498D02*
X253995Y120498D01*
X251996D01*
X250996Y119498D01*
Y115500D01*
X251996Y114500D01*
X253995D01*
X254995Y115500D01*
X347999Y142998D02*
X346999Y143998D01*
X345000D01*
X344000Y142998D01*
Y139000D01*
X345000Y138000D01*
X346999D01*
X347999Y139000D01*
X349998Y143998D02*
X353997D01*
X351997D01*
Y138000D01*
X355996D02*
Y143998D01*
X358995D01*
X359995Y142998D01*
Y140999D01*
X358995Y139999D01*
X355996D01*
X357996D02*
X359995Y138000D01*
X361994Y143998D02*
Y138000D01*
X365993D01*
X373500Y143998D02*
Y139000D01*
X374500Y138000D01*
X376499D01*
X377499Y139000D01*
Y143998D01*
X383497Y142998D02*
X382497Y143998D01*
X380498D01*
X379498Y142998D01*
Y141999D01*
X380498Y140999D01*
X382497D01*
X383497Y139999D01*
Y139000D01*
X382497Y138000D01*
X380498D01*
X379498Y139000D01*
X388495Y138000D02*
X386496D01*
X385496Y139000D01*
Y140999D01*
X386496Y141999D01*
X388495D01*
X389495Y140999D01*
Y139999D01*
X385496D01*
X391494Y138000D02*
Y141999D01*
X394493D01*
X395493Y140999D01*
Y138000D01*
X334001Y173002D02*
Y175001D01*
Y174002D01*
X339999D01*
Y173002D01*
Y175001D01*
X335001Y181999D02*
X334001Y181000D01*
Y179000D01*
X335001Y178000D01*
X338999D01*
X339999Y179000D01*
Y181000D01*
X338999Y181999D01*
X339999Y183999D02*
Y185998D01*
Y184998D01*
X334001D01*
X335001Y183999D01*
X360001Y204000D02*
X359001Y203001D01*
Y201001D01*
X360001Y200002D01*
X363999D01*
X364999Y201001D01*
Y203001D01*
X363999Y204000D01*
X359001Y206000D02*
Y209998D01*
X360001D01*
X363999Y206000D01*
X364999D01*
X345502Y225001D02*
Y230999D01*
X348501D01*
X349500Y229999D01*
Y228000D01*
X348501Y227000D01*
X345502D01*
X347501D02*
X349500Y225001D01*
X354499D02*
Y230999D01*
X351500Y228000D01*
X355498D01*
X333501Y212001D02*
X332501Y211001D01*
Y209002D01*
X333501Y208002D01*
X337499D01*
X338499Y209002D01*
Y211001D01*
X337499Y212001D01*
X338499Y214001D02*
Y216000D01*
Y215000D01*
X332501D01*
X333501Y214001D01*
Y218999D02*
X332501Y219999D01*
Y221998D01*
X333501Y222998D01*
X337499D01*
X338499Y221998D01*
Y219999D01*
X337499Y218999D01*
X333501D01*
X263502Y325499D02*
Y319501D01*
X267501D01*
X273499Y324499D02*
X272499Y325499D01*
X270500D01*
X269500Y324499D01*
Y323500D01*
X270500Y322500D01*
X272499D01*
X273499Y321500D01*
Y320501D01*
X272499Y319501D01*
X270500D01*
X269500Y320501D01*
X275498Y319501D02*
X277498D01*
X276498D01*
Y325499D01*
X275498Y324499D01*
X186003Y144851D02*
Y150849D01*
X189002D01*
X190001Y149850D01*
Y147850D01*
X189002Y146851D01*
X186003D01*
X188002D02*
X190001Y144851D01*
X195999D02*
X192001D01*
X195999Y148850D01*
Y149850D01*
X195000Y150849D01*
X193000D01*
X192001Y149850D01*
X197999D02*
X198998Y150849D01*
X200998D01*
X201997Y149850D01*
Y148850D01*
X200998Y147850D01*
X199998D01*
X200998D01*
X201997Y146851D01*
Y145851D01*
X200998Y144851D01*
X198998D01*
X197999Y145851D01*
X362502Y253501D02*
Y259499D01*
X365501D01*
X366501Y258499D01*
Y256500D01*
X365501Y255500D01*
X362502D01*
X364502D02*
X366501Y253501D01*
X368500D02*
X370500D01*
X369500D01*
Y259499D01*
X368500Y258499D01*
X377498Y259499D02*
X373499D01*
Y256500D01*
X375498Y257500D01*
X376498D01*
X377498Y256500D01*
Y254501D01*
X376498Y253501D01*
X374499D01*
X373499Y254501D01*
X366001Y276999D02*
X365002Y277999D01*
X363002D01*
X362002Y276999D01*
Y273001D01*
X363002Y272001D01*
X365002D01*
X366001Y273001D01*
X368001Y272001D02*
X370000D01*
X369000D01*
Y277999D01*
X368001Y276999D01*
X372999Y277999D02*
X376998D01*
Y276999D01*
X372999Y273001D01*
Y272001D01*
X366584Y268499D02*
X365584Y269499D01*
X363585D01*
X362585Y268499D01*
Y264501D01*
X363585Y263501D01*
X365584D01*
X366584Y264501D01*
X368583Y263501D02*
X370583D01*
X369583D01*
Y269499D01*
X368583Y268499D01*
X377580Y269499D02*
X375581Y268499D01*
X373582Y266500D01*
Y264501D01*
X374581Y263501D01*
X376581D01*
X377580Y264501D01*
Y265500D01*
X376581Y266500D01*
X373582D01*
X344500Y280001D02*
Y283999D01*
X343501Y284999D01*
X341501D01*
X340502Y283999D01*
Y280001D01*
X341501Y279001D01*
X343501D01*
X342501Y281000D02*
X344500Y279001D01*
X343501D02*
X344500Y280001D01*
X350498Y284999D02*
X346500D01*
Y282000D01*
X348499Y283000D01*
X349499D01*
X350498Y282000D01*
Y280001D01*
X349499Y279001D01*
X347499D01*
X346500Y280001D01*
X396999Y260500D02*
X393001D01*
X392001Y259501D01*
Y257501D01*
X393001Y256502D01*
X396999D01*
X397999Y257501D01*
Y259501D01*
X396000Y258501D02*
X397999Y260500D01*
Y259501D02*
X396999Y260500D01*
X397999Y265499D02*
X392001D01*
X395000Y262500D01*
Y266498D01*
X368267Y237000D02*
X364268D01*
X363269Y236001D01*
Y234001D01*
X364268Y233002D01*
X368267D01*
X369267Y234001D01*
Y236001D01*
X367267Y235001D02*
X369267Y237000D01*
Y236001D02*
X368267Y237000D01*
X363269Y239000D02*
Y242998D01*
X364268D01*
X368267Y239000D01*
X369267D01*
X413501Y239000D02*
X417499D01*
X418499Y239999D01*
Y241999D01*
X417499Y242998D01*
X413501D01*
X412501Y241999D01*
Y239999D01*
X414500Y240999D02*
X412501Y239000D01*
Y239999D02*
X413501Y239000D01*
X418499Y233002D02*
X417499Y235001D01*
X415500Y237000D01*
X413501D01*
X412501Y236001D01*
Y234001D01*
X413501Y233002D01*
X414500D01*
X415500Y234001D01*
Y237000D01*
X444001Y247000D02*
X447999D01*
X448999Y247999D01*
Y249999D01*
X447999Y250998D01*
X444001D01*
X443001Y249999D01*
Y247999D01*
X445000Y248999D02*
X443001Y247000D01*
Y247999D02*
X444001Y247000D01*
X447999Y245000D02*
X448999Y244001D01*
Y242001D01*
X447999Y241002D01*
X447000D01*
X446000Y242001D01*
X445000Y241002D01*
X444001D01*
X443001Y242001D01*
Y244001D01*
X444001Y245000D01*
X445000D01*
X446000Y244001D01*
X447000Y245000D01*
X447999D01*
X446000Y244001D02*
Y242001D01*
X443501Y236498D02*
X449499D01*
Y233499D01*
X448499Y232500D01*
X446500D01*
X445500Y233499D01*
Y236498D01*
X443501Y227501D02*
X449499D01*
X446500Y230500D01*
Y226502D01*
X424001Y198500D02*
X427999D01*
X428999Y199499D01*
Y201499D01*
X427999Y202498D01*
X424001D01*
X423001Y201499D01*
Y199499D01*
X425000Y200499D02*
X423001Y198500D01*
Y199499D02*
X424001Y198500D01*
Y196500D02*
X423001Y195501D01*
Y193501D01*
X424001Y192502D01*
X427999D01*
X428999Y193501D01*
Y195501D01*
X427999Y196500D01*
X427000D01*
X426000Y195501D01*
Y192502D01*
X439001Y150499D02*
X442999D01*
X443999Y151498D01*
Y153498D01*
X442999Y154498D01*
X439001D01*
X438001Y153498D01*
Y151498D01*
X440000Y152498D02*
X438001Y150499D01*
Y151498D02*
X439001Y150499D01*
X438001Y148500D02*
Y146500D01*
Y147500D01*
X443999D01*
X442999Y148500D01*
Y143501D02*
X443999Y142501D01*
Y140502D01*
X442999Y139502D01*
X439001D01*
X438001Y140502D01*
Y142501D01*
X439001Y143501D01*
X442999D01*
X410499Y138057D02*
X404501D01*
Y141057D01*
X405501Y142056D01*
X407500D01*
X408500Y141057D01*
Y138057D01*
Y140057D02*
X410499Y142056D01*
Y144056D02*
Y146055D01*
Y145055D01*
X404501D01*
X405501Y144056D01*
Y149054D02*
X404501Y150054D01*
Y152053D01*
X405501Y153053D01*
X406500D01*
X407500Y152053D01*
X408500Y153053D01*
X409499D01*
X410499Y152053D01*
Y150054D01*
X409499Y149054D01*
X408500D01*
X407500Y150054D01*
X406500Y149054D01*
X405501D01*
X407500Y150054D02*
Y152053D01*
X273002Y241501D02*
Y247499D01*
X276002D01*
X277001Y246499D01*
Y244500D01*
X276002Y243500D01*
X273002D01*
X275002D02*
X277001Y241501D01*
X279000D02*
X281000D01*
X280000D01*
Y247499D01*
X279000Y246499D01*
X283999D02*
X284998Y247499D01*
X286998D01*
X287998Y246499D01*
Y245500D01*
X286998Y244500D01*
X285998D01*
X286998D01*
X287998Y243500D01*
Y242501D01*
X286998Y241501D01*
X284998D01*
X283999Y242501D01*
X252500Y302501D02*
Y306499D01*
X251500Y307499D01*
X249501D01*
X248501Y306499D01*
Y302501D01*
X249501Y301501D01*
X251500D01*
X250501Y303500D02*
X252500Y301501D01*
X251500D02*
X252500Y302501D01*
X254499Y301501D02*
X256499D01*
X255499D01*
Y307499D01*
X254499Y306499D01*
X294999Y259002D02*
X289001D01*
Y262001D01*
X290001Y263001D01*
X292000D01*
X293000Y262001D01*
Y259002D01*
Y261002D02*
X294999Y263001D01*
Y265001D02*
Y267000D01*
Y266000D01*
X289001D01*
X290001Y265001D01*
X294999Y273998D02*
Y269999D01*
X291000Y273998D01*
X290001D01*
X289001Y272998D01*
Y270999D01*
X290001Y269999D01*
X280501Y263001D02*
X279501Y262001D01*
Y260002D01*
X280501Y259002D01*
X284499D01*
X285499Y260002D01*
Y262001D01*
X284499Y263001D01*
X285499Y265001D02*
Y267000D01*
Y266000D01*
X279501D01*
X280501Y265001D01*
X279501Y273998D02*
Y269999D01*
X282500D01*
X281500Y271998D01*
Y272998D01*
X282500Y273998D01*
X284499D01*
X285499Y272998D01*
Y270999D01*
X284499Y269999D01*
X276499Y261002D02*
X270501D01*
Y264001D01*
X271501Y265001D01*
X273500D01*
X274500Y264001D01*
Y261002D01*
Y263001D02*
X276499Y265001D01*
Y267000D02*
Y269000D01*
Y268000D01*
X270501D01*
X271501Y267000D01*
X276499Y271999D02*
Y273998D01*
Y272998D01*
X270501D01*
X271501Y271999D01*
X266999Y259502D02*
X261001D01*
Y262502D01*
X262001Y263501D01*
X264000D01*
X265000Y262502D01*
Y259502D01*
Y261502D02*
X266999Y263501D01*
Y265500D02*
Y267500D01*
Y266500D01*
X261001D01*
X262001Y265500D01*
Y270499D02*
X261001Y271498D01*
Y273498D01*
X262001Y274498D01*
X265999D01*
X266999Y273498D01*
Y271498D01*
X265999Y270499D01*
X262001D01*
X228499Y269002D02*
X222501D01*
Y272001D01*
X223501Y273000D01*
X225500D01*
X226500Y272001D01*
Y269002D01*
Y271001D02*
X228499Y273000D01*
X227499Y275000D02*
X228499Y275999D01*
Y277999D01*
X227499Y278998D01*
X223501D01*
X222501Y277999D01*
Y275999D01*
X223501Y275000D01*
X224500D01*
X225500Y275999D01*
Y278998D01*
X215001Y268001D02*
X214001Y267002D01*
Y265002D01*
X215001Y264002D01*
X218999D01*
X219999Y265002D01*
Y267002D01*
X218999Y268001D01*
X219999Y270001D02*
Y272000D01*
Y271000D01*
X214001D01*
X215001Y270001D01*
Y274999D02*
X214001Y275998D01*
Y277998D01*
X215001Y278998D01*
X216000D01*
X217000Y277998D01*
Y276998D01*
Y277998D01*
X218000Y278998D01*
X218999D01*
X219999Y277998D01*
Y275998D01*
X218999Y274999D01*
X270500Y231999D02*
X269501Y232999D01*
X267501D01*
X266502Y231999D01*
Y228001D01*
X267501Y227001D01*
X269501D01*
X270500Y228001D01*
X272500Y231999D02*
X273499Y232999D01*
X275499D01*
X276498Y231999D01*
Y231000D01*
X275499Y230000D01*
X276498Y229000D01*
Y228001D01*
X275499Y227001D01*
X273499D01*
X272500Y228001D01*
Y229000D01*
X273499Y230000D01*
X272500Y231000D01*
Y231999D01*
X273499Y230000D02*
X275499D01*
X286001Y196498D02*
X291999D01*
Y193499D01*
X290999Y192500D01*
X289000D01*
X288000Y193499D01*
Y196498D01*
Y194499D02*
X286001Y192500D01*
X291999Y190500D02*
Y186502D01*
X290999D01*
X287001Y190500D01*
X286001D01*
X258501Y245001D02*
X257501Y244001D01*
Y242002D01*
X258501Y241002D01*
X262499D01*
X263499Y242002D01*
Y244001D01*
X262499Y245001D01*
X263499Y247000D02*
Y249000D01*
Y248000D01*
X257501D01*
X258501Y247000D01*
X263499Y251998D02*
Y253998D01*
Y252998D01*
X257501D01*
X258501Y251998D01*
X250501Y245001D02*
X249501Y244002D01*
Y242002D01*
X250501Y241002D01*
X254499D01*
X255499Y242002D01*
Y244002D01*
X254499Y245001D01*
X255499Y247001D02*
Y249000D01*
Y248000D01*
X249501D01*
X250501Y247001D01*
X255499Y255998D02*
Y251999D01*
X251500Y255998D01*
X250501D01*
X249501Y254998D01*
Y252998D01*
X250501Y251999D01*
X247019Y235503D02*
X241021D01*
Y238502D01*
X242020Y239501D01*
X244020D01*
X245019Y238502D01*
Y235503D01*
Y237502D02*
X247019Y239501D01*
Y245499D02*
Y241501D01*
X243020Y245499D01*
X242020D01*
X241021Y244500D01*
Y242500D01*
X242020Y241501D01*
X247019Y250498D02*
X241021D01*
X244020Y247499D01*
Y251497D01*
X281002Y227001D02*
Y232999D01*
X284001D01*
X285000Y231999D01*
Y230000D01*
X284001Y229000D01*
X281002D01*
X283001D02*
X285000Y227001D01*
X290998Y232999D02*
X288999Y231999D01*
X287000Y230000D01*
Y228001D01*
X287999Y227001D01*
X289999D01*
X290998Y228001D01*
Y229000D01*
X289999Y230000D01*
X287000D01*
X281499Y193000D02*
X282499Y193999D01*
Y195999D01*
X281499Y196998D01*
X277501D01*
X276501Y195999D01*
Y193999D01*
X277501Y193000D01*
Y191000D02*
X276501Y190001D01*
Y188001D01*
X277501Y187002D01*
X281499D01*
X282499Y188001D01*
Y190001D01*
X281499Y191000D01*
X280500D01*
X279500Y190001D01*
Y187002D01*
X214001Y253501D02*
Y257499D01*
X213001Y258499D01*
X211002D01*
X210002Y257499D01*
Y253501D01*
X211002Y252501D01*
X213001D01*
X212002Y254500D02*
X214001Y252501D01*
X213001D02*
X214001Y253501D01*
X216001Y252501D02*
X218000D01*
X217000D01*
Y258499D01*
X216001Y257499D01*
X223998Y252501D02*
Y258499D01*
X220999Y255500D01*
X224998D01*
X214001Y223501D02*
Y227499D01*
X213001Y228499D01*
X211002D01*
X210002Y227499D01*
Y223501D01*
X211002Y222501D01*
X213001D01*
X212002Y224500D02*
X214001Y222501D01*
X213001D02*
X214001Y223501D01*
X216001Y222501D02*
X218000D01*
X217000D01*
Y228499D01*
X216001Y227499D01*
X220999D02*
X221999Y228499D01*
X223998D01*
X224998Y227499D01*
Y226500D01*
X223998Y225500D01*
X222998D01*
X223998D01*
X224998Y224500D01*
Y223501D01*
X223998Y222501D01*
X221999D01*
X220999Y223501D01*
X186030Y222550D02*
Y228549D01*
X189029D01*
X190029Y227549D01*
Y225549D01*
X189029Y224550D01*
X186030D01*
X188029D02*
X190029Y222550D01*
X196027D02*
X192028D01*
X196027Y226549D01*
Y227549D01*
X195027Y228549D01*
X193028D01*
X192028Y227549D01*
X202025Y222550D02*
X198026D01*
X202025Y226549D01*
Y227549D01*
X201025Y228549D01*
X199026D01*
X198026Y227549D01*
X265501Y196998D02*
X271499D01*
Y193999D01*
X270499Y193000D01*
X268500D01*
X267500Y193999D01*
Y196998D01*
Y194999D02*
X265501Y193000D01*
X271499Y187002D02*
Y191000D01*
X268500D01*
X269500Y189001D01*
Y188001D01*
X268500Y187002D01*
X266501D01*
X265501Y188001D01*
Y190001D01*
X266501Y191000D01*
X196001Y268501D02*
X195001Y267502D01*
Y265502D01*
X196001Y264503D01*
X199999D01*
X200999Y265502D01*
Y267502D01*
X199999Y268501D01*
X200999Y274499D02*
Y270501D01*
X197000Y274499D01*
X196001D01*
X195001Y273500D01*
Y271500D01*
X196001Y270501D01*
X200999Y280497D02*
Y276499D01*
X197000Y280497D01*
X196001D01*
X195001Y279498D01*
Y277498D01*
X196001Y276499D01*
X206501Y269001D02*
X205501Y268001D01*
Y266002D01*
X206501Y265002D01*
X210499D01*
X211499Y266002D01*
Y268001D01*
X210499Y269001D01*
X211499Y274999D02*
Y271000D01*
X207500Y274999D01*
X206501D01*
X205501Y273999D01*
Y272000D01*
X206501Y271000D01*
X211499Y276998D02*
Y278998D01*
Y277998D01*
X205501D01*
X206501Y276998D01*
X208002Y189999D02*
Y185001D01*
X209001Y184001D01*
X211001D01*
X212000Y185001D01*
Y189999D01*
X216999Y184001D02*
Y189999D01*
X214000Y187000D01*
X217998D01*
X139001Y262498D02*
X144999D01*
Y259499D01*
X143999Y258500D01*
X142000D01*
X141000Y259499D01*
Y262498D01*
X144999Y252502D02*
X143999Y254501D01*
X142000Y256500D01*
X140001D01*
X139001Y255501D01*
Y253501D01*
X140001Y252502D01*
X141000D01*
X142000Y253501D01*
Y256500D01*
X184001Y265999D02*
X187999D01*
X188999Y266999D01*
Y268998D01*
X187999Y269998D01*
X184001D01*
X183001Y268998D01*
Y266999D01*
X185000Y267999D02*
X183001Y265999D01*
Y266999D02*
X184001Y265999D01*
X183001Y264000D02*
Y262000D01*
Y263000D01*
X188999D01*
X187999Y264000D01*
X183001Y259001D02*
Y257002D01*
Y258002D01*
X188999D01*
X187999Y259001D01*
X190999Y237002D02*
X185001D01*
Y240002D01*
X186001Y241001D01*
X188000D01*
X189000Y240002D01*
Y237002D01*
Y239002D02*
X190999Y241001D01*
Y243001D02*
Y245000D01*
Y244000D01*
X185001D01*
X186001Y243001D01*
X189999Y247999D02*
X190999Y248998D01*
Y250998D01*
X189999Y251998D01*
X186001D01*
X185001Y250998D01*
Y248998D01*
X186001Y247999D01*
X187000D01*
X188000Y248998D01*
Y251998D01*
X372501Y146501D02*
Y152499D01*
X375500D01*
X376500Y151499D01*
Y149500D01*
X375500Y148500D01*
X372501D01*
X378499Y146501D02*
X380499D01*
X379499D01*
Y152499D01*
X378499Y151499D01*
X344002Y146501D02*
Y152499D01*
X347001D01*
X348000Y151499D01*
Y149500D01*
X347001Y148500D01*
X344002D01*
X353998Y146501D02*
X350000D01*
X353998Y150500D01*
Y151499D01*
X352999Y152499D01*
X350999D01*
X350000Y151499D01*
X317736Y308859D02*
Y302861D01*
X320735D01*
X321735Y303860D01*
Y307859D01*
X320735Y308859D01*
X317736D01*
X327733Y302861D02*
X323734D01*
X327733Y306859D01*
Y307859D01*
X326733Y308859D01*
X324734D01*
X323734Y307859D01*
X305150Y300054D02*
Y294056D01*
X308149D01*
X309148Y295056D01*
Y299054D01*
X308149Y300054D01*
X305150D01*
X311148Y294056D02*
X313147D01*
X312147D01*
Y300054D01*
X311148Y299054D01*
X273100Y160274D02*
Y154276D01*
X277099D01*
X279098D02*
X281097D01*
X280098D01*
Y160274D01*
X279098Y159275D01*
X299500Y227343D02*
Y222345D01*
X300500Y221345D01*
X302499D01*
X303499Y222345D01*
Y227343D01*
X305498Y226343D02*
X306498Y227343D01*
X308497D01*
X309497Y226343D01*
Y225344D01*
X308497Y224344D01*
X307497D01*
X308497D01*
X309497Y223344D01*
Y222345D01*
X308497Y221345D01*
X306498D01*
X305498Y222345D01*
X237650Y224199D02*
Y219200D01*
X238650Y218201D01*
X240649D01*
X241649Y219200D01*
Y224199D01*
X247647Y218201D02*
X243649D01*
X247647Y222200D01*
Y223199D01*
X246648Y224199D01*
X244648D01*
X243649Y223199D01*
X314537Y166349D02*
Y161350D01*
X315537Y160350D01*
X317536D01*
X318536Y161350D01*
Y166349D01*
X320535Y160350D02*
X322534D01*
X321535D01*
Y166349D01*
X320535Y165349D01*
X186030Y189550D02*
Y195548D01*
X189029D01*
X190029Y194549D01*
Y192549D01*
X189029Y191550D01*
X186030D01*
X188029D02*
X190029Y189550D01*
X196027D02*
X192028D01*
X196027Y193549D01*
Y194549D01*
X195027Y195548D01*
X193028D01*
X192028Y194549D01*
X198026Y189550D02*
X200025D01*
X199026D01*
Y195548D01*
X198026Y194549D01*
X378300Y210100D02*
Y216098D01*
X381299D01*
X382299Y215098D01*
Y213099D01*
X381299Y212099D01*
X378300D01*
X380299D02*
X382299Y210100D01*
X384298D02*
X386297D01*
X385298D01*
Y216098D01*
X384298Y215098D01*
X389296Y216098D02*
X393295D01*
Y215098D01*
X389296Y211100D01*
Y210100D01*
X395800D02*
Y216098D01*
X398799D01*
X399799Y215098D01*
Y213099D01*
X398799Y212099D01*
X395800D01*
X397799D02*
X399799Y210100D01*
X401798D02*
X403797D01*
X402798D01*
Y216098D01*
X401798Y215098D01*
X410795Y216098D02*
X408796Y215098D01*
X406796Y213099D01*
Y211100D01*
X407796Y210100D01*
X409796D01*
X410795Y211100D01*
Y212099D01*
X409796Y213099D01*
X406796D01*
X299800Y239100D02*
Y245098D01*
X302799D01*
X303799Y244098D01*
Y242099D01*
X302799Y241099D01*
X299800D01*
X301799D02*
X303799Y239100D01*
X305798Y244098D02*
X306798Y245098D01*
X308797D01*
X309797Y244098D01*
Y243099D01*
X308797Y242099D01*
X309797Y241099D01*
Y240100D01*
X308797Y239100D01*
X306798D01*
X305798Y240100D01*
Y241099D01*
X306798Y242099D01*
X305798Y243099D01*
Y244098D01*
X306798Y242099D02*
X308797D01*
X237780Y171600D02*
Y177598D01*
X240779D01*
X241779Y176598D01*
Y174599D01*
X240779Y173599D01*
X237780D01*
X239780D02*
X241779Y171600D01*
X243778Y176598D02*
X244778Y177598D01*
X246777D01*
X247777Y176598D01*
Y175599D01*
X246777Y174599D01*
X245778D01*
X246777D01*
X247777Y173599D01*
Y172600D01*
X246777Y171600D01*
X244778D01*
X243778Y172600D01*
X300002Y188501D02*
Y194499D01*
X303001D01*
X304000Y193499D01*
Y191500D01*
X303001Y190500D01*
X300002D01*
X302001D02*
X304000Y188501D01*
X309998D02*
X306000D01*
X309998Y192500D01*
Y193499D01*
X308999Y194499D01*
X306999D01*
X306000Y193499D01*
X332001Y163499D02*
X337999D01*
Y160500D01*
X336999Y159500D01*
X335000D01*
X334000Y160500D01*
Y163499D01*
Y161499D02*
X332001Y159500D01*
Y157501D02*
Y155501D01*
Y156501D01*
X337999D01*
X336999Y157501D01*
X143399Y164000D02*
Y167998D01*
X142399Y168998D01*
X140400D01*
X139400Y167998D01*
Y164000D01*
X140400Y163000D01*
X142399D01*
X141399Y164999D02*
X143399Y163000D01*
X142399D02*
X143399Y164000D01*
X145398Y163000D02*
X147397D01*
X146398D01*
Y168998D01*
X145398Y167998D01*
X150396Y168998D02*
X154395D01*
Y167998D01*
X150396Y164000D01*
Y163000D01*
X143399Y196000D02*
Y199998D01*
X142399Y200998D01*
X140400D01*
X139400Y199998D01*
Y196000D01*
X140400Y195000D01*
X142399D01*
X141399Y196999D02*
X143399Y195000D01*
X142399D02*
X143399Y196000D01*
X145398Y195000D02*
X147397D01*
X146398D01*
Y200998D01*
X145398Y199998D01*
X154395Y200998D02*
X152396Y199998D01*
X150396Y197999D01*
Y196000D01*
X151396Y195000D01*
X153395D01*
X154395Y196000D01*
Y196999D01*
X153395Y197999D01*
X150396D01*
X143399Y229000D02*
Y232998D01*
X142399Y233998D01*
X140400D01*
X139400Y232998D01*
Y229000D01*
X140400Y228000D01*
X142399D01*
X141399Y229999D02*
X143399Y228000D01*
X142399D02*
X143399Y229000D01*
X145398Y228000D02*
X147397D01*
X146398D01*
Y233998D01*
X145398Y232998D01*
X154395Y233998D02*
X150396D01*
Y230999D01*
X152396Y231999D01*
X153395D01*
X154395Y230999D01*
Y229000D01*
X153395Y228000D01*
X151396D01*
X150396Y229000D01*
X142899Y301500D02*
Y305498D01*
X141899Y306498D01*
X139900D01*
X138900Y305498D01*
Y301500D01*
X139900Y300500D01*
X141899D01*
X140899Y302499D02*
X142899Y300500D01*
X141899D02*
X142899Y301500D01*
X144898Y300500D02*
X146897D01*
X145898D01*
Y306498D01*
X144898Y305498D01*
X153895Y300500D02*
X149896D01*
X153895Y304499D01*
Y305498D01*
X152895Y306498D01*
X150896D01*
X149896Y305498D01*
X285399Y331300D02*
Y335298D01*
X284399Y336298D01*
X282400D01*
X281400Y335298D01*
Y331300D01*
X282400Y330300D01*
X284399D01*
X283399Y332299D02*
X285399Y330300D01*
X284399D02*
X285399Y331300D01*
X287398Y335298D02*
X288398Y336298D01*
X290397D01*
X291397Y335298D01*
Y334299D01*
X290397Y333299D01*
X289397D01*
X290397D01*
X291397Y332299D01*
Y331300D01*
X290397Y330300D01*
X288398D01*
X287398Y331300D01*
X203699Y327100D02*
Y331098D01*
X202699Y332098D01*
X200700D01*
X199700Y331098D01*
Y327100D01*
X200700Y326100D01*
X202699D01*
X201699Y328099D02*
X203699Y326100D01*
X202699D02*
X203699Y327100D01*
X209697Y326100D02*
X205698D01*
X209697Y330099D01*
Y331098D01*
X208697Y332098D01*
X206698D01*
X205698Y331098D01*
X260001Y131498D02*
X265999D01*
Y128499D01*
X264999Y127500D01*
X263000D01*
X262000Y128499D01*
Y131498D01*
X265999Y121502D02*
Y125500D01*
X263000D01*
X264000Y123501D01*
Y122501D01*
X263000Y121502D01*
X261001D01*
X260001Y122501D01*
Y124501D01*
X261001Y125500D01*
X404600Y192900D02*
Y198898D01*
X407599D01*
X408599Y197898D01*
Y195899D01*
X407599Y194899D01*
X404600D01*
X410598Y197898D02*
X411598Y198898D01*
X413597D01*
X414597Y197898D01*
Y196899D01*
X413597Y195899D01*
X412597D01*
X413597D01*
X414597Y194899D01*
Y193900D01*
X413597Y192900D01*
X411598D01*
X410598Y193900D01*
X204001Y121501D02*
X203001Y120502D01*
Y118502D01*
X204001Y117503D01*
X207999D01*
X208999Y118502D01*
Y120502D01*
X207999Y121501D01*
X208999Y127499D02*
Y123501D01*
X205000Y127499D01*
X204001D01*
X203001Y126500D01*
Y124500D01*
X204001Y123501D01*
Y129499D02*
X203001Y130498D01*
Y132498D01*
X204001Y133497D01*
X207999D01*
X208999Y132498D01*
Y130498D01*
X207999Y129499D01*
X204001D01*
X255482Y148999D02*
X254482Y149999D01*
X252482D01*
X251483Y148999D01*
Y145001D01*
X252482Y144001D01*
X254482D01*
X255482Y145001D01*
X257481Y144001D02*
X259480D01*
X258481D01*
Y149999D01*
X257481Y148999D01*
X262479Y145001D02*
X263479Y144001D01*
X265478D01*
X266478Y145001D01*
Y148999D01*
X265478Y149999D01*
X263479D01*
X262479Y148999D01*
Y148000D01*
X263479Y147000D01*
X266478D01*
X256799Y176598D02*
X255799Y177598D01*
X253800D01*
X252800Y176598D01*
Y172600D01*
X253800Y171600D01*
X255799D01*
X256799Y172600D01*
X258798Y171600D02*
X260797D01*
X259798D01*
Y177598D01*
X258798Y176598D01*
X263796D02*
X264796Y177598D01*
X266795D01*
X267795Y176598D01*
Y175599D01*
X266795Y174599D01*
X267795Y173599D01*
Y172600D01*
X266795Y171600D01*
X264796D01*
X263796Y172600D01*
Y173599D01*
X264796Y174599D01*
X263796Y175599D01*
Y176598D01*
X264796Y174599D02*
X266795D01*
X267399Y312698D02*
X266399Y313698D01*
X264400D01*
X263400Y312698D01*
Y308700D01*
X264400Y307700D01*
X266399D01*
X267399Y308700D01*
X269398Y307700D02*
X271397D01*
X270398D01*
Y313698D01*
X269398Y312698D01*
X277396Y307700D02*
Y313698D01*
X274396Y310699D01*
X278395D01*
X291299Y174598D02*
X290299Y175598D01*
X288300D01*
X287300Y174598D01*
Y170600D01*
X288300Y169600D01*
X290299D01*
X291299Y170600D01*
X297297Y175598D02*
X293298D01*
Y172599D01*
X295297Y173599D01*
X296297D01*
X297297Y172599D01*
Y170600D01*
X296297Y169600D01*
X294298D01*
X293298Y170600D01*
X304000Y174499D02*
X303001Y175499D01*
X301001D01*
X300002Y174499D01*
Y170501D01*
X301001Y169501D01*
X303001D01*
X304000Y170501D01*
X308999Y169501D02*
Y175499D01*
X306000Y172500D01*
X309998D01*
X304000Y183999D02*
X303001Y184999D01*
X301001D01*
X300002Y183999D01*
Y180001D01*
X301001Y179001D01*
X303001D01*
X304000Y180001D01*
X306000Y183999D02*
X306999Y184999D01*
X308999D01*
X309998Y183999D01*
Y183000D01*
X308999Y182000D01*
X307999D01*
X308999D01*
X309998Y181000D01*
Y180001D01*
X308999Y179001D01*
X306999D01*
X306000Y180001D01*
X255981Y159944D02*
X254981Y160944D01*
X252982D01*
X251982Y159944D01*
Y155946D01*
X252982Y154946D01*
X254981D01*
X255981Y155946D01*
X261979Y154946D02*
X257980D01*
X261979Y158945D01*
Y159944D01*
X260979Y160944D01*
X258980D01*
X257980Y159944D01*
X317350Y121499D02*
X316351Y122499D01*
X314351D01*
X313352Y121499D01*
Y117501D01*
X314351Y116501D01*
X316351D01*
X317350Y117501D01*
X319350Y116501D02*
X321349D01*
X320349D01*
Y122499D01*
X319350Y121499D01*
M02*
