G04*
G04 #@! TF.GenerationSoftware,Altium Limited,Altium Designer,20.0.9 (164)*
G04*
G04 Layer_Color=32896*
%FSLAX25Y25*%
%MOIN*%
G70*
G01*
G75*
G36*
X411300Y334900D02*
X412100D01*
Y334100D01*
X412900D01*
Y333300D01*
X413700D01*
Y332500D01*
X414500D01*
Y331700D01*
X415300D01*
Y330900D01*
X416100D01*
Y330100D01*
Y329300D01*
X416900D01*
Y328500D01*
Y327700D01*
X417700D01*
Y326900D01*
Y326100D01*
X418500D01*
Y325300D01*
Y324500D01*
Y323700D01*
X419300D01*
Y322900D01*
Y322100D01*
Y321300D01*
X420100D01*
Y320500D01*
Y319700D01*
Y318900D01*
Y318100D01*
Y317300D01*
Y316500D01*
X420900D01*
Y315700D01*
Y314900D01*
Y314100D01*
Y313300D01*
Y312500D01*
Y311700D01*
Y310900D01*
Y310100D01*
Y309300D01*
Y308500D01*
Y307700D01*
Y306900D01*
Y306100D01*
X420100D01*
Y305300D01*
Y304500D01*
Y303700D01*
X419300D01*
Y302900D01*
X421700D01*
Y302100D01*
X422500D01*
Y301300D01*
Y300500D01*
X421700D01*
Y299700D01*
Y298900D01*
Y298100D01*
Y297300D01*
X420900D01*
Y296500D01*
Y295700D01*
X420100D01*
Y294900D01*
X420900D01*
Y294100D01*
X422500D01*
Y293300D01*
X425700D01*
Y294100D01*
X427300D01*
Y293300D01*
Y292500D01*
Y291700D01*
X426500D01*
Y290900D01*
Y290100D01*
X425700D01*
Y289300D01*
X424100D01*
Y288500D01*
X425700D01*
Y287700D01*
X427300D01*
Y286900D01*
X429700D01*
Y286100D01*
Y285300D01*
X428900D01*
Y284500D01*
Y283700D01*
Y282900D01*
X428100D01*
Y282100D01*
X427300D01*
Y281300D01*
X425700D01*
Y280500D01*
X423300D01*
Y279700D01*
X422500D01*
Y278900D01*
X423300D01*
Y278100D01*
Y277300D01*
Y276500D01*
Y275700D01*
Y274900D01*
Y274100D01*
Y273300D01*
Y272500D01*
Y271700D01*
X422500D01*
Y270900D01*
Y270100D01*
X421700D01*
Y269300D01*
Y268500D01*
X420900D01*
Y267700D01*
X420100D01*
Y266900D01*
X419300D01*
Y266100D01*
X418500D01*
Y265300D01*
X416900D01*
Y264500D01*
X415300D01*
Y263700D01*
X413700D01*
Y262900D01*
Y262100D01*
X412900D01*
Y261300D01*
Y260500D01*
Y259700D01*
X414500D01*
Y260500D01*
X416900D01*
Y261300D01*
X417700D01*
Y260500D01*
X418500D01*
Y259700D01*
Y258900D01*
Y258100D01*
Y257300D01*
X417700D01*
Y256500D01*
Y255700D01*
X416100D01*
Y254900D01*
X416900D01*
Y254100D01*
X417700D01*
Y253300D01*
X418500D01*
Y252500D01*
X419300D01*
Y251700D01*
X420100D01*
Y250900D01*
Y250100D01*
Y249300D01*
X420900D01*
Y248500D01*
Y247700D01*
Y246900D01*
Y246100D01*
Y245300D01*
Y244500D01*
Y243700D01*
Y242900D01*
Y242100D01*
X420100D01*
Y241300D01*
Y240500D01*
X419300D01*
Y239700D01*
X418500D01*
Y238900D01*
X417700D01*
Y238100D01*
X415300D01*
Y237300D01*
X414500D01*
Y236500D01*
X413700D01*
Y235700D01*
X412100D01*
Y234900D01*
X408100D01*
Y234100D01*
Y233300D01*
Y232500D01*
Y231700D01*
X412100D01*
Y232500D01*
X416900D01*
Y233300D01*
X419300D01*
Y234100D01*
X421700D01*
Y234900D01*
X423300D01*
Y235700D01*
X424100D01*
Y236500D01*
X425700D01*
Y237300D01*
X426500D01*
Y238100D01*
X427300D01*
Y238900D01*
Y239700D01*
Y240500D01*
X428100D01*
Y241300D01*
Y242100D01*
Y242900D01*
Y243700D01*
X428900D01*
Y244500D01*
Y245300D01*
Y246100D01*
Y246900D01*
Y247700D01*
Y248500D01*
X428100D01*
Y249300D01*
Y250100D01*
Y250900D01*
Y251700D01*
Y252500D01*
X427300D01*
Y253300D01*
X426500D01*
Y252500D01*
X425700D01*
Y251700D01*
Y250900D01*
X424900D01*
Y250100D01*
X424100D01*
Y249300D01*
X422500D01*
Y250100D01*
Y250900D01*
X423300D01*
Y251700D01*
X422500D01*
Y252500D01*
X423300D01*
Y253300D01*
Y254100D01*
Y254900D01*
Y255700D01*
Y256500D01*
Y257300D01*
Y258100D01*
Y258900D01*
Y259700D01*
Y260500D01*
X424100D01*
Y261300D01*
Y262100D01*
Y262900D01*
Y263700D01*
X424900D01*
Y264500D01*
X427300D01*
Y263700D01*
X428100D01*
Y262900D01*
X428900D01*
Y262100D01*
X429700D01*
Y261300D01*
Y260500D01*
X430500D01*
Y259700D01*
X431300D01*
Y258900D01*
X432100D01*
Y258100D01*
Y257300D01*
X432900D01*
Y256500D01*
X433700D01*
Y255700D01*
Y254900D01*
X434500D01*
Y254100D01*
X435300D01*
Y253300D01*
Y252500D01*
X433700D01*
Y253300D01*
X430500D01*
Y252500D01*
Y251700D01*
X431300D01*
Y250900D01*
Y250100D01*
Y249300D01*
Y248500D01*
Y247700D01*
Y246900D01*
X432100D01*
Y246100D01*
Y245300D01*
Y244500D01*
X431300D01*
Y243700D01*
X432100D01*
Y242900D01*
X431300D01*
Y242100D01*
Y241300D01*
Y240500D01*
Y239700D01*
X430500D01*
Y238900D01*
Y238100D01*
X429700D01*
Y237300D01*
Y236500D01*
X428900D01*
Y235700D01*
X428100D01*
Y234900D01*
Y234100D01*
X426500D01*
Y233300D01*
X424900D01*
Y232500D01*
X424100D01*
Y231700D01*
X421700D01*
Y230900D01*
X419300D01*
Y230100D01*
X415300D01*
Y229300D01*
X406500D01*
Y228500D01*
X405700D01*
Y227700D01*
Y226900D01*
X404900D01*
Y226100D01*
X404100D01*
Y225300D01*
X403300D01*
Y224500D01*
X402500D01*
Y223700D01*
X401700D01*
Y222900D01*
X400100D01*
Y222100D01*
X398500D01*
Y221300D01*
X397700D01*
Y220500D01*
X395300D01*
Y219700D01*
X392900D01*
Y218900D01*
X389700D01*
Y218100D01*
X384100D01*
Y218900D01*
X382500D01*
Y219700D01*
X381700D01*
Y220500D01*
Y221300D01*
Y222100D01*
Y222900D01*
Y223700D01*
Y224500D01*
X380900D01*
Y223700D01*
X368100D01*
Y224500D01*
X364900D01*
Y225300D01*
X362500D01*
Y226100D01*
X360100D01*
Y226900D01*
X359300D01*
Y227700D01*
X357700D01*
Y226900D01*
X355300D01*
Y226100D01*
X347300D01*
Y226900D01*
X346500D01*
Y227700D01*
X345700D01*
Y228500D01*
X344900D01*
Y229300D01*
Y230100D01*
Y230900D01*
Y231700D01*
Y232500D01*
X345700D01*
Y233300D01*
X346500D01*
Y234100D01*
X347300D01*
Y234900D01*
X348100D01*
Y235700D01*
X348900D01*
Y236500D01*
X350500D01*
Y237300D01*
X352100D01*
Y238100D01*
X352900D01*
Y238900D01*
X353700D01*
Y239700D01*
Y240500D01*
X354500D01*
Y241300D01*
X355300D01*
Y242100D01*
Y242900D01*
X356100D01*
Y243700D01*
Y244500D01*
X356900D01*
Y245300D01*
Y246100D01*
X357700D01*
Y246900D01*
Y247700D01*
X358500D01*
Y248500D01*
Y249300D01*
X359300D01*
Y250100D01*
Y250900D01*
X360100D01*
Y251700D01*
Y252500D01*
X358500D01*
Y253300D01*
X356100D01*
Y254100D01*
X354500D01*
Y254900D01*
Y255700D01*
Y256500D01*
X355300D01*
Y257300D01*
X356900D01*
Y258100D01*
X355300D01*
Y258900D01*
X354500D01*
Y259700D01*
X352900D01*
Y258900D01*
X351300D01*
Y259700D01*
X348900D01*
Y260500D01*
X348100D01*
Y261300D01*
X346500D01*
Y262100D01*
X345700D01*
Y262900D01*
X344900D01*
Y263700D01*
Y264500D01*
X344100D01*
Y265300D01*
Y266100D01*
Y266900D01*
X343300D01*
Y267700D01*
Y268500D01*
X342500D01*
Y269300D01*
X341700D01*
Y270100D01*
Y270900D01*
X342500D01*
Y271700D01*
X344100D01*
Y272500D01*
Y273300D01*
Y274100D01*
X344900D01*
Y274900D01*
Y275700D01*
X344100D01*
Y276500D01*
Y277300D01*
X343300D01*
Y278100D01*
Y278900D01*
X342500D01*
Y279700D01*
Y280500D01*
Y281300D01*
Y282100D01*
Y282900D01*
Y283700D01*
Y284500D01*
X341700D01*
Y285300D01*
Y286100D01*
X340100D01*
Y286900D01*
Y287700D01*
Y288500D01*
X339300D01*
Y289300D01*
Y290100D01*
X338500D01*
Y290900D01*
Y291700D01*
X337700D01*
Y292500D01*
Y293300D01*
Y294100D01*
Y294900D01*
X336900D01*
Y295700D01*
X337700D01*
Y296500D01*
Y297300D01*
X338500D01*
Y298100D01*
X340100D01*
Y298900D01*
X339300D01*
Y299700D01*
Y300500D01*
X338500D01*
Y301300D01*
Y302100D01*
Y302900D01*
Y303700D01*
Y304500D01*
Y305300D01*
Y306100D01*
X342500D01*
Y306900D01*
Y307700D01*
X341700D01*
Y308500D01*
Y309300D01*
Y310100D01*
Y310900D01*
Y311700D01*
Y312500D01*
Y313300D01*
Y314100D01*
X342500D01*
Y314900D01*
Y315700D01*
Y316500D01*
Y317300D01*
Y318100D01*
X343300D01*
Y318900D01*
Y319700D01*
Y320500D01*
X344100D01*
Y321300D01*
Y322100D01*
Y322900D01*
X344900D01*
Y323700D01*
Y324500D01*
X345700D01*
Y325300D01*
Y326100D01*
X346500D01*
Y326900D01*
X347300D01*
Y327700D01*
X348100D01*
Y328500D01*
X348900D01*
Y329300D01*
Y330100D01*
X350500D01*
Y330900D01*
X353700D01*
Y330100D01*
X354500D01*
Y329300D01*
X355300D01*
Y328500D01*
Y327700D01*
X356100D01*
Y326900D01*
Y326100D01*
Y325300D01*
X356900D01*
Y324500D01*
Y323700D01*
X357700D01*
Y322900D01*
Y322100D01*
X358500D01*
Y321300D01*
Y320500D01*
X359300D01*
Y319700D01*
Y318900D01*
X360100D01*
Y319700D01*
X362500D01*
Y320500D01*
X366500D01*
Y321300D01*
X371300D01*
Y320500D01*
X373700D01*
Y321300D01*
X374500D01*
Y322100D01*
X376100D01*
Y322900D01*
X377700D01*
Y323700D01*
X380100D01*
Y324500D01*
X389700D01*
Y323700D01*
X392100D01*
Y322900D01*
X394500D01*
Y322100D01*
X395300D01*
Y321300D01*
X396100D01*
Y320500D01*
X396900D01*
Y321300D01*
X397700D01*
Y322100D01*
X398500D01*
Y322900D01*
X399300D01*
Y323700D01*
X400100D01*
Y324500D01*
X400900D01*
Y325300D01*
Y326100D01*
X401700D01*
Y326900D01*
Y327700D01*
X402500D01*
Y328500D01*
X403300D01*
Y329300D01*
Y330100D01*
X404100D01*
Y330900D01*
Y331700D01*
X404900D01*
Y332500D01*
X405700D01*
Y333300D01*
Y334100D01*
X406500D01*
Y334900D01*
X407300D01*
Y335700D01*
X411300D01*
Y334900D01*
D02*
G37*
G36*
X319000Y274700D02*
X319800D01*
Y273900D01*
Y273100D01*
Y272300D01*
Y271500D01*
X320600D01*
Y270700D01*
Y269900D01*
Y269100D01*
Y268300D01*
Y267500D01*
X321400D01*
Y266700D01*
Y265900D01*
Y265100D01*
Y264300D01*
Y263500D01*
X322200D01*
Y262700D01*
Y261900D01*
Y261100D01*
Y260300D01*
X323000D01*
Y259500D01*
Y258700D01*
Y257900D01*
Y257100D01*
X323800D01*
Y256300D01*
Y255500D01*
Y254700D01*
Y253900D01*
Y253100D01*
X324600D01*
Y252300D01*
Y251500D01*
Y250700D01*
Y249900D01*
Y249100D01*
X325400D01*
Y248300D01*
Y247500D01*
Y246700D01*
Y245900D01*
X326200D01*
Y245100D01*
Y244300D01*
Y243500D01*
Y242700D01*
X327000D01*
Y241900D01*
Y241100D01*
X311800D01*
Y240300D01*
Y239500D01*
X312600D01*
Y238700D01*
Y237900D01*
Y237100D01*
X313400D01*
Y236300D01*
Y235500D01*
Y234700D01*
Y233900D01*
Y233100D01*
X314200D01*
Y232300D01*
Y231500D01*
Y230700D01*
Y229900D01*
Y229100D01*
X315000D01*
Y228300D01*
Y227500D01*
Y226700D01*
Y225900D01*
Y225100D01*
Y224300D01*
X315800D01*
Y223500D01*
Y222700D01*
Y221900D01*
X316600D01*
Y221100D01*
Y220300D01*
Y219500D01*
Y218700D01*
Y217900D01*
X317400D01*
Y217100D01*
Y216300D01*
Y215500D01*
Y214700D01*
Y213900D01*
X318200D01*
Y213100D01*
Y212300D01*
Y211500D01*
Y210700D01*
Y209900D01*
X319000D01*
Y209100D01*
X287800D01*
Y209900D01*
X285400D01*
Y209100D01*
X263000D01*
Y209900D01*
X261400D01*
Y210700D01*
X260600D01*
Y211500D01*
X259000D01*
Y210700D01*
X258200D01*
Y209900D01*
X256600D01*
Y209100D01*
X235000D01*
Y209900D01*
X234200D01*
Y209100D01*
X202200D01*
Y209900D01*
Y210700D01*
Y211500D01*
Y212300D01*
Y213100D01*
X201400D01*
Y213900D01*
Y214700D01*
Y215500D01*
X200600D01*
Y216300D01*
Y217100D01*
Y217900D01*
Y218700D01*
Y219500D01*
X199800D01*
Y220300D01*
Y221100D01*
Y221900D01*
Y222700D01*
Y223500D01*
Y224300D01*
Y225100D01*
X200600D01*
Y225900D01*
Y226700D01*
Y227500D01*
X199800D01*
Y228300D01*
Y229100D01*
X199000D01*
Y229900D01*
X198200D01*
Y230700D01*
Y231500D01*
X197400D01*
Y232300D01*
Y233100D01*
X196600D01*
Y233900D01*
Y234700D01*
Y235500D01*
Y236300D01*
Y237100D01*
Y237900D01*
Y238700D01*
Y239500D01*
X197400D01*
Y240300D01*
Y241100D01*
X198200D01*
Y241900D01*
X199000D01*
Y242700D01*
X200600D01*
Y243500D01*
X209400D01*
Y244300D01*
Y245100D01*
Y245900D01*
Y246700D01*
X208600D01*
Y247500D01*
Y248300D01*
Y249100D01*
Y249900D01*
Y250700D01*
Y251500D01*
X207800D01*
Y252300D01*
Y253100D01*
Y253900D01*
X207000D01*
Y254700D01*
Y255500D01*
Y256300D01*
Y257100D01*
Y257900D01*
X206200D01*
Y258700D01*
Y259500D01*
Y260300D01*
Y261100D01*
Y261900D01*
X205400D01*
Y262700D01*
Y263500D01*
Y264300D01*
Y265100D01*
Y265900D01*
Y266700D01*
X204600D01*
Y267500D01*
Y268300D01*
Y269100D01*
X203800D01*
Y269900D01*
Y270700D01*
Y271500D01*
Y272300D01*
Y273100D01*
X203000D01*
Y273900D01*
Y274700D01*
Y275500D01*
X234200D01*
Y274700D01*
Y273900D01*
X235000D01*
Y274700D01*
X236600D01*
Y275500D01*
X258200D01*
Y274700D01*
X259800D01*
Y275500D01*
X291000D01*
Y274700D01*
Y273900D01*
X292600D01*
Y274700D01*
X294200D01*
Y275500D01*
X319000D01*
Y274700D01*
D02*
G37*
G36*
X347300Y250900D02*
Y250100D01*
Y249300D01*
Y248500D01*
Y247700D01*
X343300D01*
Y248500D01*
X342500D01*
Y247700D01*
Y246900D01*
X335300D01*
Y246100D01*
X332100D01*
Y246900D01*
Y247700D01*
X331300D01*
Y248500D01*
Y249300D01*
Y250100D01*
X332100D01*
Y250900D01*
X332900D01*
Y250100D01*
Y249300D01*
Y248500D01*
X334500D01*
Y249300D01*
Y250100D01*
X336100D01*
Y249300D01*
X337700D01*
Y248500D01*
X338500D01*
Y249300D01*
Y250100D01*
X340100D01*
Y249300D01*
X341700D01*
Y250100D01*
X343300D01*
Y250900D01*
X344900D01*
Y250100D01*
Y249300D01*
X345700D01*
Y250100D01*
Y250900D01*
Y251700D01*
X347300D01*
Y250900D01*
D02*
G37*
G36*
X346500Y255700D02*
X347300D01*
Y254900D01*
X348900D01*
Y254100D01*
Y253300D01*
X349700D01*
Y252500D01*
X350500D01*
Y253300D01*
X352100D01*
Y254100D01*
X352900D01*
Y253300D01*
X353700D01*
Y252500D01*
Y251700D01*
Y250900D01*
Y250100D01*
X352900D01*
Y249300D01*
X352100D01*
Y248500D01*
X350500D01*
Y247700D01*
Y246900D01*
Y246100D01*
X349700D01*
Y245300D01*
X348900D01*
Y244500D01*
X348100D01*
Y243700D01*
X343300D01*
Y244500D01*
X344900D01*
Y245300D01*
X346500D01*
Y246100D01*
X347300D01*
Y246900D01*
X348100D01*
Y247700D01*
X348900D01*
Y248500D01*
Y249300D01*
X349700D01*
Y250100D01*
X348100D01*
Y250900D01*
Y251700D01*
X347300D01*
Y252500D01*
Y253300D01*
X346500D01*
Y254100D01*
X344100D01*
Y254900D01*
X340900D01*
Y255700D01*
Y256500D01*
X346500D01*
Y255700D01*
D02*
G37*
G36*
X332900Y254100D02*
Y253300D01*
X332100D01*
Y252500D01*
X331300D01*
Y251700D01*
Y250900D01*
X330500D01*
Y250100D01*
Y249300D01*
Y248500D01*
Y247700D01*
Y246900D01*
X331300D01*
Y246100D01*
Y245300D01*
X332100D01*
Y244500D01*
X333700D01*
Y243700D01*
Y242900D01*
X331300D01*
Y243700D01*
X330500D01*
Y244500D01*
X329700D01*
Y245300D01*
X328900D01*
Y246100D01*
Y246900D01*
Y247700D01*
Y248500D01*
Y249300D01*
Y250100D01*
Y250900D01*
Y251700D01*
X329700D01*
Y252500D01*
Y253300D01*
X330500D01*
Y254100D01*
X331300D01*
Y254900D01*
X332900D01*
Y254100D01*
D02*
G37*
G36*
X199600Y189000D02*
X200400D01*
Y188200D01*
Y187400D01*
X202000D01*
Y186600D01*
X202800D01*
Y185800D01*
Y185000D01*
X205200D01*
Y184200D01*
Y183400D01*
X206800D01*
Y182600D01*
X209200D01*
Y181800D01*
X210000D01*
Y181000D01*
Y180200D01*
Y179400D01*
X209200D01*
Y178600D01*
X208400D01*
Y177800D01*
X204400D01*
Y178600D01*
X203600D01*
Y177800D01*
Y177000D01*
Y176200D01*
Y175400D01*
Y174600D01*
Y173800D01*
X204400D01*
Y173000D01*
Y172200D01*
Y171400D01*
Y170600D01*
Y169800D01*
Y169000D01*
Y168200D01*
Y167400D01*
Y166600D01*
Y165800D01*
Y165000D01*
Y164200D01*
Y163400D01*
Y162600D01*
Y161800D01*
Y161000D01*
Y160200D01*
Y159400D01*
Y158600D01*
Y157800D01*
Y157000D01*
Y156200D01*
X199600D01*
Y157000D01*
Y157800D01*
Y158600D01*
Y159400D01*
Y160200D01*
Y161000D01*
Y161800D01*
Y162600D01*
X198800D01*
Y163400D01*
Y164200D01*
Y165000D01*
Y165800D01*
Y166600D01*
Y167400D01*
Y168200D01*
Y169000D01*
Y169800D01*
Y170600D01*
Y171400D01*
Y172200D01*
Y173000D01*
Y173800D01*
Y174600D01*
X198000D01*
Y173800D01*
Y173000D01*
X197200D01*
Y172200D01*
X196400D01*
Y171400D01*
X195600D01*
Y170600D01*
Y169800D01*
X194800D01*
Y169000D01*
X194000D01*
Y168200D01*
X193200D01*
Y167400D01*
Y166600D01*
X192400D01*
Y165800D01*
X191600D01*
Y165000D01*
X190800D01*
Y164200D01*
Y163400D01*
X190000D01*
Y162600D01*
X189200D01*
Y161800D01*
X188400D01*
Y161000D01*
Y160200D01*
X187600D01*
Y159400D01*
Y158600D01*
X186000D01*
Y157800D01*
Y157000D01*
Y156200D01*
X184400D01*
Y155400D01*
X183600D01*
Y154600D01*
Y153800D01*
X181200D01*
Y154600D01*
X179600D01*
Y155400D01*
X178800D01*
Y156200D01*
Y157000D01*
Y157800D01*
X179600D01*
Y158600D01*
X181200D01*
Y159400D01*
Y160200D01*
Y161000D01*
X182800D01*
Y161800D01*
Y162600D01*
X183600D01*
Y163400D01*
X184400D01*
Y164200D01*
Y165000D01*
X185200D01*
Y165800D01*
X186000D01*
Y166600D01*
Y167400D01*
X186800D01*
Y168200D01*
X187600D01*
Y169000D01*
X188400D01*
Y169800D01*
Y170600D01*
X189200D01*
Y171400D01*
X190000D01*
Y172200D01*
X190800D01*
Y173000D01*
Y173800D01*
X191600D01*
Y174600D01*
X192400D01*
Y175400D01*
X193200D01*
Y176200D01*
Y177000D01*
X194000D01*
Y177800D01*
X194800D01*
Y178600D01*
X195600D01*
Y179400D01*
Y180200D01*
X196400D01*
Y181000D01*
X197200D01*
Y181800D01*
X198000D01*
Y182600D01*
Y183400D01*
Y184200D01*
X197200D01*
Y185000D01*
X196400D01*
Y185800D01*
X195600D01*
Y186600D01*
X196400D01*
Y187400D01*
X197200D01*
Y188200D01*
X198000D01*
Y189000D01*
Y189800D01*
X199600D01*
Y189000D01*
D02*
G37*
G36*
X385200D02*
X386000D01*
Y188200D01*
Y187400D01*
X386800D01*
Y186600D01*
X387600D01*
Y185800D01*
X388400D01*
Y185000D01*
X390000D01*
Y184200D01*
X390800D01*
Y183400D01*
X391600D01*
Y182600D01*
X394000D01*
Y181800D01*
X395600D01*
Y181000D01*
Y180200D01*
X394800D01*
Y179400D01*
Y178600D01*
X394000D01*
Y177800D01*
X393200D01*
Y177000D01*
X392400D01*
Y177800D01*
X390000D01*
Y178600D01*
X389200D01*
Y177800D01*
Y177000D01*
Y176200D01*
Y175400D01*
Y174600D01*
Y173800D01*
Y173000D01*
X395600D01*
Y172200D01*
Y171400D01*
Y170600D01*
Y169800D01*
Y169000D01*
Y168200D01*
Y167400D01*
X389200D01*
Y166600D01*
Y165800D01*
Y165000D01*
Y164200D01*
Y163400D01*
Y162600D01*
Y161800D01*
Y161000D01*
X390000D01*
Y160200D01*
Y159400D01*
Y158600D01*
Y157800D01*
Y157000D01*
Y156200D01*
X385200D01*
Y157000D01*
Y157800D01*
Y158600D01*
Y159400D01*
Y160200D01*
X384400D01*
Y161000D01*
Y161800D01*
Y162600D01*
Y163400D01*
Y164200D01*
Y165000D01*
Y165800D01*
Y166600D01*
Y167400D01*
X373200D01*
Y166600D01*
Y165800D01*
Y165000D01*
Y164200D01*
Y163400D01*
Y162600D01*
Y161800D01*
Y161000D01*
Y160200D01*
Y159400D01*
Y158600D01*
Y157800D01*
Y157000D01*
Y156200D01*
X368400D01*
Y157000D01*
Y157800D01*
Y158600D01*
Y159400D01*
Y160200D01*
Y161000D01*
Y161800D01*
Y162600D01*
Y163400D01*
Y164200D01*
Y165000D01*
Y165800D01*
Y166600D01*
Y167400D01*
X367600D01*
Y168200D01*
X366800D01*
Y167400D01*
X364400D01*
Y168200D01*
Y169000D01*
Y169800D01*
Y170600D01*
Y171400D01*
Y172200D01*
Y173000D01*
X367600D01*
Y173800D01*
Y174600D01*
Y175400D01*
Y176200D01*
Y177000D01*
Y177800D01*
Y178600D01*
Y179400D01*
Y180200D01*
Y181000D01*
Y181800D01*
Y182600D01*
Y183400D01*
Y184200D01*
Y185000D01*
Y185800D01*
Y186600D01*
Y187400D01*
X370800D01*
Y188200D01*
X372400D01*
Y187400D01*
Y186600D01*
Y185800D01*
Y185000D01*
Y184200D01*
Y183400D01*
Y182600D01*
Y181800D01*
Y181000D01*
Y180200D01*
Y179400D01*
Y178600D01*
Y177800D01*
Y177000D01*
Y176200D01*
Y175400D01*
X373200D01*
Y174600D01*
Y173800D01*
Y173000D01*
X384400D01*
Y173800D01*
Y174600D01*
Y175400D01*
Y176200D01*
Y177000D01*
Y177800D01*
Y178600D01*
Y179400D01*
Y180200D01*
Y181000D01*
Y181800D01*
Y182600D01*
Y183400D01*
X383600D01*
Y184200D01*
X382800D01*
Y185000D01*
X382000D01*
Y185800D01*
Y186600D01*
Y187400D01*
X382800D01*
Y188200D01*
X383600D01*
Y189000D01*
X384400D01*
Y189800D01*
X385200D01*
Y189000D01*
D02*
G37*
G36*
X183600Y186600D02*
Y185800D01*
Y185000D01*
Y184200D01*
Y183400D01*
Y182600D01*
Y181800D01*
Y181000D01*
Y180200D01*
Y179400D01*
Y178600D01*
Y177800D01*
Y177000D01*
Y176200D01*
Y175400D01*
Y174600D01*
Y173800D01*
Y173000D01*
Y172200D01*
Y171400D01*
X184400D01*
Y170600D01*
Y169800D01*
Y169000D01*
Y168200D01*
Y167400D01*
X181200D01*
Y166600D01*
X178800D01*
Y167400D01*
Y168200D01*
Y169000D01*
Y169800D01*
Y170600D01*
Y171400D01*
Y172200D01*
Y173000D01*
Y173800D01*
Y174600D01*
Y175400D01*
Y176200D01*
Y177000D01*
Y177800D01*
Y178600D01*
Y179400D01*
Y180200D01*
Y181000D01*
Y181800D01*
Y182600D01*
Y183400D01*
Y184200D01*
Y185000D01*
Y185800D01*
Y186600D01*
X178000D01*
Y187400D01*
X183600D01*
Y186600D01*
D02*
G37*
G36*
X231600D02*
X234000D01*
Y185800D01*
X234800D01*
Y185000D01*
X236400D01*
Y184200D01*
X237200D01*
Y183400D01*
X238000D01*
Y182600D01*
X238800D01*
Y181800D01*
X239600D01*
Y181000D01*
X240400D01*
Y180200D01*
X241200D01*
Y179400D01*
Y178600D01*
Y177800D01*
X242000D01*
Y177000D01*
X242800D01*
Y176200D01*
Y175400D01*
X243600D01*
Y174600D01*
Y173800D01*
Y173000D01*
Y172200D01*
Y171400D01*
Y170600D01*
Y169800D01*
Y169000D01*
Y168200D01*
X242800D01*
Y167400D01*
Y166600D01*
Y165800D01*
X242000D01*
Y165000D01*
Y164200D01*
X241200D01*
Y163400D01*
Y162600D01*
X240400D01*
Y161800D01*
X239600D01*
Y161000D01*
X238000D01*
Y160200D01*
X236400D01*
Y159400D01*
X231600D01*
Y160200D01*
X230000D01*
Y161000D01*
X229200D01*
Y161800D01*
X228400D01*
Y162600D01*
X227600D01*
Y163400D01*
X226800D01*
Y164200D01*
Y165000D01*
Y165800D01*
X226000D01*
Y166600D01*
Y167400D01*
Y168200D01*
X225200D01*
Y169000D01*
Y169800D01*
Y170600D01*
X226000D01*
Y171400D01*
Y172200D01*
Y173000D01*
X226800D01*
Y173800D01*
Y174600D01*
Y175400D01*
X227600D01*
Y176200D01*
X228400D01*
Y177000D01*
X229200D01*
Y177800D01*
X230800D01*
Y178600D01*
X231600D01*
Y177800D01*
Y177000D01*
X232400D01*
Y176200D01*
Y175400D01*
X233200D01*
Y174600D01*
X234000D01*
Y173800D01*
X232400D01*
Y173000D01*
X231600D01*
Y172200D01*
Y171400D01*
X230800D01*
Y170600D01*
Y169800D01*
Y169000D01*
Y168200D01*
Y167400D01*
X231600D01*
Y166600D01*
Y165800D01*
Y165000D01*
X233200D01*
Y164200D01*
X234800D01*
Y165000D01*
X236400D01*
Y165800D01*
X237200D01*
Y166600D01*
Y167400D01*
X238000D01*
Y168200D01*
Y169000D01*
Y169800D01*
X238800D01*
Y170600D01*
Y171400D01*
Y172200D01*
Y173000D01*
X238000D01*
Y173800D01*
Y174600D01*
Y175400D01*
X237200D01*
Y176200D01*
X236400D01*
Y177000D01*
Y177800D01*
X235600D01*
Y178600D01*
X234800D01*
Y179400D01*
X234000D01*
Y180200D01*
X233200D01*
Y181000D01*
X231600D01*
Y181800D01*
X230800D01*
Y182600D01*
X222800D01*
Y181800D01*
X222000D01*
Y181000D01*
X220400D01*
Y180200D01*
X219600D01*
Y179400D01*
X218000D01*
Y178600D01*
Y177800D01*
X217200D01*
Y177000D01*
Y176200D01*
X216400D01*
Y175400D01*
X215600D01*
Y174600D01*
Y173800D01*
Y173000D01*
X214800D01*
Y172200D01*
Y171400D01*
Y170600D01*
Y169800D01*
Y169000D01*
X215600D01*
Y168200D01*
Y167400D01*
X216400D01*
Y166600D01*
Y165800D01*
X217200D01*
Y165000D01*
Y164200D01*
X218000D01*
Y163400D01*
X219600D01*
Y162600D01*
X220400D01*
Y161800D01*
X222000D01*
Y161000D01*
X226800D01*
Y160200D01*
Y159400D01*
Y158600D01*
X226000D01*
Y157800D01*
Y157000D01*
Y156200D01*
X221200D01*
Y157000D01*
X219600D01*
Y157800D01*
X218000D01*
Y158600D01*
X216400D01*
Y159400D01*
X215600D01*
Y160200D01*
X214800D01*
Y161000D01*
X214000D01*
Y161800D01*
X213200D01*
Y162600D01*
X212400D01*
Y163400D01*
Y164200D01*
X211600D01*
Y165000D01*
Y165800D01*
X210800D01*
Y166600D01*
Y167400D01*
Y168200D01*
X210000D01*
Y169000D01*
Y169800D01*
Y170600D01*
Y171400D01*
Y172200D01*
Y173000D01*
Y173800D01*
Y174600D01*
X210800D01*
Y175400D01*
Y176200D01*
Y177000D01*
X211600D01*
Y177800D01*
X212400D01*
Y178600D01*
Y179400D01*
Y180200D01*
X213200D01*
Y181000D01*
X214000D01*
Y181800D01*
Y182600D01*
X214800D01*
Y183400D01*
X215600D01*
Y184200D01*
X217200D01*
Y185000D01*
X218800D01*
Y185800D01*
X219600D01*
Y186600D01*
X222000D01*
Y187400D01*
X231600D01*
Y186600D01*
D02*
G37*
G36*
X293200Y189000D02*
X294000D01*
Y188200D01*
Y187400D01*
X294800D01*
Y186600D01*
X295600D01*
Y185800D01*
X294800D01*
Y185000D01*
X294000D01*
Y184200D01*
Y183400D01*
Y182600D01*
Y181800D01*
Y181000D01*
Y180200D01*
Y179400D01*
Y178600D01*
Y177800D01*
Y177000D01*
Y176200D01*
Y175400D01*
Y174600D01*
Y173800D01*
Y173000D01*
Y172200D01*
Y171400D01*
Y170600D01*
Y169800D01*
Y169000D01*
Y168200D01*
X296400D01*
Y167400D01*
X298800D01*
Y166600D01*
X300400D01*
Y165800D01*
X301200D01*
Y165000D01*
X302000D01*
Y164200D01*
Y163400D01*
X302800D01*
Y162600D01*
Y161800D01*
Y161000D01*
Y160200D01*
X302000D01*
Y159400D01*
Y158600D01*
X301200D01*
Y157800D01*
X299600D01*
Y157000D01*
X294000D01*
Y157800D01*
X293200D01*
Y158600D01*
X291600D01*
Y159400D01*
Y160200D01*
Y161000D01*
X290800D01*
Y161800D01*
X290000D01*
Y162600D01*
X287600D01*
Y161800D01*
X286000D01*
Y161000D01*
X282000D01*
Y160200D01*
X279600D01*
Y159400D01*
X278000D01*
Y158600D01*
X274800D01*
Y159400D01*
Y160200D01*
Y161000D01*
X274000D01*
Y161800D01*
X273200D01*
Y161000D01*
X270800D01*
Y160200D01*
X270000D01*
Y159400D01*
X267600D01*
Y158600D01*
X262800D01*
Y157800D01*
X256400D01*
Y158600D01*
X253200D01*
Y159400D01*
X252400D01*
Y160200D01*
X250800D01*
Y161000D01*
X250000D01*
Y161800D01*
Y162600D01*
X249200D01*
Y163400D01*
X248400D01*
Y164200D01*
Y165000D01*
Y165800D01*
Y166600D01*
Y167400D01*
Y168200D01*
X249200D01*
Y169000D01*
X250000D01*
Y169800D01*
X250800D01*
Y170600D01*
X253200D01*
Y171400D01*
X254800D01*
Y172200D01*
X257200D01*
Y173000D01*
X262800D01*
Y173800D01*
X265200D01*
Y174600D01*
X266800D01*
Y175400D01*
X268400D01*
Y176200D01*
X269200D01*
Y177000D01*
Y177800D01*
X270000D01*
Y178600D01*
X269200D01*
Y179400D01*
Y180200D01*
X267600D01*
Y181000D01*
Y181800D01*
X266800D01*
Y182600D01*
X254000D01*
Y181800D01*
X251600D01*
Y181000D01*
X250800D01*
Y180200D01*
X247600D01*
Y179400D01*
X246000D01*
Y180200D01*
X245200D01*
Y181000D01*
Y181800D01*
Y182600D01*
X244400D01*
Y183400D01*
X245200D01*
Y184200D01*
X246000D01*
Y185000D01*
X248400D01*
Y185800D01*
X250800D01*
Y186600D01*
X253200D01*
Y187400D01*
X267600D01*
Y186600D01*
X268400D01*
Y185800D01*
X270000D01*
Y185000D01*
X271600D01*
Y184200D01*
X272400D01*
Y183400D01*
Y182600D01*
X273200D01*
Y181800D01*
X274000D01*
Y181000D01*
Y180200D01*
X274800D01*
Y179400D01*
Y178600D01*
Y177800D01*
Y177000D01*
Y176200D01*
Y175400D01*
Y174600D01*
X274000D01*
Y173800D01*
X273200D01*
Y173000D01*
X272400D01*
Y172200D01*
X270800D01*
Y171400D01*
X270000D01*
Y170600D01*
X266800D01*
Y169800D01*
X264400D01*
Y169000D01*
X262000D01*
Y168200D01*
X256400D01*
Y167400D01*
X255600D01*
Y166600D01*
X254800D01*
Y165800D01*
X254000D01*
Y165000D01*
X254800D01*
Y164200D01*
Y163400D01*
X257200D01*
Y162600D01*
X262000D01*
Y163400D01*
X266800D01*
Y164200D01*
X268400D01*
Y165000D01*
X270000D01*
Y165800D01*
X271600D01*
Y166600D01*
X272400D01*
Y165800D01*
Y165000D01*
X273200D01*
Y164200D01*
Y163400D01*
X277200D01*
Y164200D01*
X278800D01*
Y165000D01*
X279600D01*
Y165800D01*
X284400D01*
Y166600D01*
X286800D01*
Y167400D01*
X289200D01*
Y168200D01*
Y169000D01*
Y169800D01*
Y170600D01*
Y171400D01*
Y172200D01*
Y173000D01*
Y173800D01*
Y174600D01*
Y175400D01*
Y176200D01*
X288400D01*
Y177000D01*
Y177800D01*
Y178600D01*
X286800D01*
Y177800D01*
X284400D01*
Y177000D01*
X283600D01*
Y177800D01*
X282800D01*
Y178600D01*
X282000D01*
Y179400D01*
Y180200D01*
X281200D01*
Y181000D01*
Y181800D01*
X282000D01*
Y182600D01*
X284400D01*
Y183400D01*
X286000D01*
Y184200D01*
X286800D01*
Y185000D01*
X288400D01*
Y185800D01*
X289200D01*
Y186600D01*
Y187400D01*
X290800D01*
Y188200D01*
X291600D01*
Y189000D01*
Y189800D01*
X293200D01*
Y189000D01*
D02*
G37*
G36*
X422000D02*
X422800D01*
Y188200D01*
X423600D01*
Y187400D01*
X424400D01*
Y186600D01*
X425200D01*
Y185800D01*
X426000D01*
Y185000D01*
X427600D01*
Y184200D01*
X428400D01*
Y183400D01*
X429200D01*
Y182600D01*
X431600D01*
Y181800D01*
X433200D01*
Y181000D01*
Y180200D01*
X432400D01*
Y179400D01*
X431600D01*
Y178600D01*
Y177800D01*
X430800D01*
Y177000D01*
X430000D01*
Y177800D01*
X426800D01*
Y177000D01*
Y176200D01*
Y175400D01*
Y174600D01*
Y173800D01*
Y173000D01*
Y172200D01*
Y171400D01*
Y170600D01*
Y169800D01*
Y169000D01*
Y168200D01*
Y167400D01*
Y166600D01*
Y165800D01*
Y165000D01*
Y164200D01*
Y163400D01*
Y162600D01*
Y161800D01*
Y161000D01*
X429200D01*
Y160200D01*
Y159400D01*
Y158600D01*
Y157800D01*
Y157000D01*
Y156200D01*
X399600D01*
Y157000D01*
Y157800D01*
Y158600D01*
Y159400D01*
Y160200D01*
Y161000D01*
Y161800D01*
Y162600D01*
X398800D01*
Y163400D01*
Y164200D01*
Y165000D01*
Y165800D01*
Y166600D01*
Y167400D01*
Y168200D01*
Y169000D01*
Y169800D01*
Y170600D01*
Y171400D01*
Y172200D01*
Y173000D01*
Y173800D01*
Y174600D01*
Y175400D01*
Y176200D01*
Y177000D01*
Y177800D01*
Y178600D01*
Y179400D01*
Y180200D01*
Y181000D01*
Y181800D01*
Y182600D01*
Y183400D01*
Y184200D01*
Y185000D01*
Y185800D01*
Y186600D01*
Y187400D01*
X405200D01*
Y186600D01*
Y185800D01*
Y185000D01*
Y184200D01*
Y183400D01*
Y182600D01*
X402800D01*
Y181800D01*
Y181000D01*
X403600D01*
Y180200D01*
Y179400D01*
Y178600D01*
Y177800D01*
Y177000D01*
Y176200D01*
Y175400D01*
Y174600D01*
Y173800D01*
Y173000D01*
Y172200D01*
Y171400D01*
Y170600D01*
Y169800D01*
Y169000D01*
Y168200D01*
Y167400D01*
Y166600D01*
Y165800D01*
Y165000D01*
Y164200D01*
Y163400D01*
Y162600D01*
X404400D01*
Y161800D01*
Y161000D01*
X410800D01*
Y161800D01*
Y162600D01*
Y163400D01*
Y164200D01*
Y165000D01*
Y165800D01*
Y166600D01*
Y167400D01*
Y168200D01*
Y169000D01*
Y169800D01*
Y170600D01*
Y171400D01*
Y172200D01*
Y173000D01*
Y173800D01*
Y174600D01*
Y175400D01*
Y176200D01*
Y177000D01*
Y177800D01*
Y178600D01*
Y179400D01*
X410000D01*
Y180200D01*
Y181000D01*
Y181800D01*
Y182600D01*
Y183400D01*
Y184200D01*
Y185000D01*
Y185800D01*
X412400D01*
Y186600D01*
X414800D01*
Y185800D01*
Y185000D01*
Y184200D01*
Y183400D01*
Y182600D01*
Y181800D01*
Y181000D01*
Y180200D01*
Y179400D01*
Y178600D01*
Y177800D01*
Y177000D01*
Y176200D01*
Y175400D01*
Y174600D01*
Y173800D01*
Y173000D01*
Y172200D01*
Y171400D01*
Y170600D01*
Y169800D01*
Y169000D01*
Y168200D01*
Y167400D01*
Y166600D01*
Y165800D01*
Y165000D01*
Y164200D01*
Y163400D01*
Y162600D01*
Y161800D01*
Y161000D01*
X422800D01*
Y161800D01*
Y162600D01*
Y163400D01*
Y164200D01*
Y165000D01*
Y165800D01*
Y166600D01*
Y167400D01*
Y168200D01*
Y169000D01*
Y169800D01*
Y170600D01*
Y171400D01*
Y172200D01*
Y173000D01*
Y173800D01*
Y174600D01*
X422000D01*
Y175400D01*
Y176200D01*
Y177000D01*
Y177800D01*
Y178600D01*
Y179400D01*
Y180200D01*
Y181000D01*
Y181800D01*
Y182600D01*
X421200D01*
Y183400D01*
Y184200D01*
X420400D01*
Y185000D01*
X419600D01*
Y185800D01*
Y186600D01*
X420400D01*
Y187400D01*
Y188200D01*
X421200D01*
Y189000D01*
Y189800D01*
X422000D01*
Y189000D01*
D02*
G37*
G36*
X362000Y186600D02*
Y185800D01*
Y185000D01*
Y184200D01*
Y183400D01*
Y182600D01*
Y181800D01*
X354000D01*
Y181000D01*
Y180200D01*
Y179400D01*
Y178600D01*
Y177800D01*
Y177000D01*
Y176200D01*
X359600D01*
Y175400D01*
Y174600D01*
Y173800D01*
Y173000D01*
Y172200D01*
Y171400D01*
X354000D01*
Y170600D01*
Y169800D01*
Y169000D01*
X354800D01*
Y168200D01*
X357200D01*
Y167400D01*
X359600D01*
Y166600D01*
X360400D01*
Y165800D01*
X362000D01*
Y165000D01*
Y164200D01*
Y163400D01*
X362800D01*
Y162600D01*
Y161800D01*
Y161000D01*
Y160200D01*
X362000D01*
Y159400D01*
Y158600D01*
X361200D01*
Y157800D01*
X359600D01*
Y157000D01*
X354800D01*
Y157800D01*
X353200D01*
Y158600D01*
X352400D01*
Y159400D01*
X351600D01*
Y160200D01*
Y161000D01*
X350800D01*
Y161800D01*
X350000D01*
Y162600D01*
X348400D01*
Y161800D01*
X346000D01*
Y161000D01*
X342000D01*
Y160200D01*
X340400D01*
Y159400D01*
X338000D01*
Y158600D01*
X335600D01*
Y159400D01*
X334800D01*
Y160200D01*
Y161000D01*
X334000D01*
Y161800D01*
Y162600D01*
Y163400D01*
X337200D01*
Y164200D01*
X338800D01*
Y165000D01*
X340400D01*
Y165800D01*
X344400D01*
Y166600D01*
X347600D01*
Y167400D01*
X349200D01*
Y168200D01*
Y169000D01*
Y169800D01*
Y170600D01*
Y171400D01*
X338000D01*
Y172200D01*
Y173000D01*
Y173800D01*
Y174600D01*
Y175400D01*
Y176200D01*
X349200D01*
Y177000D01*
Y177800D01*
Y178600D01*
Y179400D01*
Y180200D01*
Y181000D01*
Y181800D01*
X335600D01*
Y182600D01*
Y183400D01*
Y184200D01*
Y185000D01*
Y185800D01*
Y186600D01*
Y187400D01*
X362000D01*
Y186600D01*
D02*
G37*
G36*
X331600D02*
Y185800D01*
Y185000D01*
Y184200D01*
Y183400D01*
Y182600D01*
Y181800D01*
X323600D01*
Y181000D01*
Y180200D01*
Y179400D01*
Y178600D01*
Y177800D01*
Y177000D01*
Y176200D01*
X328400D01*
Y175400D01*
Y174600D01*
Y173800D01*
Y173000D01*
Y172200D01*
Y171400D01*
X323600D01*
Y170600D01*
Y169800D01*
Y169000D01*
Y168200D01*
X326000D01*
Y167400D01*
X328400D01*
Y166600D01*
X330000D01*
Y165800D01*
X330800D01*
Y165000D01*
X331600D01*
Y164200D01*
X332400D01*
Y163400D01*
Y162600D01*
Y161800D01*
Y161000D01*
Y160200D01*
Y159400D01*
X331600D01*
Y158600D01*
X330800D01*
Y157800D01*
X330000D01*
Y157000D01*
X324400D01*
Y157800D01*
X323600D01*
Y158600D01*
X321200D01*
Y159400D01*
Y160200D01*
Y161000D01*
X320400D01*
Y161800D01*
Y162600D01*
X318000D01*
Y161800D01*
X315600D01*
Y161000D01*
X311600D01*
Y160200D01*
X309200D01*
Y159400D01*
X307600D01*
Y158600D01*
X304400D01*
Y159400D01*
Y160200D01*
X303600D01*
Y161000D01*
Y161800D01*
Y162600D01*
Y163400D01*
X306800D01*
Y164200D01*
X308400D01*
Y165000D01*
X310000D01*
Y165800D01*
X314000D01*
Y166600D01*
X316400D01*
Y167400D01*
X318800D01*
Y168200D01*
Y169000D01*
Y169800D01*
Y170600D01*
Y171400D01*
X306800D01*
Y172200D01*
Y173000D01*
Y173800D01*
Y174600D01*
Y175400D01*
Y176200D01*
X318800D01*
Y177000D01*
Y177800D01*
Y178600D01*
Y179400D01*
Y180200D01*
Y181000D01*
Y181800D01*
X304400D01*
Y182600D01*
Y183400D01*
Y184200D01*
Y185000D01*
Y185800D01*
Y186600D01*
Y187400D01*
X331600D01*
Y186600D01*
D02*
G37*
%LPC*%
G36*
X396100Y318900D02*
X394500D01*
Y318100D01*
X396100D01*
Y318900D01*
D02*
G37*
G36*
X388100Y322100D02*
X380900D01*
Y321300D01*
X377700D01*
Y320500D01*
X376100D01*
Y319700D01*
X375300D01*
Y318900D01*
X376100D01*
Y318100D01*
Y317300D01*
X375300D01*
Y318100D01*
X373700D01*
Y318900D01*
X366500D01*
Y318100D01*
X363300D01*
Y317300D01*
X361700D01*
Y316500D01*
X360100D01*
Y315700D01*
X358500D01*
Y314900D01*
X357700D01*
Y314100D01*
X356100D01*
Y313300D01*
X355300D01*
Y312500D01*
X354500D01*
Y311700D01*
X353700D01*
Y310900D01*
X352900D01*
Y310100D01*
Y309300D01*
X352100D01*
Y308500D01*
Y307700D01*
X354500D01*
Y306900D01*
Y306100D01*
X352900D01*
Y305300D01*
X352100D01*
Y304500D01*
X351300D01*
Y303700D01*
X350500D01*
Y302900D01*
Y302100D01*
X349700D01*
Y301300D01*
Y300500D01*
X348900D01*
Y299700D01*
Y298900D01*
Y298100D01*
X348100D01*
Y297300D01*
Y296500D01*
Y295700D01*
Y294900D01*
Y294100D01*
Y293300D01*
X348900D01*
Y292500D01*
Y291700D01*
Y290900D01*
X349700D01*
Y290100D01*
Y289300D01*
X350500D01*
Y288500D01*
Y287700D01*
X351300D01*
Y286900D01*
Y286100D01*
X352100D01*
Y285300D01*
X352900D01*
Y284500D01*
X353700D01*
Y283700D01*
X354500D01*
Y282900D01*
X355300D01*
Y282100D01*
X356100D01*
Y282900D01*
X355300D01*
Y283700D01*
Y284500D01*
X354500D01*
Y285300D01*
Y286100D01*
Y286900D01*
X353700D01*
Y287700D01*
Y288500D01*
Y289300D01*
Y290100D01*
Y290900D01*
Y291700D01*
Y292500D01*
X354500D01*
Y293300D01*
X355300D01*
Y292500D01*
Y291700D01*
Y290900D01*
Y290100D01*
Y289300D01*
Y288500D01*
Y287700D01*
Y286900D01*
X356100D01*
Y286100D01*
Y285300D01*
X356900D01*
Y284500D01*
Y283700D01*
X357700D01*
Y282900D01*
X358500D01*
Y283700D01*
X357700D01*
Y284500D01*
Y285300D01*
Y286100D01*
X356900D01*
Y286900D01*
Y287700D01*
Y288500D01*
Y289300D01*
Y290100D01*
Y290900D01*
Y291700D01*
Y292500D01*
Y293300D01*
Y294100D01*
X357700D01*
Y294900D01*
Y295700D01*
X358500D01*
Y296500D01*
Y297300D01*
X359300D01*
Y298100D01*
Y298900D01*
X360100D01*
Y298100D01*
Y297300D01*
Y296500D01*
X359300D01*
Y295700D01*
Y294900D01*
Y294100D01*
Y293300D01*
Y292500D01*
Y291700D01*
Y290900D01*
Y290100D01*
Y289300D01*
Y288500D01*
Y287700D01*
Y286900D01*
Y286100D01*
X360100D01*
Y285300D01*
Y284500D01*
X360900D01*
Y283700D01*
Y282900D01*
Y282100D01*
X362500D01*
Y281300D01*
Y280500D01*
X363300D01*
Y279700D01*
X364100D01*
Y280500D01*
Y281300D01*
X363300D01*
Y282100D01*
Y282900D01*
Y283700D01*
Y284500D01*
Y285300D01*
Y286100D01*
X364100D01*
Y286900D01*
X364900D01*
Y286100D01*
Y285300D01*
Y284500D01*
Y283700D01*
Y282900D01*
Y282100D01*
X365700D01*
Y281300D01*
Y280500D01*
Y279700D01*
X366500D01*
Y278900D01*
Y278100D01*
X367300D01*
Y278900D01*
Y279700D01*
Y280500D01*
X368100D01*
Y281300D01*
X368900D01*
Y280500D01*
X370500D01*
Y279700D01*
Y278900D01*
X371300D01*
Y278100D01*
X372900D01*
Y278900D01*
X373700D01*
Y279700D01*
Y280500D01*
Y281300D01*
Y282100D01*
X374500D01*
Y282900D01*
Y283700D01*
Y284500D01*
Y285300D01*
X373700D01*
Y286100D01*
Y286900D01*
Y287700D01*
X372900D01*
Y288500D01*
Y289300D01*
X372100D01*
Y290100D01*
Y290900D01*
X371300D01*
Y291700D01*
X370500D01*
Y292500D01*
X369700D01*
Y293300D01*
Y294100D01*
X371300D01*
Y293300D01*
X372100D01*
Y292500D01*
X372900D01*
Y291700D01*
X373700D01*
Y290900D01*
Y290100D01*
X374500D01*
Y289300D01*
Y288500D01*
X375300D01*
Y287700D01*
Y286900D01*
Y286100D01*
X376100D01*
Y285300D01*
Y284500D01*
Y283700D01*
Y282900D01*
Y282100D01*
Y281300D01*
Y280500D01*
X376900D01*
Y281300D01*
Y282100D01*
X377700D01*
Y282900D01*
Y283700D01*
X378500D01*
Y284500D01*
Y285300D01*
Y286100D01*
Y286900D01*
Y287700D01*
Y288500D01*
X379300D01*
Y289300D01*
X378500D01*
Y290100D01*
X379300D01*
Y290900D01*
X378500D01*
Y291700D01*
Y292500D01*
Y293300D01*
Y294100D01*
Y294900D01*
X377700D01*
Y295700D01*
Y296500D01*
Y297300D01*
X376900D01*
Y298100D01*
Y298900D01*
X376100D01*
Y299700D01*
Y300500D01*
X375300D01*
Y301300D01*
X374500D01*
Y302100D01*
X373700D01*
Y302900D01*
Y303700D01*
X375300D01*
Y302900D01*
X376100D01*
Y302100D01*
X376900D01*
Y301300D01*
X377700D01*
Y300500D01*
Y299700D01*
X378500D01*
Y298900D01*
Y298100D01*
X379300D01*
Y297300D01*
Y296500D01*
X380100D01*
Y295700D01*
Y294900D01*
Y294100D01*
X380900D01*
Y293300D01*
Y292500D01*
Y291700D01*
Y290900D01*
Y290100D01*
Y289300D01*
X381700D01*
Y288500D01*
X382500D01*
Y287700D01*
X383300D01*
Y286900D01*
Y286100D01*
X384100D01*
Y285300D01*
X385700D01*
Y286100D01*
Y286900D01*
Y287700D01*
X388900D01*
Y286900D01*
X389700D01*
Y286100D01*
Y285300D01*
X390500D01*
Y284500D01*
X391300D01*
Y283700D01*
Y282900D01*
X392100D01*
Y282100D01*
Y281300D01*
Y280500D01*
X392900D01*
Y281300D01*
X393700D01*
Y282100D01*
Y282900D01*
Y283700D01*
X394500D01*
Y284500D01*
Y285300D01*
Y286100D01*
Y286900D01*
Y287700D01*
X393700D01*
Y288500D01*
Y289300D01*
X392900D01*
Y290100D01*
Y290900D01*
X392100D01*
Y291700D01*
X391300D01*
Y292500D01*
Y293300D01*
X392900D01*
Y292500D01*
X393700D01*
Y291700D01*
Y290900D01*
X394500D01*
Y290100D01*
X395300D01*
Y289300D01*
Y288500D01*
Y287700D01*
X396100D01*
Y286900D01*
Y286100D01*
Y285300D01*
Y284500D01*
X396900D01*
Y285300D01*
Y286100D01*
Y286900D01*
Y287700D01*
Y288500D01*
Y289300D01*
Y290100D01*
Y290900D01*
Y291700D01*
Y292500D01*
Y293300D01*
X396100D01*
Y294100D01*
Y294900D01*
Y295700D01*
X395300D01*
Y296500D01*
Y297300D01*
X394500D01*
Y298100D01*
Y298900D01*
X393700D01*
Y299700D01*
Y300500D01*
X392900D01*
Y301300D01*
X392100D01*
Y302100D01*
X391300D01*
Y302900D01*
Y303700D01*
X392900D01*
Y302900D01*
X393700D01*
Y302100D01*
X394500D01*
Y301300D01*
X395300D01*
Y300500D01*
Y299700D01*
X396100D01*
Y298900D01*
X396900D01*
Y298100D01*
Y297300D01*
X397700D01*
Y298100D01*
Y298900D01*
Y299700D01*
X396900D01*
Y300500D01*
Y301300D01*
Y302100D01*
X396100D01*
Y302900D01*
Y303700D01*
X395300D01*
Y304500D01*
Y305300D01*
X394500D01*
Y306100D01*
X393700D01*
Y306900D01*
X392900D01*
Y307700D01*
X392100D01*
Y308500D01*
X391300D01*
Y309300D01*
X390500D01*
Y310100D01*
X388900D01*
Y310900D01*
Y311700D01*
X388100D01*
Y312500D01*
X389700D01*
Y313300D01*
Y314100D01*
X390500D01*
Y314900D01*
Y315700D01*
X391300D01*
Y316500D01*
Y317300D01*
Y318100D01*
X392100D01*
Y318900D01*
Y319700D01*
X393700D01*
Y320500D01*
X392100D01*
Y321300D01*
X388100D01*
Y322100D01*
D02*
G37*
G36*
X352100Y307700D02*
X351300D01*
Y306900D01*
X352100D01*
Y307700D01*
D02*
G37*
G36*
X423300Y290900D02*
X422500D01*
Y290100D01*
X423300D01*
Y290900D01*
D02*
G37*
G36*
X352900Y328500D02*
X351300D01*
Y327700D01*
X350500D01*
Y326900D01*
X349700D01*
Y326100D01*
X348900D01*
Y325300D01*
Y324500D01*
X348100D01*
Y323700D01*
Y322900D01*
X347300D01*
Y322100D01*
Y321300D01*
X346500D01*
Y320500D01*
Y319700D01*
X345700D01*
Y318900D01*
Y318100D01*
X344900D01*
Y317300D01*
Y316500D01*
Y315700D01*
Y314900D01*
Y314100D01*
X344100D01*
Y313300D01*
Y312500D01*
Y311700D01*
Y310900D01*
Y310100D01*
Y309300D01*
Y308500D01*
Y307700D01*
Y306900D01*
Y306100D01*
Y305300D01*
Y304500D01*
X342500D01*
Y303700D01*
X340900D01*
Y302900D01*
Y302100D01*
Y301300D01*
Y300500D01*
X341700D01*
Y299700D01*
Y298900D01*
X342500D01*
Y298100D01*
Y297300D01*
Y296500D01*
X340100D01*
Y295700D01*
X339300D01*
Y294900D01*
Y294100D01*
X340100D01*
Y293300D01*
Y292500D01*
Y291700D01*
X340900D01*
Y290900D01*
Y290100D01*
X341700D01*
Y289300D01*
Y288500D01*
X342500D01*
Y287700D01*
X343300D01*
Y288500D01*
Y289300D01*
X344100D01*
Y290100D01*
Y290900D01*
X344900D01*
Y291700D01*
Y292500D01*
X345700D01*
Y293300D01*
Y294100D01*
Y294900D01*
Y295700D01*
Y296500D01*
Y297300D01*
X346500D01*
Y298100D01*
Y298900D01*
Y299700D01*
Y300500D01*
Y301300D01*
X347300D01*
Y302100D01*
Y302900D01*
X348100D01*
Y303700D01*
Y304500D01*
X348900D01*
Y305300D01*
Y306100D01*
Y306900D01*
Y307700D01*
X349700D01*
Y308500D01*
Y309300D01*
Y310100D01*
X350500D01*
Y310900D01*
X351300D01*
Y311700D01*
Y312500D01*
X352100D01*
Y313300D01*
X352900D01*
Y314100D01*
X353700D01*
Y314900D01*
X354500D01*
Y315700D01*
X355300D01*
Y316500D01*
X356100D01*
Y317300D01*
X356900D01*
Y318100D01*
X357700D01*
Y318900D01*
X356900D01*
Y319700D01*
X356100D01*
Y320500D01*
Y321300D01*
X355300D01*
Y322100D01*
Y322900D01*
X354500D01*
Y323700D01*
Y324500D01*
Y325300D01*
X353700D01*
Y326100D01*
X352900D01*
Y326900D01*
Y327700D01*
Y328500D01*
D02*
G37*
G36*
X409700Y333300D02*
X408900D01*
Y332500D01*
X408100D01*
Y331700D01*
X407300D01*
Y330900D01*
Y330100D01*
X406500D01*
Y329300D01*
Y328500D01*
X405700D01*
Y327700D01*
X404900D01*
Y326900D01*
Y326100D01*
X404100D01*
Y325300D01*
X403300D01*
Y324500D01*
X402500D01*
Y323700D01*
Y322900D01*
X401700D01*
Y322100D01*
X400900D01*
Y321300D01*
Y320500D01*
X400100D01*
Y319700D01*
X399300D01*
Y318900D01*
X398500D01*
Y318100D01*
X397700D01*
Y317300D01*
Y316500D01*
X396900D01*
Y315700D01*
X396100D01*
Y314900D01*
X395300D01*
Y314100D01*
X394500D01*
Y314900D01*
X393700D01*
Y315700D01*
X392900D01*
Y314900D01*
Y314100D01*
X392100D01*
Y313300D01*
Y312500D01*
Y311700D01*
X391300D01*
Y310900D01*
X392100D01*
Y310100D01*
X393700D01*
Y309300D01*
X394500D01*
Y308500D01*
Y307700D01*
X395300D01*
Y306900D01*
X396100D01*
Y306100D01*
X396900D01*
Y305300D01*
X397700D01*
Y306100D01*
X398500D01*
Y306900D01*
X400100D01*
Y307700D01*
Y308500D01*
X400900D01*
Y309300D01*
X401700D01*
Y310100D01*
Y310900D01*
X402500D01*
Y311700D01*
Y312500D01*
X403300D01*
Y313300D01*
Y314100D01*
Y314900D01*
Y315700D01*
Y316500D01*
Y317300D01*
X404900D01*
Y316500D01*
Y315700D01*
Y314900D01*
Y314100D01*
Y313300D01*
Y312500D01*
Y311700D01*
X405700D01*
Y312500D01*
X406500D01*
Y313300D01*
X407300D01*
Y314100D01*
X408100D01*
Y314900D01*
X408900D01*
Y315700D01*
Y316500D01*
X409700D01*
Y317300D01*
Y318100D01*
X410500D01*
Y318900D01*
Y319700D01*
Y320500D01*
Y321300D01*
X411300D01*
Y322100D01*
Y322900D01*
Y323700D01*
Y324500D01*
Y325300D01*
Y326100D01*
Y326900D01*
X412100D01*
Y326100D01*
Y325300D01*
X412900D01*
Y324500D01*
Y323700D01*
Y322900D01*
Y322100D01*
Y321300D01*
Y320500D01*
Y319700D01*
Y318900D01*
Y318100D01*
X413700D01*
Y317300D01*
Y316500D01*
X412900D01*
Y315700D01*
X413700D01*
Y314900D01*
Y314100D01*
Y313300D01*
Y312500D01*
Y311700D01*
X412900D01*
Y310900D01*
Y310100D01*
Y309300D01*
Y308500D01*
Y307700D01*
Y306900D01*
Y306100D01*
X412100D01*
Y305300D01*
Y304500D01*
Y303700D01*
Y302900D01*
X411300D01*
Y302100D01*
Y301300D01*
X410500D01*
Y300500D01*
Y299700D01*
Y298900D01*
X409700D01*
Y298100D01*
X412900D01*
Y297300D01*
Y296500D01*
Y295700D01*
Y294900D01*
X412100D01*
Y294100D01*
Y293300D01*
Y292500D01*
X411300D01*
Y291700D01*
X410500D01*
Y290900D01*
X409700D01*
Y290100D01*
X408900D01*
Y289300D01*
Y288500D01*
Y287700D01*
Y286900D01*
X409700D01*
Y286100D01*
X410500D01*
Y285300D01*
X412900D01*
Y286100D01*
X413700D01*
Y286900D01*
X414500D01*
Y287700D01*
X415300D01*
Y288500D01*
Y289300D01*
X413700D01*
Y290100D01*
X412900D01*
Y290900D01*
X413700D01*
Y291700D01*
X415300D01*
Y292500D01*
X416100D01*
Y293300D01*
X416900D01*
Y294100D01*
Y294900D01*
X417700D01*
Y295700D01*
X418500D01*
Y296500D01*
Y297300D01*
Y298100D01*
X419300D01*
Y298900D01*
Y299700D01*
Y300500D01*
X418500D01*
Y299700D01*
X416100D01*
Y300500D01*
Y301300D01*
X416900D01*
Y302100D01*
Y302900D01*
X417700D01*
Y303700D01*
Y304500D01*
Y305300D01*
Y306100D01*
X418500D01*
Y306900D01*
Y307700D01*
Y308500D01*
Y309300D01*
Y310100D01*
Y310900D01*
Y311700D01*
Y312500D01*
Y313300D01*
Y314100D01*
Y314900D01*
Y315700D01*
Y316500D01*
X417700D01*
Y317300D01*
Y318100D01*
Y318900D01*
Y319700D01*
Y320500D01*
X416900D01*
Y321300D01*
Y322100D01*
Y322900D01*
X416100D01*
Y323700D01*
Y324500D01*
X415300D01*
Y325300D01*
Y326100D01*
X414500D01*
Y326900D01*
Y327700D01*
X413700D01*
Y328500D01*
Y329300D01*
X412900D01*
Y330100D01*
Y330900D01*
X412100D01*
Y331700D01*
X411300D01*
Y332500D01*
X409700D01*
Y333300D01*
D02*
G37*
G36*
X411300Y314900D02*
X410500D01*
Y314100D01*
X409700D01*
Y313300D01*
Y312500D01*
X408900D01*
Y311700D01*
X408100D01*
Y310900D01*
X407300D01*
Y310100D01*
X405700D01*
Y309300D01*
X404100D01*
Y308500D01*
X403300D01*
Y307700D01*
Y306900D01*
X402500D01*
Y306100D01*
X401700D01*
Y305300D01*
X400900D01*
Y304500D01*
X399300D01*
Y303700D01*
X398500D01*
Y302900D01*
Y302100D01*
Y301300D01*
X399300D01*
Y300500D01*
Y299700D01*
Y298900D01*
X400100D01*
Y298100D01*
Y297300D01*
Y296500D01*
Y295700D01*
X399300D01*
Y294900D01*
Y294100D01*
Y293300D01*
Y292500D01*
Y291700D01*
Y290900D01*
Y290100D01*
Y289300D01*
Y288500D01*
Y287700D01*
Y286900D01*
Y286100D01*
Y285300D01*
Y284500D01*
X404100D01*
Y285300D01*
X404900D01*
Y286100D01*
X405700D01*
Y286900D01*
X406500D01*
Y287700D01*
X405700D01*
Y288500D01*
X404100D01*
Y289300D01*
X404900D01*
Y290100D01*
X406500D01*
Y290900D01*
X407300D01*
Y291700D01*
X408900D01*
Y292500D01*
Y293300D01*
X409700D01*
Y294100D01*
X410500D01*
Y294900D01*
Y295700D01*
X407300D01*
Y296500D01*
Y297300D01*
Y298100D01*
X408100D01*
Y298900D01*
Y299700D01*
X408900D01*
Y300500D01*
Y301300D01*
X409700D01*
Y302100D01*
Y302900D01*
Y303700D01*
X410500D01*
Y304500D01*
Y305300D01*
Y306100D01*
Y306900D01*
Y307700D01*
Y308500D01*
X411300D01*
Y309300D01*
Y310100D01*
Y310900D01*
Y311700D01*
Y312500D01*
Y313300D01*
Y314100D01*
Y314900D01*
D02*
G37*
G36*
X399300Y284500D02*
X398500D01*
Y283700D01*
X399300D01*
Y284500D01*
D02*
G37*
G36*
X403300Y282900D02*
X402500D01*
Y282100D01*
X399300D01*
Y282900D01*
X398500D01*
Y282100D01*
X397700D01*
Y281300D01*
Y280500D01*
X396900D01*
Y279700D01*
X396100D01*
Y278900D01*
Y278100D01*
Y277300D01*
Y276500D01*
Y275700D01*
X397700D01*
Y276500D01*
X399300D01*
Y277300D01*
X400100D01*
Y278100D01*
Y278900D01*
X400900D01*
Y279700D01*
X401700D01*
Y280500D01*
X402500D01*
Y281300D01*
X403300D01*
Y282100D01*
Y282900D01*
D02*
G37*
G36*
X419300Y293300D02*
X418500D01*
Y292500D01*
Y291700D01*
X417700D01*
Y290900D01*
Y290100D01*
X418500D01*
Y289300D01*
Y288500D01*
X417700D01*
Y287700D01*
Y286900D01*
X416900D01*
Y286100D01*
X416100D01*
Y285300D01*
X415300D01*
Y284500D01*
X414500D01*
Y283700D01*
X413700D01*
Y282900D01*
X412100D01*
Y282100D01*
X412900D01*
Y281300D01*
Y280500D01*
X413700D01*
Y279700D01*
Y278900D01*
Y278100D01*
Y277300D01*
Y276500D01*
Y275700D01*
Y274900D01*
Y274100D01*
Y273300D01*
Y272500D01*
Y271700D01*
X415300D01*
Y270900D01*
Y270100D01*
Y269300D01*
Y268500D01*
Y267700D01*
Y266900D01*
Y266100D01*
X416100D01*
Y266900D01*
X416900D01*
Y267700D01*
X417700D01*
Y268500D01*
X418500D01*
Y269300D01*
X419300D01*
Y270100D01*
X420100D01*
Y270900D01*
Y271700D01*
X420900D01*
Y272500D01*
Y273300D01*
Y274100D01*
X421700D01*
Y274900D01*
Y275700D01*
X420900D01*
Y276500D01*
X421700D01*
Y277300D01*
X420900D01*
Y278100D01*
Y278900D01*
X420100D01*
Y279700D01*
Y280500D01*
X419300D01*
Y281300D01*
Y282100D01*
Y282900D01*
X418500D01*
Y283700D01*
X420100D01*
Y282900D01*
X420900D01*
Y282100D01*
X421700D01*
Y281300D01*
X422500D01*
Y282100D01*
X424100D01*
Y282900D01*
X425700D01*
Y283700D01*
X426500D01*
Y284500D01*
X427300D01*
Y285300D01*
X425700D01*
Y286100D01*
X424100D01*
Y286900D01*
X423300D01*
Y287700D01*
X422500D01*
Y288500D01*
X420900D01*
Y289300D01*
Y290100D01*
Y290900D01*
X421700D01*
Y291700D01*
X420100D01*
Y292500D01*
X419300D01*
Y293300D01*
D02*
G37*
G36*
X376100Y280500D02*
X375300D01*
Y279700D01*
X376100D01*
Y280500D01*
D02*
G37*
G36*
X347300Y289300D02*
X345700D01*
Y288500D01*
Y287700D01*
Y286900D01*
Y286100D01*
X344900D01*
Y285300D01*
Y284500D01*
Y283700D01*
Y282900D01*
Y282100D01*
Y281300D01*
Y280500D01*
Y279700D01*
Y278900D01*
X345700D01*
Y278100D01*
Y277300D01*
X346500D01*
Y276500D01*
X347300D01*
Y275700D01*
X348100D01*
Y274900D01*
X348900D01*
Y275700D01*
Y276500D01*
X348100D01*
Y277300D01*
Y278100D01*
Y278900D01*
X347300D01*
Y279700D01*
Y280500D01*
Y281300D01*
X346500D01*
Y282100D01*
Y282900D01*
Y283700D01*
Y284500D01*
Y285300D01*
Y286100D01*
Y286900D01*
Y287700D01*
Y288500D01*
X347300D01*
Y289300D01*
D02*
G37*
G36*
X381700Y286100D02*
X380900D01*
Y285300D01*
Y284500D01*
X380100D01*
Y283700D01*
Y282900D01*
Y282100D01*
X379300D01*
Y281300D01*
Y280500D01*
X381700D01*
Y279700D01*
Y278900D01*
X382500D01*
Y278100D01*
Y277300D01*
X383300D01*
Y278100D01*
Y278900D01*
X384900D01*
Y278100D01*
Y277300D01*
X385700D01*
Y276500D01*
X386500D01*
Y275700D01*
Y274900D01*
Y274100D01*
Y273300D01*
X384900D01*
Y274100D01*
X384100D01*
Y273300D01*
Y272500D01*
Y271700D01*
Y270900D01*
Y270100D01*
X382500D01*
Y270900D01*
Y271700D01*
X381700D01*
Y272500D01*
X380100D01*
Y271700D01*
X380900D01*
Y270900D01*
X378500D01*
Y271700D01*
X377700D01*
Y272500D01*
X376900D01*
Y273300D01*
Y274100D01*
Y274900D01*
Y275700D01*
X378500D01*
Y276500D01*
Y277300D01*
Y278100D01*
X379300D01*
Y278900D01*
Y279700D01*
X378500D01*
Y278900D01*
X377700D01*
Y278100D01*
X376900D01*
Y277300D01*
X376100D01*
Y276500D01*
X374500D01*
Y275700D01*
X372100D01*
Y274900D01*
X372900D01*
Y274100D01*
Y273300D01*
Y272500D01*
Y271700D01*
X367300D01*
Y270900D01*
X362500D01*
Y271700D01*
Y272500D01*
X361700D01*
Y273300D01*
Y274100D01*
X364100D01*
Y273300D01*
X364900D01*
Y272500D01*
X365700D01*
Y273300D01*
X366500D01*
Y274100D01*
X369700D01*
Y273300D01*
X370500D01*
Y274100D01*
X371300D01*
Y274900D01*
Y275700D01*
X370500D01*
Y276500D01*
X369700D01*
Y277300D01*
Y278100D01*
X368900D01*
Y277300D01*
Y276500D01*
Y275700D01*
Y274900D01*
X366500D01*
Y275700D01*
X364100D01*
Y276500D01*
X363300D01*
Y277300D01*
X360100D01*
Y278100D01*
X358500D01*
Y278900D01*
X356100D01*
Y279700D01*
X355300D01*
Y280500D01*
X353700D01*
Y281300D01*
X352900D01*
Y282100D01*
X352100D01*
Y282900D01*
X350500D01*
Y283700D01*
X349700D01*
Y282900D01*
Y282100D01*
Y281300D01*
Y280500D01*
Y279700D01*
X350500D01*
Y278900D01*
Y278100D01*
X351300D01*
Y277300D01*
Y276500D01*
X352100D01*
Y275700D01*
X352900D01*
Y276500D01*
X354500D01*
Y275700D01*
Y274900D01*
X356100D01*
Y275700D01*
Y276500D01*
X357700D01*
Y275700D01*
Y274900D01*
Y274100D01*
Y273300D01*
Y272500D01*
X356900D01*
Y271700D01*
X353700D01*
Y272500D01*
X352900D01*
Y273300D01*
X352100D01*
Y274100D01*
X351300D01*
Y273300D01*
Y272500D01*
Y271700D01*
X350500D01*
Y270900D01*
Y270100D01*
Y269300D01*
Y268500D01*
Y267700D01*
Y266900D01*
X351300D01*
Y266100D01*
Y265300D01*
X352100D01*
Y264500D01*
X352900D01*
Y263700D01*
X353700D01*
Y262900D01*
X355300D01*
Y262100D01*
X356900D01*
Y261300D01*
X358500D01*
Y260500D01*
X362500D01*
Y259700D01*
X376900D01*
Y260500D01*
X381700D01*
Y261300D01*
X385700D01*
Y262100D01*
X388100D01*
Y262900D01*
X390500D01*
Y263700D01*
X392100D01*
Y264500D01*
X394500D01*
Y265300D01*
X396100D01*
Y266100D01*
X397700D01*
Y266900D01*
X398500D01*
Y267700D01*
Y268500D01*
Y269300D01*
X397700D01*
Y270100D01*
Y270900D01*
Y271700D01*
Y272500D01*
Y273300D01*
X394500D01*
Y272500D01*
X392900D01*
Y273300D01*
Y274100D01*
Y274900D01*
X393700D01*
Y275700D01*
Y276500D01*
X394500D01*
Y277300D01*
Y278100D01*
X393700D01*
Y277300D01*
X390500D01*
Y278100D01*
Y278900D01*
Y279700D01*
Y280500D01*
Y281300D01*
X389700D01*
Y282100D01*
Y282900D01*
X388900D01*
Y283700D01*
Y284500D01*
X388100D01*
Y285300D01*
X387300D01*
Y284500D01*
Y283700D01*
X386500D01*
Y282900D01*
X384900D01*
Y283700D01*
X383300D01*
Y284500D01*
X382500D01*
Y285300D01*
X381700D01*
Y286100D01*
D02*
G37*
G36*
X408100Y285300D02*
X407300D01*
Y284500D01*
X406500D01*
Y283700D01*
X404900D01*
Y282900D01*
X404100D01*
Y282100D01*
Y281300D01*
Y280500D01*
X403300D01*
Y279700D01*
Y278900D01*
X402500D01*
Y278100D01*
Y277300D01*
Y276500D01*
X401700D01*
Y275700D01*
X400100D01*
Y274900D01*
Y274100D01*
X399300D01*
Y273300D01*
X400100D01*
Y272500D01*
Y271700D01*
Y270900D01*
Y270100D01*
Y269300D01*
Y268500D01*
X400900D01*
Y267700D01*
Y266900D01*
Y266100D01*
X401700D01*
Y266900D01*
X402500D01*
Y267700D01*
X403300D01*
Y268500D01*
X404100D01*
Y269300D01*
Y270100D01*
Y270900D01*
X404900D01*
Y271700D01*
Y272500D01*
X405700D01*
Y271700D01*
Y270900D01*
Y270100D01*
Y269300D01*
Y268500D01*
Y267700D01*
X404900D01*
Y266900D01*
X404100D01*
Y266100D01*
X403300D01*
Y265300D01*
X404900D01*
Y266100D01*
X406500D01*
Y266900D01*
X408100D01*
Y267700D01*
X408900D01*
Y268500D01*
X409700D01*
Y269300D01*
X410500D01*
Y270100D01*
Y270900D01*
X411300D01*
Y271700D01*
Y272500D01*
Y273300D01*
X412100D01*
Y274100D01*
Y274900D01*
Y275700D01*
Y276500D01*
Y277300D01*
Y278100D01*
X411300D01*
Y278900D01*
Y279700D01*
Y280500D01*
X410500D01*
Y281300D01*
Y282100D01*
Y282900D01*
X409700D01*
Y283700D01*
X408900D01*
Y284500D01*
X408100D01*
Y285300D01*
D02*
G37*
G36*
X413700Y270900D02*
X412900D01*
Y270100D01*
Y269300D01*
Y268500D01*
X412100D01*
Y267700D01*
X411300D01*
Y266900D01*
X410500D01*
Y266100D01*
Y265300D01*
Y264500D01*
Y263700D01*
Y262900D01*
X411300D01*
Y263700D01*
X412100D01*
Y264500D01*
Y265300D01*
X412900D01*
Y266100D01*
Y266900D01*
Y267700D01*
X413700D01*
Y268500D01*
Y269300D01*
Y270100D01*
Y270900D01*
D02*
G37*
G36*
X396900Y263700D02*
X396100D01*
Y262900D01*
X396900D01*
Y263700D01*
D02*
G37*
G36*
X348100Y273300D02*
X346500D01*
Y272500D01*
X345700D01*
Y271700D01*
Y270900D01*
X346500D01*
Y270100D01*
Y269300D01*
Y268500D01*
X345700D01*
Y267700D01*
Y266900D01*
Y266100D01*
X346500D01*
Y265300D01*
Y264500D01*
X347300D01*
Y263700D01*
X348100D01*
Y262900D01*
X349700D01*
Y263700D01*
X348900D01*
Y264500D01*
X348100D01*
Y265300D01*
Y266100D01*
Y266900D01*
X347300D01*
Y267700D01*
Y268500D01*
Y269300D01*
Y270100D01*
Y270900D01*
Y271700D01*
X348100D01*
Y272500D01*
Y273300D01*
D02*
G37*
G36*
X350500Y262100D02*
X349700D01*
Y261300D01*
X350500D01*
Y262100D01*
D02*
G37*
G36*
X408900Y264500D02*
X407300D01*
Y263700D01*
X405700D01*
Y262900D01*
X404100D01*
Y262100D01*
Y261300D01*
Y260500D01*
Y259700D01*
X403300D01*
Y258900D01*
X405700D01*
Y259700D01*
X406500D01*
Y260500D01*
X407300D01*
Y261300D01*
X408100D01*
Y262100D01*
Y262900D01*
X408900D01*
Y263700D01*
Y264500D01*
D02*
G37*
G36*
X402500Y262900D02*
X398500D01*
Y262100D01*
X399300D01*
Y261300D01*
Y260500D01*
Y259700D01*
Y258900D01*
X400100D01*
Y259700D01*
X400900D01*
Y260500D01*
X401700D01*
Y261300D01*
X402500D01*
Y262100D01*
Y262900D01*
D02*
G37*
G36*
X396100Y261300D02*
X395300D01*
Y260500D01*
X394500D01*
Y259700D01*
Y258900D01*
X396900D01*
Y259700D01*
X397700D01*
Y260500D01*
X396100D01*
Y261300D01*
D02*
G37*
G36*
X411300Y260500D02*
X410500D01*
Y259700D01*
X409700D01*
Y258900D01*
X408100D01*
Y258100D01*
X410500D01*
Y258900D01*
X411300D01*
Y259700D01*
Y260500D01*
D02*
G37*
G36*
X403300Y258900D02*
X402500D01*
Y258100D01*
X403300D01*
Y258900D01*
D02*
G37*
G36*
X392900Y262100D02*
X392100D01*
Y261300D01*
X391300D01*
Y260500D01*
X388900D01*
Y259700D01*
X386500D01*
Y258900D01*
X384100D01*
Y258100D01*
X384900D01*
Y257300D01*
Y256500D01*
Y255700D01*
X385700D01*
Y256500D01*
X387300D01*
Y257300D01*
X389700D01*
Y258100D01*
X392100D01*
Y258900D01*
Y259700D01*
Y260500D01*
X392900D01*
Y261300D01*
Y262100D01*
D02*
G37*
G36*
X364100Y257300D02*
X360900D01*
Y256500D01*
X362500D01*
Y255700D01*
X364100D01*
Y256500D01*
Y257300D01*
D02*
G37*
G36*
X382500D02*
X380900D01*
Y256500D01*
Y255700D01*
X381700D01*
Y254900D01*
X382500D01*
Y255700D01*
X383300D01*
Y256500D01*
X382500D01*
Y257300D01*
D02*
G37*
G36*
X368100Y256500D02*
X365700D01*
Y255700D01*
X366500D01*
Y254900D01*
X368900D01*
Y255700D01*
X368100D01*
Y256500D01*
D02*
G37*
G36*
X359300D02*
X358500D01*
Y255700D01*
Y254900D01*
X359300D01*
Y255700D01*
Y256500D01*
D02*
G37*
G36*
X379300Y258100D02*
X377700D01*
Y257300D01*
X370500D01*
Y256500D01*
Y255700D01*
Y254900D01*
Y254100D01*
X372900D01*
Y253300D01*
X380100D01*
Y254100D01*
X379300D01*
Y254900D01*
Y255700D01*
Y256500D01*
Y257300D01*
Y258100D01*
D02*
G37*
G36*
X370500Y254100D02*
X369700D01*
Y253300D01*
X370500D01*
Y254100D01*
D02*
G37*
G36*
X363300D02*
X361700D01*
Y253300D01*
X362500D01*
Y252500D01*
X363300D01*
Y251700D01*
X364100D01*
Y252500D01*
Y253300D01*
X363300D01*
Y254100D01*
D02*
G37*
G36*
X394500Y255700D02*
X388900D01*
Y254900D01*
X387300D01*
Y254100D01*
X385700D01*
Y253300D01*
X384100D01*
Y252500D01*
X383300D01*
Y251700D01*
X384900D01*
Y250900D01*
X391300D01*
Y251700D01*
Y252500D01*
X392100D01*
Y253300D01*
X392900D01*
Y254100D01*
X393700D01*
Y254900D01*
X394500D01*
Y255700D01*
D02*
G37*
G36*
X406500Y257300D02*
X404900D01*
Y256500D01*
X402500D01*
Y255700D01*
X403300D01*
Y254900D01*
X404100D01*
Y254100D01*
Y253300D01*
X404900D01*
Y252500D01*
Y251700D01*
X405700D01*
Y250900D01*
Y250100D01*
X406500D01*
Y249300D01*
Y248500D01*
X407300D01*
Y249300D01*
X408100D01*
Y250100D01*
Y250900D01*
Y251700D01*
X407300D01*
Y252500D01*
Y253300D01*
Y254100D01*
Y254900D01*
X406500D01*
Y255700D01*
Y256500D01*
Y257300D01*
D02*
G37*
G36*
X396100Y252500D02*
X394500D01*
Y251700D01*
X393700D01*
Y250900D01*
Y250100D01*
X392900D01*
Y249300D01*
X392100D01*
Y248500D01*
X393700D01*
Y249300D01*
X396100D01*
Y250100D01*
X396900D01*
Y250900D01*
Y251700D01*
X396100D01*
Y252500D01*
D02*
G37*
G36*
X372100Y248500D02*
X371300D01*
Y247700D01*
X370500D01*
Y246900D01*
X372100D01*
Y247700D01*
Y248500D01*
D02*
G37*
G36*
X361700D02*
X360900D01*
Y247700D01*
Y246900D01*
X361700D01*
Y247700D01*
Y248500D01*
D02*
G37*
G36*
X400100D02*
X396100D01*
Y247700D01*
X394500D01*
Y246900D01*
X392900D01*
Y246100D01*
Y245300D01*
X395300D01*
Y246100D01*
X397700D01*
Y246900D01*
X400100D01*
Y247700D01*
Y248500D01*
D02*
G37*
G36*
X380900Y250900D02*
X378500D01*
Y250100D01*
X377700D01*
Y249300D01*
X376900D01*
Y248500D01*
X375300D01*
Y247700D01*
X374500D01*
Y246900D01*
X373700D01*
Y246100D01*
X372900D01*
Y245300D01*
X371300D01*
Y244500D01*
X368900D01*
Y245300D01*
X368100D01*
Y246100D01*
Y246900D01*
X367300D01*
Y247700D01*
X366500D01*
Y248500D01*
X365700D01*
Y247700D01*
X366500D01*
Y246900D01*
Y246100D01*
X367300D01*
Y245300D01*
X368100D01*
Y244500D01*
Y243700D01*
X368900D01*
Y242900D01*
X369700D01*
Y242100D01*
X370500D01*
Y241300D01*
X371300D01*
Y242100D01*
X372900D01*
Y242900D01*
X373700D01*
Y243700D01*
X374500D01*
Y244500D01*
X375300D01*
Y245300D01*
X376900D01*
Y246100D01*
Y246900D01*
X377700D01*
Y247700D01*
X378500D01*
Y248500D01*
X379300D01*
Y249300D01*
X380100D01*
Y250100D01*
X380900D01*
Y250900D01*
D02*
G37*
G36*
X416100Y258100D02*
X412900D01*
Y257300D01*
X412100D01*
Y256500D01*
X411300D01*
Y255700D01*
X408900D01*
Y254900D01*
Y254100D01*
X409700D01*
Y253300D01*
Y252500D01*
Y251700D01*
Y250900D01*
Y250100D01*
Y249300D01*
Y248500D01*
Y247700D01*
Y246900D01*
X408900D01*
Y246100D01*
Y245300D01*
X408100D01*
Y244500D01*
Y243700D01*
Y242900D01*
X408900D01*
Y242100D01*
Y241300D01*
Y240500D01*
Y239700D01*
Y238900D01*
Y238100D01*
Y237300D01*
X409700D01*
Y238100D01*
X410500D01*
Y238900D01*
Y239700D01*
Y240500D01*
Y241300D01*
X411300D01*
Y242100D01*
Y242900D01*
Y243700D01*
X412100D01*
Y242900D01*
Y242100D01*
Y241300D01*
Y240500D01*
Y239700D01*
Y238900D01*
Y238100D01*
X412900D01*
Y238900D01*
X413700D01*
Y239700D01*
Y240500D01*
X414500D01*
Y241300D01*
Y242100D01*
X415300D01*
Y242900D01*
Y243700D01*
Y244500D01*
Y245300D01*
X414500D01*
Y246100D01*
X416100D01*
Y245300D01*
X416900D01*
Y244500D01*
Y243700D01*
Y242900D01*
Y242100D01*
Y241300D01*
Y240500D01*
X417700D01*
Y241300D01*
Y242100D01*
X418500D01*
Y242900D01*
Y243700D01*
Y244500D01*
Y245300D01*
Y246100D01*
Y246900D01*
Y247700D01*
Y248500D01*
Y249300D01*
Y250100D01*
X417700D01*
Y250900D01*
X416900D01*
Y251700D01*
Y252500D01*
X416100D01*
Y253300D01*
X415300D01*
Y254100D01*
X414500D01*
Y254900D01*
X412900D01*
Y255700D01*
Y256500D01*
X416100D01*
Y257300D01*
Y258100D01*
D02*
G37*
G36*
X416900Y240500D02*
X416100D01*
Y239700D01*
X416900D01*
Y240500D01*
D02*
G37*
G36*
X412100Y238100D02*
X411300D01*
Y237300D01*
X412100D01*
Y238100D01*
D02*
G37*
G36*
X400100Y255700D02*
X397700D01*
Y254900D01*
Y254100D01*
Y253300D01*
Y252500D01*
X398500D01*
Y251700D01*
Y250900D01*
X400100D01*
Y250100D01*
X400900D01*
Y249300D01*
Y248500D01*
X401700D01*
Y247700D01*
Y246900D01*
Y246100D01*
Y245300D01*
X400100D01*
Y244500D01*
Y243700D01*
Y242900D01*
Y242100D01*
Y241300D01*
Y240500D01*
Y239700D01*
Y238900D01*
X399300D01*
Y238100D01*
Y237300D01*
X400900D01*
Y238100D01*
X402500D01*
Y238900D01*
X403300D01*
Y239700D01*
X404900D01*
Y240500D01*
X405700D01*
Y241300D01*
Y242100D01*
Y242900D01*
Y243700D01*
Y244500D01*
X404900D01*
Y245300D01*
Y246100D01*
Y246900D01*
Y247700D01*
X404100D01*
Y248500D01*
Y249300D01*
X403300D01*
Y250100D01*
Y250900D01*
X402500D01*
Y251700D01*
Y252500D01*
X401700D01*
Y253300D01*
X400900D01*
Y254100D01*
Y254900D01*
X400100D01*
Y255700D01*
D02*
G37*
G36*
X360900Y246900D02*
X360100D01*
Y246100D01*
Y245300D01*
Y244500D01*
X359300D01*
Y243700D01*
Y242900D01*
X358500D01*
Y242100D01*
Y241300D01*
X357700D01*
Y240500D01*
Y239700D01*
Y238900D01*
X356900D01*
Y238100D01*
Y237300D01*
X357700D01*
Y238100D01*
X358500D01*
Y238900D01*
Y239700D01*
X359300D01*
Y240500D01*
X360100D01*
Y241300D01*
Y242100D01*
Y242900D01*
X360900D01*
Y243700D01*
Y244500D01*
Y245300D01*
Y246100D01*
Y246900D01*
D02*
G37*
G36*
X356100Y235700D02*
X355300D01*
Y234900D01*
X356100D01*
Y235700D01*
D02*
G37*
G36*
X364100Y248500D02*
X363300D01*
Y247700D01*
X362500D01*
Y246900D01*
Y246100D01*
Y245300D01*
Y244500D01*
Y243700D01*
Y242900D01*
X361700D01*
Y242100D01*
Y241300D01*
Y240500D01*
X360900D01*
Y239700D01*
Y238900D01*
X360100D01*
Y238100D01*
Y237300D01*
X359300D01*
Y236500D01*
X358500D01*
Y235700D01*
X359300D01*
Y234900D01*
X360100D01*
Y234100D01*
X360900D01*
Y233300D01*
X361700D01*
Y232500D01*
X362500D01*
Y231700D01*
X364100D01*
Y230900D01*
X365700D01*
Y231700D01*
X366500D01*
Y232500D01*
X367300D01*
Y233300D01*
X368100D01*
Y234100D01*
X368900D01*
Y234900D01*
Y235700D01*
X369700D01*
Y236500D01*
Y237300D01*
Y238100D01*
Y238900D01*
Y239700D01*
X368900D01*
Y240500D01*
Y241300D01*
X368100D01*
Y242100D01*
X367300D01*
Y242900D01*
X366500D01*
Y243700D01*
Y244500D01*
X365700D01*
Y245300D01*
X364900D01*
Y246100D01*
Y246900D01*
X364100D01*
Y247700D01*
Y248500D01*
D02*
G37*
G36*
X385700Y249300D02*
X382500D01*
Y248500D01*
X381700D01*
Y247700D01*
X380900D01*
Y246900D01*
X380100D01*
Y246100D01*
X379300D01*
Y245300D01*
X378500D01*
Y244500D01*
X377700D01*
Y243700D01*
X376900D01*
Y242900D01*
X376100D01*
Y242100D01*
X375300D01*
Y241300D01*
X373700D01*
Y240500D01*
X372900D01*
Y239700D01*
X371300D01*
Y238900D01*
Y238100D01*
Y237300D01*
Y236500D01*
Y235700D01*
Y234900D01*
X370500D01*
Y234100D01*
Y233300D01*
Y232500D01*
X371300D01*
Y231700D01*
Y230900D01*
X372100D01*
Y230100D01*
X372900D01*
Y229300D01*
X376100D01*
Y230100D01*
X380900D01*
Y230900D01*
X384100D01*
Y231700D01*
X387300D01*
Y232500D01*
X389700D01*
Y233300D01*
X392100D01*
Y234100D01*
X394500D01*
Y234900D01*
X395300D01*
Y235700D01*
X396900D01*
Y236500D01*
Y237300D01*
X397700D01*
Y238100D01*
Y238900D01*
X398500D01*
Y239700D01*
Y240500D01*
Y241300D01*
Y242100D01*
X399300D01*
Y242900D01*
Y243700D01*
X398500D01*
Y244500D01*
X395300D01*
Y243700D01*
X392100D01*
Y244500D01*
X391300D01*
Y245300D01*
Y246100D01*
Y246900D01*
Y247700D01*
X392100D01*
Y248500D01*
X385700D01*
Y249300D01*
D02*
G37*
G36*
X401700Y235700D02*
X400900D01*
Y234900D01*
X398500D01*
Y234100D01*
X396900D01*
Y233300D01*
Y232500D01*
Y231700D01*
Y230900D01*
Y230100D01*
X397700D01*
Y229300D01*
Y228500D01*
X398500D01*
Y229300D01*
X399300D01*
Y230100D01*
X400100D01*
Y230900D01*
Y231700D01*
X400900D01*
Y232500D01*
X401700D01*
Y233300D01*
Y234100D01*
Y234900D01*
Y235700D01*
D02*
G37*
G36*
X358500Y233300D02*
X356900D01*
Y232500D01*
X352100D01*
Y231700D01*
X352900D01*
Y230900D01*
X354500D01*
Y230100D01*
X355300D01*
Y230900D01*
Y231700D01*
X357700D01*
Y230900D01*
X358500D01*
Y230100D01*
X360900D01*
Y229300D01*
X362500D01*
Y228500D01*
X364100D01*
Y229300D01*
X362500D01*
Y230100D01*
X361700D01*
Y230900D01*
X360100D01*
Y231700D01*
X359300D01*
Y232500D01*
X358500D01*
Y233300D01*
D02*
G37*
G36*
X349700Y231700D02*
X348100D01*
Y230900D01*
X347300D01*
Y230100D01*
X348100D01*
Y229300D01*
X350500D01*
Y228500D01*
X351300D01*
Y229300D01*
X352100D01*
Y228500D01*
X352900D01*
Y229300D01*
X352100D01*
Y230100D01*
X350500D01*
Y230900D01*
X349700D01*
Y231700D01*
D02*
G37*
G36*
X405700Y238100D02*
X404900D01*
Y237300D01*
X404100D01*
Y236500D01*
Y235700D01*
Y234900D01*
Y234100D01*
X403300D01*
Y233300D01*
Y232500D01*
Y231700D01*
X402500D01*
Y230900D01*
X401700D01*
Y230100D01*
Y229300D01*
X400900D01*
Y228500D01*
Y227700D01*
X399300D01*
Y226900D01*
X400100D01*
Y226100D01*
X401700D01*
Y226900D01*
X402500D01*
Y227700D01*
X403300D01*
Y228500D01*
X404100D01*
Y229300D01*
Y230100D01*
X404900D01*
Y230900D01*
Y231700D01*
Y232500D01*
X405700D01*
Y233300D01*
Y234100D01*
Y234900D01*
Y235700D01*
Y236500D01*
Y237300D01*
Y238100D01*
D02*
G37*
G36*
X369700Y231700D02*
X368900D01*
Y230900D01*
X368100D01*
Y230100D01*
X367300D01*
Y229300D01*
X366500D01*
Y228500D01*
X364900D01*
Y227700D01*
X367300D01*
Y226900D01*
X371300D01*
Y226100D01*
X372100D01*
Y226900D01*
X373700D01*
Y226100D01*
X374500D01*
Y226900D01*
X375300D01*
Y226100D01*
X376100D01*
Y226900D01*
X377700D01*
Y226100D01*
X378500D01*
Y226900D01*
X382500D01*
Y227700D01*
X384900D01*
Y228500D01*
X386500D01*
Y229300D01*
X382500D01*
Y228500D01*
X378500D01*
Y227700D01*
X372100D01*
Y228500D01*
X370500D01*
Y229300D01*
Y230100D01*
X369700D01*
Y230900D01*
Y231700D01*
D02*
G37*
G36*
X394500Y232500D02*
X393700D01*
Y231700D01*
Y230900D01*
Y230100D01*
Y229300D01*
Y228500D01*
Y227700D01*
X394500D01*
Y226900D01*
Y226100D01*
X395300D01*
Y225300D01*
X396100D01*
Y224500D01*
X396900D01*
Y223700D01*
X397700D01*
Y224500D01*
X398500D01*
Y225300D01*
X397700D01*
Y226100D01*
X396900D01*
Y226900D01*
X396100D01*
Y227700D01*
Y228500D01*
X395300D01*
Y229300D01*
Y230100D01*
Y230900D01*
X394500D01*
Y231700D01*
Y232500D01*
D02*
G37*
G36*
X392100Y231700D02*
X391300D01*
Y230900D01*
X388900D01*
Y230100D01*
X386500D01*
Y229300D01*
X387300D01*
Y228500D01*
Y227700D01*
Y226900D01*
X386500D01*
Y226100D01*
X385700D01*
Y225300D01*
Y224500D01*
X386500D01*
Y223700D01*
X388900D01*
Y222900D01*
X390500D01*
Y223700D01*
X392100D01*
Y224500D01*
X392900D01*
Y225300D01*
Y226100D01*
X392100D01*
Y226900D01*
Y227700D01*
Y228500D01*
Y229300D01*
Y230100D01*
Y230900D01*
Y231700D01*
D02*
G37*
G36*
X394500Y222900D02*
X392900D01*
Y222100D01*
X394500D01*
Y222900D01*
D02*
G37*
G36*
X384100Y223700D02*
X383300D01*
Y222900D01*
X384100D01*
Y222100D01*
Y221300D01*
X385700D01*
Y220500D01*
X388900D01*
Y221300D01*
X387300D01*
Y222100D01*
X385700D01*
Y222900D01*
X384100D01*
Y223700D01*
D02*
G37*
G36*
X317400Y273100D02*
X294200D01*
Y272300D01*
X292600D01*
Y271500D01*
Y270700D01*
X291800D01*
Y269900D01*
Y269100D01*
Y268300D01*
Y267500D01*
Y266700D01*
Y265900D01*
X292600D01*
Y265100D01*
Y264300D01*
Y263500D01*
X293400D01*
Y262700D01*
Y261900D01*
X294200D01*
Y261100D01*
X295000D01*
Y260300D01*
X296600D01*
Y259500D01*
X297400D01*
Y258700D01*
X296600D01*
Y257900D01*
X295800D01*
Y257100D01*
X295000D01*
Y256300D01*
Y255500D01*
Y254700D01*
Y253900D01*
Y253100D01*
Y252300D01*
Y251500D01*
X295800D01*
Y250700D01*
Y249900D01*
Y249100D01*
Y248300D01*
Y247500D01*
X296600D01*
Y246700D01*
Y245900D01*
Y245100D01*
Y244300D01*
Y243500D01*
X297400D01*
Y242700D01*
X308600D01*
Y243500D01*
X309400D01*
Y244300D01*
Y245100D01*
X308600D01*
Y245900D01*
Y246700D01*
Y247500D01*
X307800D01*
Y248300D01*
Y249100D01*
Y249900D01*
Y250700D01*
Y251500D01*
X307000D01*
Y252300D01*
Y253100D01*
Y253900D01*
Y254700D01*
Y255500D01*
X309400D01*
Y254700D01*
Y253900D01*
X310200D01*
Y253100D01*
Y252300D01*
Y251500D01*
Y250700D01*
X311000D01*
Y249900D01*
Y249100D01*
X311800D01*
Y248300D01*
Y247500D01*
Y246700D01*
Y245900D01*
Y245100D01*
Y244300D01*
Y243500D01*
X312600D01*
Y242700D01*
X323800D01*
Y243500D01*
Y244300D01*
Y245100D01*
Y245900D01*
Y246700D01*
X323000D01*
Y247500D01*
Y248300D01*
Y249100D01*
Y249900D01*
X322200D01*
Y250700D01*
Y251500D01*
Y252300D01*
Y253100D01*
X321400D01*
Y253900D01*
Y254700D01*
Y255500D01*
Y256300D01*
Y257100D01*
Y257900D01*
X320600D01*
Y258700D01*
Y259500D01*
Y260300D01*
Y261100D01*
X319800D01*
Y261900D01*
Y262700D01*
Y263500D01*
Y264300D01*
Y265100D01*
X319000D01*
Y265900D01*
Y266700D01*
Y267500D01*
X318200D01*
Y268300D01*
Y269100D01*
Y269900D01*
Y270700D01*
Y271500D01*
X317400D01*
Y272300D01*
Y273100D01*
D02*
G37*
G36*
X215800Y273900D02*
X210200D01*
Y273100D01*
X206200D01*
Y272300D01*
Y271500D01*
X205400D01*
Y270700D01*
X206200D01*
Y269900D01*
Y269100D01*
Y268300D01*
Y267500D01*
X207000D01*
Y266700D01*
Y265900D01*
X207800D01*
Y265100D01*
Y264300D01*
Y263500D01*
Y262700D01*
Y261900D01*
X208600D01*
Y261100D01*
Y260300D01*
Y259500D01*
Y258700D01*
X209400D01*
Y257900D01*
Y257100D01*
Y256300D01*
Y255500D01*
Y254700D01*
X210200D01*
Y253900D01*
Y253100D01*
Y252300D01*
Y251500D01*
X211000D01*
Y250700D01*
Y249900D01*
Y249100D01*
Y248300D01*
Y247500D01*
X211800D01*
Y246700D01*
Y245900D01*
Y245100D01*
Y244300D01*
X212600D01*
Y243500D01*
Y242700D01*
X223800D01*
Y243500D01*
Y244300D01*
Y245100D01*
Y245900D01*
Y246700D01*
X223000D01*
Y247500D01*
Y248300D01*
Y249100D01*
Y249900D01*
Y250700D01*
X222200D01*
Y251500D01*
Y252300D01*
Y253100D01*
Y253900D01*
Y254700D01*
X221400D01*
Y255500D01*
Y256300D01*
X224600D01*
Y255500D01*
Y254700D01*
Y253900D01*
Y253100D01*
X225400D01*
Y252300D01*
Y251500D01*
Y250700D01*
Y249900D01*
X226200D01*
Y249100D01*
Y248300D01*
Y247500D01*
Y246700D01*
Y245900D01*
X227000D01*
Y245100D01*
Y244300D01*
Y243500D01*
X227800D01*
Y242700D01*
X238200D01*
Y243500D01*
X239000D01*
Y244300D01*
Y245100D01*
X238200D01*
Y245900D01*
Y246700D01*
Y247500D01*
Y248300D01*
X237400D01*
Y249100D01*
Y249900D01*
Y250700D01*
Y251500D01*
Y252300D01*
Y253100D01*
X236600D01*
Y253900D01*
Y254700D01*
Y255500D01*
Y256300D01*
Y257100D01*
X235800D01*
Y257900D01*
Y258700D01*
Y259500D01*
X235000D01*
Y260300D01*
Y261100D01*
Y261900D01*
Y262700D01*
X234200D01*
Y263500D01*
Y264300D01*
Y265100D01*
Y265900D01*
Y266700D01*
X233400D01*
Y267500D01*
Y268300D01*
Y269100D01*
Y269900D01*
X232600D01*
Y270700D01*
Y271500D01*
Y272300D01*
Y273100D01*
X221400D01*
Y272300D01*
Y271500D01*
Y270700D01*
Y269900D01*
Y269100D01*
X222200D01*
Y268300D01*
Y267500D01*
Y266700D01*
Y265900D01*
Y265100D01*
Y264300D01*
X223000D01*
Y263500D01*
X219800D01*
Y264300D01*
Y265100D01*
Y265900D01*
X219000D01*
Y266700D01*
Y267500D01*
Y268300D01*
X218200D01*
Y269100D01*
Y269900D01*
Y270700D01*
Y271500D01*
Y272300D01*
X217400D01*
Y273100D01*
X215800D01*
Y273900D01*
D02*
G37*
G36*
X309400Y241900D02*
X299000D01*
Y241100D01*
X298200D01*
Y240300D01*
Y239500D01*
X299000D01*
Y238700D01*
Y237900D01*
Y237100D01*
Y236300D01*
Y235500D01*
Y234700D01*
X299800D01*
Y233900D01*
Y233100D01*
Y232300D01*
Y231500D01*
X296600D01*
Y232300D01*
Y233100D01*
Y233900D01*
Y234700D01*
Y235500D01*
X295800D01*
Y236300D01*
Y237100D01*
Y237900D01*
X295000D01*
Y238700D01*
Y239500D01*
Y240300D01*
Y241100D01*
X294200D01*
Y241900D01*
X283800D01*
Y241100D01*
Y240300D01*
Y239500D01*
Y238700D01*
Y237900D01*
Y237100D01*
X284600D01*
Y236300D01*
Y235500D01*
Y234700D01*
Y233900D01*
Y233100D01*
Y232300D01*
X285400D01*
Y231500D01*
Y230700D01*
Y229900D01*
Y229100D01*
Y228300D01*
X286200D01*
Y227500D01*
Y226700D01*
Y225900D01*
Y225100D01*
X287000D01*
Y224300D01*
Y223500D01*
Y222700D01*
Y221900D01*
X287800D01*
Y221100D01*
Y220300D01*
Y219500D01*
Y218700D01*
Y217900D01*
X288600D01*
Y217100D01*
Y216300D01*
Y215500D01*
Y214700D01*
Y213900D01*
X289400D01*
Y213100D01*
Y212300D01*
Y211500D01*
X301400D01*
Y212300D01*
Y213100D01*
X300600D01*
Y213900D01*
Y214700D01*
Y215500D01*
Y216300D01*
Y217100D01*
X299800D01*
Y217900D01*
Y218700D01*
Y219500D01*
Y220300D01*
Y221100D01*
X299000D01*
Y221900D01*
Y222700D01*
Y223500D01*
Y224300D01*
X301400D01*
Y223500D01*
X302200D01*
Y222700D01*
Y221900D01*
Y221100D01*
Y220300D01*
Y219500D01*
X303000D01*
Y218700D01*
Y217900D01*
Y217100D01*
Y216300D01*
X303800D01*
Y215500D01*
Y214700D01*
Y213900D01*
Y213100D01*
Y212300D01*
X304600D01*
Y211500D01*
X315800D01*
Y212300D01*
Y213100D01*
Y213900D01*
Y214700D01*
Y215500D01*
X315000D01*
Y216300D01*
Y217100D01*
Y217900D01*
Y218700D01*
X314200D01*
Y219500D01*
Y220300D01*
Y221100D01*
Y221900D01*
Y222700D01*
X313400D01*
Y223500D01*
Y224300D01*
Y225100D01*
Y225900D01*
Y226700D01*
Y227500D01*
X312600D01*
Y228300D01*
Y229100D01*
Y229900D01*
Y230700D01*
X311800D01*
Y231500D01*
Y232300D01*
Y233100D01*
Y233900D01*
X311000D01*
Y234700D01*
Y235500D01*
Y236300D01*
Y237100D01*
X310200D01*
Y237900D01*
Y238700D01*
Y239500D01*
Y240300D01*
Y241100D01*
X309400D01*
Y241900D01*
D02*
G37*
G36*
X252600D02*
X241400D01*
Y241100D01*
Y240300D01*
Y239500D01*
Y238700D01*
Y237900D01*
X242200D01*
Y237100D01*
Y236300D01*
Y235500D01*
Y234700D01*
Y233900D01*
X243000D01*
Y233100D01*
Y232300D01*
Y231500D01*
Y230700D01*
Y229900D01*
X243800D01*
Y229100D01*
Y228300D01*
Y227500D01*
X244600D01*
Y226700D01*
Y225900D01*
Y225100D01*
Y224300D01*
Y223500D01*
X245400D01*
Y222700D01*
Y221900D01*
X246200D01*
Y221100D01*
Y220300D01*
Y219500D01*
Y218700D01*
X245400D01*
Y217900D01*
X243800D01*
Y218700D01*
X243000D01*
Y219500D01*
Y220300D01*
Y221100D01*
Y221900D01*
X242200D01*
Y222700D01*
Y223500D01*
Y224300D01*
Y225100D01*
Y225900D01*
X241400D01*
Y226700D01*
Y227500D01*
Y228300D01*
Y229100D01*
X240600D01*
Y229900D01*
Y230700D01*
Y231500D01*
Y232300D01*
X239800D01*
Y233100D01*
Y233900D01*
Y234700D01*
Y235500D01*
Y236300D01*
X239000D01*
Y237100D01*
Y237900D01*
Y238700D01*
Y239500D01*
Y240300D01*
X238200D01*
Y241100D01*
Y241900D01*
X226200D01*
Y241100D01*
Y240300D01*
Y239500D01*
X227000D01*
Y238700D01*
Y237900D01*
Y237100D01*
Y236300D01*
X227800D01*
Y235500D01*
Y234700D01*
Y233900D01*
Y233100D01*
Y232300D01*
X228600D01*
Y231500D01*
Y230700D01*
Y229900D01*
Y229100D01*
Y228300D01*
X229400D01*
Y227500D01*
Y226700D01*
Y225900D01*
Y225100D01*
X230200D01*
Y224300D01*
Y223500D01*
Y222700D01*
Y221900D01*
X231000D01*
Y221100D01*
Y220300D01*
Y219500D01*
Y218700D01*
X231800D01*
Y217900D01*
Y217100D01*
Y216300D01*
Y215500D01*
X232600D01*
Y214700D01*
Y213900D01*
X234200D01*
Y213100D01*
X235000D01*
Y212300D01*
X236600D01*
Y211500D01*
X255800D01*
Y212300D01*
X257400D01*
Y213100D01*
X258200D01*
Y213900D01*
Y214700D01*
Y215500D01*
Y216300D01*
Y217100D01*
Y217900D01*
Y218700D01*
Y219500D01*
Y220300D01*
X257400D01*
Y221100D01*
Y221900D01*
Y222700D01*
Y223500D01*
Y224300D01*
X256600D01*
Y225100D01*
Y225900D01*
Y226700D01*
Y227500D01*
Y228300D01*
X255800D01*
Y229100D01*
Y229900D01*
Y230700D01*
Y231500D01*
X255000D01*
Y232300D01*
Y233100D01*
Y233900D01*
Y234700D01*
X254200D01*
Y235500D01*
Y236300D01*
Y237100D01*
Y237900D01*
Y238700D01*
X253400D01*
Y239500D01*
Y240300D01*
Y241100D01*
X252600D01*
Y241900D01*
D02*
G37*
G36*
X254200Y273900D02*
X240600D01*
Y273100D01*
X237400D01*
Y272300D01*
X235800D01*
Y271500D01*
Y270700D01*
X235000D01*
Y269900D01*
Y269100D01*
Y268300D01*
Y267500D01*
Y266700D01*
X235800D01*
Y265900D01*
Y265100D01*
Y264300D01*
X247800D01*
Y265100D01*
Y265900D01*
Y266700D01*
X250200D01*
Y265900D01*
X251000D01*
Y265100D01*
Y264300D01*
X250200D01*
Y263500D01*
X248600D01*
Y262700D01*
X247000D01*
Y261900D01*
X245400D01*
Y261100D01*
X243800D01*
Y260300D01*
X241400D01*
Y259500D01*
X239800D01*
Y258700D01*
X239000D01*
Y257900D01*
X238200D01*
Y257100D01*
Y256300D01*
Y255500D01*
Y254700D01*
Y253900D01*
Y253100D01*
Y252300D01*
X239000D01*
Y251500D01*
Y250700D01*
Y249900D01*
Y249100D01*
Y248300D01*
X239800D01*
Y247500D01*
Y246700D01*
X240600D01*
Y245900D01*
Y245100D01*
X241400D01*
Y244300D01*
X243000D01*
Y243500D01*
X244600D01*
Y242700D01*
X261400D01*
Y241900D01*
X258200D01*
Y241100D01*
X256600D01*
Y240300D01*
X255800D01*
Y239500D01*
Y238700D01*
Y237900D01*
Y237100D01*
Y236300D01*
Y235500D01*
Y234700D01*
Y233900D01*
Y233100D01*
Y232300D01*
X256600D01*
Y231500D01*
Y230700D01*
Y229900D01*
Y229100D01*
X257400D01*
Y228300D01*
Y227500D01*
Y226700D01*
Y225900D01*
X258200D01*
Y225100D01*
Y224300D01*
Y223500D01*
Y222700D01*
X259000D01*
Y221900D01*
Y221100D01*
Y220300D01*
Y219500D01*
Y218700D01*
X259800D01*
Y217900D01*
Y217100D01*
Y216300D01*
X260600D01*
Y215500D01*
Y214700D01*
X261400D01*
Y213900D01*
X262200D01*
Y213100D01*
X263000D01*
Y212300D01*
X264600D01*
Y211500D01*
X285400D01*
Y212300D01*
X286200D01*
Y213100D01*
X287000D01*
Y213900D01*
Y214700D01*
Y215500D01*
Y216300D01*
Y217100D01*
Y217900D01*
Y218700D01*
X286200D01*
Y219500D01*
Y220300D01*
Y221100D01*
Y221900D01*
Y222700D01*
X285400D01*
Y223500D01*
Y224300D01*
Y225100D01*
Y225900D01*
Y226700D01*
X284600D01*
Y227500D01*
Y228300D01*
Y229100D01*
Y229900D01*
X283800D01*
Y230700D01*
Y231500D01*
Y232300D01*
Y233100D01*
X283000D01*
Y233900D01*
Y234700D01*
Y235500D01*
Y236300D01*
X282200D01*
Y237100D01*
Y237900D01*
Y238700D01*
X281400D01*
Y239500D01*
X280600D01*
Y240300D01*
X279000D01*
Y241100D01*
X278200D01*
Y241900D01*
X275000D01*
Y242700D01*
X291000D01*
Y243500D01*
X293400D01*
Y244300D01*
X294200D01*
Y245100D01*
Y245900D01*
Y246700D01*
Y247500D01*
Y248300D01*
Y249100D01*
X295000D01*
Y249900D01*
X294200D01*
Y250700D01*
Y251500D01*
X293400D01*
Y252300D01*
Y253100D01*
Y253900D01*
Y254700D01*
Y255500D01*
X292600D01*
Y256300D01*
Y257100D01*
Y257900D01*
Y258700D01*
Y259500D01*
Y260300D01*
X291800D01*
Y261100D01*
Y261900D01*
Y262700D01*
Y263500D01*
X291000D01*
Y264300D01*
Y265100D01*
Y265900D01*
Y266700D01*
X290200D01*
Y267500D01*
Y268300D01*
Y269100D01*
Y269900D01*
X289400D01*
Y270700D01*
Y271500D01*
Y272300D01*
Y273100D01*
X277400D01*
Y272300D01*
Y271500D01*
X278200D01*
Y270700D01*
Y269900D01*
Y269100D01*
Y268300D01*
Y267500D01*
Y266700D01*
X279000D01*
Y265900D01*
X279800D01*
Y265100D01*
X279000D01*
Y264300D01*
Y263500D01*
X279800D01*
Y262700D01*
Y261900D01*
Y261100D01*
Y260300D01*
X280600D01*
Y259500D01*
Y258700D01*
Y257900D01*
Y257100D01*
Y256300D01*
X281400D01*
Y255500D01*
Y254700D01*
Y253900D01*
Y253100D01*
X282200D01*
Y252300D01*
Y251500D01*
Y250700D01*
X281400D01*
Y249900D01*
X279800D01*
Y250700D01*
X279000D01*
Y251500D01*
Y252300D01*
Y253100D01*
Y253900D01*
X278200D01*
Y254700D01*
Y255500D01*
Y256300D01*
Y257100D01*
Y257900D01*
X277400D01*
Y258700D01*
Y259500D01*
Y260300D01*
X276600D01*
Y261100D01*
Y261900D01*
Y262700D01*
Y263500D01*
Y264300D01*
X275800D01*
Y265100D01*
Y265900D01*
Y266700D01*
Y267500D01*
Y268300D01*
X275000D01*
Y269100D01*
Y269900D01*
Y270700D01*
X274200D01*
Y271500D01*
Y272300D01*
Y273100D01*
X263800D01*
Y272300D01*
X263000D01*
Y271500D01*
Y270700D01*
Y269900D01*
X263800D01*
Y269100D01*
Y268300D01*
Y267500D01*
Y266700D01*
Y265900D01*
X264600D01*
Y265100D01*
Y264300D01*
Y263500D01*
Y262700D01*
Y261900D01*
X265400D01*
Y261100D01*
Y260300D01*
Y259500D01*
Y258700D01*
Y257900D01*
X266200D01*
Y257100D01*
Y256300D01*
Y255500D01*
Y254700D01*
X267000D01*
Y253900D01*
Y253100D01*
Y252300D01*
Y251500D01*
Y250700D01*
X267800D01*
Y249900D01*
Y249100D01*
Y248300D01*
Y247500D01*
X268600D01*
Y246700D01*
Y245900D01*
X269400D01*
Y245100D01*
X270200D01*
Y244300D01*
X271000D01*
Y243500D01*
X273400D01*
Y242700D01*
X263000D01*
Y243500D01*
X264600D01*
Y244300D01*
X265400D01*
Y245100D01*
X266200D01*
Y245900D01*
Y246700D01*
Y247500D01*
X267000D01*
Y248300D01*
X266200D01*
Y249100D01*
Y249900D01*
Y250700D01*
X265400D01*
Y251500D01*
Y252300D01*
Y253100D01*
Y253900D01*
X253400D01*
Y253100D01*
Y252300D01*
Y251500D01*
Y250700D01*
Y249900D01*
X251800D01*
Y250700D01*
X251000D01*
Y251500D01*
Y252300D01*
X250200D01*
Y253100D01*
Y253900D01*
X251000D01*
Y254700D01*
X251800D01*
Y255500D01*
X253400D01*
Y256300D01*
X255000D01*
Y257100D01*
X257400D01*
Y257900D01*
X259000D01*
Y258700D01*
X259800D01*
Y259500D01*
X261400D01*
Y260300D01*
X262200D01*
Y261100D01*
X263000D01*
Y261900D01*
Y262700D01*
Y263500D01*
Y264300D01*
Y265100D01*
Y265900D01*
X262200D01*
Y266700D01*
Y267500D01*
Y268300D01*
X261400D01*
Y269100D01*
Y269900D01*
X260600D01*
Y270700D01*
Y271500D01*
X259800D01*
Y272300D01*
X258200D01*
Y273100D01*
X254200D01*
Y273900D01*
D02*
G37*
G36*
X224600Y241900D02*
X202200D01*
Y241100D01*
X201400D01*
Y240300D01*
X199800D01*
Y239500D01*
Y238700D01*
X199000D01*
Y237900D01*
Y237100D01*
Y236300D01*
Y235500D01*
Y234700D01*
X199800D01*
Y233900D01*
Y233100D01*
Y232300D01*
X200600D01*
Y231500D01*
Y230700D01*
X201400D01*
Y229900D01*
Y229100D01*
X203000D01*
Y228300D01*
X204600D01*
Y227500D01*
Y226700D01*
X203800D01*
Y225900D01*
X203000D01*
Y225100D01*
Y224300D01*
X202200D01*
Y223500D01*
Y222700D01*
Y221900D01*
Y221100D01*
Y220300D01*
X203000D01*
Y219500D01*
Y218700D01*
Y217900D01*
Y217100D01*
Y216300D01*
X203800D01*
Y215500D01*
Y214700D01*
Y213900D01*
Y213100D01*
X204600D01*
Y212300D01*
Y211500D01*
X216600D01*
Y212300D01*
Y213100D01*
Y213900D01*
X215800D01*
Y214700D01*
Y215500D01*
Y216300D01*
Y217100D01*
Y217900D01*
X215000D01*
Y218700D01*
Y219500D01*
Y220300D01*
X214200D01*
Y221100D01*
Y221900D01*
Y222700D01*
Y223500D01*
X215800D01*
Y224300D01*
X216600D01*
Y223500D01*
Y222700D01*
X217400D01*
Y221900D01*
Y221100D01*
Y220300D01*
X218200D01*
Y219500D01*
Y218700D01*
Y217900D01*
Y217100D01*
X219000D01*
Y216300D01*
Y215500D01*
Y214700D01*
Y213900D01*
Y213100D01*
X219800D01*
Y212300D01*
Y211500D01*
X231000D01*
Y212300D01*
Y213100D01*
Y213900D01*
Y214700D01*
X230200D01*
Y215500D01*
Y216300D01*
Y217100D01*
Y217900D01*
Y218700D01*
Y219500D01*
X229400D01*
Y220300D01*
Y221100D01*
Y221900D01*
Y222700D01*
Y223500D01*
X228600D01*
Y224300D01*
Y225100D01*
Y225900D01*
X227800D01*
Y226700D01*
Y227500D01*
Y228300D01*
Y229100D01*
Y229900D01*
X227000D01*
Y230700D01*
Y231500D01*
Y232300D01*
Y233100D01*
Y233900D01*
X226200D01*
Y234700D01*
Y235500D01*
Y236300D01*
Y237100D01*
Y237900D01*
X225400D01*
Y238700D01*
Y239500D01*
Y240300D01*
Y241100D01*
X224600D01*
Y241900D01*
D02*
G37*
%LPD*%
G36*
X307000Y265100D02*
Y264300D01*
Y263500D01*
Y262700D01*
X305400D01*
Y263500D01*
X304600D01*
Y264300D01*
Y265100D01*
Y265900D01*
X307000D01*
Y265100D01*
D02*
G37*
G36*
X271000Y233100D02*
Y232300D01*
Y231500D01*
Y230700D01*
Y229900D01*
X271800D01*
Y229100D01*
Y228300D01*
Y227500D01*
Y226700D01*
X272600D01*
Y225900D01*
Y225100D01*
Y224300D01*
Y223500D01*
Y222700D01*
X273400D01*
Y221900D01*
Y221100D01*
Y220300D01*
Y219500D01*
Y218700D01*
X271800D01*
Y219500D01*
Y220300D01*
Y221100D01*
X271000D01*
Y221900D01*
Y222700D01*
Y223500D01*
Y224300D01*
X270200D01*
Y225100D01*
Y225900D01*
Y226700D01*
Y227500D01*
X269400D01*
Y228300D01*
Y229100D01*
Y229900D01*
Y230700D01*
Y231500D01*
X268600D01*
Y232300D01*
Y233100D01*
Y233900D01*
X271000D01*
Y233100D01*
D02*
G37*
G36*
X215000Y234700D02*
Y233900D01*
Y233100D01*
Y232300D01*
Y231500D01*
X214200D01*
Y230700D01*
X212600D01*
Y231500D01*
X211800D01*
Y232300D01*
Y233100D01*
Y233900D01*
Y234700D01*
X212600D01*
Y235500D01*
X215000D01*
Y234700D01*
D02*
G37*
%LPC*%
G36*
X350500Y250900D02*
X349700D01*
Y250100D01*
X350500D01*
Y250900D01*
D02*
G37*
G36*
X298000Y163400D02*
X294800D01*
Y162600D01*
X295600D01*
Y161800D01*
Y161000D01*
X296400D01*
Y160200D01*
X298000D01*
Y161000D01*
X298800D01*
Y161800D01*
Y162600D01*
X298000D01*
Y163400D01*
D02*
G37*
G36*
X358000D02*
X355600D01*
Y162600D01*
Y161800D01*
Y161000D01*
X357200D01*
Y160200D01*
X358000D01*
Y161000D01*
X359600D01*
Y161800D01*
X358800D01*
Y162600D01*
X358000D01*
Y163400D01*
D02*
G37*
G36*
X327600D02*
X325200D01*
Y162600D01*
Y161800D01*
X326000D01*
Y161000D01*
X326800D01*
Y160200D01*
X328400D01*
Y161000D01*
Y161800D01*
Y162600D01*
X327600D01*
Y163400D01*
D02*
G37*
%LPD*%
M02*
